<?xml version="1.0" encoding="UTF-8" standalone="no"?>
<svg
   id="Layer_1"
   data-name="Layer 1"
   viewBox="0 0 339.78 339.92"
   version="1.1"
   sodipodi:docname="amrhub_square_logo.svg"
   inkscape:version="1.1.2 (0a00cf5339, 2022-02-04)"
   xmlns:inkscape="http://www.inkscape.org/namespaces/inkscape"
   xmlns:sodipodi="http://sodipodi.sourceforge.net/DTD/sodipodi-0.dtd"
   xmlns="http://www.w3.org/2000/svg"
   xmlns:svg="http://www.w3.org/2000/svg"
   xmlns:rdf="http://www.w3.org/1999/02/22-rdf-syntax-ns#"
   xmlns:cc="http://creativecommons.org/ns#"
   xmlns:dc="http://purl.org/dc/elements/1.1/">
  <sodipodi:namedview
     id="namedview128"
     pagecolor="#ffffff"
     bordercolor="#666666"
     borderopacity="1.0"
     inkscape:pageshadow="2"
     inkscape:pageopacity="0.0"
     inkscape:pagecheckerboard="0"
     showgrid="false"
     inkscape:zoom="1.8533772"
     inkscape:cx="164.29467"
     inkscape:cy="169.69023"
     inkscape:window-width="1920"
     inkscape:window-height="1019"
     inkscape:window-x="0"
     inkscape:window-y="0"
     inkscape:window-maximized="1"
     inkscape:current-layer="Layer_1" />
  <defs
     id="defs4">
    <style
       id="style2">.cls-1{fill:#66afff;stroke:#66afff;stroke-miterlimit:10;}.cls-2{fill:#fff;}.cls-3{fill:#005a51;}.cls-4{fill:#eeb422;}.cls-5{fill:#dc3546;}.cls-6{fill:#007aff;}.cls-7{fill:#ff9a66;}.cls-8{fill:#3677a2;}.cls-9{fill:#0c9;}.cls-10{fill:#c3c;}.cls-11{fill:#4653a3;}.cls-12{fill:#4752a2;}.cls-13{fill:#008b8b;}.cls-14{fill:#1995dc;}</style>
  </defs>
  <title
     id="title6">Artboard 2</title>
  <rect
     style="fill:#66afff;fill-opacity:1;stroke:#66afff;stroke-width:1.32842;stroke-miterlimit:4;stroke-dasharray:none;stroke-opacity:1"
     id="rect152"
     width="339.51157"
     height="339.51157"
     x="0.13421631"
     y="0.20422363" />
  <circle
     class="cls-1"
     cx="169.86"
     cy="170"
     r="169.92"
     id="circle8" />
  <path
     class="cls-2"
     d="M105.4,93.48Q120.73,84.66,136,75.81c10.23,5.88,20.43,11.79,30.66,17.67q0,17.68,0,35.36-15.34,8.81-30.66,17.67-15.32-8.84-30.64-17.67Q105.39,111.16,105.4,93.48Z"
     id="path10" />
  <path
     class="cls-3"
     d="M103.57,92.35l32.25-18.62q16.12,9.32,32.25,18.62,0,18.64,0,37.28-16,9.19-31.9,18.41c-.31.28-.65,0-.94-.14-10.55-6.12-21.12-12.18-31.66-18.3Q103.58,111,103.57,92.35Zm3.75,2.18q0,16.46,0,32.92,14.25,8.22,28.5,16.45l28.49-16.44q0-16.46,0-32.93L135.83,78.08Q121.57,86.3,107.32,94.53Z"
     id="path12" />
  <path
     class="cls-3"
     d="M126,92.14a18.07,18.07,0,0,1,11.12-2.89c4.07.17,8.31,1.36,11.32,4.25a13.91,13.91,0,0,1,4.08,9.52,7.88,7.88,0,0,0,1.14,4.5c.84,1.45,2.48,2.36,2.94,4.05a1.23,1.23,0,0,1-.66,1.49,14.43,14.43,0,0,0-2.22,1.5c.34.62.71,1.23,1.09,1.83-.64.38-1.31.69-1.93,1.09a5.35,5.35,0,0,1,1.4,1.8,10.21,10.21,0,0,0-1.23,1.52c-.32,1.2.88,2.25.52,3.47a3,3,0,0,1-2.44,2c-2.69.29-5.35-.18-8-.36-.56,0-1.54-.06-1.57.7-.13,1.5,0,3-.1,4.53-5.58.06-11.15.08-16.73.1.36-3.16.89-6.3,1.2-9.47-.52-3.34-2.7-6-4.53-8.75a10,10,0,0,1-2.2-5.48,21.23,21.23,0,0,1,.43-6.77A15.42,15.42,0,0,1,126,92.14Zm3.55,2c-.06.27-.11.54-.15.81l-1.14.51-.74-.61a3.59,3.59,0,0,0-.65.83l.59.58L127,97.44a3.38,3.38,0,0,0-.94.29,4.15,4.15,0,0,0-.08.91l1,.12q.32.7.66,1.4l-.59.7a4,4,0,0,0,.82.73l.59-.66,1,.38c0,.29.06.58.09.87a5.18,5.18,0,0,0,1,0,8.4,8.4,0,0,0,.21-.89l1.17-.5.75.59a.81.81,0,0,0,.13-1.47l.48-1.2.89,0a3.17,3.17,0,0,0,.09-.83c-.15-.44-.71-.32-1.06-.45a3.41,3.41,0,0,1-.26-1c.18-.24.37-.48.56-.72a4.27,4.27,0,0,0-.65-.61,4.62,4.62,0,0,0-.8.48L130.7,95c-.05-.32-.1-.63-.16-1A2.52,2.52,0,0,0,129.55,94.17Zm8.73,1.94c-.52.44,0,1.06.12,1.58a17.36,17.36,0,0,0-1.32,1.42c-.62-.28-1.64-.53-1.81.42s.61,1,1.16,1.28c0,.66,0,1.31.06,2-.41.27-1.07.38-1.15,1a1.36,1.36,0,0,0,.42.89c.45.43,1-.09,1.48-.19a12.52,12.52,0,0,0,1.71,1.48,7.46,7.46,0,0,0-.26,1.07,1,1,0,0,0,1.47.56,4.87,4.87,0,0,0,.55-1.11l1.63-.1c.26.57.66,1.48,1.44,1,.87-.27.5-1.21.22-1.8a17.39,17.39,0,0,0,1.33-1.42,3.79,3.79,0,0,0,1.27.27,1.25,1.25,0,0,0,.59-1.17c-.19-.5-.78-.59-1.21-.81,0-.66,0-1.31-.06-2a4.15,4.15,0,0,0,1.06-.66,1.08,1.08,0,0,0-.27-1.14c-.43-.48-1.06,0-1.55.13-.37-.38-.75-.75-1.13-1.11.16-.6.61-1.53-.23-1.83-.78-.48-1.25.41-1.45,1a15.32,15.32,0,0,0-2.27,0,3.2,3.2,0,0,0-.73-1.1A1.14,1.14,0,0,0,138.28,96.11ZM130,103.88a7.14,7.14,0,0,0-.13,1l-1.37.63c-.35-.42-1-1-1.44-.28-.48.5.15,1,.45,1.33l-.58,1.43c-.54.05-1.37.06-1.39.8s.78,1,1.4,1c.24.54.49,1.08.75,1.61q-.36.44-.7.89c.22.23.38.55.68.7.51.18.78-.38,1.12-.64l1.14.47c0,.38,0,.76.06,1.13a1.6,1.6,0,0,0,1.48-.08,4.74,4.74,0,0,0,.17-1.08l1.51-.6c.39.36,1,.92,1.47.32s-.07-1.06-.31-1.5l.53-1.29c.59,0,1.52-.08,1.39-.92s-.85-.77-1.41-.82l-.48-1.19c.23-.32.64-.57.68-1s-.51-.61-.83-.84l-.84.7a9.72,9.72,0,0,0-1.74-.79c-.11-.4.06-1-.45-1.17A1.41,1.41,0,0,0,130,103.88Z"
     id="path14" />
  <path
     class="cls-3"
     d="M129.44,96.55a1.74,1.74,0,1,1-.36,3A1.75,1.75,0,0,1,129.44,96.55Z"
     id="path16" />
  <path
     class="cls-3"
     d="M140.48,99.16a2.58,2.58,0,1,1-.94,4.43A2.59,2.59,0,0,1,140.48,99.16Z"
     id="path18" />
  <path
     class="cls-3"
     d="M130,106.87a2.16,2.16,0,1,1,.64,4.1,2.16,2.16,0,0,1-.64-4.1Z"
     id="path20" />
  <path
     class="cls-2"
     d="M71.42,152.38q15.33-8.82,30.64-17.67c10.23,5.88,20.43,11.79,30.66,17.67q0,17.68,0,35.36-15.34,8.81-30.66,17.67-15.32-8.84-30.64-17.67Q71.41,170.06,71.42,152.38Z"
     id="path22" />
  <path
     class="cls-4"
     d="M100.05,133.72a6.33,6.33,0,0,1,2-1,22.48,22.48,0,0,1,2.43,1.34c9.91,5.7,19.79,11.46,29.72,17.13q0,18.66,0,37.32L102.3,207a.56.56,0,0,1-.71,0l-31.9-18.42c0-12.44,0-24.89,0-37.33C79.85,145.43,89.94,139.55,100.05,133.72Zm.23,4.21q-13.41,7.76-26.84,15.51,0,16.46,0,32.91,13.86,8,27.73,16c.36.2.8.49,1.19.18l28.07-16.21q0-16.45,0-32.91l-27-15.58a7.46,7.46,0,0,0-1.57-.81A15.36,15.36,0,0,0,100.28,137.94Z"
     id="path24" />
  <path
     class="cls-4"
     d="M98.19,147.91a21.88,21.88,0,0,1,24.66,26.57,21.88,21.88,0,1,1-24.66-26.57Zm1.25,4a17.88,17.88,0,0,0-11.7,6.49,17.75,17.75,0,0,0,.41,22.73,17.68,17.68,0,0,0,22.76,3.43,17.73,17.73,0,0,0-11.48-32.65Z"
     id="path26" />
  <path
     class="cls-4"
     d="M98.94,152.91a16.82,16.82,0,0,1,18.4,22.32A16.81,16.81,0,0,1,89.27,181a16.81,16.81,0,0,1-1.52-21.14A17,17,0,0,1,98.94,152.91Zm3.18,6.25a1.64,1.64,0,0,0,2,.12l.36-.79c.36.44.7,1.05,1.36,1.06a10.71,10.71,0,0,0,1.06-.33,1.94,1.94,0,0,0,1.55,1.59c0,.59-.27,1.35.26,1.8s1.17.26,1.75.22a1.73,1.73,0,0,0,1.76,1.83,2.23,2.23,0,0,0,.78,1.93,2.75,2.75,0,0,0-1.16,1.52,5.16,5.16,0,0,0-1.59-.32c0-.59.09-1.35-.5-1.72s-1-.16-1.56-.11c0-.86-.59-1.9-1.6-1.74a1.4,1.4,0,0,0-.49,2.54,3.63,3.63,0,0,0,1.43.06c.12.43.1,1,.46,1.28s1,.35,1.5.45c-.12.86.31,2,1.33,1.91.84.08,1.21-.78,1.46-1.42a8.24,8.24,0,0,0,1.06.3,1.34,1.34,0,0,0,1.3-1.62,4.7,4.7,0,0,0-.77-1.08c.71-.31,1.38-1.08,1-1.88-.24-.71-1-.8-1.66-.87,0-.6.08-1.33-.46-1.74s-1.11-.19-1.66-.1a1.89,1.89,0,0,0-1.51-1.93c.14-.6.27-1.35-.3-1.78s-1.32-.25-1.91,0c-.2-.63-.44-1.43-1.23-1.5s-1.12.45-1.56.85c-.5-.38-1-1-1.72-.78A1.38,1.38,0,0,0,102.12,159.17Zm-8.42,2a9.83,9.83,0,0,0-2.25,5.36c-.07.72.13,1.44,0,2.15a7,7,0,0,0-1.28,1.66c-.4,1.15.19,2.48-.52,3.55-.14.31-.51.68-.13,1,.73.16,1.17-.71,1.35-1.29.21-1.32-.22-2.85.83-3.91a12.2,12.2,0,0,0-.25,1.59c0,.78.39,1.49.48,2.26-.05.57-.27,1.12-.32,1.69.13.3.51.13.76.21,1.14-1.59-.17-3.37.07-5.08.17.52.28,1.05.48,1.55.39.75,1.1,1.28,1.44,2.06a7.75,7.75,0,0,1,.19,1.62c.27-.19.89-.09.86-.53.27-1.28-.71-2.28-1.44-3.18-.56-.56-.34-1.4-.31-2.09a6.84,6.84,0,0,0,2.81-2.55,8.65,8.65,0,0,0,1.45-6.05,1.72,1.72,0,0,0-1.83-1.54A4.27,4.27,0,0,0,93.71,161.13Zm8.91,4.59c-.08.59.39,1,.67,1.5-.58.44-1.21,1.09-.85,1.89s1.29.9,2,.69c.1.64.13,1.47.86,1.72a1.38,1.38,0,0,0,1.78-1.79c-.32-.82-1.31-.87-2-.65a3.26,3.26,0,0,0-.7-1.78,13.82,13.82,0,0,0,1.07-1.22c-.25-.47-.33-1.12-.86-1.37A1.37,1.37,0,0,0,102.62,165.73Zm-3.69,7.87c-.42.64-.3,1.47-.66,2.14s-1.31,1.15-1.58,2a2.5,2.5,0,0,0,1.86,2.84c1-.09,2-.64,3-.28a4.61,4.61,0,0,1,2.36,1.63c1.16,1.3,4,.45,3.83-1.44,0-.76-.23-1.66.31-2.3s1.36-.58,2.06-.5,1,.87,1.58.64a.91.91,0,0,0-.19-1c-.74-.75-1.91-.55-2.86-.74a5.29,5.29,0,0,1,1.56-1,7.94,7.94,0,0,1,1.81,0c-.07-.27.13-.69-.21-.82-1.11-.59-2.26.22-3.28.62-.57,0-1.08-.5-1.67-.35-.83.21-1.71.75-2.56.28-1-.36-1.16-1.69-2.11-2.18A2.63,2.63,0,0,0,98.93,173.59Z"
     id="path28" />
  <path
     class="cls-4"
     d="M94.12,165.27A1.39,1.39,0,0,1,96,166.68a1.41,1.41,0,0,1-2.46.79A1.44,1.44,0,0,1,94.12,165.27Z"
     id="path30" />
  <path
     class="cls-4"
     d="M100.15,175.1a1.4,1.4,0,0,1,2.08,1.41,1.43,1.43,0,0,1-2.31.85A1.45,1.45,0,0,1,100.15,175.1Z"
     id="path32" />
  <path
     class="cls-2"
     d="M138.92,152.38q15.33-8.82,30.64-17.67c10.23,5.88,20.43,11.79,30.66,17.67q0,17.68,0,35.36-15.34,8.81-30.66,17.67-15.32-8.84-30.64-17.67Q138.91,170.06,138.92,152.38Z"
     id="path34" />
  <path
     class="cls-5"
     d="M137.56,151.25l32.26-18.62q16.11,9.33,32.24,18.63c0,12.44,0,24.87,0,37.31-10.76,6.17-21.48,12.4-32.23,18.59q-16.14-9.29-32.26-18.62Q137.57,169.9,137.56,151.25Zm3.75,2.19q0,16.45,0,32.89c9.49,5.52,19,11,28.51,16.47q14.24-8.22,28.48-16.44,0-16.48,0-33c-9.51-5.45-19-11-28.47-16.42Q155.56,145.2,141.31,153.44Z"
     id="path36" />
  <path
     class="cls-5"
     d="M171.24,152.41a9.2,9.2,0,0,1,10.34,4.39,9.1,9.1,0,0,1,.14,8.54,15,15,0,0,1-2,2.73c-5.06,6-10.1,12.07-15.18,18.07a9.06,9.06,0,0,1-10.82,2,9.26,9.26,0,0,1-4.63-5.59,9,9,0,0,1,1.67-8.2q7.9-9.46,15.83-18.89A9.19,9.19,0,0,1,171.24,152.41Zm-3.37,5.07q-7.66,9.1-15.29,18.23a6.69,6.69,0,0,0-1.21,6.56,7,7,0,0,0,7,4.59,6.82,6.82,0,0,0,4.7-2.47c2.61-3.12,5.25-6.22,7.83-9.37-3.15-2.59-6.25-5.24-9.38-7.84,2.42-3,4.95-5.93,7.42-8.9a9.41,9.41,0,0,1,7.85-3A8.14,8.14,0,0,0,167.87,157.48Z"
     id="path38" />
  <path
     class="cls-5"
     d="M168.14,183.78c3.69-4.26,7.25-8.65,10.91-12.94A9,9,0,1,1,169.91,186,8.78,8.78,0,0,1,168.14,183.78Zm10.39-8.37c-2.71,3.31-5.58,6.49-8.19,9.88.86-.9,1.61-1.89,2.42-2.83,2.7-3.27,5.49-6.46,8.14-9.77A35.5,35.5,0,0,0,178.54,175.4Zm2.87-2.17c-3.49,4.08-7,8.19-10.34,12.35,1.57-1.65,2.95-3.48,4.45-5.2C177.45,178,179.55,175.7,181.4,173.23Zm2.64,5.94a15,15,0,0,1-.88,3,9.53,9.53,0,0,1-5.83,5,8,8,0,0,0,5.11-3.2A8.92,8.92,0,0,0,184,179.17Z"
     id="path40" />
  <path
     class="cls-5"
     d="M161,182.88c2.24-2.58,4.4-5.22,6.6-7.83l1,.86q-3.19,3.86-6.43,7.67a6.74,6.74,0,0,1-7.8,1.54C156.8,185.25,159.38,184.74,161,182.88Z"
     id="path42" />
  <path
     class="cls-2"
     d="M206.95,152q15.33-8.82,30.64-17.67C247.81,140.18,258,146.1,268.24,152q0,17.68,0,35.36Q252.9,196.15,237.58,205q-15.32-8.84-30.64-17.67Q206.94,169.65,206.95,152Z"
     id="path44" />
  <path
     class="cls-6"
     d="M205.31,151.26l32.28-18.64,32.24,18.62q0,17.5,0,35c-.06.76.19,1.66-.14,2.33-10.68,6.22-21.41,12.37-32.11,18.56L205.32,188.5Q205.3,169.88,205.31,151.26Zm31.77-14q-14,8.11-28,16.19,0,16.44,0,32.87c2.23,1.31,4.49,2.58,6.72,3.9a39.71,39.71,0,0,1,.58-6.22,26.53,26.53,0,0,1,1.82-6.94,6.19,6.19,0,0,1,3.14-2.86,19.34,19.34,0,0,1,5-1.69,24.4,24.4,0,0,0-.3,13.11,18.93,18.93,0,0,1,.78,3.1,2.84,2.84,0,0,0-.47,2,2.37,2.37,0,0,0,3.25,1.7,2.3,2.3,0,0,0,1.06-3.46,2.88,2.88,0,0,0-2.23-1.16,18.08,18.08,0,0,1-1.23-5.07,22.5,22.5,0,0,1,.75-9.92c.31-1.27,1.8-1.34,2.84-1.63a34.46,34.46,0,0,0,4.2,9.44c.21-1.22.45-2.44.68-3.66a3.36,3.36,0,0,0-.5-2.11,16.8,16.8,0,0,1,2.09-1.65c.61.57,1.22,1.13,1.86,1.66a3.66,3.66,0,0,0-.46,1.87c.13,1.29.48,2.54.63,3.83a39.55,39.55,0,0,0,4.31-9.39c1.1.25,2.14.69,3.24.95a12.89,12.89,0,0,1-.16,5.64,6.72,6.72,0,0,0-2.41.39,5.52,5.52,0,0,0-2.89,3.36c-.67,2-1.56,4-2.12,6.06a4.39,4.39,0,0,0,0,3.23,2.61,2.61,0,0,0,2.56,1.32c.54-.12.47-.78.31-1.17-.36-.56-1.45-.43-1.46-1.24a11.58,11.58,0,0,1,1.28-5.07c.42-1,.69-2,1.09-3a3.65,3.65,0,0,1,3.54-2.29,3.43,3.43,0,0,1,3.14,2.66,14.92,14.92,0,0,1-.16,3.71c-.17,1.86-.11,3.82-.92,5.55-.44,1-1.71.33-2.39.9,0,.39-.18.89.27,1.11,1.11.34,2.66.36,3.3-.81,1.2-2,1.13-4.49,1.31-6.77.06-1.59.55-3.24,0-4.79a6.09,6.09,0,0,0-2.87-2.86,15.63,15.63,0,0,0,.3-5.44,19.15,19.15,0,0,1,5.5,2.17,5.57,5.57,0,0,1,2.32,2.88,32.37,32.37,0,0,1,1.41,5.35c.46,2.45.49,5,1.26,7.37,2.35-1.34,4.67-2.72,7-4,0-.71.05-1.42,0-2.13,0-10.29,0-20.58-.05-30.87-9.39-5.36-18.74-10.82-28.12-16.2C237.65,136.92,237.35,137.08,237.08,137.25Z"
     id="path46" />
  <path
     class="cls-6"
     d="M233,146.65a19.66,19.66,0,0,1,6.86-.47c4.22.4,7,3,7.12,7,0,3.17.16,6.48-1.14,9.45a11.59,11.59,0,0,1-5.62,6.12,6.83,6.83,0,0,1-6.84-.56,13.68,13.68,0,0,1-4-5.28,22.45,22.45,0,0,1-1.9-8.47,8.26,8.26,0,0,1,1.34-5.07A7,7,0,0,1,233,146.65Z"
     id="path48" />
  <path
     class="cls-2"
     d="M173.32,211.57q15.33-8.82,30.64-17.67c10.23,5.88,20.43,11.79,30.66,17.67q0,17.68,0,35.36-15.34,8.81-30.66,17.67-15.32-8.84-30.64-17.67Q173.31,229.24,173.32,211.57Z"
     id="path50" />
  <path
     class="cls-7"
     d="M171.56,210.45c10.77-6.21,21.52-12.47,32.32-18.63q16.08,9.32,32.19,18.58c0,12.44,0,24.88,0,37.31l-30.25,17.47a14.73,14.73,0,0,1-2,1.06A11.74,11.74,0,0,1,201.6,265q-15-8.66-30-17.32C171.54,235.3,171.58,222.88,171.56,210.45ZM202.4,197c-9,5.23-18.07,10.42-27.09,15.66q0,16.43,0,32.87c9.52,5.48,19,11,28.55,16.47q14.22-8.24,28.46-16.43.05-16.48,0-33c-9.37-5.39-18.7-10.81-28.07-16.19C203.61,196,203,196.73,202.4,197Z"
     id="path52" />
  <path
     class="cls-7"
     d="M195,208.38c7.54-.12,15.11,0,22.67-.07a3.35,3.35,0,0,1,3.08,1.82,4.18,4.18,0,0,1,.11,3.29q-3.54,11.65-7.06,23.3a9.63,9.63,0,0,1-1.77,3.64c-1.08.9-2.57.83-3.89.84-7.08,0-14.16,0-21.25,0-.61,0-1.48,0-1.59.78a2.29,2.29,0,0,0,1.34,2,6,6,0,0,0,2.75.45h23.26a2.39,2.39,0,0,0,2.56-1.63q3.62-11.92,7.25-23.83a10.69,10.69,0,0,0,.6-2.8,3.44,3.44,0,0,1,2,4.3c-2.3,7.65-4.64,15.29-6.95,22.94a5.61,5.61,0,0,1-5.43,4.37q-11.63,0-23.26,0a7.17,7.17,0,0,1-6.91-5.52c-.38-1.44.41-2.83.3-4.27,0-.56-.2-1.19.22-1.65a16.83,16.83,0,0,0,2.54-5.25c.3-.88-.13-1.94.53-2.68a13.65,13.65,0,0,0,2-4.3,10.18,10.18,0,0,0,.16-2.57c.39-.73,1.13-1.22,1.51-2a15.45,15.45,0,0,0,1.26-3.19,12.24,12.24,0,0,0,.06-2.28,17.83,17.83,0,0,0,1.65-2.55C193.22,210.37,193.65,208.86,195,208.38Zm2.25,9.74c5.13.07,10.27,0,15.41,0,.55,0,1.29.07,1.61-.51a7.21,7.21,0,0,0,.77-2.42c-.28-.36-.74-.31-1.14-.32-4.91,0-9.82,0-14.73,0C197.55,214.8,197.27,216.9,197.26,218.12Zm-1.42,3.8a8,8,0,0,0-.8,2.37c.09.56.72.39,1.13.45,4.83,0,9.66,0,14.5,0,.52,0,1.2,0,1.49-.54a6.19,6.19,0,0,0,.72-2.64,28.68,28.68,0,0,0-4-.12h-11.5C196.87,221.49,196.18,221.41,195.84,221.92Z"
     id="path54" />
  <path
     class="cls-2"
     d="M37.25,93.3q15.33-8.82,30.64-17.67C78.12,81.5,88.32,87.42,98.55,93.29q0,17.68,0,35.36-15.34,8.81-30.66,17.67-15.32-8.84-30.64-17.67Q37.25,111,37.25,93.3Z"
     id="path56" />
  <path
     class="cls-8"
     d="M35.94,92.6Q52,83.28,68.17,74l32.2,18.59q0,18.59,0,37.17l-32.2,18.59L36.59,130.11c-.22-.14-.44-.28-.65-.44Zm3.63,2.05q0,16.52,0,33,14.3,8.24,28.59,16.5,14.31-8.27,28.63-16.54c0-11,0-22,0-33-9.55-5.47-19.07-11-28.61-16.5Z"
     id="path58" />
  <path
     class="cls-8"
     d="M62.08,88.56a16.41,16.41,0,1,1-12.88,9A16.46,16.46,0,0,1,62.08,88.56Zm-.42,2.35A14.16,14.16,0,0,0,64.18,119a14.39,14.39,0,0,0,7.56-2.38,14.22,14.22,0,0,0,5.78-7.94A14.16,14.16,0,0,0,61.67,90.91Z"
     id="path60" />
  <path
     class="cls-8"
     d="M66.78,93.63c.06-.38,0-.77.07-1.15a13.14,13.14,0,0,1,3,1.1,9.9,9.9,0,0,1-4.42,8.35c-1-.48-1.87-1.08-2.81-1.6,1.84-1.25,3.58-2.93,4-5.19-2.66,0-5.33,0-8,0-.81-.05-.8-1.43,0-1.45C61.34,93.61,64.06,93.65,66.78,93.63Z"
     id="path62" />
  <path
     class="cls-8"
     d="M53.7,97.23a15.17,15.17,0,0,1,1.87-2c.18.43.34.87.5,1.32,2.3.07,4.61,0,6.92,0a1.34,1.34,0,0,1,.84.37c0,.42-.08,1.08-.64,1.09-2,.08-4-.07-6,.09,1.87,2.22,4.63,3.33,7,4.83,2.24,1.32,4.43,3.11,5.22,5.69a9.44,9.44,0,0,1-.86,7.6,1.66,1.66,0,0,1-.94.85,12.83,12.83,0,0,1-5,.46,11.84,11.84,0,0,0,3.22-2.84,5.51,5.51,0,0,0,.94-2.44c-2.59,0-5.18,0-7.78,0a.77.77,0,0,1-.87-.78.79.79,0,0,1,.89-.75c2.59,0,5.17,0,7.75,0A7,7,0,0,0,63.3,106c-2.55-1.69-5.45-2.88-7.71-5a9,9,0,0,1-2.21-3C53.26,97.67,53.59,97.46,53.7,97.23Z"
     id="path64" />
  <path
     class="cls-8"
     d="M52.5,110.51a8.54,8.54,0,0,1,4.3-6.69c.92.59,1.88,1.14,2.82,1.69a13.53,13.53,0,0,0-2.75,2.22c1.9.13,3.81.07,5.71.06.4,0,.93-.1,1.21.29a.77.77,0,0,1-.6,1.24c-2.45.07-4.9,0-7.36,0a6.18,6.18,0,0,0,0,4.32c2.53,0,5.06,0,7.58,0a.77.77,0,0,1,.15,1.49c-1.51.07-3,0-4.53,0a6.66,6.66,0,0,0-2.35.2A12,12,0,0,1,52.5,110.51Z"
     id="path66" />
  <path
     class="cls-8"
     d="M76.79,116a.76.76,0,0,1,1.16.87,9.68,9.68,0,0,1-1.36,1.5c-.32.27-.62.71-1.09.65a.75.75,0,0,1-.49-1.25C75.58,117.13,76.17,116.53,76.79,116Z"
     id="path68" />
  <path
     class="cls-8"
     d="M78.58,117.76a2.66,2.66,0,0,1,2.63.74l7.06,7.06a2.65,2.65,0,0,1,.76,2.63,2.61,2.61,0,0,1-3,1.89,2.82,2.82,0,0,1-1.6-.91c-2.36-2.4-4.78-4.75-7.13-7.16A2.63,2.63,0,0,1,78.58,117.76Z"
     id="path70" />
  <path
     class="cls-8"
     d="M54.76,123a12.49,12.49,0,0,1,1.86-1.74,21,21,0,0,0,3.62,1.14c-2,1.27-4,2.94-4.56,5.32,2.54,0,5.08,0,7.62,0,.85.1.73,1.5-.11,1.5-2.58,0-5.16,0-7.74,0,0,.29,0,.59,0,.88-1,0-2,.08-3,.06A10.11,10.11,0,0,1,54.76,123Z"
     id="path72" />
  <path
     class="cls-8"
     d="M62.55,122.71a24.13,24.13,0,0,0,3.64-.12,2.72,2.72,0,0,1,.93,0,10,10,0,0,1,2.68,7.61c-1,0-2,0-3-.08a9.62,9.62,0,0,0-.66-3.55c-2.38-.24-4.78,0-7.17-.12a.75.75,0,0,1-.44-1.26c.2-.25.55-.24.84-.26,1.88,0,3.76,0,5.64,0A11.09,11.09,0,0,0,62.55,122.71Z"
     id="path74" />
  <path
     class="cls-2"
     d="M104.79,211.71q15.33-8.82,30.64-17.67c10.23,5.88,20.43,11.79,30.66,17.67q0,17.68,0,35.36-15.34,8.81-30.66,17.67-15.32-8.84-30.64-17.67Q104.78,229.39,104.79,211.71Z"
     id="path76" />
  <path
     class="cls-9"
     d="M128.23,208a22.37,22.37,0,0,1,11.15-.91,22.29,22.29,0,0,1,17.24,14.67,22.39,22.39,0,0,1,.78,11.69,22.13,22.13,0,0,1-3.65,8.46,22.27,22.27,0,0,1-17.82,9.41h-.71a22.3,22.3,0,0,1-20.73-15.07,22.59,22.59,0,0,1-1.2-6.85v-.72a23.14,23.14,0,0,1,.53-4.47A22.31,22.31,0,0,1,128.23,208Zm6.25.34a20.61,20.61,0,0,0-10.11,3.25,7,7,0,0,1,.55,1.36c0,.46-.39.78-.45,1.22.15.35.43.62.56,1a1.45,1.45,0,0,1,0,1.38,1.56,1.56,0,0,0-.72-.23c-.48,0-.83.45-1.31.48s-.85,0-1.08.41-.08,1.12-.28,1.66a.84.84,0,0,1-.66.57,12.06,12.06,0,0,0-1.9.17c-.41.22-.46.74-.76,1.06-.52.34-1.21.33-1.7.74a2.24,2.24,0,0,0-.68.8,20.84,20.84,0,0,0-1.13,8,5.57,5.57,0,0,0,.2,1.08,1.23,1.23,0,0,0,1.27.9.91.91,0,0,1,.9.43c.29.35,0,.84.25,1.21s.48.46.73.67.41.77.84.91.73-.21,1.12-.24a3.27,3.27,0,0,1,.75.39,2.43,2.43,0,0,1,1.22,1.28c.34,1.11-.11,2.26,0,3.39a6.55,6.55,0,0,0,.38,1.22.78.78,0,0,1-.26.7,5.47,5.47,0,0,0-.55.85.89.89,0,0,0-.15.8c.13.35.52.48.77.72a1.36,1.36,0,0,1,0,.58,20.74,20.74,0,0,0,27.2-.71,3.36,3.36,0,0,1,.16-1c.12-.35.35-.65.46-1a3.29,3.29,0,0,1,.17-.71c.16-.18.42-.17.63-.23a2.13,2.13,0,0,0,1.16-.59c.33-.34.84-.55,1-1a9.09,9.09,0,0,0,.06-1.92,1.93,1.93,0,0,1,.85-1.6c.23-.16.54-.06.78-.19s.19-.6.5-.75a20.41,20.41,0,0,0,.93-7.24c-.17.22-.43.41-.43.71s-.18.63-.2,1a10.66,10.66,0,0,0,.22,1.22,1.92,1.92,0,0,1-.53,1.1c-.18-.11-.43-.2-.48-.44s.07-.55,0-.83c-.25-.26-.63-.42-.75-.79a3.72,3.72,0,0,1,0-1.14,3.26,3.26,0,0,0-.6-2.12c-.25-.34-.7-.34-1.07-.4a2.73,2.73,0,0,1-1-.39,7.08,7.08,0,0,0-.66,2,2.43,2.43,0,0,1-1.71,1.54c-.6.15-1.23.11-1.81.31a3.51,3.51,0,0,0-1.14-1.55,3.44,3.44,0,0,1-1.13-2.27c-.07-.23,0-.53-.26-.67a6,6,0,0,0,.14,2.79c.18.55.62,1,.76,1.54s.73.66,1.18.77c.74.22,1.54-.16,2.26.13a.6.6,0,0,1,.42.59c0,.26-.26.44-.32.69s.4.47.28.78c-.28.85-1.21,1.2-1.74,1.87-.44.48-.6,1.18-1.15,1.55-.29.21-.7.26-.87.61a3.11,3.11,0,0,0-.18,2.05,2.55,2.55,0,0,0,1.56.4,2.16,2.16,0,0,1,.86,0c.15.34,0,.71-.11,1.06a6.42,6.42,0,0,1-.49,1.79c-.28.19-.67.08-1,.27a1.06,1.06,0,0,0-.32.47,1.46,1.46,0,0,1-1.26-.28c-.34-.4-.46-.94-.84-1.32a5.87,5.87,0,0,1-1.17,2.53,3.08,3.08,0,0,1-1.9,1.28,4.16,4.16,0,0,0-1.54.4c-.33.21-.42.61-.56.94a3.17,3.17,0,0,1-1.83-1.93c-.28-.65-.14-1.39-.39-2a6.36,6.36,0,0,1-.43-1.27c0-.47.23-.92.24-1.4a4,4,0,0,0-.51-2.21c-.17-.34-.52-.52-.78-.79a2.91,2.91,0,0,1-.72-1.2,6.75,6.75,0,0,0-1.09-2.14,1.22,1.22,0,0,0-1.21-.37,11.91,11.91,0,0,1-1.57.33,11,11,0,0,1-3.14-.47,2.48,2.48,0,0,1-1.41-.81,1.2,1.2,0,0,1-.33-.71c.07-.29.38-.47.39-.78,0-.5-.27-1-.1-1.49s-.1-.87,0-1.3a3.21,3.21,0,0,1,.34-.77,9.55,9.55,0,0,1,.33-1.4c.19-.41.69-.55.9-.95s.28-.84.64-1.1a3,3,0,0,0,1.47-.53.4.4,0,0,0,.07-.57c-.34-.32-.87-.24-1.23-.51a7.56,7.56,0,0,0,.19-1.3,3.82,3.82,0,0,1,0-1.15c.09-.22.36-.15.54-.12.37.08.81.24,1.13,0a7.79,7.79,0,0,0,.89-1,2.28,2.28,0,0,1-1-.46c-.17-.14-.3-.38-.54-.36s-.59.13-.89.16a3.39,3.39,0,0,1,.52-1.71,6.31,6.31,0,0,1,2.14-1.51,3.87,3.87,0,0,1,.59,1.36,1,1,0,0,0,.16.52,9.56,9.56,0,0,0,1.26,1c.28-.7.61-1.37.94-2a2,2,0,0,0,.19-1.45,2.23,2.23,0,0,1,1.8-2.64c.49.09.89.45,1.4.5.91-.18,1.7-.76,2.61-.94a1,1,0,0,1,.78.08c.09.31-.07.65.08.95a1.91,1.91,0,0,0,1,.81,2.38,2.38,0,0,0,1.33.35,4.61,4.61,0,0,0,2.22-1.2,11.78,11.78,0,0,0-3.17-2A20.63,20.63,0,0,0,134.49,208.38ZM146,212.65a5.07,5.07,0,0,1-1.14.59c.1.56-.43,1-.7,1.4a4.71,4.71,0,0,1,1.74-1,5.49,5.49,0,0,1,2.46,0c-.46-.31-.93-.61-1.41-.9A.9.9,0,0,0,146,212.65Zm-9.11.56c.16.36.41.77.2,1.17a3,3,0,0,1-1.69,1.11l0,.06a10.5,10.5,0,0,1,1.39-.34.53.53,0,0,1,.43.1,7.07,7.07,0,0,0,1.27-.43c.27-.14.25-.47.24-.73A14.36,14.36,0,0,0,136.89,213.21Zm-2.28,6.95a3.25,3.25,0,0,1-1.36.08c-.19.19-.36.39-.54.6a2.68,2.68,0,0,0,1.51.4,1.79,1.79,0,0,1,1.38.31,13,13,0,0,0,1,1.4.81.81,0,0,0,.71.22,8.25,8.25,0,0,1,2.37-.38,1.1,1.1,0,0,1,1,.56,2.63,2.63,0,0,0,1.09,1.28.85.85,0,0,0,1-.14,2.45,2.45,0,0,0,.58-1.45,5.62,5.62,0,0,0-1.19-.8,5.42,5.42,0,0,0-1.31-.29,12.54,12.54,0,0,1-1.74-.37,11.12,11.12,0,0,0-1.12-.37,2.38,2.38,0,0,0-.71.07c-.29-.3-.45-.72-.83-.92s-.64-.26-.94-.43S134.89,220,134.61,220.16Z"
     id="path78" />
  <path
     class="cls-9"
     d="M133.68,192.88a6.33,6.33,0,0,1,2-1,22.48,22.48,0,0,1,2.43,1.34c9.91,5.7,19.79,11.46,29.72,17.13q0,18.66,0,37.32l-31.88,18.41a.56.56,0,0,1-.71,0l-31.9-18.42c0-12.44,0-24.89,0-37.33C113.48,204.58,123.57,198.71,133.68,192.88Zm.23,4.22q-13.41,7.76-26.84,15.51,0,16.45,0,32.91,13.86,8,27.73,16c.36.2.8.49,1.19.18l28.07-16.21q0-16.46,0-32.91l-27-15.58a7.46,7.46,0,0,0-1.57-.81A15.36,15.36,0,0,0,133.91,197.09Z"
     id="path80" />
  <path
     class="cls-2"
     d="M173.32,93.41Q188.65,84.59,204,75.74c10.23,5.88,20.43,11.79,30.66,17.67q0,17.68,0,35.36-15.34,8.81-30.66,17.67-15.32-8.84-30.64-17.67Q173.31,111.08,173.32,93.41Z"
     id="path82" />
  <path
     class="cls-10"
     d="M171.53,92.8q16.13-9.33,32.28-18.64l32.28,18.64c0,12.43,0,24.86,0,37.28-10.78,6.16-21.51,12.41-32.27,18.6q-16.13-9.31-32.27-18.62Q171.53,111.42,171.53,92.8Zm3.81,2.11c0,11,0,22,0,33q14.25,8.25,28.52,16.46,14.26-8.23,28.51-16.47c0-11,0-22,0-33-9.51-5.46-19-11-28.5-16.45Q189.6,86.71,175.34,94.9Z"
     id="path84" />
  <path
     class="cls-10"
     d="M218.15,91.58a1.35,1.35,0,0,1,.77.38,12,12,0,0,1,2.33,2.5,6.53,6.53,0,0,1,1.39,3.89,3.6,3.6,0,0,1-5.91,2.54A3.48,3.48,0,0,1,215.67,97a9.47,9.47,0,0,1,2.08-2.42,2.48,2.48,0,0,0,.76-1.59A3.61,3.61,0,0,0,218.15,91.58Z"
     id="path86" />
  <path
     class="cls-10"
     d="M191.74,95.27a18.71,18.71,0,0,1,22.45,1.37,5.06,5.06,0,0,0,1.83,5.62,20.31,20.31,0,0,0-1.28,4.59,4.12,4.12,0,1,0-6.29,5.24,4.07,4.07,0,0,0,3,1.15,4.19,4.19,0,0,0,2.67-1.12,55.39,55.39,0,0,0,.21,9.64,4.1,4.1,0,0,1-2.93-.62A11.82,11.82,0,0,1,209,118.7c-.3-.4-.57-.83-.91-1.21a2.43,2.43,0,0,0-1.71-.77,3.6,3.6,0,0,0-3.19,1.79,3,3,0,0,0,0,2.56,12.73,12.73,0,0,0,2.71,4A11.07,11.07,0,0,1,207,126.4a3.08,3.08,0,0,1,.58,1.83.89.89,0,0,1-.71.77,18.72,18.72,0,0,1-15.09-33.73Zm11.71,2.08a3.16,3.16,0,0,0-1.31.5,3.09,3.09,0,1,0,1.31-.5Zm-11,5.27a3.09,3.09,0,1,0,3.65,1.66A3.12,3.12,0,0,0,192.44,102.62Zm-.3,11.54a3.09,3.09,0,1,0,3.34,1.27A3.09,3.09,0,0,0,192.14,114.16Z"
     id="path88" />
  <path
     class="cls-10"
     d="M217.29,103a5.16,5.16,0,0,0,3.7-.07,18.5,18.5,0,0,1,1,3.49,46,46,0,0,1,.74,7.72,53.64,53.64,0,0,1-.52,8.63,22.67,22.67,0,0,1-1.35,5.29,4,4,0,0,1-1.3,1.8,1,1,0,0,1-1.19-.08,4.84,4.84,0,0,1-1.32-2.1,27.6,27.6,0,0,1-1.34-6.54,56.6,56.6,0,0,1,0-10.32A28.67,28.67,0,0,1,217.29,103Z"
     id="path90" />
  <path
     class="cls-2"
     d="M240.9,211.35q15.33-8.82,30.64-17.67c10.23,5.88,20.43,11.79,30.66,17.67q0,17.68,0,35.36-15.34,8.81-30.66,17.67-15.32-8.84-30.64-17.67Q240.89,229,240.9,211.35Z"
     id="path92" />
  <path
     class="cls-11"
     d="M239.29,210.42q16.13-9.29,32.25-18.6c10.76,6.18,21.5,12.41,32.27,18.6q0,18.61,0,37.23-16.15,9.28-32.28,18.6-16.12-9.3-32.25-18.6Q239.28,229,239.29,210.42Zm3.78,2.17c0,11,0,21.93,0,32.9q14.24,8.21,28.47,16.43c9.53-5.41,19-11,28.5-16.39,0-11,0-22,0-33-9.51-5.44-19-11-28.48-16.41C262.08,201.64,252.56,207.09,243.07,212.59Z"
     id="path94" />
  <path
     class="cls-12"
     d="M293.52,233.81a41,41,0,0,0-1.21-7.94,30.46,30.46,0,0,0-2.47-6.68c-3.84-6.73-8-5.69-13-4.38a35.71,35.71,0,0,1-5,1h-.55a35.71,35.71,0,0,1-5-1c-5-1.26-9.15-2.35-13,4.43a27.9,27.9,0,0,0-2.47,6.68,41,41,0,0,0-1.21,7.94,14.91,14.91,0,0,0,.77,6.24,4.15,4.15,0,0,0,2.63,2.46,5.36,5.36,0,0,0,3.51-.38,25.75,25.75,0,0,0,7-5c1.7-1.64,4.88-2.46,8.05-2.46s6.36.82,8.05,2.46a25.75,25.75,0,0,0,7,5,5.74,5.74,0,0,0,3.51.38,4.09,4.09,0,0,0,2.63-2.52A14.63,14.63,0,0,0,293.52,233.81Zm-2.63,5.48a2.17,2.17,0,0,1-1.31,1.37,3.79,3.79,0,0,1-2.25-.27,22.34,22.34,0,0,1-6.36-4.54c-2.08-2.08-5.75-3.12-9.42-3.12s-7.34,1-9.48,3a22.77,22.77,0,0,1-6.36,4.54,3.4,3.4,0,0,1-2.25.27,2.17,2.17,0,0,1-1.31-1.37,12.94,12.94,0,0,1-.55-5.26,37.74,37.74,0,0,1,1.15-7.56,26.11,26.11,0,0,1,2.3-6.19c3-5.42,6.52-4.54,10.68-3.45a32.16,32.16,0,0,0,5.37,1h.82a31.76,31.76,0,0,0,5.42-1c4.16-1,7.67-2,10.68,3.45a25.24,25.24,0,0,1,2.3,6.19,41.41,41.41,0,0,1,1.15,7.56A12.66,12.66,0,0,1,290.89,239.28Z"
     id="path96" />
  <path
     class="cls-12"
     d="M266.51,223.13a3.33,3.33,0,0,0-2-.93,3.11,3.11,0,0,0-.88-1.92l-.05-.05a3.1,3.1,0,0,0-2.25-.93,3.24,3.24,0,0,0-2.25.93,3.18,3.18,0,0,0-.93,2,3.26,3.26,0,0,0-2,.88l-.05.05a3.1,3.1,0,0,0-.93,2.24,3.23,3.23,0,0,0,.93,2.24,3.06,3.06,0,0,0,2,.93,2.92,2.92,0,0,0,.93,2,3.1,3.1,0,0,0,2.25.93,3.24,3.24,0,0,0,2.25-.93,3.33,3.33,0,0,0,.93-2,2.92,2.92,0,0,0,2-.93,3.1,3.1,0,0,0,.93-2.24A3.23,3.23,0,0,0,266.51,223.13Zm-1.37,3.07a1.12,1.12,0,0,1-.82.33h-.77a1,1,0,0,0-1,1v.71a1.15,1.15,0,1,1-2.3,0v-.77a1,1,0,0,0-1-1h-.77a1.12,1.12,0,0,1-.82-1.92l.05-.05a1.31,1.31,0,0,1,.77-.27h.77a1,1,0,0,0,1-1v-.77a1.16,1.16,0,0,1,2-.82l.05.05a1.31,1.31,0,0,1,.27.77v.77a1,1,0,0,0,1,1h.77a1.16,1.16,0,0,1,.82,2Z"
     id="path98" />
  <circle
     class="cls-12"
     cx="281.08"
     cy="221.49"
     r="1.92"
     id="circle100" />
  <circle
     class="cls-12"
     cx="281.08"
     cy="229.26"
     r="1.92"
     id="circle102" />
  <circle
     class="cls-12"
     cx="277.19"
     cy="225.38"
     r="1.92"
     id="circle104" />
  <circle
     class="cls-12"
     cx="284.97"
     cy="225.38"
     r="1.92"
     id="circle106" />
  <path
     class="cls-2"
     d="M240.89,93.71q15.33-8.83,30.65-17.7C281.77,81.9,292,87.82,302.21,93.71q0,17.7,0,35.41-15.35,8.83-30.68,17.69-15.33-8.85-30.65-17.69Q240.88,111.41,240.89,93.71Z"
     id="path108" />
  <path
     class="cls-13"
     d="M239.27,92.78q16.14-9.3,32.27-18.63c10.77,6.19,21.52,12.43,32.29,18.62q0,18.64,0,37.28-16.16,9.29-32.29,18.62-16.13-9.31-32.27-18.62Q239.26,111.41,239.27,92.78ZM243.05,95c0,11,0,22,0,32.94q14.25,8.22,28.49,16.45c9.53-5.42,19-11,28.51-16.41,0-11,0-22,0-33-9.52-5.45-19-11-28.5-16.43C262.07,84,252.55,89.45,243.05,95Z"
     id="path110" />
  <g
     id="_000000ff"
     data-name="#000000ff">
    <path
       class="cls-13"
       d="M270.05,89.73a21.69,21.69,0,1,1-3.6.55,21.73,21.73,0,0,1,3.6-.55m-.39,1.77a8.9,8.9,0,0,0-3.66,3,20.66,20.66,0,0,0-2.78,5.46,4.59,4.59,0,0,0-.19.72,12.73,12.73,0,0,0,1.31-.24q1.59-.31,3.21-.47a12.15,12.15,0,0,0,1.3-.13,6.55,6.55,0,0,1,0-1.22,2.71,2.71,0,0,1,1-1.55c.28-.22.63-.34.93-.53a5.73,5.73,0,0,0,0-1.13c0-1.42,0-2.84,0-4.26a3.85,3.85,0,0,0-1.14.29m2.63-.29c-.05,1.3,0,2.6,0,3.89a9.07,9.07,0,0,0,0,1.4,6.25,6.25,0,0,1,1.07.57c.36.28.57.7.9,1a1.36,1.36,0,0,0,1.95-.27,11.26,11.26,0,0,1,.65-1.25,5.2,5.2,0,0,1,1-.83,10.29,10.29,0,0,0-1.29-1.83,7.1,7.1,0,0,0-4.27-2.68m-16.85,7.89a19.82,19.82,0,0,0-3.54,7.32c.32-.28.6-.6.91-.88a21.49,21.49,0,0,1,8.24-4.27c.12,0,.26-.1.3-.23.18-.45.28-.92.45-1.37a20.6,20.6,0,0,1,3.83-6.94c.3-.33.63-.63.93-1a20.25,20.25,0,0,0-11.12,7.34m21.09-7.34a16.77,16.77,0,0,1,2.48,3,2.7,2.7,0,0,0,.48.68c.32.15.68.2,1,.36a2.66,2.66,0,0,1,1.41,2.34,8.78,8.78,0,0,0-.08,1.23,1.33,1.33,0,0,0,1.4,1c.54-.07,1-.42,1.54-.46a2.8,2.8,0,0,1,3,1.92,4.27,4.27,0,0,1,0,1.77,4.07,4.07,0,0,0,.69.49,17.21,17.21,0,0,1,2.71,2.26,18.89,18.89,0,0,0-1.46-4,20.36,20.36,0,0,0-13.2-10.69M278.74,97a1.42,1.42,0,0,0-1,1,2.81,2.81,0,0,1-4.51,1.12c-.35-.31-.56-.78-1-1a1.4,1.4,0,0,0-2,1.19c.06.6.5,1.1.49,1.72a2.8,2.8,0,0,1-2.46,2.91c-.53.08-1.06-.14-1.59-.06a1.36,1.36,0,0,0-.8,2.07,2.11,2.11,0,0,0,1,.6,2.7,2.7,0,0,1,1.66,2.45,2.67,2.67,0,0,1-.92,2.1c-.33.3-.8.5-1,.95a1.37,1.37,0,0,0,1.13,1.78c.62,0,1.12-.42,1.72-.47a2.81,2.81,0,0,1,3.09,2.06c.2.63-.07,1.27,0,1.9a1.39,1.39,0,0,0,2.4.45,5.59,5.59,0,0,1,.91-1.54,2.83,2.83,0,0,1,3.66-.27c.47.32.7.89,1.18,1.19a1.39,1.39,0,0,0,2-1.17c-.06-.6-.48-1.11-.48-1.72a2.8,2.8,0,0,1,2.34-2.91c.56-.11,1.11.11,1.67,0a1.37,1.37,0,0,0,.87-2c-.25-.4-.74-.51-1.14-.68a2.72,2.72,0,0,1-.59-4.57c.33-.27.77-.48.9-.92a1.37,1.37,0,0,0-1.17-1.74c-.62,0-1.12.43-1.73.48a2.82,2.82,0,0,1-3.09-2.21,16.55,16.55,0,0,1,0-1.75,1.38,1.38,0,0,0-1.69-.94m-15.8,5.28a1.86,1.86,0,0,0-.4.14,5.7,5.7,0,0,0-.29,1.08,37.39,37.39,0,0,0-.83,6.76,3.25,3.25,0,0,0,0,.43c1.2.06,2.4,0,3.59,0,.32,0,.68.06,1-.14a7.09,7.09,0,0,0,.84-.7,1.27,1.27,0,0,0-.14-1.82,11.64,11.64,0,0,0-1.17-.56,2.68,2.68,0,0,1-1.29-2.32,2.93,2.93,0,0,1,.77-1.94,2.68,2.68,0,0,1,2.2-.84,2.62,2.62,0,0,0,1.29,0,1.41,1.41,0,0,0,.8-1,5.54,5.54,0,0,0-.74,0,38,38,0,0,0-5.61.88m-4.37,1.43a16.3,16.3,0,0,0-5.2,3.31,6.5,6.5,0,0,0-2,3.67c.45,0,.91,0,1.36,0h6a11.42,11.42,0,0,0,1.26,0c.06-.46,0-.93.07-1.4a39.07,39.07,0,0,1,.59-5c.08-.46.21-.91.25-1.38a13.48,13.48,0,0,0-2.29.8m27.47,3a1.58,1.58,0,0,0,1.08.82,2.64,2.64,0,0,1,1.68,2,7.46,7.46,0,0,1,0,1.15c1,0,2,0,2.93,0a5,5,0,0,0-.71-2,11,11,0,0,0-3.6-3.47,2.39,2.39,0,0,0-.59-.3,1.36,1.36,0,0,0-.8,1.79m-34.69,5.46a6.08,6.08,0,0,0,1.58,3.2,17.23,17.23,0,0,0,7.14,4.37,5.07,5.07,0,0,0,.78.21c0-.47-.18-.92-.26-1.38a39.09,39.09,0,0,1-.59-5c0-.47,0-.94-.07-1.4a11.42,11.42,0,0,0-1.26,0h-6c-.45,0-.91,0-1.36,0m10.08,0a11.19,11.19,0,0,0,0,1.38,37.26,37.26,0,0,0,.92,6.4,2.27,2.27,0,0,0,.16.48,1.76,1.76,0,0,0,.33.12,37.24,37.24,0,0,0,7.59,1h.34c.05-.47,0-.95,0-1.42,0-1.51,0-3,0-4.53a2.68,2.68,0,0,0,0-.51,1.19,1.19,0,0,0-1-.31c-.48.06-.89.37-1.37.45a2.76,2.76,0,0,1-2.94-1.47,3.81,3.81,0,0,1-.34-1.58c-.62-.06-1.25,0-1.87,0s-1.25,0-1.87,0m25.31.59a4.72,4.72,0,0,1-1.61,0,1.31,1.31,0,0,0-1.33,1.46,12.57,12.57,0,0,1,.45,1.38,2.64,2.64,0,0,1-1.27,2.65c-.19.13-.46.22-.52.47a6.48,6.48,0,0,0-.23,1.24,9.36,9.36,0,0,0,1.51-.49,16.22,16.22,0,0,0,6.5-4.19,6,6,0,0,0,1.5-3.1c-.78-.06-1.57,0-2.36,0a9.26,9.26,0,0,0-1.43,0,7.38,7.38,0,0,1-1.22.58m-34.84,3.64a18.93,18.93,0,0,0,1.52,4.1,20.36,20.36,0,0,0,13.14,10.56,16.77,16.77,0,0,1-1.93-2.22,22.79,22.79,0,0,1-2.92-6,7,7,0,0,0-.42-1.21,8,8,0,0,0-1.28-.44,20.67,20.67,0,0,1-7.19-3.95c-.32-.28-.6-.6-.92-.88m38.37.88a20.65,20.65,0,0,1-7.13,3.92,9.31,9.31,0,0,0-1.35.46,5.27,5.27,0,0,0-.41,1.14,21.12,21.12,0,0,1-3.69,7c-.37.45-.8.83-1.18,1.27A20.31,20.31,0,0,0,291.2,116.4c-.32.28-.6.6-.92.88m-13.45.13a8.71,8.71,0,0,1-.65,1.25,2.75,2.75,0,0,1-2.64,1,5.38,5.38,0,0,1-1.26-.45c0,.77,0,1.55,0,2.32h.34a37.24,37.24,0,0,0,7.59-1,1.78,1.78,0,0,0,.33-.12,6.71,6.71,0,0,0,.38-1.71,4.57,4.57,0,0,1-1.19-.55,9.8,9.8,0,0,1-.91-1,1.35,1.35,0,0,0-2,.26M263,122.1a4.47,4.47,0,0,0,.19.71,18.8,18.8,0,0,0,3.61,6.45,6.83,6.83,0,0,0,4,2.35c0-.45,0-.91,0-1.36q0-3,0-6a11.43,11.43,0,0,0,0-1.26c-.41-.06-.83,0-1.24-.06a38.27,38.27,0,0,1-5.53-.68,9.6,9.6,0,0,0-1-.18m16.41.1a37.8,37.8,0,0,1-5.91.75c-.41,0-.83,0-1.24.06-.06.9,0,1.8,0,2.71,0,2,0,3.93,0,5.89a4.59,4.59,0,0,0,1.64-.52,9.07,9.07,0,0,0,2.88-2.46,19.17,19.17,0,0,0,2.82-5.16,7.94,7.94,0,0,0,.43-1.37A5.8,5.8,0,0,0,279.45,122.2Z"
       id="path112" />
    <path
       class="cls-13"
       d="M273.3,102a2.18,2.18,0,1,1-1.56,1.24A2.18,2.18,0,0,1,273.3,102m.19,1.45a.73.73,0,1,0,.94.85A.73.73,0,0,0,273.49,103.48Z"
       id="path114" />
    <path
       class="cls-13"
       d="M280.55,102.76a2.17,2.17,0,1,1-1.53,1.17,2.19,2.19,0,0,1,1.53-1.17m.19,1.45a.73.73,0,1,0,.94.85A.73.73,0,0,0,280.73,104.2Z"
       id="path116" />
    <path
       class="cls-13"
       d="M274.21,107.74a6.24,6.24,0,0,1,4.23.77,3.82,3.82,0,0,1,1.49,1.4,2.27,2.27,0,0,1,.11,2,2.59,2.59,0,0,1-1.41,1.3,6.14,6.14,0,0,1-4.42-.13,4.11,4.11,0,0,1-2.45-2.27,2.1,2.1,0,0,1,.38-2,3.08,3.08,0,0,1,2.07-1.08m.18,1.44a1.72,1.72,0,0,0-1.22.68.93.93,0,0,0,.27,1,4.3,4.3,0,0,0,2.36,1.18,4.13,4.13,0,0,0,2.34-.21c.34-.15.72-.45.64-.87-.07-.58-.6-.93-1.06-1.21A4.76,4.76,0,0,0,274.39,109.18Z"
       id="path118" />
  </g>
  <path
     class="cls-2"
     d="M35.89,210.43Q52,201.1,68.17,191.79l32.26,18.62q0,18.62,0,37.23L68.17,266.26,36.54,248c-.23-.14-.44-.28-.66-.44Z"
     id="path121" />
  <path
     class="cls-14"
     d="M35.89,210.43Q52,201.1,68.17,191.79l32.26,18.62q0,18.62,0,37.23L68.17,266.26,36.54,248c-.23-.14-.44-.28-.66-.44Zm3.64,2.05q0,16.54,0,33.09,14.33,8.25,28.64,16.53,14.33-8.28,28.67-16.56c0-11,0-22,0-33.06-9.57-5.48-19.1-11-28.66-16.53Z"
     id="path123" />
  <path
     class="cls-14"
     d="M60,204.85a8.39,8.39,0,0,1,4.33-.57,3.39,3.39,0,0,1,.61.09,8.31,8.31,0,0,1,3.8,1.93,7.83,7.83,0,0,1,2.43,4.17,8.71,8.71,0,0,1,.1,2.88,8.89,8.89,0,0,1-.87,2.8c0,.07-.1.18,0,.23,3.08,2.19,6.15,4.4,9.23,6.58A8.13,8.13,0,0,1,93.52,226a8.34,8.34,0,0,1,.26,3.55,5.65,5.65,0,0,1-.25,1.17,8.12,8.12,0,0,1-3.38,4.51,8.47,8.47,0,0,1-2.13,1,8.19,8.19,0,0,1-4.65,0,8.37,8.37,0,0,1-2.85-1.51,8.58,8.58,0,0,1-2-2.47c-.69.24-1.35.53-2,.79l-5.64,2.22a13.47,13.47,0,0,1,.47,2.4,12.36,12.36,0,0,1-.42,4.61c0,.15-.09.31-.14.46-.13.4-.29.78-.45,1.17s-.38.79-.62,1.17-.37.6-.57.89a12.1,12.1,0,0,1-2.78,2.78c-.28.21-.58.39-.87.58l-.24.13a10.18,10.18,0,0,1-1.67.79l-.4.14a1.93,1.93,0,0,1-.36.12v0l-.5.14c-.22.06-.45.11-.68.15a.33.33,0,0,1,0,.09l0-.08A10.35,10.35,0,0,1,60,251a.62.62,0,0,1-.22,0h-1a.79.79,0,0,1-.28,0,7.84,7.84,0,0,1-1-.08c-.26,0-.53-.08-.79-.14l-.59-.13-.47-.13-.45-.14h0l-.35-.12-.33-.13a11.93,11.93,0,0,1-1.38-.69l-.24-.13-.43-.28a4.23,4.23,0,0,0-.56-.36,12.23,12.23,0,0,1-4-14.42,12.2,12.2,0,0,1,11.5-7.54l.73,0c.3-2.17.67-4.34,1-6.51a8.31,8.31,0,0,1-3.05-1.55,8,8,0,0,1-2.16-2.72,8.26,8.26,0,0,1,.52-8.1A8.07,8.07,0,0,1,60,204.85Zm3,2.68a2.77,2.77,0,0,0-1.15.44,2.37,2.37,0,0,0,1,4.3,2.34,2.34,0,0,0,1.66-.35,2.37,2.37,0,0,0,.69-3.33,2.43,2.43,0,0,0-1.32-1A1.76,1.76,0,0,0,63,207.53Zm-.48,8.12a4,4,0,0,0-3.17,3.12,7.48,7.48,0,0,0,4.05,1.08,7.4,7.4,0,0,0,3.71-1.07,4,4,0,0,0-2-2.71A4,4,0,0,0,62.48,215.65Zm5.87,3a8.27,8.27,0,0,1-5.51,1.82c-.31,2.17-.66,4.34-1,6.52a12.15,12.15,0,0,1,5.78,3.11,12.4,12.4,0,0,1,2.54,3.51c2.55-1,5.12-2,7.66-3a8.6,8.6,0,0,1,.38-5.34c.1-.27.25-.51.36-.78-.36-.24-.7-.49-1-.74-2.76-2-5.52-4-8.3-5.91A10.48,10.48,0,0,1,68.36,218.63Zm17,5a2.8,2.8,0,0,0-.43.11,2.41,2.41,0,0,0-1.6,2.41,2.44,2.44,0,0,0,1.37,2,3.1,3.1,0,0,0,1,.25,2.52,2.52,0,0,0,2-1.05,2.4,2.4,0,0,0,.37-1.88,2.41,2.41,0,0,0-2.7-1.84Zm-26.71,7.24a4.22,4.22,0,0,0-2,.89,4.07,4.07,0,0,0-1.39,2.29,4,4,0,0,0,1.37,3.86,4.27,4.27,0,0,0,2.51,1,4.19,4.19,0,0,0,2.79-1.14A4,4,0,0,0,63.16,235a4,4,0,0,0-2.41-3.76A3.88,3.88,0,0,0,58.65,230.89Zm25.89.95a4.05,4.05,0,0,0-2.69,2.94,5.92,5.92,0,0,0,.58.32,7.31,7.31,0,0,0,3,.74h.78a8.66,8.66,0,0,0,2-.43,6.86,6.86,0,0,0,1.34-.67,4,4,0,0,0-3.27-3A4,4,0,0,0,84.54,231.84ZM54.89,243.57a7.23,7.23,0,0,0-2.68,3.94l.09.09.14.1.08,0,.08.05c.14.11.25.25.4.34.36.24.74.45,1.12.66l1.17.53a4,4,0,0,0,.64.2,9.15,9.15,0,0,0,1.28.33,6.8,6.8,0,0,0,.92.13,1,1,0,0,0,.4,0h1.37a1.29,1.29,0,0,0,.45,0,4.78,4.78,0,0,0,.87-.14,1.69,1.69,0,0,0,.43-.08c.28-.09.58-.14.85-.24a3.31,3.31,0,0,0,.48-.14c.28-.07.53-.23.8-.33s.44-.19.65-.3a7.2,7.2,0,0,0,1.33-.89c.12-.1.27-.15.38-.26l0-.13a7.28,7.28,0,0,0-2.28-3.57A7,7,0,0,0,60,242.19,7.2,7.2,0,0,0,54.89,243.57Z"
     id="path125" />
  <metadata
     id="metadata4219">
    <rdf:RDF>
      <cc:Work
         rdf:about="">
        <dc:title>Artboard 2</dc:title>
      </cc:Work>
    </rdf:RDF>
  </metadata>
</svg>
