<?xml version="1.0" encoding="utf-8"?>
<!-- Generator: Adobe Illustrator 24.1.2, SVG Export Plug-In . SVG Version: 6.00 Build 0)  -->
<svg version="1.1"
	 id="Layer_1" inkscape:version="1.1.2 (0a00cf5339, 2022-02-04)" sodipodi:docname="amrhub_square_logo.svg" xmlns:cc="http://creativecommons.org/ns#" xmlns:dc="http://purl.org/dc/elements/1.1/" xmlns:inkscape="http://www.inkscape.org/namespaces/inkscape" xmlns:rdf="http://www.w3.org/1999/02/22-rdf-syntax-ns#" xmlns:sodipodi="http://sodipodi.sourceforge.net/DTD/sodipodi-0.dtd" xmlns:svg="http://www.w3.org/2000/svg"
	 xmlns="http://www.w3.org/2000/svg" xmlns:xlink="http://www.w3.org/1999/xlink" x="0px" y="0px" viewBox="0 0 339.8 339.9"
	 style="enable-background:new 0 0 339.8 339.9;" xml:space="preserve">
<style type="text/css">
	.st0{fill:#A2A2A2;stroke:#A2A2A2;stroke-width:1.3284;}
	.st1{fill:#A2A2A2;stroke:#A2A2A2;stroke-miterlimit:10;}
	.st2{fill:#FFFFFF;}
	.st3{fill:#3E3E3E;}
	.st4{fill:#B5B5B5;}
	.st5{fill:#696969;}
	.st6{fill:#646464;}
	.st7{fill:#B3B3B3;}
	.st8{fill:#686868;}
	.st9{fill:#898989;}
	.st10{fill:#727272;}
	.st11{fill:#585858;}
	.st12{fill:#616161;}
	.st13{fill:#787878;}
</style>
<sodipodi:namedview  bordercolor="#666666" borderopacity="1.0" id="namedview128" inkscape:current-layer="Layer_1" inkscape:cx="164.29467" inkscape:cy="169.69023" inkscape:pagecheckerboard="0" inkscape:pageopacity="0.0" inkscape:pageshadow="2" inkscape:window-height="1019" inkscape:window-maximized="1" inkscape:window-width="1920" inkscape:window-x="0" inkscape:window-y="0" inkscape:zoom="1.8533772" pagecolor="#ffffff" showgrid="false">
	</sodipodi:namedview>
<rect id="rect152" x="0.1" y="0.2" class="st0" width="339.5" height="339.5"/>
<circle id="circle8" class="st1" cx="169.9" cy="170" r="169.9"/>
<path id="path10" class="st2" d="M105.4,93.5c10.2-5.9,20.4-11.8,30.6-17.7c10.2,5.9,20.4,11.8,30.7,17.7c0,11.8,0,23.6,0,35.4
	c-10.2,5.9-20.4,11.8-30.7,17.7c-10.2-5.9-20.4-11.8-30.6-17.7C105.4,117.1,105.4,105.3,105.4,93.5z"/>
<path id="path12" class="st3" d="M103.6,92.3l32.3-18.6c10.7,6.2,21.5,12.4,32.3,18.6c0,12.4,0,24.9,0,37.3
	c-10.7,6.1-21.3,12.3-31.9,18.4c-0.3,0.3-0.6,0-0.9-0.1c-10.6-6.1-21.1-12.2-31.7-18.3C103.6,117.2,103.6,104.8,103.6,92.3z
	 M107.3,94.5c0,11,0,21.9,0,32.9c9.5,5.5,19,11,28.5,16.5l28.5-16.4c0-11,0-22,0-32.9l-28.5-16.4C126.3,83.6,116.8,89,107.3,94.5z"
	/>
<path id="path14" class="st3" d="M126,92.1c3.3-2.1,7.2-3.2,11.1-2.9c4.1,0.2,8.3,1.4,11.3,4.3c2.5,2.5,4,5.9,4.1,9.5
	c-0.1,1.6,0.3,3.1,1.1,4.5c0.8,1.4,2.5,2.4,2.9,4.1c0.2,0.6-0.1,1.2-0.7,1.5c-0.8,0.4-1.5,0.9-2.2,1.5c0.3,0.6,0.7,1.2,1.1,1.8
	c-0.6,0.4-1.3,0.7-1.9,1.1c0.6,0.5,1.1,1.1,1.4,1.8c-0.5,0.5-0.9,1-1.2,1.5c-0.3,1.2,0.9,2.3,0.5,3.5c-0.4,1.1-1.3,1.8-2.4,2
	c-2.7,0.3-5.4-0.2-8-0.4c-0.6,0-1.5-0.1-1.6,0.7c-0.1,1.5,0,3-0.1,4.5c-5.6,0.1-11.1,0.1-16.7,0.1c0.4-3.2,0.9-6.3,1.2-9.5
	c-0.5-3.3-2.7-6-4.5-8.8c-1.3-1.6-2-3.5-2.2-5.5c-0.2-2.3-0.1-4.6,0.4-6.8C120.7,97.2,122.9,94.2,126,92.1z M129.6,94.1
	c-0.1,0.3-0.1,0.5-0.1,0.8l-1.1,0.5l-0.7-0.6c-0.3,0.2-0.5,0.5-0.7,0.8l0.6,0.6l-0.5,1.2c-0.3,0.1-0.6,0.1-0.9,0.3
	c-0.1,0.3-0.1,0.6-0.1,0.9l1,0.1c0.2,0.5,0.4,0.9,0.7,1.4l-0.6,0.7c0.2,0.3,0.5,0.5,0.8,0.7l0.6-0.7l1,0.4c0,0.3,0.1,0.6,0.1,0.9
	c0.3,0,0.7,0,1,0c0.1-0.3,0.2-0.6,0.2-0.9l1.2-0.5l0.8,0.6c0.4-0.1,0.6-0.6,0.5-1c-0.1-0.2-0.2-0.3-0.4-0.4l0.5-1.2h0.9
	c0.1-0.3,0.1-0.6,0.1-0.8c-0.1-0.4-0.7-0.3-1.1-0.4c-0.1-0.3-0.2-0.7-0.3-1c0.2-0.2,0.4-0.5,0.6-0.7c-0.2-0.2-0.4-0.4-0.6-0.6
	c-0.3,0.1-0.6,0.3-0.8,0.5l-1.4-0.6c-0.1-0.3-0.1-0.6-0.2-1C130.2,94,129.9,94,129.6,94.1L129.6,94.1z M138.3,96.1
	c-0.5,0.4,0,1.1,0.1,1.6c-0.5,0.4-0.9,0.9-1.3,1.4c-0.6-0.3-1.6-0.5-1.8,0.4s0.6,1,1.2,1.3c0,0.7,0,1.3,0.1,2
	c-0.4,0.3-1.1,0.4-1.1,1c0,0.3,0.2,0.7,0.4,0.9c0.4,0.4,1-0.1,1.5-0.2c0.5,0.5,1.1,1,1.7,1.5c-0.1,0.3-0.2,0.7-0.3,1.1
	c0.2,0.5,0.7,0.8,1.3,0.7c0.1,0,0.1-0.1,0.2-0.1c0.2-0.3,0.4-0.7,0.6-1.1l1.6-0.1c0.3,0.6,0.7,1.5,1.4,1c0.9-0.3,0.5-1.2,0.2-1.8
	c0.5-0.4,0.9-0.9,1.3-1.4c0.4,0.2,0.8,0.3,1.3,0.3c0.4-0.2,0.6-0.7,0.6-1.2c-0.2-0.5-0.8-0.6-1.2-0.8c0-0.7,0-1.3-0.1-2
	c0.4-0.2,0.7-0.4,1.1-0.7c0.1-0.4,0-0.8-0.3-1.1c-0.4-0.5-1.1,0-1.6,0.1c-0.4-0.4-0.8-0.8-1.1-1.1c0.2-0.6,0.6-1.5-0.2-1.8
	c-0.8-0.5-1.3,0.4-1.4,1c-0.8-0.1-1.5-0.1-2.3,0c-0.2-0.4-0.4-0.8-0.7-1.1C139,95.7,138.5,95.8,138.3,96.1L138.3,96.1z M130,103.9
	c-0.1,0.3-0.1,0.7-0.1,1l-1.4,0.6c-0.4-0.4-1-1-1.4-0.3c-0.5,0.5,0.2,1,0.4,1.3l-0.6,1.4c-0.5,0.1-1.4,0.1-1.4,0.8s0.8,1,1.4,1
	c0.2,0.5,0.5,1.1,0.8,1.6c-0.2,0.3-0.5,0.6-0.7,0.9c0.2,0.2,0.4,0.6,0.7,0.7c0.5,0.2,0.8-0.4,1.1-0.6l1.1,0.5c0,0.4,0,0.8,0.1,1.1
	c0.5,0.2,1,0.2,1.5-0.1c0.1-0.4,0.2-0.7,0.2-1.1l1.5-0.6c0.4,0.4,1,0.9,1.5,0.3s-0.1-1.1-0.3-1.5l0.5-1.3c0.6,0,1.5-0.1,1.4-0.9
	s-0.9-0.8-1.4-0.8l-0.5-1.2c0.2-0.3,0.6-0.6,0.7-1s-0.5-0.6-0.8-0.8l-0.8,0.7c-0.6-0.3-1.1-0.6-1.7-0.8c-0.1-0.4,0.1-1-0.4-1.2
	C130.8,103.6,130.3,103.7,130,103.9z"/>
<path id="path16" class="st3" d="M129.4,96.5c0.9-0.4,1.9,0,2.3,0.9s0,1.9-0.9,2.3c-0.6,0.2-1.2,0.2-1.7-0.2
	c-0.8-0.6-0.9-1.7-0.3-2.5C128.9,96.9,129.2,96.7,129.4,96.5z"/>
<path id="path18" class="st3" d="M140.5,99.2c1.4-0.4,2.8,0.4,3.2,1.7c0.4,1.4-0.4,2.8-1.7,3.2c-0.8,0.3-1.8,0.1-2.4-0.5
	c-1.1-0.9-1.2-2.6-0.3-3.7C139.6,99.6,140,99.3,140.5,99.2z"/>
<path id="path20" class="st3" d="M130,106.9c1.1-0.5,2.4,0,2.9,1c0.5,1.1,0,2.4-1,2.9c-0.4,0.2-0.8,0.2-1.2,0.2
	c-1.2-0.2-2-1.2-1.9-2.4C128.9,107.8,129.3,107.2,130,106.9z"/>
<path id="path22" class="st2" d="M71.4,152.4c10.2-5.9,20.4-11.8,30.6-17.7c10.2,5.9,20.4,11.8,30.7,17.7c0,11.8,0,23.6,0,35.4
	c-10.2,5.9-20.4,11.8-30.7,17.7c-10.2-5.9-20.4-11.8-30.6-17.7C71.4,176,71.4,164.2,71.4,152.4z"/>
<path id="path24" class="st4" d="M100.1,133.7c0.6-0.4,1.3-0.8,2-1c0.8,0.4,1.6,0.8,2.4,1.3c9.9,5.7,19.8,11.5,29.7,17.1
	c0,12.4,0,24.9,0,37.3L102.3,207c-0.2,0.2-0.5,0.2-0.7,0l-31.9-18.4c0-12.4,0-24.9,0-37.3C79.8,145.4,89.9,139.6,100.1,133.7z
	 M100.3,137.9c-8.9,5.2-17.9,10.3-26.8,15.5c0,11,0,21.9,0,32.9c9.2,5.3,18.5,10.7,27.7,16c0.4,0.2,0.8,0.5,1.2,0.2l28.1-16.2
	c0-11,0-21.9,0-32.9l-27-15.6c-0.5-0.3-1-0.6-1.6-0.8C101.3,137.3,100.8,137.6,100.3,137.9L100.3,137.9z"/>
<path id="path26" class="st4" d="M98.2,147.9c11.9-1.8,23.1,6.3,25,18.3c0.4,2.8,0.3,5.6-0.3,8.3c-2.7,11.8-14.5,19.1-26.3,16.4
	c-11.8-2.7-19.1-14.5-16.4-26.3C82.2,155.9,89.4,149.3,98.2,147.9z M99.4,151.9c-4.6,0.6-8.8,2.9-11.7,6.5
	c-5.4,6.7-5.2,16.2,0.4,22.7c5.7,6.6,15.4,8.1,22.8,3.4c8.3-5.2,10.8-16.1,5.7-24.4C112.9,154.3,106.3,151.1,99.4,151.9L99.4,151.9z
	"/>
<path id="path28" class="st4" d="M98.9,152.9c9.2-1.4,17.8,4.9,19.2,14c0.4,2.8,0.2,5.6-0.8,8.3c-3.2,8.7-12.8,13.2-21.5,10.1
	c-2.5-0.9-4.7-2.4-6.5-4.3c-5.4-5.8-6.1-14.6-1.5-21.1C90.4,156.1,94.4,153.6,98.9,152.9z M102.1,159.2c0.6,0.5,1.4,0.5,2,0.1
	l0.4-0.8c0.4,0.4,0.7,1.1,1.4,1.1c0.4-0.1,0.7-0.2,1.1-0.3c0.1,0.8,0.8,1.4,1.6,1.6c0,0.6-0.3,1.4,0.3,1.8s1.2,0.3,1.8,0.2
	c-0.1,1,0.7,1.8,1.6,1.8c0,0,0.1,0,0.1,0c-0.1,0.7,0.2,1.5,0.8,1.9c-0.6,0.4-1,0.9-1.2,1.5c-0.5-0.2-1-0.3-1.6-0.3
	c0-0.6,0.1-1.4-0.5-1.7s-1-0.2-1.6-0.1c0-0.9-0.6-1.9-1.6-1.7c-0.8,0.2-1.2,0.9-1.1,1.7c0.1,0.4,0.3,0.7,0.6,0.9
	c0.5,0.1,1,0.1,1.4,0.1c0.1,0.4,0.1,1,0.5,1.3s1,0.4,1.5,0.4c-0.1,0.9,0.3,2,1.3,1.9c0.8,0.1,1.2-0.8,1.5-1.4
	c0.3,0.1,0.7,0.2,1.1,0.3c0.7,0,1.3-0.6,1.3-1.4c0-0.1,0-0.2,0-0.3c-0.2-0.4-0.5-0.8-0.8-1.1c0.7-0.3,1.4-1.1,1-1.9
	c-0.2-0.7-1-0.8-1.7-0.9c0-0.6,0.1-1.3-0.5-1.7s-1.1-0.2-1.7-0.1c0-0.9-0.6-1.7-1.5-1.9c0.1-0.6,0.3-1.4-0.3-1.8s-1.3-0.3-1.9,0
	c-0.2-0.6-0.4-1.4-1.2-1.5s-1.1,0.4-1.6,0.9c-0.5-0.4-1-1-1.7-0.8c-0.7,0.2-1.2,0.9-1.1,1.6C101.9,158.8,102,159,102.1,159.2
	L102.1,159.2z M93.7,161.2c-1.3,1.5-2.1,3.4-2.3,5.4c-0.1,0.7,0.1,1.4,0,2.1c-0.5,0.5-0.9,1-1.3,1.7c-0.4,1.1,0.2,2.5-0.5,3.6
	c-0.1,0.3-0.5,0.7-0.1,1c0.7,0.2,1.2-0.7,1.3-1.3c0.2-1.3-0.2-2.9,0.8-3.9c-0.1,0.5-0.2,1.1-0.3,1.6c0,0.8,0.4,1.5,0.5,2.3
	c-0.1,0.6-0.3,1.1-0.3,1.7c0.1,0.3,0.5,0.1,0.8,0.2c1.1-1.6-0.2-3.4,0.1-5.1c0.2,0.5,0.3,1.1,0.5,1.6c0.4,0.8,1.1,1.3,1.4,2.1
	c0.1,0.5,0.2,1.1,0.2,1.6c0.3-0.2,0.9-0.1,0.9-0.5c0.3-1.3-0.7-2.3-1.4-3.2c-0.6-0.6-0.3-1.4-0.3-2.1c1.2-0.6,2.1-1.5,2.8-2.6
	c1.2-1.8,1.7-3.9,1.4-6.1c-0.1-0.9-0.9-1.6-1.8-1.5C95.2,159.9,94.3,160.4,93.7,161.2L93.7,161.2z M102.6,165.8
	c-0.1,0.6,0.4,1,0.7,1.5c-0.6,0.4-1.2,1.1-0.8,1.9s1.3,0.9,2,0.7c0.1,0.6,0.1,1.5,0.9,1.7c0.7,0.3,1.5-0.1,1.8-0.8
	c0.1-0.3,0.1-0.7,0-1c-0.3-0.8-1.3-0.9-2-0.6c-0.1-0.6-0.3-1.3-0.7-1.8c0.4-0.4,0.7-0.8,1.1-1.2c-0.3-0.5-0.3-1.1-0.9-1.4
	c-0.7-0.3-1.5-0.1-1.8,0.6C102.7,165.5,102.6,165.6,102.6,165.8L102.6,165.8z M98.9,173.6c-0.4,0.6-0.3,1.5-0.7,2.1s-1.3,1.1-1.6,2
	c-0.2,1.3,0.6,2.5,1.9,2.8c1-0.1,2-0.6,3-0.3c0.9,0.3,1.8,0.8,2.4,1.6c1.2,1.3,4,0.4,3.8-1.4c0-0.8-0.2-1.7,0.3-2.3s1.4-0.6,2.1-0.5
	s1,0.9,1.6,0.6c0.1-0.3,0.1-0.7-0.2-1c-0.7-0.8-1.9-0.6-2.9-0.7c0.5-0.4,1-0.8,1.6-1c0.6-0.1,1.2-0.1,1.8,0
	c-0.1-0.3,0.1-0.7-0.2-0.8c-1.1-0.6-2.3,0.2-3.3,0.6c-0.6,0-1.1-0.5-1.7-0.4c-0.8,0.2-1.7,0.8-2.6,0.3c-1-0.4-1.2-1.7-2.1-2.2
	C101.1,172.5,99.8,172.7,98.9,173.6L98.9,173.6z"/>
<path id="path30" class="st4" d="M94.1,165.3c0.7-0.3,1.5,0.1,1.8,0.8c0.1,0.2,0.1,0.4,0.1,0.6c-0.1,0.8-0.8,1.3-1.5,1.3
	c-0.4,0-0.7-0.2-0.9-0.5c-0.5-0.6-0.4-1.5,0.3-2C93.9,165.4,94,165.3,94.1,165.3z"/>
<path id="path32" class="st4" d="M100.2,175.1c0.7-0.4,1.5-0.1,1.9,0.5c0.2,0.3,0.2,0.6,0.2,0.9c-0.1,0.8-0.9,1.3-1.7,1.1
	c-0.2,0-0.5-0.1-0.6-0.3c-0.6-0.6-0.6-1.5,0-2.1C100,175.2,100.1,175.2,100.2,175.1z"/>
<path id="path34" class="st2" d="M138.9,152.4c10.2-5.9,20.4-11.8,30.6-17.7c10.2,5.9,20.4,11.8,30.7,17.7c0,11.8,0,23.6,0,35.4
	c-10.2,5.9-20.4,11.8-30.7,17.7c-10.2-5.9-20.4-11.8-30.6-17.7C138.9,176,138.9,164.2,138.9,152.4z"/>
<path id="path36" class="st5" d="M137.6,151.3l32.3-18.6c10.7,6.2,21.5,12.4,32.2,18.6c0,12.4,0,24.9,0,37.3
	c-10.8,6.2-21.5,12.4-32.2,18.6c-10.8-6.2-21.5-12.4-32.3-18.6C137.6,176.1,137.6,163.7,137.6,151.3z M141.3,153.4
	c0,11,0,21.9,0,32.9c9.5,5.5,19,11,28.5,16.5c9.5-5.5,19-11,28.5-16.4c0-11,0-22,0-33c-9.5-5.4-19-11-28.5-16.4
	C160.3,142.4,150.8,147.9,141.3,153.4z"/>
<path id="path38" class="st5" d="M171.2,152.4c4-1.1,8.3,0.7,10.3,4.4c1.5,2.6,1.5,5.8,0.1,8.5c-0.6,1-1.2,1.9-2,2.7
	c-5.1,6-10.1,12.1-15.2,18.1c-2.7,3-7.2,3.9-10.8,2c-2.2-1.2-3.9-3.2-4.6-5.6c-0.8-2.8-0.2-5.9,1.7-8.2c5.3-6.3,10.5-12.6,15.8-18.9
	C167.8,154,169.4,152.9,171.2,152.4z M167.9,157.5c-5.1,6.1-10.2,12.1-15.3,18.2c-1.5,1.8-2,4.3-1.2,6.6c1.1,2.9,3.9,4.8,7,4.6
	c1.8-0.2,3.5-1,4.7-2.5c2.6-3.1,5.3-6.2,7.8-9.4c-3.1-2.6-6.3-5.2-9.4-7.8c2.4-3,4.9-5.9,7.4-8.9c2-2.2,4.9-3.3,7.9-3
	C173.6,154.1,170.1,155,167.9,157.5L167.9,157.5z"/>
<path id="path40" class="st5" d="M168.1,183.8c3.7-4.3,7.3-8.6,10.9-12.9c4.7,1.8,7,6.9,5.2,11.6c-1.8,4.7-6.9,7-11.6,5.2
	c-1-0.4-2-1-2.8-1.7C169.2,185.4,168.6,184.6,168.1,183.8z M178.5,175.4c-2.7,3.3-5.6,6.5-8.2,9.9c0.9-0.9,1.6-1.9,2.4-2.8
	c2.7-3.3,5.5-6.5,8.1-9.8C180.1,173.6,179.3,174.5,178.5,175.4L178.5,175.4z M181.4,173.2c-3.5,4.1-7,8.2-10.3,12.4
	c1.6-1.6,2.9-3.5,4.4-5.2C177.4,178,179.6,175.7,181.4,173.2L181.4,173.2z M184,179.2c-0.2,1-0.5,2-0.9,3c-1.2,2.4-3.3,4.2-5.8,5
	c2.1-0.4,3.9-1.5,5.1-3.2C183.4,182.6,184,180.9,184,179.2L184,179.2z"/>
<path id="path42" class="st5" d="M161,182.9c2.2-2.6,4.4-5.2,6.6-7.8l1,0.9c-2.1,2.6-4.3,5.1-6.4,7.7c-2,2.2-5.1,2.8-7.8,1.5
	C156.8,185.3,159.4,184.7,161,182.9z"/>
<path id="path44" class="st2" d="M206.9,152c10.2-5.9,20.4-11.8,30.6-17.7c10.2,5.8,20.4,11.8,30.6,17.7c0,11.8,0,23.6,0,35.4
	c-10.2,5.9-20.4,11.7-30.7,17.6c-10.2-5.9-20.4-11.8-30.6-17.7C206.9,175.5,206.9,163.8,206.9,152z"/>
<path id="path46" class="st6" d="M205.3,151.3l32.3-18.6l32.2,18.6c0,11.7,0,23.3,0,35c-0.1,0.8,0.2,1.7-0.1,2.3
	c-10.7,6.2-21.4,12.4-32.1,18.6l-32.3-18.6C205.3,176.1,205.3,163.7,205.3,151.3z M237.1,137.3c-9.3,5.4-18.7,10.8-28,16.2
	c0,11,0,21.9,0,32.9c2.2,1.3,4.5,2.6,6.7,3.9c0-2.1,0.2-4.2,0.6-6.2c0.3-2.4,0.9-4.7,1.8-6.9c0.7-1.3,1.8-2.3,3.1-2.9
	c1.6-0.8,3.3-1.4,5-1.7c-1.3,4.3-1.4,8.8-0.3,13.1c0.3,1,0.6,2,0.8,3.1c-0.4,0.6-0.6,1.3-0.5,2c0.3,1.3,1.5,2.1,2.8,1.8
	c0.2,0,0.3-0.1,0.4-0.1c1.2-0.5,1.8-1.8,1.3-3c-0.1-0.2-0.2-0.3-0.3-0.5c-0.5-0.7-1.3-1.1-2.2-1.2c-0.7-1.6-1.1-3.3-1.2-5.1
	c-0.5-3.3-0.2-6.7,0.8-9.9c0.3-1.3,1.8-1.3,2.8-1.6c0.9,3.3,2.3,6.5,4.2,9.4c0.2-1.2,0.4-2.4,0.7-3.7c0.1-0.7-0.1-1.5-0.5-2.1
	c0.7-0.6,1.4-1.2,2.1-1.6c0.6,0.6,1.2,1.1,1.9,1.7c-0.3,0.6-0.5,1.2-0.5,1.9c0.1,1.3,0.5,2.5,0.6,3.8c1.8-2.9,3.3-6.1,4.3-9.4
	c1.1,0.3,2.1,0.7,3.2,0.9c0.4,1.9,0.3,3.8-0.2,5.6c-0.8,0-1.6,0.1-2.4,0.4c-1.4,0.7-2.4,1.9-2.9,3.4c-0.7,2-1.6,4-2.1,6.1
	c-0.4,1-0.4,2.2,0,3.2c0.5,0.9,1.5,1.4,2.6,1.3c0.5-0.1,0.5-0.8,0.3-1.2c-0.4-0.6-1.4-0.4-1.5-1.2c0-1.8,0.5-3.5,1.3-5.1
	c0.4-1,0.7-2,1.1-3c0.6-1.4,2-2.4,3.5-2.3c1.5,0.1,2.8,1.2,3.1,2.7c0.1,1.2,0,2.5-0.2,3.7c-0.2,1.9-0.1,3.8-0.9,5.6
	c-0.4,1-1.7,0.3-2.4,0.9c0,0.4-0.2,0.9,0.3,1.1c1.1,0.3,2.7,0.4,3.3-0.8c1.2-2,1.1-4.5,1.3-6.8c0.1-1.6,0.6-3.2,0-4.8
	c-0.6-1.3-1.6-2.3-2.9-2.9c0.4-1.8,0.5-3.6,0.3-5.4c1.9,0.4,3.8,1.2,5.5,2.2c1.1,0.7,1.9,1.7,2.3,2.9c0.6,1.7,1.1,3.5,1.4,5.4
	c0.5,2.4,0.5,5,1.3,7.4c2.4-1.3,4.7-2.7,7-4c0-0.7,0-1.4,0-2.1c0-10.3,0-20.6,0-30.9c-9.4-5.4-18.7-10.8-28.1-16.2
	C237.6,136.9,237.4,137.1,237.1,137.3L237.1,137.3z"/>
<path id="path48" class="st6" d="M233,146.6c2.2-0.6,4.6-0.7,6.9-0.5c4.2,0.4,7,3,7.1,7c0,3.2,0.2,6.5-1.1,9.4
	c-1.1,2.7-3.1,4.8-5.6,6.1c-2.2,1.1-4.8,0.8-6.8-0.6c-1.7-1.4-3.1-3.2-4-5.3c-1.2-2.7-1.8-5.5-1.9-8.5c-0.1-1.8,0.4-3.6,1.3-5.1
	C229.8,148,231.3,147,233,146.6z"/>
<path id="path50" class="st2" d="M173.3,211.6c10.2-5.9,20.4-11.8,30.6-17.7c10.2,5.9,20.4,11.8,30.7,17.7c0,11.8,0,23.6,0,35.4
	c-10.2,5.9-20.4,11.8-30.7,17.7c-10.2-5.9-20.4-11.8-30.6-17.7C173.3,235.1,173.3,223.4,173.3,211.6z"/>
<path id="path52" class="st7" d="M171.6,210.4c10.8-6.2,21.5-12.5,32.3-18.6c10.7,6.2,21.4,12.4,32.2,18.6c0,12.4,0,24.9,0,37.3
	l-30.3,17.5c-0.6,0.4-1.3,0.8-2,1.1c-0.8-0.3-1.5-0.7-2.2-1.2c-10-5.8-20-11.5-30-17.3C171.5,235.3,171.6,222.9,171.6,210.4z
	 M202.4,197c-9,5.2-18.1,10.4-27.1,15.7c0,11,0,21.9,0,32.9c9.5,5.5,19,11,28.6,16.5c9.5-5.5,19-11,28.5-16.4c0-11,0-22,0-33
	c-9.4-5.4-18.7-10.8-28.1-16.2C203.6,196,203,196.7,202.4,197z"/>
<path id="path54" class="st7" d="M195,208.4c7.5-0.1,15.1,0,22.7-0.1c1.3,0,2.5,0.7,3.1,1.8c0.5,1,0.5,2.2,0.1,3.3
	c-2.4,7.8-4.7,15.5-7.1,23.3c-0.3,1.3-0.9,2.6-1.8,3.6c-1.1,0.9-2.6,0.8-3.9,0.8c-7.1,0-14.2,0-21.3,0c-0.6,0-1.5,0-1.6,0.8
	c0,0.9,0.6,1.6,1.3,2c0.9,0.4,1.8,0.5,2.8,0.4h23.3c1.1,0.1,2.2-0.5,2.6-1.6c2.4-7.9,4.8-15.9,7.3-23.8c0.3-0.9,0.5-1.8,0.6-2.8
	c1.7,0.7,2.6,2.6,2,4.3c-2.3,7.6-4.6,15.3-6.9,22.9c-0.6,2.5-2.8,4.4-5.4,4.4c-7.8,0-15.5,0-23.3,0c-3.3,0-6.2-2.3-6.9-5.5
	c-0.4-1.4,0.4-2.8,0.3-4.3c0-0.6-0.2-1.2,0.2-1.6c1.1-1.6,2-3.4,2.5-5.3c0.3-0.9-0.1-1.9,0.5-2.7c0.9-1.3,1.6-2.8,2-4.3
	c0.2-0.8,0.2-1.7,0.2-2.6c0.4-0.7,1.1-1.2,1.5-2c0.5-1,1-2.1,1.3-3.2c0.1-0.8,0.1-1.5,0.1-2.3c0.6-0.8,1.2-1.7,1.6-2.6
	C193.2,210.4,193.6,208.9,195,208.4z M197.3,218.1c5.1,0.1,10.3,0,15.4,0c0.6,0,1.3,0.1,1.6-0.5c0.4-0.8,0.7-1.6,0.8-2.4
	c-0.3-0.4-0.7-0.3-1.1-0.3c-4.9,0-9.8,0-14.7,0C197.6,214.8,197.3,216.9,197.3,218.1L197.3,218.1z M195.8,221.9
	c-0.4,0.7-0.7,1.5-0.8,2.4c0.1,0.6,0.7,0.4,1.1,0.4c4.8,0,9.7,0,14.5,0c0.5,0,1.2,0,1.5-0.5c0.4-0.8,0.7-1.7,0.7-2.6
	c-1.3-0.1-2.7-0.2-4-0.1h-11.5C196.9,221.5,196.2,221.4,195.8,221.9L195.8,221.9z"/>
<path id="path56" class="st2" d="M37.3,93.3c10.2-5.9,20.4-11.8,30.6-17.7c10.2,5.9,20.4,11.8,30.7,17.7c0,11.8,0,23.6,0,35.4
	c-10.2,5.9-20.4,11.8-30.7,17.7c-10.2-5.9-20.4-11.8-30.6-17.7C37.3,116.9,37.3,105.1,37.3,93.3z"/>
<path id="path58" class="st8" d="M35.9,92.6C46.6,86.4,57.4,80.2,68.2,74l32.2,18.6c0,12.4,0,24.8,0,37.2l-32.2,18.6l-31.6-18.2
	c-0.2-0.1-0.4-0.3-0.7-0.4V92.6z M39.6,94.6c0,11,0,22,0,33c9.5,5.5,19.1,11,28.6,16.5c9.5-5.5,19.1-11,28.6-16.5c0-11,0-22,0-33
	c-9.6-5.5-19.1-11-28.6-16.5L39.6,94.6z"/>
<path id="path60" class="st8" d="M62.1,88.6c9-1,17.1,5.5,18.1,14.5c1,9-5.5,17.1-14.5,18.1c-9,1-17.1-5.5-18.1-14.5
	c-0.3-3.1,0.2-6.3,1.6-9.1C51.7,92.6,56.5,89.2,62.1,88.6z M61.7,90.9c-7.7,1.4-12.8,8.8-11.4,16.5c1.2,6.7,7.1,11.6,13.9,11.6
	c2.7-0.1,5.3-0.9,7.6-2.4c2.8-1.9,4.9-4.7,5.8-7.9c2.1-7.5-2.3-15.3-9.9-17.4C65.7,90.7,63.7,90.6,61.7,90.9L61.7,90.9z"/>
<path id="path62" class="st8" d="M66.8,93.6c0.1-0.4,0-0.8,0.1-1.2c1,0.2,2,0.6,3,1.1c0,3.4-1.6,6.5-4.4,8.3c-1-0.5-1.9-1.1-2.8-1.6
	c1.8-1.3,3.6-2.9,4-5.2c-2.7,0-5.3,0-8,0c-0.8-0.1-0.8-1.4,0-1.4C61.3,93.6,64.1,93.6,66.8,93.6z"/>
<path id="path64" class="st8" d="M53.7,97.2c0.6-0.7,1.2-1.4,1.9-2c0.2,0.4,0.3,0.9,0.5,1.3c2.3,0.1,4.6,0,6.9,0
	c0.3,0,0.6,0.2,0.8,0.4c0,0.4-0.1,1.1-0.6,1.1c-2,0.1-4-0.1-6,0.1c1.9,2.2,4.6,3.3,7,4.8c2.2,1.3,4.4,3.1,5.2,5.7
	c0.8,2.5,0.5,5.3-0.9,7.6c-0.2,0.4-0.5,0.7-0.9,0.8c-1.6,0.5-3.3,0.6-5,0.5c1.2-0.7,2.3-1.7,3.2-2.8c0.5-0.7,0.8-1.6,0.9-2.4
	c-2.6,0-5.2,0-7.8,0c-0.4,0.1-0.8-0.2-0.9-0.7c0,0,0-0.1,0-0.1c0-0.4,0.4-0.8,0.8-0.8c0,0,0,0,0.1,0c2.6,0,5.2,0,7.8,0
	c-0.4-2-1.7-3.7-3.5-4.7c-2.5-1.7-5.5-2.9-7.7-5c-0.9-0.8-1.7-1.9-2.2-3C53.3,97.7,53.6,97.5,53.7,97.2z"/>
<path id="path66" class="st8" d="M52.5,110.5c0.2-2.8,1.9-5.3,4.3-6.7c0.9,0.6,1.9,1.1,2.8,1.7c-1,0.6-1.9,1.4-2.8,2.2
	c1.9,0.1,3.8,0.1,5.7,0.1c0.4,0,0.9-0.1,1.2,0.3c0.3,0.3,0.2,0.8-0.1,1.1c-0.1,0.1-0.3,0.2-0.5,0.2c-2.5,0.1-4.9,0-7.4,0
	c-0.5,1.4-0.5,2.9,0,4.3c2.5,0,5.1,0,7.6,0c0.4,0.1,0.7,0.4,0.7,0.9c0,0.3-0.2,0.5-0.5,0.6c-1.5,0.1-3,0-4.5,0
	c-0.8-0.1-1.6,0-2.3,0.2C54.9,114.1,53.4,112.5,52.5,110.5z"/>
<path id="path68" class="st8" d="M76.8,116c0.3-0.2,0.8-0.2,1.1,0.2c0.1,0.2,0.2,0.5,0.1,0.7c-0.4,0.5-0.9,1-1.4,1.5
	c-0.3,0.3-0.6,0.7-1.1,0.7c-0.4,0-0.7-0.4-0.7-0.8c0-0.2,0.1-0.3,0.2-0.4C75.6,117.1,76.2,116.5,76.8,116z"/>
<path id="path70" class="st8" d="M78.6,117.8c0.9-0.3,2,0,2.6,0.7l7.1,7.1c0.7,0.7,1,1.7,0.8,2.6c-0.4,1.3-1.7,2.1-3,1.9
	c-0.6-0.1-1.2-0.4-1.6-0.9c-2.4-2.4-4.8-4.8-7.1-7.2c-0.9-1.1-0.8-2.8,0.3-3.7C77.9,118,78.2,117.9,78.6,117.8z"/>
<path id="path72" class="st8" d="M54.8,123c0.6-0.6,1.2-1.2,1.9-1.7c1.2,0.5,2.4,0.9,3.6,1.1c-2,1.3-4,2.9-4.6,5.3
	c2.5,0,5.1,0,7.6,0c0.8,0.1,0.7,1.5-0.1,1.5c-2.6,0-5.2,0-7.7,0c0,0.3,0,0.6,0,0.9c-1,0-2,0.1-3,0.1C52.3,127.6,53.1,125,54.8,123z"
	/>
<path id="path74" class="st8" d="M62.5,122.7c1.2,0.1,2.4,0,3.6-0.1c0.3-0.1,0.6-0.1,0.9,0c1.9,2,2.9,4.8,2.7,7.6c-1,0-2,0-3-0.1
	c0-1.2-0.2-2.4-0.7-3.6c-2.4-0.2-4.8,0-7.2-0.1c-0.4-0.1-0.7-0.4-0.6-0.8c0-0.2,0.1-0.3,0.2-0.4c0.2-0.3,0.5-0.2,0.8-0.3
	c1.9,0,3.8,0,5.6,0C64.3,124.1,63.5,123.3,62.5,122.7z"/>
<path id="path76" class="st2" d="M104.8,211.7c10.2-5.9,20.4-11.8,30.6-17.7c10.2,5.9,20.4,11.8,30.7,17.7c0,11.8,0,23.6,0,35.4
	c-10.2,5.9-20.4,11.8-30.7,17.7c-10.2-5.9-20.4-11.8-30.6-17.7C104.8,235.3,104.8,223.5,104.8,211.7z"/>
<path id="path78" class="st9" d="M128.2,208c3.6-1.2,7.4-1.6,11.1-0.9c8,1.4,14.6,7,17.2,14.7c1.3,3.8,1.6,7.8,0.8,11.7
	c-0.6,3-1.9,5.9-3.6,8.5c-4.1,5.8-10.7,9.3-17.8,9.4h-0.7c-9.4-0.2-17.7-6.2-20.7-15.1c-0.8-2.2-1.2-4.5-1.2-6.9v-0.7
	c0-1.5,0.2-3,0.5-4.5C115.5,216.7,120.9,210.5,128.2,208z M134.5,208.3c-3.6,0.2-7.1,1.3-10.1,3.3c0.2,0.4,0.4,0.9,0.6,1.4
	c0,0.5-0.4,0.8-0.4,1.2c0.2,0.4,0.4,0.6,0.6,1c0.2,0.4,0.2,0.9,0,1.4c-0.2-0.1-0.5-0.2-0.7-0.2c-0.5,0-0.8,0.4-1.3,0.5
	s-0.8,0-1.1,0.4s-0.1,1.1-0.3,1.7c-0.1,0.3-0.4,0.5-0.7,0.6c-0.6,0-1.3,0.1-1.9,0.2c-0.4,0.2-0.5,0.7-0.8,1.1
	c-0.5,0.3-1.2,0.3-1.7,0.7c-0.3,0.2-0.5,0.5-0.7,0.8c-0.9,2.6-1.3,5.3-1.1,8c0,0.4,0.1,0.7,0.2,1.1c0.2,0.6,0.7,0.9,1.3,0.9
	c0.4,0,0.7,0.1,0.9,0.4c0.3,0.4,0,0.8,0.3,1.2s0.5,0.5,0.7,0.7s0.4,0.8,0.8,0.9s0.7-0.2,1.1-0.2c0.3,0.1,0.5,0.2,0.8,0.4
	c0.6,0.3,1,0.7,1.2,1.3c0.3,1.1-0.1,2.3,0,3.4c0.1,0.4,0.2,0.8,0.4,1.2c0,0.3-0.1,0.5-0.3,0.7c-0.2,0.3-0.4,0.6-0.6,0.9
	c-0.2,0.2-0.2,0.5-0.2,0.8c0.1,0.4,0.5,0.5,0.8,0.7c0,0.2,0,0.4,0,0.6c8,6.6,19.6,6.3,27.2-0.7c0-0.3,0.1-0.7,0.2-1
	c0.1-0.4,0.4-0.6,0.5-1c0-0.2,0.1-0.5,0.2-0.7c0.2-0.2,0.4-0.2,0.6-0.2c0.4-0.1,0.8-0.3,1.2-0.6c0.3-0.3,0.8-0.6,1-1
	c0.1-0.6,0.1-1.3,0.1-1.9c0-0.6,0.3-1.2,0.9-1.6c0.2-0.2,0.5-0.1,0.8-0.2s0.2-0.6,0.5-0.8c0.7-2.3,1.1-4.8,0.9-7.2
	c-0.2,0.2-0.4,0.4-0.4,0.7s-0.2,0.6-0.2,1c0,0.4,0.1,0.8,0.2,1.2c-0.1,0.4-0.2,0.8-0.5,1.1c-0.2-0.1-0.4-0.2-0.5-0.4s0.1-0.6,0-0.8
	c-0.3-0.3-0.6-0.4-0.8-0.8c-0.1-0.4-0.1-0.8,0-1.1c0.1-0.8-0.2-1.5-0.6-2.1c-0.3-0.3-0.7-0.3-1.1-0.4c-0.4-0.1-0.7-0.2-1-0.4
	c-0.3,0.6-0.5,1.3-0.7,2c-0.3,0.8-0.9,1.3-1.7,1.5c-0.6,0.1-1.2,0.1-1.8,0.3c-0.2-0.6-0.6-1.1-1.1-1.6c-0.7-0.6-1.1-1.4-1.1-2.3
	c-0.1-0.2,0-0.5-0.3-0.7c-0.2,0.9-0.1,1.9,0.1,2.8c0.2,0.6,0.6,1,0.8,1.5s0.7,0.7,1.2,0.8c0.7,0.2,1.5-0.2,2.3,0.1
	c0.3,0.1,0.4,0.3,0.4,0.6c0,0.3-0.3,0.4-0.3,0.7s0.4,0.5,0.3,0.8c-0.3,0.9-1.2,1.2-1.7,1.9c-0.4,0.5-0.6,1.2-1.1,1.6
	c-0.3,0.2-0.7,0.3-0.9,0.6c-0.3,0.6-0.4,1.4-0.2,2.1c0.5,0.3,1,0.4,1.6,0.4c0.3-0.1,0.6-0.1,0.9,0c0.1,0.3,0,0.7-0.1,1.1
	c-0.1,0.6-0.2,1.2-0.5,1.8c-0.3,0.2-0.7,0.1-1,0.3c-0.1,0.1-0.3,0.3-0.3,0.5c-0.4,0.1-0.9,0-1.3-0.3c-0.3-0.4-0.5-0.9-0.8-1.3
	c-0.2,0.9-0.6,1.8-1.2,2.5c-0.4,0.7-1.1,1.1-1.9,1.3c-0.5,0-1.1,0.2-1.5,0.4c-0.3,0.2-0.4,0.6-0.6,0.9c-0.9-0.3-1.5-1-1.8-1.9
	c-0.3-0.6-0.1-1.4-0.4-2c-0.2-0.4-0.3-0.8-0.4-1.3c0-0.5,0.2-0.9,0.2-1.4c0-0.8-0.1-1.5-0.5-2.2c-0.2-0.3-0.5-0.5-0.8-0.8
	c-0.3-0.3-0.6-0.7-0.7-1.2c-0.2-0.8-0.6-1.5-1.1-2.1c-0.3-0.3-0.8-0.5-1.2-0.4c-0.5,0.1-1,0.3-1.6,0.3c-1.1,0-2.1-0.2-3.1-0.5
	c-0.5-0.1-1-0.4-1.4-0.8c-0.2-0.2-0.3-0.4-0.3-0.7c0.1-0.3,0.4-0.5,0.4-0.8c0-0.5-0.3-1-0.1-1.5s-0.1-0.9,0-1.3
	c0.1-0.3,0.2-0.5,0.3-0.8c0.1-0.5,0.2-0.9,0.3-1.4c0.2-0.4,0.7-0.6,0.9-0.9s0.3-0.8,0.6-1.1c0.5,0,1-0.2,1.5-0.5
	c0.2-0.1,0.2-0.4,0.1-0.6c0,0,0,0,0,0c-0.3-0.3-0.9-0.2-1.2-0.5c0.1-0.4,0.2-0.9,0.2-1.3c-0.1-0.4-0.1-0.8,0-1.1
	c0.1-0.2,0.4-0.1,0.5-0.1c0.4,0.1,0.8,0.2,1.1,0c0.3-0.3,0.6-0.6,0.9-1c-0.4-0.1-0.7-0.2-1-0.5c-0.2-0.1-0.3-0.4-0.5-0.4
	s-0.6,0.1-0.9,0.2c0-0.6,0.2-1.2,0.5-1.7c0.6-0.6,1.3-1.2,2.1-1.5c0.3,0.4,0.5,0.9,0.6,1.4c0,0.2,0.1,0.4,0.2,0.5
	c0.4,0.4,0.8,0.7,1.3,1c0.3-0.7,0.6-1.4,0.9-2c0.2-0.4,0.3-1,0.2-1.4c-0.2-1.2,0.5-2.4,1.7-2.6c0,0,0,0,0.1,0
	c0.5,0.1,0.9,0.4,1.4,0.5c0.9-0.2,1.7-0.8,2.6-0.9c0.3-0.1,0.5-0.1,0.8,0.1c0.1,0.3-0.1,0.6,0.1,0.9c0.2,0.4,0.6,0.7,1,0.8
	c0.4,0.2,0.9,0.4,1.3,0.4c0.8-0.2,1.6-0.6,2.2-1.2c-0.9-0.8-2-1.5-3.2-2C139.9,208.9,137.2,208.3,134.5,208.3L134.5,208.3z
	 M146,212.6c-0.4,0.2-0.7,0.4-1.1,0.6c0.1,0.6-0.4,1-0.7,1.4c0.5-0.5,1.1-0.8,1.7-1c0.8-0.2,1.7-0.2,2.5,0c-0.5-0.3-0.9-0.6-1.4-0.9
	C146.7,212.5,146.3,212.5,146,212.6z M136.9,213.2c0.2,0.4,0.4,0.8,0.2,1.2c-0.4,0.6-1,0.9-1.7,1.1v0.1c0.5-0.1,0.9-0.3,1.4-0.3
	c0.2,0,0.3,0,0.4,0.1c0.4-0.1,0.9-0.2,1.3-0.4c0.3-0.1,0.3-0.5,0.2-0.7C138.1,213.8,137.5,213.5,136.9,213.2L136.9,213.2z
	 M134.6,220.2c-0.4,0.1-0.9,0.1-1.4,0.1c-0.2,0.2-0.4,0.4-0.5,0.6c0.5,0.3,1,0.4,1.5,0.4c0.5-0.1,1,0,1.4,0.3c0.3,0.5,0.6,1,1,1.4
	c0.2,0.2,0.5,0.3,0.7,0.2c0.8-0.2,1.6-0.4,2.4-0.4c0.4,0,0.8,0.2,1,0.6c0.2,0.5,0.6,1,1.1,1.3c0.3,0.2,0.7,0.1,1-0.1
	c0.3-0.4,0.6-0.9,0.6-1.4c-0.4-0.3-0.8-0.6-1.2-0.8c-0.4-0.2-0.9-0.2-1.3-0.3c-0.6-0.1-1.2-0.2-1.7-0.4c-0.4-0.1-0.7-0.3-1.1-0.4
	c-0.2,0-0.5,0-0.7,0.1c-0.3-0.3-0.4-0.7-0.8-0.9s-0.6-0.3-0.9-0.4S134.9,220,134.6,220.2L134.6,220.2z"/>
<path id="path80" class="st9" d="M133.7,192.9c0.6-0.4,1.3-0.8,2-1c0.8,0.4,1.6,0.8,2.4,1.3c9.9,5.7,19.8,11.5,29.7,17.1
	c0,12.4,0,24.9,0,37.3l-31.9,18.4c-0.2,0.2-0.5,0.2-0.7,0l-31.9-18.4c0-12.4,0-24.9,0-37.3C113.5,204.6,123.6,198.7,133.7,192.9z
	 M133.9,197.1c-8.9,5.2-17.9,10.3-26.8,15.5c0,11,0,21.9,0,32.9c9.2,5.3,18.5,10.7,27.7,16c0.4,0.2,0.8,0.5,1.2,0.2l28.1-16.2
	c0-11,0-21.9,0-32.9l-27-15.6c-0.5-0.3-1-0.6-1.6-0.8C134.9,196.5,134.4,196.8,133.9,197.1L133.9,197.1z"/>
<path id="path82" class="st2" d="M173.3,93.4c10.2-5.9,20.4-11.8,30.7-17.7c10.2,5.9,20.4,11.8,30.7,17.7c0,11.8,0,23.6,0,35.4
	c-10.2,5.9-20.4,11.8-30.7,17.7c-10.2-5.9-20.4-11.8-30.6-17.7C173.3,117,173.3,105.2,173.3,93.4z"/>
<path id="path84" class="st10" d="M171.5,92.8c10.8-6.2,21.5-12.4,32.3-18.6l32.3,18.6c0,12.4,0,24.9,0,37.3
	c-10.8,6.2-21.5,12.4-32.3,18.6c-10.8-6.2-21.5-12.4-32.3-18.6C171.5,117.6,171.5,105.2,171.5,92.8z M175.3,94.9c0,11,0,22,0,33
	c9.5,5.5,19,11,28.5,16.5c9.5-5.5,19-11,28.5-16.5c0-11,0-22,0-33c-9.5-5.5-19-11-28.5-16.4C194.4,84,184.8,89.4,175.3,94.9
	L175.3,94.9z"/>
<path id="path86" class="st10" d="M218.1,91.6c0.3,0,0.6,0.2,0.8,0.4c0.9,0.7,1.7,1.6,2.3,2.5c0.9,1.1,1.4,2.5,1.4,3.9
	c-0.1,2-1.8,3.5-3.8,3.4c-0.8,0-1.5-0.3-2.1-0.8c-1.1-0.9-1.6-2.5-1.1-3.9c0.6-0.9,1.3-1.7,2.1-2.4c0.4-0.4,0.7-1,0.8-1.6
	C218.5,92.5,218.4,92,218.1,91.6z"/>
<path id="path88" class="st10" d="M191.7,95.3c7-4.6,16.1-4,22.4,1.4c-0.7,2.1,0.1,4.3,1.8,5.6c-0.6,1.5-1,3-1.3,4.6
	c-1.2-1.9-3.8-2.4-5.7-1.2c-1.9,1.2-2.4,3.8-1.2,5.7c0.2,0.3,0.4,0.5,0.6,0.7c0.8,0.8,1.9,1.2,3,1.2c1,0,1.9-0.4,2.7-1.1
	c-0.2,3.2-0.1,6.4,0.2,9.6c-1,0.2-2.1-0.1-2.9-0.6c-0.9-0.7-1.7-1.5-2.4-2.4c-0.3-0.4-0.6-0.8-0.9-1.2c-0.4-0.5-1.1-0.8-1.7-0.8
	c-1.3,0-2.5,0.7-3.2,1.8c-0.4,0.8-0.4,1.7,0,2.6c0.6,1.5,1.6,2.9,2.7,4c0.4,0.4,0.8,0.9,1.1,1.3c0.4,0.5,0.6,1.2,0.6,1.8
	c0,0.4-0.3,0.7-0.7,0.8c-10,2.6-20.2-3.3-22.9-13.3C181.9,107.9,185.1,99.7,191.7,95.3L191.7,95.3z M203.5,97.3
	c-0.5,0.1-0.9,0.2-1.3,0.5c-1.4,1-1.8,2.9-0.8,4.3c1,1.4,2.9,1.8,4.3,0.8c1.4-1,1.8-2.9,0.8-4.3C205.8,97.7,204.6,97.2,203.5,97.3z
	 M192.5,102.6c-1.6,0.5-2.6,2.2-2.1,3.8c0.5,1.6,2.2,2.6,3.8,2.1c1.6-0.5,2.6-2.2,2.1-3.8c0-0.2-0.1-0.3-0.2-0.5
	C195.4,102.9,193.9,102.2,192.5,102.6L192.5,102.6z M192.2,114.2c-1.7,0.4-2.6,2.1-2.2,3.8c0.4,1.7,2.1,2.6,3.8,2.2
	c1.7-0.4,2.6-2.1,2.2-3.8c-0.1-0.3-0.2-0.7-0.4-0.9C194.8,114.3,193.4,113.8,192.2,114.2L192.2,114.2z"/>
<path id="path90" class="st10" d="M217.3,103c1.2,0.4,2.5,0.4,3.7-0.1c0.4,1.1,0.8,2.3,1,3.5c0.5,2.5,0.7,5.1,0.7,7.7
	c0.1,2.9-0.1,5.8-0.5,8.6c-0.2,1.8-0.7,3.6-1.4,5.3c-0.3,0.7-0.7,1.3-1.3,1.8c-0.4,0.2-0.9,0.2-1.2-0.1c-0.6-0.6-1.1-1.3-1.3-2.1
	c-0.7-2.1-1.2-4.3-1.3-6.5c-0.3-3.4-0.3-6.9,0-10.3C215.9,108.2,216.4,105.5,217.3,103z"/>
<path id="path92" class="st2" d="M240.9,211.4c10.2-5.9,20.4-11.8,30.6-17.7c10.2,5.9,20.4,11.8,30.7,17.7c0,11.8,0,23.6,0,35.4
	c-10.2,5.9-20.4,11.8-30.7,17.7c-10.2-5.9-20.4-11.8-30.6-17.7C240.9,234.9,240.9,223.1,240.9,211.4z"/>
<path id="path94" class="st11" d="M239.3,210.4c10.8-6.2,21.5-12.4,32.2-18.6c10.8,6.2,21.5,12.4,32.3,18.6c0,12.4,0,24.8,0,37.2
	c-10.8,6.2-21.5,12.4-32.3,18.6c-10.7-6.2-21.5-12.4-32.3-18.6C239.3,235.2,239.3,222.8,239.3,210.4z M243.1,212.6
	c0,11,0,21.9,0,32.9c9.5,5.5,19,10.9,28.5,16.4c9.5-5.4,19-11,28.5-16.4c0-11,0-22,0-33c-9.5-5.4-19-11-28.5-16.4
	C262.1,201.6,252.6,207.1,243.1,212.6L243.1,212.6z"/>
<path id="path96" class="st11" d="M293.5,233.8c-0.1-2.7-0.5-5.3-1.2-7.9c-0.6-2.3-1.4-4.6-2.5-6.7c-3.8-6.7-8-5.7-13-4.4
	c-1.6,0.5-3.3,0.8-5,1h-0.5c-1.7-0.2-3.4-0.5-5-1c-5-1.3-9.1-2.4-13,4.4c-1.1,2.1-1.9,4.4-2.5,6.7c-0.7,2.6-1.1,5.3-1.2,7.9
	c-0.2,2.1,0.1,4.2,0.8,6.2c0.5,1.2,1.4,2.1,2.6,2.5c1.2,0.3,2.4,0.1,3.5-0.4c2.6-1.3,5-3,7-5c1.7-1.6,4.9-2.5,8-2.5s6.4,0.8,8,2.5
	c2,2,4.4,3.7,7,5c1.1,0.5,2.3,0.6,3.5,0.4c1.2-0.4,2.2-1.3,2.6-2.5C293.5,238,293.7,235.9,293.5,233.8z M290.9,239.3
	c-0.2,0.6-0.7,1.1-1.3,1.4c-0.8,0.1-1.5,0-2.3-0.3c-2.4-1.1-4.5-2.7-6.4-4.5c-2.1-2.1-5.8-3.1-9.4-3.1s-7.3,1-9.5,3
	c-1.8,1.9-4,3.4-6.4,4.5c-0.7,0.3-1.5,0.4-2.3,0.3c-0.6-0.2-1.1-0.7-1.3-1.4c-0.5-1.7-0.7-3.5-0.6-5.3c0.1-2.6,0.5-5.1,1.1-7.6
	c0.5-2.2,1.3-4.2,2.3-6.2c3-5.4,6.5-4.5,10.7-3.4c1.8,0.5,3.6,0.8,5.4,1h0.8c1.8-0.2,3.6-0.5,5.4-1c4.2-1,7.7-2,10.7,3.4
	c1,2,1.8,4,2.3,6.2c0.6,2.5,1,5,1.1,7.6C291.7,235.7,291.5,237.6,290.9,239.3L290.9,239.3z"/>
<path id="path98" class="st11" d="M266.5,223.1c-0.5-0.5-1.2-0.9-2-0.9c-0.1-0.7-0.4-1.4-0.9-1.9l0-0.1c-0.6-0.6-1.4-0.9-2.3-0.9
	c-0.8,0-1.6,0.3-2.3,0.9c-0.5,0.5-0.9,1.2-0.9,2c-0.7,0.1-1.5,0.4-2,0.9l0,0.1c-0.6,0.6-0.9,1.4-0.9,2.2c0,0.8,0.3,1.6,0.9,2.2
	c0.5,0.5,1.2,0.9,2,0.9c0,0.8,0.4,1.5,0.9,2c0.6,0.6,1.4,0.9,2.3,0.9c0.8,0,1.6-0.3,2.3-0.9c0.5-0.5,0.9-1.2,0.9-2
	c0.8,0,1.5-0.4,2-0.9c0.6-0.6,0.9-1.4,0.9-2.2C267.4,224.6,267.1,223.7,266.5,223.1z M265.1,226.2c-0.2,0.2-0.5,0.3-0.8,0.3h-0.8
	c-0.6,0-1,0.4-1,1v0.7c0,0.6-0.5,1.2-1.1,1.2c-0.6,0-1.2-0.5-1.2-1.1c0,0,0,0,0,0v-0.8c0-0.6-0.4-1-1-1h-0.8c-0.6,0-1.1-0.5-1.2-1.1
	c0-0.3,0.1-0.6,0.3-0.8l0-0.1c0.2-0.2,0.5-0.3,0.8-0.3h0.8c0.6,0,1-0.4,1-1v-0.8c0-0.6,0.5-1.2,1.1-1.2c0.3,0,0.6,0.1,0.9,0.4l0,0.1
	c0.2,0.2,0.3,0.5,0.3,0.8v0.8c0,0.6,0.4,1,1,1h0.8c0.6,0,1.2,0.5,1.2,1.1C265.5,225.7,265.4,226,265.1,226.2L265.1,226.2z"/>
<circle id="circle100" class="st11" cx="281.1" cy="221.5" r="1.9"/>
<circle id="circle102" class="st11" cx="281.1" cy="229.3" r="1.9"/>
<circle id="circle104" class="st11" cx="277.2" cy="225.4" r="1.9"/>
<circle id="circle106" class="st11" cx="285" cy="225.4" r="1.9"/>
<path id="path108" class="st2" d="M240.9,93.7c10.2-5.9,20.4-11.8,30.7-17.7c10.2,5.9,20.5,11.8,30.7,17.7c0,11.8,0,23.6,0,35.4
	c-10.2,5.9-20.5,11.8-30.7,17.7c-10.2-5.9-20.4-11.8-30.6-17.7C240.9,117.3,240.9,105.5,240.9,93.7z"/>
<path id="path110" class="st12" d="M239.3,92.8c10.8-6.2,21.5-12.4,32.3-18.6c10.8,6.2,21.5,12.4,32.3,18.6c0,12.4,0,24.9,0,37.3
	c-10.8,6.2-21.5,12.4-32.3,18.6c-10.8-6.2-21.5-12.4-32.3-18.6C239.3,117.6,239.3,105.2,239.3,92.8z M243.1,95c0,11,0,22,0,32.9
	c9.5,5.5,19,11,28.5,16.5c9.5-5.4,19-11,28.5-16.4c0-11,0-22,0-33c-9.5-5.4-19-11-28.5-16.4C262.1,84,252.6,89.4,243.1,95z"/>
<path id="path112" class="st12" d="M270,89.7c12-0.8,22.3,8.2,23.1,20.2s-8.2,22.3-20.2,23.1c-12,0.8-22.3-8.2-23.1-20.2
	c-0.7-10.6,6.3-20.1,16.6-22.6C267.6,90,268.8,89.8,270,89.7 M269.7,91.5c-1.5,0.7-2.7,1.7-3.7,3c-1.2,1.7-2.1,3.5-2.8,5.5
	c-0.1,0.2-0.1,0.5-0.2,0.7c0.4-0.1,0.9-0.1,1.3-0.2c1.1-0.2,2.1-0.4,3.2-0.5c0.4,0,0.9-0.1,1.3-0.1c0-0.4,0-0.8,0-1.2
	c0.1-0.6,0.5-1.2,1-1.6c0.3-0.2,0.6-0.3,0.9-0.5c0-0.4,0-0.8,0-1.1c0-1.4,0-2.8,0-4.3C270.4,91.2,270,91.3,269.7,91.5 M272.3,91.1
	c0,1.3,0,2.6,0,3.9c0,0.5,0,0.9,0,1.4c0.4,0.2,0.7,0.3,1.1,0.6c0.4,0.3,0.6,0.7,0.9,1c0.6,0.5,1.4,0.4,1.9-0.2c0,0,0,0,0-0.1
	c0.2-0.4,0.4-0.8,0.6-1.3c0.3-0.3,0.6-0.6,1-0.8c-0.4-0.7-0.8-1.3-1.3-1.8C275.5,92.4,274,91.5,272.3,91.1 M255.4,99
	c-1.7,2.2-2.9,4.7-3.5,7.3c0.3-0.3,0.6-0.6,0.9-0.9c2.4-2,5.2-3.5,8.2-4.3c0.1,0,0.3-0.1,0.3-0.2c0.2-0.4,0.3-0.9,0.5-1.4
	c0.8-2.5,2.1-4.9,3.8-6.9c0.3-0.3,0.6-0.6,0.9-1C262.1,92.8,258.2,95.4,255.4,99 M276.5,91.7c0.9,0.9,1.8,1.9,2.5,3
	c0.1,0.3,0.3,0.5,0.5,0.7c0.3,0.2,0.7,0.2,1,0.4c0.9,0.5,1.4,1.4,1.4,2.3c-0.1,0.4-0.1,0.8-0.1,1.2c0.2,0.6,0.8,1.1,1.4,1
	c0.5-0.1,1-0.4,1.5-0.5c1.3-0.2,2.6,0.6,3,1.9c0.1,0.6,0.1,1.2,0,1.8c0.2,0.2,0.4,0.4,0.7,0.5c1,0.7,1.9,1.4,2.7,2.3
	c-0.3-1.4-0.8-2.7-1.5-4c-2.6-5.3-7.5-9.2-13.2-10.7 M278.7,97c-0.5,0.1-0.9,0.5-1,1c-0.5,1.5-2.2,2.2-3.6,1.7
	c-0.3-0.1-0.6-0.3-0.9-0.5c-0.4-0.3-0.6-0.8-1-1c-0.7-0.3-1.5,0-1.9,0.7c-0.1,0.2-0.1,0.3-0.1,0.5c0.1,0.6,0.5,1.1,0.5,1.7
	c0.1,1.5-1,2.7-2.5,2.9c-0.5,0.1-1.1-0.1-1.6-0.1c-0.7,0.2-1.2,0.9-1,1.7c0,0.1,0.1,0.3,0.2,0.4c0.3,0.3,0.6,0.5,1,0.6
	c1,0.4,1.6,1.4,1.7,2.4c0,0.8-0.3,1.6-0.9,2.1c-0.3,0.3-0.8,0.5-1,0.9c-0.2,0.7,0.2,1.5,0.9,1.7c0.1,0,0.2,0,0.2,0.1
	c0.6,0,1.1-0.4,1.7-0.5c1.4-0.2,2.7,0.7,3.1,2.1c0.2,0.6-0.1,1.3,0,1.9c0.2,0.7,1,1.1,1.8,0.9c0.3-0.1,0.5-0.2,0.6-0.4
	c0.2-0.6,0.5-1.1,0.9-1.5c1-1,2.5-1.1,3.7-0.3c0.5,0.3,0.7,0.9,1.2,1.2c0.7,0.3,1.5,0.1,1.9-0.6c0.1-0.2,0.1-0.3,0.1-0.5
	c-0.1-0.6-0.5-1.1-0.5-1.7c-0.1-1.4,0.9-2.7,2.3-2.9c0.6-0.1,1.1,0.1,1.7,0c0.7-0.2,1.2-0.9,1-1.7c0-0.1-0.1-0.2-0.1-0.3
	c-0.3-0.4-0.7-0.5-1.1-0.7c-1.4-0.6-2-2.2-1.3-3.6c0.2-0.4,0.4-0.7,0.7-1c0.3-0.3,0.8-0.5,0.9-0.9c0.2-0.7-0.2-1.5-0.9-1.7
	c-0.1,0-0.2,0-0.2,0c-0.6,0-1.1,0.4-1.7,0.5c-1.4,0.2-2.8-0.8-3.1-2.2c0-0.6,0-1.2,0-1.8c-0.2-0.7-1-1.1-1.7-0.9 M262.8,102.3
	c-0.1,0-0.3,0.1-0.4,0.1c-0.1,0.3-0.2,0.7-0.3,1.1c-0.5,2.2-0.8,4.5-0.8,6.8c0,0.1,0,0.3,0,0.4c1.2,0.1,2.4,0,3.6,0
	c0.3,0,0.7,0.1,1-0.1c0.3-0.2,0.6-0.4,0.8-0.7c0.5-0.5,0.4-1.3-0.1-1.8c0,0,0,0,0,0c-0.4-0.2-0.8-0.4-1.2-0.6
	c-0.8-0.5-1.3-1.4-1.3-2.3c0-0.7,0.3-1.4,0.8-1.9c0.6-0.6,1.4-0.9,2.2-0.8c0.4,0.1,0.9,0.1,1.3,0c0.4-0.2,0.7-0.6,0.8-1
	c-0.2,0-0.5,0-0.7,0C266.5,101.5,264.7,101.8,262.8,102.3 M258.4,103.7c-1.9,0.8-3.7,1.9-5.2,3.3c-1.1,1-1.8,2.3-2,3.7
	c0.4,0,0.9,0,1.4,0h6c0.4,0,0.8,0,1.3,0c0.1-0.5,0-0.9,0.1-1.4c0.1-1.7,0.3-3.3,0.6-5c0.1-0.5,0.2-0.9,0.3-1.4
	C260,103.1,259.2,103.4,258.4,103.7 M285.9,106.7c0.2,0.4,0.6,0.7,1.1,0.8c0.9,0.3,1.5,1.1,1.7,2c0,0.4,0,0.8,0,1.2c1,0,2,0,2.9,0
	c-0.1-0.7-0.3-1.4-0.7-2c-0.9-1.4-2.1-2.6-3.6-3.5c-0.2-0.1-0.4-0.2-0.6-0.3C286,105.2,285.7,105.9,285.9,106.7
	C285.9,106.7,285.9,106.7,285.9,106.7 M251.2,112.2c0.2,1.2,0.7,2.3,1.6,3.2c2,2,4.4,3.5,7.1,4.4c0.3,0.1,0.5,0.2,0.8,0.2
	c0-0.5-0.2-0.9-0.3-1.4c-0.3-1.7-0.5-3.3-0.6-5c0-0.5,0-0.9-0.1-1.4c-0.4,0-0.8,0-1.3,0h-6C252.1,112.2,251.7,112.2,251.2,112.2
	 M261.3,112.2c0,0.5,0,0.9,0,1.4c0.1,2.2,0.4,4.3,0.9,6.4c0,0.2,0.1,0.3,0.2,0.5c0.1,0.1,0.2,0.1,0.3,0.1c2.5,0.6,5,0.9,7.6,1h0.3
	c0-0.5,0-0.9,0-1.4c0-1.5,0-3,0-4.5c0-0.2,0-0.3,0-0.5c-0.3-0.3-0.6-0.4-1-0.3c-0.5,0.1-0.9,0.4-1.4,0.4c-1.2,0.2-2.4-0.4-2.9-1.5
	c-0.2-0.5-0.3-1-0.3-1.6c-0.6-0.1-1.3,0-1.9,0S261.9,112.2,261.3,112.2 M286.5,112.8c-0.5,0.1-1.1,0.1-1.6,0c-0.7,0-1.3,0.6-1.3,1.3
	c0,0.1,0,0.1,0,0.2c0.2,0.5,0.3,0.9,0.5,1.4c0.2,1.1-0.3,2.1-1.3,2.7c-0.2,0.1-0.5,0.2-0.5,0.5c-0.1,0.4-0.2,0.8-0.2,1.2
	c0.5-0.1,1-0.3,1.5-0.5c2.5-0.9,4.7-2.3,6.5-4.2c0.8-0.9,1.3-1.9,1.5-3.1c-0.8-0.1-1.6,0-2.4,0c-0.5,0-1,0-1.4,0
	C287.4,112.4,287,112.6,286.5,112.8 M251.7,116.4c0.3,1.4,0.9,2.8,1.5,4.1c2.6,5.3,7.4,9.1,13.1,10.6c-0.7-0.7-1.4-1.4-1.9-2.2
	c-1.3-1.8-2.2-3.9-2.9-6c-0.1-0.4-0.2-0.8-0.4-1.2c-0.4-0.2-0.8-0.3-1.3-0.4c-2.6-0.8-5.1-2.2-7.2-3.9
	C252.3,116.9,252,116.6,251.7,116.4 M290.1,117.2c-2.1,1.8-4.5,3.1-7.1,3.9c-0.5,0.1-0.9,0.3-1.4,0.5c-0.2,0.4-0.3,0.7-0.4,1.1
	c-0.8,2.5-2,4.9-3.7,7c-0.4,0.4-0.8,0.8-1.2,1.3c7.3-1.8,13-7.4,14.9-14.6c-0.3,0.3-0.6,0.6-0.9,0.9 M276.8,117.4
	c-0.2,0.4-0.4,0.9-0.6,1.3c-0.6,0.8-1.6,1.2-2.6,1c-0.4-0.1-0.9-0.2-1.3-0.4c0,0.8,0,1.6,0,2.3h0.3c2.6-0.1,5.1-0.4,7.6-1
	c0.1,0,0.2-0.1,0.3-0.1c0.2-0.6,0.3-1.1,0.4-1.7c-0.4-0.1-0.8-0.3-1.2-0.6c-0.3-0.3-0.6-0.6-0.9-1c-0.6-0.5-1.4-0.4-1.9,0.1
	C276.9,117.3,276.8,117.4,276.8,117.4 M263,122.1c0,0.2,0.1,0.5,0.2,0.7c0.8,2.4,2,4.6,3.6,6.5c1,1.2,2.4,2.1,4,2.4
	c0-0.4,0-0.9,0-1.4c0-2,0-4,0-6c0-0.4,0-0.8,0-1.3c-0.4-0.1-0.8,0-1.2-0.1c-1.9-0.1-3.7-0.3-5.5-0.7
	C263.7,122.2,263.4,122.1,263,122.1 M279.4,122.2c-1.9,0.4-3.9,0.7-5.9,0.8c-0.4,0-0.8,0-1.2,0.1c-0.1,0.9,0,1.8,0,2.7
	c0,2,0,3.9,0,5.9c0.6-0.1,1.1-0.2,1.6-0.5c1.1-0.6,2.1-1.4,2.9-2.5c1.2-1.6,2.2-3.3,2.8-5.2c0.2-0.4,0.3-0.9,0.4-1.4
	C279.9,122.1,279.7,122.1,279.4,122.2L279.4,122.2z"/>
<path id="path114" class="st12" d="M273.3,102c1.2-0.2,2.3,0.5,2.6,1.7c0.2,1.2-0.5,2.3-1.7,2.6s-2.3-0.5-2.6-1.7
	c-0.1-0.4,0-0.9,0.2-1.3C272,102.6,272.6,102.1,273.3,102 M273.5,103.4c-0.4,0.1-0.6,0.5-0.5,0.9c0.1,0.4,0.5,0.6,0.9,0.5
	c0.2-0.1,0.4-0.3,0.5-0.5c0.1-0.4-0.2-0.8-0.6-0.8C273.7,103.4,273.6,103.4,273.5,103.4L273.5,103.4z"/>
<path id="path116" class="st12" d="M280.5,102.8c1.2-0.2,2.3,0.5,2.5,1.7c0.2,1.2-0.5,2.3-1.7,2.5c-1.2,0.2-2.3-0.5-2.5-1.7
	c-0.1-0.5,0-0.9,0.2-1.4C279.3,103.3,279.9,102.9,280.5,102.8 M280.7,104.2c-0.4,0.1-0.6,0.5-0.5,0.9c0.1,0.4,0.5,0.6,0.9,0.5
	c0.2-0.1,0.4-0.3,0.5-0.5c0.1-0.4-0.1-0.8-0.5-0.9C281,104.1,280.9,104.2,280.7,104.2L280.7,104.2z"/>
<path id="path118" class="st12" d="M274.2,107.7c1.5-0.3,3,0,4.2,0.8c0.6,0.3,1.1,0.8,1.5,1.4c0.3,0.6,0.4,1.4,0.1,2
	c-0.3,0.6-0.8,1.1-1.4,1.3c-1.4,0.5-3,0.5-4.4-0.1c-1.1-0.4-2-1.2-2.5-2.3c-0.2-0.7-0.1-1.4,0.4-2
	C272.7,108.2,273.4,107.8,274.2,107.7 M274.4,109.2c-0.5,0-0.9,0.3-1.2,0.7c-0.1,0.4,0,0.8,0.3,1c0.6,0.6,1.5,1,2.4,1.2
	c0.8,0.2,1.6,0.1,2.3-0.2c0.3-0.2,0.7-0.4,0.6-0.9c-0.1-0.6-0.6-0.9-1.1-1.2C276.7,109.2,275.5,109,274.4,109.2L274.4,109.2z"/>
<path id="path121" class="st2" d="M35.9,210.4c10.7-6.2,21.5-12.4,32.3-18.6l32.3,18.6c0,12.4,0,24.8,0,37.2l-32.3,18.6L36.5,248
	c-0.2-0.1-0.4-0.3-0.7-0.4L35.9,210.4z"/>
<path id="path123" class="st13" d="M35.9,210.4c10.7-6.2,21.5-12.4,32.3-18.6l32.3,18.6c0,12.4,0,24.8,0,37.2l-32.3,18.6L36.5,248
	c-0.2-0.1-0.4-0.3-0.7-0.4L35.9,210.4z M39.5,212.5c0,11,0,22.1,0,33.1c9.6,5.5,19.1,11,28.6,16.5c9.6-5.5,19.1-11,28.7-16.6
	c0-11,0-22,0-33.1c-9.6-5.5-19.1-11-28.7-16.5L39.5,212.5z"/>
<path id="path125" class="st13" d="M60,204.9c1.4-0.6,2.9-0.8,4.3-0.6c0.2,0,0.4,0,0.6,0.1c1.4,0.3,2.7,1,3.8,1.9
	c1.2,1.1,2.1,2.6,2.4,4.2c0.2,0.9,0.2,1.9,0.1,2.9c-0.1,1-0.4,1.9-0.9,2.8c0,0.1-0.1,0.2,0,0.2c3.1,2.2,6.2,4.4,9.2,6.6
	c3-3.4,8.1-3.7,11.5-0.7c1.1,1,2,2.3,2.4,3.8c0.3,1.2,0.4,2.4,0.3,3.6c0,0.4-0.1,0.8-0.3,1.2c-0.6,1.9-1.8,3.5-3.4,4.5
	c-0.7,0.4-1.4,0.8-2.1,1c-1.5,0.4-3.1,0.4-4.7,0c-1-0.3-2-0.8-2.8-1.5c-0.8-0.7-1.5-1.5-2-2.5c-0.7,0.2-1.3,0.5-2,0.8l-5.6,2.2
	c0.2,0.8,0.4,1.6,0.5,2.4c0.2,1.5,0,3.1-0.4,4.6c0,0.1-0.1,0.3-0.1,0.5c-0.1,0.4-0.3,0.8-0.4,1.2s-0.4,0.8-0.6,1.2s-0.4,0.6-0.6,0.9
	c-0.8,1.1-1.7,2-2.8,2.8c-0.3,0.2-0.6,0.4-0.9,0.6l-0.2,0.1c-0.5,0.3-1.1,0.6-1.7,0.8l-0.4,0.1c-0.1,0.1-0.2,0.1-0.4,0.1l0,0
	l-0.5,0.1c-0.2,0.1-0.5,0.1-0.7,0.1c0,0,0,0.1,0,0.1v-0.1c-0.5,0.1-1.1,0.2-1.7,0.2c-0.1,0-0.1,0-0.2,0h-1c-0.1,0-0.2,0-0.3,0
	c-0.3,0-0.7,0-1-0.1c-0.3,0-0.5-0.1-0.8-0.1l-0.6-0.1l-0.5-0.1l-0.5-0.1l0,0l-0.3-0.1l-0.3-0.1c-0.5-0.2-0.9-0.4-1.4-0.7l-0.2-0.1
	l-0.4-0.3c-0.2-0.1-0.4-0.3-0.6-0.4c-4.5-3.3-6.1-9.3-4-14.4c1.9-4.6,6.5-7.6,11.5-7.5h0.7c0.3-2.2,0.7-4.3,1-6.5
	c-1.1-0.3-2.2-0.8-3-1.6c-0.9-0.7-1.6-1.7-2.2-2.7c-1.3-2.6-1.1-5.7,0.5-8.1C57.3,206.5,58.6,205.5,60,204.9z M63,207.5
	c-0.4,0.1-0.8,0.2-1.2,0.4c-1.1,0.7-1.4,2.2-0.6,3.3c0.4,0.5,1,0.9,1.6,1c0.6,0.1,1.2,0,1.7-0.4c1.1-0.7,1.4-2.2,0.7-3.3
	c0,0,0,0,0-0.1c-0.3-0.5-0.8-0.8-1.3-1C63.6,207.5,63.3,207.5,63,207.5z M62.5,215.6c-1.6,0.3-2.8,1.5-3.2,3.1
	c1.2,0.7,2.6,1.1,4,1.1c1.3,0,2.6-0.4,3.7-1.1c-0.2-1.2-1-2.1-2-2.7C64.3,215.6,63.4,215.5,62.5,215.6L62.5,215.6z M68.4,218.6
	c-1.6,1.3-3.5,1.9-5.5,1.8c-0.3,2.2-0.7,4.3-1,6.5c2.2,0.5,4.2,1.6,5.8,3.1c1,1,1.9,2.2,2.5,3.5c2.6-1,5.1-2,7.7-3
	c-0.4-1.8-0.3-3.6,0.4-5.3c0.1-0.3,0.3-0.5,0.4-0.8c-0.4-0.2-0.7-0.5-1-0.7c-2.8-2-5.5-4-8.3-5.9C69,218.1,68.7,218.4,68.4,218.6
	L68.4,218.6z M85.4,223.6c-0.1,0-0.3,0.1-0.4,0.1c-1,0.4-1.7,1.3-1.6,2.4c0.1,0.9,0.6,1.6,1.4,2c0.3,0.1,0.7,0.2,1,0.3
	c0.8,0,1.5-0.4,2-1.1c0.4-0.5,0.5-1.2,0.4-1.9C87.8,224.3,86.6,223.5,85.4,223.6L85.4,223.6z M58.7,230.9c-0.7,0.1-1.4,0.4-2,0.9
	c-0.7,0.6-1.2,1.4-1.4,2.3c-0.3,1.4,0.2,2.9,1.4,3.9c0.7,0.6,1.6,0.9,2.5,1c1,0,2-0.4,2.8-1.1c0.8-0.7,1.2-1.7,1.2-2.8
	c0-1.6-0.9-3.1-2.4-3.8C60.1,230.9,59.4,230.8,58.7,230.9L58.7,230.9z M84.6,231.8c-1.4,0.4-2.4,1.6-2.7,2.9
	c0.2,0.1,0.4,0.2,0.6,0.3c0.9,0.5,2,0.7,3,0.7h0.8c0.7-0.1,1.4-0.2,2-0.4c0.5-0.2,0.9-0.4,1.3-0.7c-0.4-1.6-1.7-2.8-3.3-3
	C85.7,231.6,85.1,231.7,84.6,231.8L84.6,231.8z M54.9,243.6c-1.3,1-2.3,2.4-2.7,3.9l0.1,0.1l0.1,0.1h0.1l0.1,0.1
	c0.1,0.1,0.3,0.3,0.4,0.3c0.4,0.2,0.7,0.4,1.1,0.7l1.2,0.5c0.2,0.1,0.4,0.2,0.6,0.2c0.4,0.1,0.8,0.3,1.3,0.3
	c0.3,0.1,0.6,0.1,0.9,0.1c0.1,0,0.3,0,0.4,0h1.4c0.1,0,0.3,0,0.5,0c0.3,0,0.6-0.1,0.9-0.1c0.1,0,0.3,0,0.4-0.1
	c0.3-0.1,0.6-0.1,0.8-0.2c0.2,0,0.3-0.1,0.5-0.1c0.3-0.1,0.5-0.2,0.8-0.3s0.4-0.2,0.6-0.3c0.5-0.2,0.9-0.5,1.3-0.9
	c0.1-0.1,0.3-0.1,0.4-0.3v-0.1c-0.4-1.4-1.2-2.6-2.3-3.6c-1.1-0.9-2.4-1.5-3.9-1.7C58.2,242,56.4,242.5,54.9,243.6z"/>
</svg>
