<?xml version="1.0"?>
<svg xmlns="http://www.w3.org/2000/svg" height="512px" viewBox="0 0 64 64" width="512px"><g><g id="outline"><path d="m32 2a30 30 0 1 0 30 30 30.034 30.034 0 0 0 -30-30zm0 58a28 28 0 1 1 28-28 28.032 28.032 0 0 1 -28 28z" data-original="#000000" class="active-path" data-old_color="#000000" fill="#141214"/><path d="m32 56a24 24 0 0 1 0-48v-2a26 26 0 1 0 26 26h-2a24.028 24.028 0 0 1 -24 24z" data-original="#000000" class="active-path" data-old_color="#000000" fill="#141214"/><path d="m34 6h2v2h-2z" data-original="#000000" class="active-path" data-old_color="#000000" fill="#141214"/><path d="m56 28h2v2h-2z" data-original="#000000" class="active-path" data-old_color="#000000" fill="#141214"/><path d="m23 24a1 1 0 0 1 -1-1h-2a3 3 0 0 0 6 0h-2a1 1 0 0 1 -1 1z" data-original="#000000" class="active-path" data-old_color="#000000" fill="#141214"/><path d="m32 24v-2h-2.08a6.947 6.947 0 0 0 -1.32-3.184l2.109-2.109-1.414-1.414-2.111 2.107a6.947 6.947 0 0 0 -3.184-1.32v-2.08h-2v2.08a6.947 6.947 0 0 0 -3.184 1.32l-2.109-2.109-1.414 1.414 2.107 2.111a6.947 6.947 0 0 0 -1.32 3.184h-2.08v2h2.08a6.947 6.947 0 0 0 1.32 3.184l-2.109 2.109 1.414 1.414 2.111-2.107a6.947 6.947 0 0 0 3.184 1.32v2.08h2v-2.08a6.947 6.947 0 0 0 3.184-1.32l2.109 2.109 1.414-1.414-2.107-2.111a6.947 6.947 0 0 0 1.32-3.184zm-4-1a5 5 0 1 1 -5-5 5.006 5.006 0 0 1 5 5z" data-original="#000000" class="active-path" data-old_color="#000000" fill="#141214"/><path d="m36.4 42.184-2.109 2.109 1.414 1.414 2.111-2.107a6.947 6.947 0 0 0 3.184 1.32v2.08h2v-2.08a6.947 6.947 0 0 0 3.184-1.32l2.109 2.109 1.414-1.414-2.107-2.111a6.947 6.947 0 0 0 1.32-3.184h2.08v-2h-2.08a6.947 6.947 0 0 0 -1.32-3.184l2.109-2.109-1.414-1.414-2.111 2.107a6.947 6.947 0 0 0 -3.184-1.32v-2.08h-2v2.08a6.947 6.947 0 0 0 -3.184 1.32l-2.109-2.109-1.414 1.414 2.107 2.111a6.947 6.947 0 0 0 -1.32 3.184h-2.08v2h2.08a6.947 6.947 0 0 0 1.32 3.184zm.6-4.184a5 5 0 1 1 5 5 5.006 5.006 0 0 1 -5-5z" data-original="#000000" class="active-path" data-old_color="#000000" fill="#141214"/><path d="m42 37a1 1 0 0 1 1 1h2a3 3 0 0 0 -6 0h2a1 1 0 0 1 1-1z" data-original="#000000" class="active-path" data-old_color="#000000" fill="#141214"/><path d="m52.707 14.707-1.414-1.414-1.54 1.54a4.961 4.961 0 0 0 -1.753-.733v-2.1h-2v2.1a4.961 4.961 0 0 0 -1.753.732l-1.54-1.54-1.414 1.414 1.54 1.54a4.961 4.961 0 0 0 -.733 1.754h-2.1v2h2.1a4.961 4.961 0 0 0 .732 1.753l-1.54 1.54 1.414 1.414 1.54-1.54a4.961 4.961 0 0 0 1.754.733v2.1h2v-2.1a4.961 4.961 0 0 0 1.753-.732l1.54 1.54 1.414-1.414-1.54-1.54a4.961 4.961 0 0 0 .733-1.754h2.1v-2h-2.1a4.961 4.961 0 0 0 -.732-1.753zm-5.707 7.293a3 3 0 1 1 3-3 3 3 0 0 1 -3 3z" data-original="#000000" class="active-path" data-old_color="#000000" fill="#141214"/><path d="m30 45v-2h-2.1a4.961 4.961 0 0 0 -.732-1.753l1.54-1.54-1.414-1.414-1.54 1.54a4.961 4.961 0 0 0 -1.754-.733v-2.1h-2v2.1a4.961 4.961 0 0 0 -1.753.732l-1.54-1.54-1.414 1.414 1.54 1.54a4.961 4.961 0 0 0 -.733 1.754h-2.1v2h2.1a4.961 4.961 0 0 0 .732 1.753l-1.54 1.54 1.414 1.414 1.54-1.54a4.961 4.961 0 0 0 1.754.733v2.1h2v-2.1a4.961 4.961 0 0 0 1.753-.732l1.54 1.54 1.414-1.414-1.54-1.54a4.961 4.961 0 0 0 .733-1.754zm-7 2a3 3 0 1 1 3-3 3 3 0 0 1 -3 3z" data-original="#000000" class="active-path" data-old_color="#000000" fill="#141214"/><path d="m37 28a3 3 0 1 0 -3-3 3 3 0 0 0 3 3zm0-4a1 1 0 1 1 -1 1 1 1 0 0 1 1-1z" data-original="#000000" class="active-path" data-old_color="#000000" fill="#141214"/><path d="m31 51a3 3 0 1 0 3-3 3 3 0 0 0 -3 3zm3-1a1 1 0 1 1 -1 1 1 1 0 0 1 1-1z" data-original="#000000" class="active-path" data-old_color="#000000" fill="#141214"/><path d="m13 31a3 3 0 1 0 3 3 3 3 0 0 0 -3-3zm0 4a1 1 0 1 1 1-1 1 1 0 0 1 -1 1z" data-original="#000000" class="active-path" data-old_color="#000000" fill="#141214"/><path d="m27 33h2v2h-2z" data-original="#000000" class="active-path" data-old_color="#000000" fill="#141214"/><path d="m35 13h2v2h-2z" data-original="#000000" class="active-path" data-old_color="#000000" fill="#141214"/></g></g> </svg>
