<?xml version="1.0" encoding="UTF-8" ?>
<!DOCTYPE svg PUBLIC "-//W3C//DTD SVG 1.1//EN" "http://www.w3.org/Graphics/SVG/1.1/DTD/svg11.dtd">
<svg width="180pt" height="180pt" viewBox="0 0 180 180" version="1.1" xmlns="http://www.w3.org/2000/svg">
<g id="#ffffffff">
<path fill="#ffffff" opacity="1.00" d=" M 18.40 37.34 C 29.21 30.91 40.11 24.64 51.06 18.48 C 62.30 24.27 73.04 31.01 84.05 37.22 C 84.57 46.47 84.19 55.74 84.32 64.99 C 84.29 68.26 84.54 71.57 83.96 74.81 C 82.62 76.58 80.55 77.57 78.69 78.70 C 71.42 82.72 64.23 86.87 57.11 91.15 C 55.20 92.22 53.30 93.47 51.11 93.85 C 48.69 93.19 46.57 91.81 44.42 90.58 C 35.83 85.42 27.08 80.55 18.41 75.52 C 18.23 62.80 18.27 50.06 18.40 37.34 M 52.33 36.22 C 49.07 37.36 46.87 40.18 44.72 42.73 C 40.41 48.07 35.97 53.31 31.50 58.51 C 29.23 61.23 26.71 64.25 26.74 67.99 C 26.59 73.82 31.96 79.24 37.86 78.70 C 42.01 78.67 45.04 75.47 47.51 72.52 C 52.17 66.85 56.90 61.23 61.68 55.66 C 64.19 52.70 66.83 49.15 66.20 45.02 C 65.64 38.61 58.38 33.94 52.33 36.22 M 49.21 73.03 C 51.61 75.36 54.42 77.74 57.99 77.55 C 64.42 78.06 69.91 71.52 68.58 65.27 C 68.19 61.56 65.09 59.18 62.19 57.31 C 57.63 62.35 53.11 67.45 49.21 73.03 Z" />
<path fill="#ffffff" opacity="1.00" d=" M 96.93 37.24 C 107.95 30.99 118.71 24.29 129.95 18.45 C 140.93 24.57 151.81 30.89 162.63 37.30 C 162.78 50.05 162.83 62.81 162.60 75.57 C 159.99 77.05 157.38 78.53 154.77 80.00 C 153.55 74.91 153.34 69.54 151.27 64.69 C 149.73 61.32 145.73 60.60 142.58 59.53 C 141.43 65.13 146.67 69.39 145.66 74.95 C 145.52 78.60 144.90 83.82 140.22 83.93 C 143.54 79.88 144.68 74.48 143.50 69.40 C 142.45 67.21 139.12 66.52 137.42 68.33 C 134.07 72.23 133.09 77.68 134.25 82.62 C 133.29 81.67 132.26 80.78 131.48 79.67 C 131.50 76.32 132.78 73.12 134.13 70.11 C 135.33 67.30 138.21 65.94 140.63 64.39 C 140.68 62.67 140.73 60.94 140.77 59.22 C 139.56 58.79 138.35 58.36 137.14 57.94 C 135.52 61.23 133.88 64.51 132.14 67.73 C 131.38 64.99 130.65 62.24 129.73 59.55 C 127.47 61.87 127.03 65.10 126.46 68.15 C 124.68 64.87 123.05 61.52 121.60 58.09 C 120.64 58.31 119.68 58.53 118.73 58.77 C 117.57 63.38 116.86 68.23 117.91 72.94 C 118.51 75.93 120.79 78.11 122.55 80.46 C 121.16 81.70 119.06 83.96 117.55 81.59 C 115.86 74.34 115.35 66.84 115.96 59.42 C 112.70 60.64 108.54 61.51 107.09 65.12 C 105.25 69.61 104.95 74.52 104.03 79.24 C 101.61 77.96 98.68 77.12 96.99 74.83 C 96.38 71.25 96.69 67.60 96.66 64.00 C 96.84 55.08 96.38 46.15 96.93 37.24 M 124.34 29.36 C 120.41 30.22 117.80 34.07 118.09 38.02 C 118.08 44.52 120.27 52.42 126.63 55.37 C 133.14 57.57 139.06 51.39 140.20 45.40 C 140.86 41.23 141.44 36.52 139.36 32.65 C 136.07 27.96 129.33 28.09 124.34 29.36 Z" />
<path fill="#ffffff" opacity="1.00" d=" M 49.04 41.98 C 50.99 39.67 54.14 39.31 56.90 38.63 C 50.33 41.62 45.96 47.46 41.81 53.11 C 45.16 56.24 48.63 59.24 52.14 62.20 C 48.92 66.55 45.78 71.08 41.57 74.55 C 37.28 77.88 30.38 74.80 29.57 69.53 C 28.76 65.21 32.35 61.88 34.81 58.82 C 39.73 53.36 44.14 47.45 49.04 41.98 M 35.06 75.29 C 42.24 74.57 46.56 68.23 49.84 62.51 C 44.46 66.27 41.10 72.33 35.06 75.29 Z" />
<path fill="#ffffff" opacity="1.00" d=" M 85.03 90.00 C 87.41 88.85 90.19 86.45 92.88 88.15 C 98.30 90.92 103.37 94.34 108.71 97.28 C 113.74 100.17 118.93 102.81 123.66 106.20 C 123.67 118.71 123.73 131.22 123.62 143.73 C 116.38 148.65 108.49 152.49 101.02 157.04 C 97.68 158.89 94.59 161.31 90.91 162.46 C 88.10 161.90 85.71 160.17 83.25 158.80 C 74.86 153.70 66.15 149.15 57.86 143.89 C 57.48 131.28 57.58 118.65 57.81 106.04 C 66.68 100.36 76.06 95.52 85.03 90.00 M 79.63 101.63 C 77.84 103.42 77.00 105.89 76.12 108.20 C 73.30 116.24 70.49 124.29 67.30 132.20 C 65.97 135.77 64.86 140.31 67.52 143.56 C 69.42 146.24 72.88 146.75 75.93 146.72 C 82.97 146.70 90.00 146.59 97.04 146.73 C 100.09 146.57 104.20 147.14 105.98 143.99 C 108.20 140.10 108.98 135.59 110.35 131.37 C 111.84 125.85 114.10 120.53 115.09 114.88 C 115.54 112.98 114.27 111.34 113.56 109.69 C 109.39 120.48 107.29 131.96 102.84 142.64 C 92.10 142.61 81.34 142.99 70.61 142.41 C 70.04 141.37 69.47 140.33 68.89 139.29 C 77.61 138.64 86.35 139.26 95.08 139.05 C 97.10 138.81 99.96 139.21 100.92 136.91 C 103.49 131.68 104.48 125.86 106.34 120.36 C 107.75 115.23 109.97 110.28 110.61 104.97 C 111.05 102.78 109.01 101.02 106.95 101.01 C 100.99 100.36 94.98 100.90 89.00 100.70 C 85.89 100.81 82.57 100.38 79.63 101.63 Z" />
<path fill="#ffffff" opacity="1.00" d=" M 84.11 108.77 C 90.48 108.45 96.87 108.46 103.25 108.80 C 103.15 109.59 102.95 111.17 102.85 111.96 C 96.23 112.56 89.58 112.51 82.96 112.02 C 83.34 110.94 83.72 109.85 84.11 108.77 Z" />
<path fill="#ffffff" opacity="1.00" d=" M 81.38 116.41 C 87.91 116.06 94.45 116.11 100.98 116.30 C 100.79 117.38 100.59 118.47 100.39 119.55 C 93.87 120.05 87.33 119.89 80.80 119.80 C 80.99 118.67 81.18 117.54 81.38 116.41 Z" />
</g>
<g id="#dc3546ff">
<path fill="#dc3546" opacity="1.00" d=" M 18.77 31.76 C 29.65 25.75 40.28 19.30 51.12 13.20 C 63.70 20.10 76.02 27.47 88.45 34.63 C 88.90 49.00 88.59 63.39 88.62 77.77 C 81.98 82.22 74.82 85.83 67.97 89.95 C 62.36 93.14 56.92 96.63 51.07 99.39 C 38.60 92.37 26.19 85.24 13.90 77.91 C 13.53 66.94 13.91 55.97 13.72 45.00 C 13.74 41.75 13.49 38.46 14.12 35.25 C 15.30 33.67 17.12 32.77 18.77 31.76 M 18.40 37.34 C 18.27 50.06 18.23 62.80 18.41 75.52 C 27.08 80.55 35.83 85.42 44.42 90.58 C 46.57 91.81 48.69 93.19 51.11 93.85 C 53.30 93.47 55.20 92.22 57.11 91.15 C 64.23 86.87 71.42 82.72 78.69 78.70 C 80.55 77.57 82.62 76.58 83.96 74.81 C 84.54 71.57 84.29 68.26 84.32 64.99 C 84.19 55.74 84.57 46.47 84.05 37.22 C 73.04 31.01 62.30 24.27 51.06 18.48 C 40.11 24.64 29.21 30.91 18.40 37.34 Z" />
<path fill="#dc3546" opacity="1.00" d=" M 52.33 36.22 C 58.38 33.94 65.64 38.61 66.20 45.02 C 66.83 49.15 64.19 52.70 61.68 55.66 C 56.90 61.23 52.17 66.85 47.51 72.52 C 45.04 75.47 42.01 78.67 37.86 78.70 C 31.96 79.24 26.59 73.82 26.74 67.99 C 26.71 64.25 29.23 61.23 31.50 58.51 C 35.97 53.31 40.41 48.07 44.72 42.73 C 46.87 40.18 49.07 37.36 52.33 36.22 M 49.04 41.98 C 44.14 47.45 39.73 53.36 34.81 58.82 C 32.35 61.88 28.76 65.21 29.57 69.53 C 30.38 74.80 37.28 77.88 41.57 74.55 C 45.78 71.08 48.92 66.55 52.14 62.20 C 48.63 59.24 45.16 56.24 41.81 53.11 C 45.96 47.46 50.33 41.62 56.90 38.63 C 54.14 39.31 50.99 39.67 49.04 41.98 Z" />
<path fill="#dc3546" opacity="1.00" d=" M 49.21 73.03 C 53.11 67.45 57.63 62.35 62.19 57.31 C 65.09 59.18 68.19 61.56 68.58 65.27 C 69.91 71.52 64.42 78.06 57.99 77.55 C 54.42 77.74 51.61 75.36 49.21 73.03 Z" />
<path fill="#dc3546" opacity="1.00" d=" M 35.06 75.29 C 41.10 72.33 44.46 66.27 49.84 62.51 C 46.56 68.23 42.24 74.57 35.06 75.29 Z" />
</g>
<g id="#007affff">
<path fill="#007aff" opacity="1.00" d=" M 92.49 34.54 C 105.04 27.57 117.29 20.05 129.89 13.17 C 142.33 20.45 155.02 27.32 167.24 34.96 C 167.31 49.27 167.45 63.58 167.16 77.88 C 154.85 85.20 142.43 92.36 129.94 99.38 C 123.04 96.04 116.63 91.81 109.93 88.10 C 104.08 84.65 98.03 81.54 92.38 77.76 C 92.40 63.35 92.25 48.94 92.49 34.54 M 96.93 37.24 C 96.38 46.15 96.84 55.08 96.66 64.00 C 96.69 67.60 96.38 71.25 96.99 74.83 C 98.68 77.12 101.61 77.96 104.03 79.24 C 104.95 74.52 105.25 69.61 107.09 65.12 C 108.54 61.51 112.70 60.64 115.96 59.42 C 115.35 66.84 115.86 74.34 117.55 81.59 C 119.06 83.96 121.16 81.70 122.55 80.46 C 120.79 78.11 118.51 75.93 117.91 72.94 C 116.86 68.23 117.57 63.38 118.73 58.77 C 119.68 58.53 120.64 58.31 121.60 58.09 C 123.05 61.52 124.68 64.87 126.46 68.15 C 127.03 65.10 127.47 61.87 129.73 59.55 C 130.65 62.24 131.38 64.99 132.14 67.73 C 133.88 64.51 135.52 61.23 137.14 57.94 C 138.35 58.36 139.56 58.79 140.77 59.22 C 140.73 60.94 140.68 62.67 140.63 64.39 C 138.21 65.94 135.33 67.30 134.13 70.11 C 132.78 73.12 131.50 76.32 131.48 79.67 C 132.26 80.78 133.29 81.67 134.25 82.62 C 133.09 77.68 134.07 72.23 137.42 68.33 C 139.12 66.52 142.45 67.21 143.50 69.40 C 144.68 74.48 143.54 79.88 140.22 83.93 C 144.90 83.82 145.52 78.60 145.66 74.95 C 146.67 69.39 141.43 65.13 142.58 59.53 C 145.73 60.60 149.73 61.32 151.27 64.69 C 153.34 69.54 153.55 74.91 154.77 80.00 C 157.38 78.53 159.99 77.05 162.60 75.57 C 162.83 62.81 162.78 50.05 162.63 37.30 C 151.81 30.89 140.93 24.57 129.95 18.45 C 118.71 24.29 107.95 30.99 96.93 37.24 Z" />
<path fill="#007aff" opacity="1.00" d=" M 124.34 29.36 C 129.33 28.09 136.07 27.96 139.36 32.65 C 141.44 36.52 140.86 41.23 140.20 45.40 C 139.06 51.39 133.14 57.57 126.63 55.37 C 120.27 52.42 118.08 44.52 118.09 38.02 C 117.80 34.07 120.41 30.22 124.34 29.36 Z" />
</g>
<g id="#ff9a66ff">
<path fill="#ff9a66" opacity="1.00" d=" M 83.67 85.66 C 85.98 84.37 88.25 82.79 90.90 82.33 C 93.75 83.07 96.21 84.79 98.73 86.25 C 108.32 92.13 118.31 97.35 127.88 103.25 C 128.43 110.16 128.18 117.08 128.17 124.00 C 128.12 131.56 128.52 139.13 127.83 146.67 C 118.00 152.64 107.83 158.03 98.02 164.02 C 95.72 165.35 93.47 166.89 90.89 167.63 C 88.04 167.06 85.63 165.30 83.15 163.90 C 73.35 157.94 63.22 152.57 53.45 146.58 C 53.17 132.16 53.29 117.74 53.39 103.32 C 63.37 97.24 73.66 91.69 83.67 85.66 M 85.03 90.00 C 76.06 95.52 66.68 100.36 57.81 106.04 C 57.58 118.65 57.48 131.28 57.86 143.89 C 66.15 149.15 74.86 153.70 83.25 158.80 C 85.71 160.17 88.10 161.90 90.91 162.46 C 94.59 161.31 97.68 158.89 101.02 157.04 C 108.49 152.49 116.38 148.65 123.62 143.73 C 123.73 131.22 123.67 118.71 123.66 106.20 C 118.93 102.81 113.74 100.17 108.71 97.28 C 103.37 94.34 98.30 90.92 92.88 88.15 C 90.19 86.45 87.41 88.85 85.03 90.00 Z" />
<path fill="#ff9a66" opacity="1.00" d=" M 79.63 101.63 C 82.57 100.38 85.89 100.81 89.00 100.70 C 94.98 100.90 100.99 100.36 106.95 101.01 C 109.01 101.02 111.05 102.78 110.61 104.97 C 109.97 110.28 107.75 115.23 106.34 120.36 C 104.48 125.86 103.49 131.68 100.92 136.91 C 99.96 139.21 97.10 138.81 95.08 139.05 C 86.35 139.26 77.61 138.64 68.89 139.29 C 69.47 140.33 70.04 141.37 70.61 142.41 C 81.34 142.99 92.10 142.61 102.84 142.64 C 107.29 131.96 109.39 120.48 113.56 109.69 C 114.27 111.34 115.54 112.98 115.09 114.88 C 114.10 120.53 111.84 125.85 110.35 131.37 C 108.98 135.59 108.20 140.10 105.98 143.99 C 104.20 147.14 100.09 146.57 97.04 146.73 C 90.00 146.59 82.97 146.70 75.93 146.72 C 72.88 146.75 69.42 146.24 67.52 143.56 C 64.86 140.31 65.97 135.77 67.30 132.20 C 70.49 124.29 73.30 116.24 76.12 108.20 C 77.00 105.89 77.84 103.42 79.63 101.63 M 84.11 108.77 C 83.72 109.85 83.34 110.94 82.96 112.02 C 89.58 112.51 96.23 112.56 102.85 111.96 C 102.95 111.17 103.15 109.59 103.25 108.80 C 96.87 108.46 90.48 108.45 84.11 108.77 M 81.38 116.41 C 81.18 117.54 80.99 118.67 80.80 119.80 C 87.33 119.89 93.87 120.05 100.39 119.55 C 100.59 118.47 100.79 117.38 100.98 116.30 C 94.45 116.11 87.91 116.06 81.38 116.41 Z" />
</g>
</svg>
