<?xml version="1.0"?>
<svg xmlns="http://www.w3.org/2000/svg" id="Capa_1" enable-background="new 0 0 512 512" height="512px" viewBox="0 0 512 512" width="512px"><g><g><path d="m190.972 292.041c-11.03 0-20.004 8.974-20.004 20.004s8.974 20.004 20.004 20.004 20.004-8.974 20.004-20.004-8.974-20.004-20.004-20.004z" data-original="#000000" class="active-path" data-old_color="#000000" fill="#141214"/><circle cx="256" cy="165.048" r="15" data-original="#000000" class="active-path" data-old_color="#000000" fill="#141214"/><path d="m256 75c-99.804 0-181 81.196-181 181s81.196 181 181 181 181-81.196 181-181-81.196-181-181-181zm-65.028 287.049c-27.573 0-50.004-22.432-50.004-50.004s22.432-50.004 50.004-50.004 50.004 22.432 50.004 50.004-22.432 50.004-50.004 50.004zm65.028-152.001c-24.813 0-45-20.187-45-45s20.187-45 45-45 45 20.187 45 45-20.187 45-45 45zm75.06 121h-30.024v-30h30.024zm30.024-60.048h-30.024v-30h30.024z" data-original="#000000" class="active-path" data-old_color="#000000" fill="#141214"/><path d="m437.02 74.98c-48.353-48.351-112.64-74.98-181.02-74.98s-132.667 26.629-181.02 74.98c-48.351 48.353-74.98 112.64-74.98 181.02s26.629 132.667 74.98 181.02c48.353 48.351 112.64 74.98 181.02 74.98s132.667-26.629 181.02-74.98c48.351-48.353 74.98-112.64 74.98-181.02s-26.629-132.667-74.98-181.02zm-181.02 392.02c-116.346 0-211-94.654-211-211s94.654-211 211-211 211 94.654 211 211-94.654 211-211 211z" data-original="#000000" class="active-path" data-old_color="#000000" fill="#141214"/></g></g> </svg>
