<?xml version="1.0"?>
<svg xmlns="http://www.w3.org/2000/svg" id="Layer_3" enable-background="new 0 0 64 64" height="512px" viewBox="0 0 64 64" width="512px"><g><g><path d="m39.999 32c0-.552-.448-1-1-1s-1 .448-1 1c0 .551.448 1 1 1s1-.449 1-1z" data-original="#000000" class="active-path" data-old_color="#000000" fill="#141214"/><path d="m44 32c0-3.309-2.691-6-6-6-1.494 0-2.898.548-4 1.542v8.917c1.103.993 2.506 1.541 4 1.541 3.308-.001 6-2.692 6-6zm-8 0c0-1.654 1.345-3 3-3 1.654 0 3 1.346 3 3s-1.346 3-3 3c-1.655-.001-3-1.347-3-3z" data-original="#000000" class="active-path" data-old_color="#000000" fill="#141214"/><path d="m44 44h-2.001v2h-2v-2c-1.103 0-2 .897-2 2s.897 2 2 2h4c1.102 0 1.999-.897 1.999-1.999.001-1.105-.896-2.001-1.998-2.001z" data-original="#000000" class="active-path" data-old_color="#000000" fill="#141214"/><path d="m27 32.999c.551 0 1-.448 1-1s-.448-1-1-1-1 .448-1 1 .448 1 1 1z" data-original="#000000" class="active-path" data-old_color="#000000" fill="#141214"/><path d="m32 3c-15.991 0-29 13.009-29 29 0 15.99 13.01 29 29 29s29-13.01 29-29c0-15.991-13.01-29-29-29zm14 17c0-2.206 1.794-4 4-4s4 1.794 4 4v4c0 2.205-1.794 3.999-3.999 3.999-2.206 0-4-1.794-4-3.999v-4zm8.999 13v2h-2v-2zm-3.999 3v2h-2v-2zm-3.001 10c0 2.206-1.794 4-3.999 4h-4c-2.206 0-4-1.794-4-3.999 0-2.206 1.794-4 4-4h4c2.205-.001 3.999 1.792 3.999 3.999zm-7.999-27.586c0-1.179.458-2.288 1.292-3.121.457-.457.708-1.063.708-1.708v-.172c0-.645-.251-1.25-.708-1.707l-1-1.001 1.415-1.414 1 1c.834.835 1.293 1.944 1.293 3.123v.172c0 1.179-.459 2.287-1.293 3.121-.456.456-.707 1.062-.707 1.707v.172c0 .645.25 1.25.707 1.707l1 1-1.415 1.415-1-1c-.834-.834-1.293-1.943-1.292-3.122zm-6-9.414c2.205 0 3.999 1.794 3.999 4s-1.794 4-3.999 4h-4c-2.206 0-4-1.794-4-3.999 0-2.206 1.794-4 4-4h4zm-29 22.999c0-14.888 12.112-27 27-27v2c-13.785 0-25 11.215-25 25zm17-15.999v2c-3.859 0-7 3.14-7 7h-2c0-4.963 4.037-9 9-9zm-6 31.999h-2v-2h2zm1-8.999c0 2.205-1.794 3.999-4 3.999s-4-1.794-4-3.999v-4c0-2.206 1.794-4 3.999-4 2.206 0 4 1.794 4 4v4zm6-19v2c-.74 0-1.424.215-2.019.567l2.706 2.706c1.246-.802 2.724-1.273 4.313-1.273 1.842 0 3.585.618 5 1.757 1.414-1.14 3.157-1.757 5-1.757 4.412 0 8 3.588 8 8 0 4.411-3.588 8-8 8-1.842 0-3.585-.618-5-1.757-1.415 1.139-3.158 1.757-5 1.757-4.412 0-8-3.588-8-8 0-2.1.82-4.008 2.148-5.437l-2.582-2.582c-.351.594-.566 1.279-.566 2.018h-2c0-3.308 2.691-5.999 6-5.999zm-.415 27h-.172c-.645 0-1.25.251-1.707.707l-1.001 1-1.414-1.415 1-1c.835-.834 1.944-1.292 3.123-1.292h.172c1.179 0 2.287.459 3.121 1.292.456.456 1.062.708 1.707.708h.172c.645 0 1.251-.251 1.707-.707l1-1 1.415 1.414-1 1c-.833.834-1.942 1.292-3.121 1.292h-.172c-1.179 0-2.288-.458-3.121-1.292-.458-.457-1.064-.707-1.709-.707zm7.829 6c-.645 0-1.25.251-1.707.707l-1.001 1-1.414-1.415 1-1c.834-.834 1.943-1.292 3.122-1.292h.172c1.179 0 2.287.459 3.121 1.292.456.456 1.062.708 1.707.708h.172c.645 0 1.251-.251 1.707-.707l1-1 1.415 1.414-1 1c-.833.834-1.942 1.292-3.121 1.292h-.172c-1.179 0-2.288-.458-3.121-1.292-.458-.457-1.064-.707-1.709-.707zm1.586 5.999v-2c13.785 0 25-11.215 25-25h2c-.001 14.888-12.113 27-27 27z" data-original="#000000" class="active-path" data-old_color="#000000" fill="#141214"/><path d="m13 33c-1.103 0-2 .897-2 2v4c0 1.102.897 1.999 1.999 1.999h.001c1.103 0 2-.897 2-1.999v-.001h-2v-2h2v-2c0-1.103-.897-1.999-2-1.999z" data-original="#000000" class="active-path" data-old_color="#000000" fill="#141214"/><path d="m50 25.999c1.103 0 2-.897 2-1.999v-4c0-1.103-.897-2-1.999-2-1.104 0-2 .897-2 2h2v2h-2v2c-.001 1.102.895 1.999 1.999 1.999z" data-original="#000000" class="active-path" data-old_color="#000000" fill="#141214"/><path d="m30 11c-1.103 0-2 .897-2 2s.897 2 2 2h4c1.102 0 1.999-.897 1.999-1.999 0-1.104-.897-2-1.999-2h-2.001v2h-2v-2.001z" data-original="#000000" class="active-path" data-old_color="#000000" fill="#141214"/><path d="m28 37.999c1.493 0 2.896-.548 4-1.54v-8.919c-1.104-.992-2.507-1.54-4-1.54-3.309 0-6 2.691-6 6 0 3.308 2.691 5.999 6 5.999zm-1-8.999c1.654 0 3 1.346 3 3s-1.346 3-3 3-3-1.346-3-3c0-1.655 1.345-3 3-3z" data-original="#000000" class="active-path" data-old_color="#000000" fill="#141214"/></g></g> </svg>
