<svg xmlns="http://www.w3.org/2000/svg" viewBox="0 0 887.37 1024"><defs><style>.cls-1{fill:#fff;}.cls-2{fill:#652d90;}.cls-3{fill:#7f38b6;}</style></defs><title>Ресурс 1</title><g id="Слой_2" data-name="Слой 2"><g id="Layer_1" data-name="Layer 1"><path class="cls-1" d="M10.46,262Q227.1,137.18,443.53,12C588.08,95.11,732.29,178.82,876.89,261.88q.19,250.1,0,500.24Q660,886.78,443.53,1012,227,887,10.46,762.07,10.33,512,10.46,262Z"/><path class="cls-2" d="M.07,256Q221.9,128.18,443.52,0c148,85.1,295.7,170.82,443.76,255.88q.2,256.1,0,512.24Q665.23,895.78,443.52,1024,221.82,896,.07,768.08-.07,512,.07,256ZM52,285.85c.22,150.91-.13,301.78.18,452.65q195.78,113,391.52,226c131-74.47,260.82-151,391.83-225.51.48-151.26.22-302.48.13-453.74C704.87,210.37,574.74,134.46,444,59.51,313.44,135.12,182.52,210.2,52,285.85Z"/><path class="cls-2" d="M517.37,316.92a119.9,119.9,0,0,0-77.74-29.23,110.31,110.31,0,0,0-75.42,29.23L343.72,215.31c107.79-16.1,191.8,0,191.8,0C536.91,256,517.37,316.92,517.37,316.92Z"/><path class="cls-3" d="M574.31,799.24c7.49-35.26,16.34-52.89,16.34-52.89a301.34,301.34,0,0,0,66.93-9c-255.14-246.6-313.85-522-313.85-522-27.75,21.35-54.44,77.93-54.44,77.93C344.79,570.79,574.31,799.24,574.31,799.24Z"/><path class="cls-2" d="M513,569q-20.76-29.36-38.49-57.64l-61,79.72c16.29,26.23,32.76,50.57,48.66,72.67A790.88,790.88,0,0,0,513,569Z"/><path class="cls-3" d="M304.94,799.24c-7.49-35.26-16.34-52.89-16.34-52.89a301.34,301.34,0,0,1-66.93-9c255.14-246.6,313.85-522,313.85-522C563.28,236.66,590,293.24,590,293.24,534.46,570.79,304.94,799.24,304.94,799.24Z"/><path class="cls-2" d="M503.91,541.74c39.34-71.63,75.94-156.59,94-246.91a8.09,8.09,0,0,0-.62-5c-1.13-2.39-27.86-58.62-56.85-80.9a8.57,8.57,0,0,0-3.41-1.53c-3.49-.67-86.61-16.18-194.52-.06a10.57,10.57,0,0,0-3.74,1.59c-29,22.29-55.71,78.51-56.83,80.89a8.09,8.09,0,0,0-.62,5c15.89,79.5,47.49,162.54,93.87,246.87A1195,1195,0,0,1,216,731.51a8.09,8.09,0,0,0,3.47,13.61,305.5,305.5,0,0,0,63.76,9.16A272.41,272.41,0,0,1,297,800.92,8.09,8.09,0,0,0,310.64,805c.58-.58,58.63-58.68,122.62-150,2.1-3,4.22-6.06,6.36-9.17,18.19,32,128.39,158.6,129,159.18a8.09,8.09,0,0,0,13.63-4.05A272.54,272.54,0,0,1,596,754.29a305.54,305.54,0,0,0,63.76-9.16,8.09,8.09,0,0,0,3.47-13.61A1195.9,1195.9,0,0,1,503.91,541.74ZM339.16,230.47c8.48,31.85,34.28,117,91.2,221.5-13.06,23.51-28,48.51-45,74.48C342.5,447.08,313,369,297.76,294.32,302.33,285.07,319.86,251,339.16,230.47ZM439.6,435a1122.55,1122.55,0,0,1-56.33-122.74,103.88,103.88,0,0,1,56.36-16.49,111.39,111.39,0,0,1,56.65,15.82c-8,20.72-17.74,44-29.57,69.31C458.92,397.56,449.92,415.71,439.6,435ZM353.69,222.07a646.46,646.46,0,0,1,171.93-.16c-3.2,12.53-10.49,38.71-23.56,74.35a127.25,127.25,0,0,0-62.43-16.65,119.87,119.87,0,0,0-62.18,17.24c-13.17-35.8-20.52-62.1-23.76-74.77ZM581.5,294.32C552.69,435.26,477.88,563.07,420,645.68a1281.07,1281.07,0,0,1-110.57,137.2c-6.67-26.16-13.28-39.51-13.61-40.16a8.09,8.09,0,0,0-7.06-4.46A304.67,304.67,0,0,1,238,732.71,1216.73,1216.73,0,0,0,481.61,387.28c35-74.85,52-131.92,58.53-156.76C559.42,251,576.92,285.07,581.5,294.32Zm-86.43,263.2q4.26,6.21,8.6,12.37a798.18,798.18,0,0,1-42,79.31q-6.14-8.71-12.33-17.8C464.24,609.15,479.77,584.36,495.07,557.52ZM641.28,732.71a305.12,305.12,0,0,1-50.8,5.55,8.09,8.09,0,0,0-7.06,4.46c-.32.65-6.94,14-13.6,40.15a1270.66,1270.66,0,0,1-97.9-119.42A781.65,781.65,0,0,0,514.47,585,1212.34,1212.34,0,0,0,641.28,732.71Z"/></g></g></svg>