<?xml version="1.0" encoding="utf-8"?>
<!-- Generator: Adobe Illustrator 18.1.1, SVG Export Plug-In . SVG Version: 6.00 Build 0)  -->
<svg version="1.1" id="Layer_1" xmlns="http://www.w3.org/2000/svg" xmlns:xlink="http://www.w3.org/1999/xlink" x="0px" y="0px"
	 viewBox="515.4 0 1017.4 1024" enable-background="new 515.4 0 1017.4 1024" xml:space="preserve">
<g>
	<g id="head">
		<g>
			<path fill="#FFFFFF" d="M515.4,142.7C598,95,680.6,47.5,762.9-0.3c82.6,47.7,165.2,95.2,247.5,143c0,95.5,0,191,0,286.2
				c-81.6,47-163.4,94.2-245,141.5c-2.3,2.3-5.1,0.3-7.3-1c-81.1-47-162.2-93.5-243.2-140.4C515.4,333.4,515.4,237.9,515.4,142.7z"
				/>
		</g>
		<g>
			<path fill="#005A51" d="M515.4,142.7C598,95,680.6,47.5,762.9-0.3c82.6,47.7,165.2,95.2,247.5,143c0,95.5,0,191,0,286.2
				c-81.6,47-163.4,94.2-245,141.5c-2.3,2.3-5.1,0.3-7.3-1c-80.6-47-161.9-93.7-242.7-140.7C515.4,333.4,515.4,237.9,515.4,142.7z
				 M544.2,159.4c0,84.4,0,168.5,0,252.8c73,42.2,146,84.4,218.7,126.3c73-42.2,145.7-84.1,218.7-126.3c0-84.4,0-168.5,0-252.8
				c-73-42.2-145.7-84.1-218.7-126.3C690.2,75,617.2,117.2,544.2,159.4z"/>
		</g>
		<g>
			<path fill="#005A51" d="M687.7,140.9c25-16.7,55.6-24,85.4-22.2c31.3,1.3,63.9,10.4,86.9,32.6c20,18.7,30.1,46.2,31.3,73.3
				c0.5,11.9,1.5,24.8,8.8,34.6c6.6,11.1,18.9,18.2,22.5,31.1c1.8,4.5-1,9.3-5.1,11.4c-6.1,3.3-11.9,7.1-16.9,11.6
				c2.5,4.8,5.6,9.3,8.3,14.1c-4.8,2.8-10.1,5.3-14.9,8.3c4.5,3.8,8.3,8.3,10.9,13.9c-3.3,3.8-7.1,7.3-9.3,11.6
				c-2.5,9.1,6.8,17.2,4,26.5c-2.5,8.1-10.4,14.1-18.7,15.4c-20.7,2.3-41.2-1.3-61.6-2.8c-4.3,0-11.9-0.5-12.1,5.3
				c-1,11.6-0.3,23.2-0.8,34.9c-42.7,0.5-85.6,0.5-128.3,0.8c2.8-24.2,6.8-48.5,9.3-72.7c-4-25.5-20.7-46.2-34.9-67.2
				c-9.3-12.1-15.9-26.8-16.9-42.2c-1-17.4-1.5-35.1,3-52C646.3,180.1,664.4,156.4,687.7,140.9z M715,156.6c-0.5,2-0.8,4-1.3,6.3
				c-3,1.3-5.8,2.5-8.8,4c-2-1.5-3.8-3-5.8-4.5c-2,1.8-3.8,4-5.1,6.3c1,1,3.5,3.3,4.5,4.3c-1.3,3-2.5,5.8-3.5,8.8
				c-2.5,0.8-5.1,0.8-7.3,2.3c-0.5,2.3-0.5,4.8-0.5,7.1c2.5,0.3,5.1,0.5,7.3,1c1.5,3.5,3.3,7.3,5.1,10.9c-1.5,1.8-3,3.5-4.5,5.3
				c1.8,2.3,4,4,6.3,5.6c1.5-1.8,3-3.3,4.5-5.1c2.5,1,5.3,2,7.8,2.8c0.3,2.3,0.5,4.5,0.8,6.6c2.5,0.3,5.3,0.5,7.8,0.3
				c0.8-2.3,1.3-4.5,1.5-6.8c3-1.3,6.1-2.5,9.1-3.8c2,1.5,3.8,3,5.8,4.5c5.3-2.3,5.3-7.8,1-11.4c1.3-3,2.5-6.1,3.8-9.1
				c1.8,0,5.1-0.3,6.8-0.3c0.3-2,1-4.3,0.8-6.3c-1.3-3.3-5.6-2.5-8.1-3.5c-0.8-2.5-2.3-5.1-2-7.6c1.3-1.8,2.8-3.8,4.3-5.6
				c-1.5-1.8-3-3.3-5.1-4.8c-2.3,1-4.3,2.3-6.1,3.8c-3.5-1.5-7.1-3-10.4-4.5c-0.5-2.5-0.8-4.8-1.3-7.3
				C720,155.6,717.2,155.3,715,156.6z M781.9,171.5c-4,3.3,0,8.1,1,12.1c-3.5,3.5-7.1,7.1-10.1,10.9c-4.8-2.3-12.6-4-13.9,3.3
				c-2.3,6.1,4.8,8.1,8.8,9.9c0,5.1,0.3,10.1,0.5,15.2c-3.3,2-8.3,3-8.8,7.3c0.5,2.5,1,5.3,3.3,6.8c3.5,3.3,7.8-0.8,11.4-1.5
				c4,4,8.3,8.1,13.1,11.4c-0.8,2.8-1.5,5.3-2,8.1c0.8,4.8,7.6,7.6,11.4,4.3c2-2.5,2.8-5.6,4.3-8.6c4-0.3,8.3-0.5,12.6-0.8
				c2,4.3,5.1,11.4,11.1,8.1c6.8-2,3.8-9.3,1.8-13.9c3.5-3.5,7.1-7.1,10.1-10.9c3.3,0.8,6.3,2.5,9.9,2c3.3-1.8,4.8-5.6,4.5-9.1
				c-1.5-3.8-6.1-4.5-9.3-6.3c0-5.1,0-10.1-0.5-15.2c2.8-1.5,5.8-2.8,8.1-5.1c1.3-3,0.3-6.6-2-8.8c-3.3-3.8-8.1,0-11.9,1
				c-2.8-2.8-5.8-5.8-8.8-8.6c1.3-4.5,4.8-11.9-1.8-14.1c-6.1-3.8-9.6,3-11.1,7.8c-5.8-0.5-11.6-0.5-17.4,0
				c-1.8-2.8-2.8-6.3-5.6-8.3C787.2,168.5,784.2,169.5,781.9,171.5z M718.5,231.1c-0.5,2.5-0.8,5.1-1,7.6c-3.5,1.5-7.1,3.3-10.6,4.8
				c-2.8-3.3-7.8-7.3-11.1-2.3c-3.8,3.8,1.3,7.3,3.5,10.1c-1.5,3.5-3,7.3-4.5,10.9c-4,0.5-10.6,0.5-10.6,6.1
				c-0.8,6.3,6.1,7.6,10.9,7.6c1.8,4,3.8,8.3,5.8,12.4c-1.8,2.3-3.5,4.5-5.3,6.8c1.8,1.8,2.8,4.3,5.3,5.3c3.8,1.3,6.1-3,8.6-5.1
				c3,1.3,5.8,2.5,8.8,3.5c0.3,2.8,0.3,5.8,0.5,8.6c3.8,1,8.1,2,11.4-0.5c1-2.5,1-5.6,1.3-8.3c3.8-1.5,7.8-3,11.6-4.5
				c3,2.8,7.8,7.1,11.4,2.5c4-3.5-0.5-8.1-2.3-11.6c1.3-3.3,2.8-6.6,4-9.9c4.5-0.3,11.6-0.8,10.6-7.1c-0.3-5.8-6.6-5.8-10.9-6.3
				c-1.3-3-2.5-6.1-3.8-9.1c1.8-2.5,4.8-4.3,5.3-7.6c-0.5-3.5-4-4.8-6.3-6.3c-2.3,1.8-4.3,3.5-6.6,5.3c-4.3-2.5-8.8-4.5-13.4-6.1
				c-0.8-3,0.5-7.8-3.5-9.1C724.3,229.1,721,228.8,718.5,231.1z"/>
		</g>
		<path fill="#005A51" d="M714.2,174.8c8.8-4.3,20,3.8,18.4,13.4c-0.5,9.9-13.6,15.9-21.2,9.6C703.3,192.2,704.9,178.3,714.2,174.8z
			"/>
		<path fill="#005A51" d="M798.8,194.7c13.9-4.8,29,9.6,24.8,23.7c-2.8,13.9-21.7,20-32.1,10.4C779.6,219.8,784.2,198.3,798.8,194.7
			z"/>
		<path fill="#005A51" d="M718.2,254.1c9.6-5.1,22.5,2.3,23.5,12.9c1.8,10.4-8.3,20.2-18.7,18.7c-8.1-0.8-14.9-8.6-14.4-16.7
			C708.6,262.7,712.4,256.6,718.2,254.1z"/>
	</g>
	<g id="pill">
		<g>
			<path fill="#FFFFFF" d="M776.6,594.8c82.6-47.5,165.2-95.2,247.8-143c82.3,47.7,165.2,95.2,247.5,143c0,95.5,0.3,191,0,286.4
				c-82.6,47.5-164.9,95.2-247.5,142.7c-82.6-47.5-165.2-95.2-247.8-143C776.6,785.8,776.6,690.3,776.6,594.8z"/>
		</g>
		<g>
			<path fill="#DC3546" d="M776.6,594.8c82.6-47.5,165.2-95.2,247.8-143c82.3,47.7,165.2,95.2,247.5,143c0,95.5,0.3,191,0,286.4
				c-82.6,47.5-164.9,95.2-247.5,142.7c-82.6-47.5-165.2-95.2-247.8-143C776.6,785.8,776.6,690.3,776.6,594.8z M805.4,611.8
				c0,84.1,0,168.5,0,252.6c72.7,42.4,146,84.4,219,126.5c73-42.2,145.7-84.4,218.7-126.3c0-84.4,0.3-168.7,0-253.1
				c-73-41.9-145.7-84.1-218.7-126C951.1,527.4,878.1,569.6,805.4,611.8z"/>
		</g>
		<g>
			<path fill="#DC3546" d="M1035,603.7c30.1-8.6,64.4,6.3,79.3,33.6c11.1,20,11.6,45.5,1,65.7c-4,7.8-9.9,14.4-15.4,21
				c-38.9,46.2-77.5,92.7-116.4,138.7c-20,23.2-56.1,29.6-83.1,15.4c-16.9-8.8-30.3-24.5-35.6-42.9c-6.3-21.5-1.5-45.7,12.9-62.9
				c40.4-48.5,81.1-96.7,121.5-145C1008.5,616.1,1021.1,607.5,1035,603.7z M1009.2,642.6c-39.2,46.5-78.3,93.2-117.5,139.9
				c-11.6,13.6-15.4,33.6-9.3,50.3c7.6,22,30.6,37.4,53.8,35.4c13.9-1,27.3-8.1,36.1-18.9c20-24,40.4-47.7,60.1-72
				c-24.2-20-48-40.2-72-60.1c18.7-23.2,37.9-45.5,57.1-68.2c14.7-17.2,38.1-24.2,60.4-22.7C1054.2,617.3,1025.6,623.4,1009.2,642.6
				z"/>
		</g>
		<g>
			<path fill="#DC3546" d="M1011.2,844.7c28.3-32.8,55.6-66.4,83.9-99.3c20.5,7.8,36.9,25.8,42.2,47c7.6,27.3-3.8,58.3-27.3,74
				c-25,18.2-62.4,15.9-85.1-5.1C1019.3,856.5,1015,850.7,1011.2,844.7z M1091.1,780.3c-20.7,25.3-42.7,49.8-62.9,75.8
				c6.6-6.8,12.4-14.4,18.4-21.7c20.7-25,42.2-49.5,62.6-75C1102.7,765.9,1097.1,773.4,1091.1,780.3z M1113,763.6
				c-26.8,31.3-53.3,62.9-79.3,94.7c12.1-12.6,22.7-26.8,34.1-39.9C1082.7,800,1098.9,782.5,1113,763.6z M1133.5,809.3
				c-2,7.8-3.3,15.9-6.8,23.2c-8.6,18.4-25.3,32.6-44.7,38.4c15.7-2.5,29.8-11.6,39.2-24.5C1129.2,835.8,1132.5,822.4,1133.5,809.3z
				"/>
		</g>
		<path fill="#DC3546" d="M956.7,837.8c17.2-19.7,33.8-40.2,50.5-60.1c2.5,2.3,5.3,4.3,7.8,6.6c-16.4,19.7-32.8,39.4-49.5,58.9
			c-14.4,16.7-40.2,21.2-59.9,11.9C924.1,855.8,944.1,852,956.7,837.8z"/>
	</g>
	<g id="тet">
		<g id="net_1_">
			<path fill="#FFFFFF" d="M1038,143c82.3-47.7,164.9-95.2,247.5-143c82.3,47.5,164.9,95.2,247.3,142.7c0,95.2,0,190.2,0,285.4
				c-82.3,47.5-164.9,95.2-247.3,142.7c-80.8-46.7-161.7-93.2-242.5-139.9c-1.8-1-3.3-2.3-5.1-3.3V143z"/>
		</g>
		<g id="net">
			<path fill="#1995DC" d="M1038,143c82.3-47.7,164.9-95.2,247.5-143c82.3,47.5,164.9,95.2,247.3,142.7c0,95.2,0,190.2,0,285.4
				c-82.3,47.5-164.9,95.2-247.3,142.7c-80.8-46.7-161.7-93.2-242.5-139.9c-1.8-1-3.3-2.3-5.1-3.3V143z M1065.8,158.6
				c0,84.6,0,169,0,253.6c73.3,42.2,146.2,84.6,219.5,126.8c73.3-42.4,146.5-84.6,219.8-127.1c-0.3-84.4,0-169-0.3-253.3
				c-73.3-41.9-146.5-84.4-219.8-126.8C1212.3,74.3,1139.1,116.4,1065.8,158.6z"/>
		</g>
		<g>
			<g>
				<path fill="#1995DC" d="M1222.9,100c10.4-4.5,22-5.8,33.1-4.3c1.5,0,3,0.3,4.8,0.8c10.9,2.3,21,7.3,29,14.9
					c9.3,8.3,16.2,19.7,18.7,32.1c1.5,7.3,1.8,14.7,0.8,22c-1,7.6-3.3,14.7-6.6,21.5c-0.3,0.5-0.8,1.5,0,1.8
					c23.7,16.7,47.2,33.8,70.7,50.5c8.8-9.9,21-16.9,33.8-19.7c13.4-2.8,27.5-1.3,39.7,4.8c15.7,7.6,28,21.7,32.8,38.4
					c2.8,8.8,3.3,18.2,2,27.3c-0.3,3-1,6.1-1.8,9.1c-4.3,14.1-13.4,26.8-25.8,34.6c-5.1,3.3-10.6,5.8-16.4,7.3
					c-11.6,3.3-24,3.3-35.6-0.3c-7.8-2.5-15.4-6.3-21.7-11.6s-11.6-11.6-15.4-18.9c-5.3,1.8-10.4,4-15.7,6.1
					c-14.4,5.6-28.8,11.4-43.2,16.9c1.8,6.1,3,12.1,3.5,18.4c1,11.9,0.3,24-3.3,35.4c-0.3,1.3-0.8,2.3-1,3.5c-1,3-2.3,6.1-3.5,9.1
					c-1.5,3-3,6.1-4.8,8.8c-1.3,2.3-2.8,4.5-4.3,6.8c-5.8,8.1-13.1,15.4-21.2,21.2c-2.3,1.5-4.3,3-6.6,4.5c-0.5,0.3-1.3,0.8-1.8,1
					c-4,2.5-8.3,4.3-12.9,6.1c-1,0.5-2,0.8-3,1c-1,0.3-1.8,0.8-2.8,1l0,0c-1.3,0.3-2.5,0.8-3.8,1c-1.8,0.5-3.5,0.8-5.3,1.3
					c0,0.3,0,0.5,0,0.8l-0.3-0.5c-4,0.8-8.1,1.3-12.1,1.5c-0.5,0.3-1,0.3-1.8,0.3c-2.5,0-5.1,0-7.6,0c-0.8,0-1.5,0-2-0.3
					c-2.5,0-4.8-0.3-7.3-0.8c-2-0.3-4-0.5-6.1-1c-1.5-0.3-3-0.8-4.5-1c-1.3-0.3-2.5-0.8-3.5-1c-1.3-0.5-2.3-0.8-3.5-1l0,0
					c-1-0.3-1.8-0.5-2.8-1c-0.8-0.3-1.8-0.8-2.5-1c-3.5-1.5-7.3-3.3-10.6-5.3c-0.5-0.3-1.3-0.8-1.8-1c-1-0.8-2.3-1.5-3.3-2
					c-1.5-0.8-2.8-2-4.3-2.8c-9.9-7.1-17.9-16.2-24.2-26.5c-7.3-11.9-11.6-25.3-13.1-39.2c-1.5-15.2,0.5-30.8,6.3-45
					c8.3-20.5,24.2-37.9,44.2-47.7c13.6-7.1,28.8-10.4,44-10.1c1.8,0,3.8,0.3,5.6,0.3c2.3-16.7,5.1-33.3,7.3-50
					c-8.6-2.3-16.7-6.3-23.5-11.9c-6.8-5.6-12.6-12.9-16.7-20.7c-9.6-19.4-8.1-44,4-62.1C1201.9,112.7,1211.5,104.8,1222.9,100z
					 M1245.6,120.7c-3,0.5-6.3,1.5-8.8,3.3c-4.3,3-7.3,8.1-7.8,13.4c-1,9.1,6.3,18.4,15.4,19.7c4.3,0.8,9.1-0.3,12.6-2.8
					c4.3-2.8,7.3-7.3,8.1-12.1c0.8-4.5-0.3-9.3-2.8-13.4c-2.3-3.5-6.1-6.1-10.1-7.3C1250.2,120.7,1247.9,120.2,1245.6,120.7z
					 M1241.9,182.9c-11.9,2-22.2,11.9-24.2,24c9.3,5.6,20.2,8.6,31.1,8.3c10.1-0.3,20-3,28.5-8.1c-1.8-8.8-7.6-16.7-15.4-20.7
					C1255.8,182.9,1248.7,181.6,1241.9,182.9z M1286.8,205.9c-4.8,4-10.4,7.1-16.2,9.3c-8.3,3.3-17.2,4.8-26.3,4.5
					c-2.3,16.7-5.1,33.3-7.6,50c16.7,3.5,32.1,12.1,44.2,24c8.1,7.6,14.7,16.9,19.4,26.8c19.4-7.8,39.2-15.4,58.9-23.2
					c-3.3-13.4-2.5-28,2.8-40.9c0.8-2,2-4,2.8-6.1c-2.8-1.8-5.3-3.8-8.1-5.8c-21.2-15.2-42.2-30.3-63.7-45.2
					C1291.6,201.6,1289.3,203.8,1286.8,205.9z M1417.2,244.3c-1,0.3-2.3,0.5-3.3,0.8c-7.6,2.5-12.9,10.6-12.4,18.4
					c0.5,6.6,4.5,12.6,10.6,15.4c2.5,1.3,5.1,1.5,7.8,2c6.1-0.3,11.9-3.3,15.2-8.1c3-4,4-9.6,2.8-14.4c-1-4-3.3-7.8-6.6-10.4
					C1427.5,245,1422.2,243.2,1417.2,244.3z M1212.6,299.8c-5.6,0.8-11.1,3.3-15.4,6.8c-5.3,4.5-9.1,10.6-10.6,17.7
					c-2.3,10.9,2,22.5,10.6,29.6c5.3,4.5,12.4,7.1,19.2,7.3c7.8-0.3,15.7-3,21.5-8.8c5.8-5.6,9.3-13.4,9.6-21.5
					c0.5-12.1-7.3-24.2-18.4-28.8C1223.4,300.1,1217.9,298.8,1212.6,299.8z M1410.8,306.9c-10.1,3.3-18.4,12.1-20.7,22.5
					c1.5,0.8,2.8,1.8,4.5,2.5c2.5,1,5.1,2.5,7.6,3c5.1,1.5,10.4,2.8,15.7,2.5c2,0,4,0,6.1,0c5.3-0.3,10.4-1.8,15.2-3.3
					c3.5-1.5,7.1-3,10.4-5.1c-2.8-11.6-12.9-21.5-25-23C1419.9,305.9,1415.1,305.4,1410.8,306.9z M1183.8,396.8
					c-9.9,7.3-17.4,18.2-20.5,30.1c0.3,0.3,0.5,0.5,0.8,0.8c0.3,0.3,0.8,0.5,1,0.8c0.3,0,0.5,0.3,0.5,0.3c0.3,0,0.5,0.3,0.5,0.5
					c1,0.8,2,1.8,3,2.5c2.8,1.8,5.6,3.5,8.6,5.1c3,1.3,6.1,2.8,9.1,4c1.5,0.8,3.3,1.3,4.8,1.5c3.3,1,6.6,2,9.9,2.5
					c2.3,0.5,4.8,0.8,7.1,1c1,0.5,2,0.3,3,0.3c3.5,0,7.1,0,10.4,0c1.3,0,2.3,0.3,3.5-0.3c2.3-0.3,4.5-0.5,6.6-1c1,0,2.3-0.3,3.3-0.5
					c2.3-0.8,4.3-1,6.6-1.8c1.3-0.3,2.5-0.5,3.8-1c2-0.5,4-1.8,6.1-2.5c1.8-0.8,3.3-1.5,5.1-2.3c3.5-2.3,7.3-3.8,10.1-6.8
					c1-0.8,2-1.3,3-2c0-0.3-0.3-0.8-0.3-1c-2.8-10.6-9.1-20.2-17.4-27.3c-8.1-7.1-18.4-11.6-29.3-12.9
					C1209.3,384.7,1194.9,388.5,1183.8,396.8z"/>
			</g>
		</g>
	</g>
</g>
</svg>
