<?xml version="1.0"?>
<svg xmlns="http://www.w3.org/2000/svg" height="512px" viewBox="0 0 512 512" width="512px"><g><path d="m377 361c-8.277344 0-15 6.722656-15 15s6.722656 15 15 15 15-6.722656 15-15-6.722656-15-15-15zm0 0" data-original="#000000" class="active-path" data-old_color="#000000" fill="#141214"/><path d="m137 151c8.277344 0 15-6.722656 15-15s-6.722656-15-15-15-15 6.722656-15 15 6.722656 15 15 15zm0 0" data-original="#000000" class="active-path" data-old_color="#000000" fill="#141214"/><path d="m467.496094 323.695312 37.824218-25.214843-16.640624-24.960938-39.675782 26.453125c-10.511718-9.960937-23.097656-17.558594-37-22.519531l9.703125-48.507813-29.414062-5.890624-9.703125 48.511718c-1.890625-.101562-3.675782-.566406-5.589844-.566406-21.71875 0-41.964844-5.636719-60.160156-14.789062l27.15625-36.214844-23.992188-17.988282-28.3125 37.753907c-23.679687-19.507813-40.917968-46.476563-47.058594-77.710938l46-11.503906-7.265624-29.09375-41.78125 10.449219c-1.035157-26.265625-11.613282-50.023438-28.554688-67.90625l26.449219-39.675782-24.960938-16.640624-25.214843 37.824218c-15.464844-8.976562-33.175782-14.503906-52.304688-14.503906-15.707031 0-30.476562 3.710938-43.871094 9.917969l-35.523437-35.523438-21.210938 21.210938 31.210938 31.210937c-18.09375 16.078125-30.457031 38.125-34.089844 63.183594h-33.515625v30h32.761719c.90625 20.953125 3.519531 41.433594 8.019531 61.261719l-40.78125 11.738281 9.492188 28.445312 39.070312-11.164062c7.460938 23.210938 17.445312 45.253906 29.402344 66.042969l-39.285156 26.195312 16.640624 24.960938 38.640626-25.761719c16.972656 24.347656 36.992187 46.367188 59.519531 65.589844l-27.085938 27.085937 21.210938 21.210938 29.753906-29.753907c20.984375 14.960938 43.566406 27.777344 67.660156 37.792969l-16.921875 41.691407 27.804688 11.277343 17.300781-42.632812c28.191406 8.914062 58.019531 13.925781 88.796875 15.257812v31.761719h30v-32.515625c25.058594-3.632813 47.101562-15.996094 63.179688-34.089844l31.214843 31.210938 21.210938-21.210938-35.527344-35.523437c4.179687-9.015625 6.929687-18.703125 8.40625-28.871094h31.515625v-30h-31.515625c-1.953125-13.460938-6.421875-25.992188-12.988281-37.304688zm-195.496094-28.90625 21.210938 21.210938-21.210938 21.210938-21.210938-21.210938zm-135-203.789062c24.8125 0 45 20.1875 45 45s-20.1875 45-45 45-45-20.1875-45-45 20.1875-45 45-45zm-21.210938 135 21.210938-21.210938 21.210938 21.210938-21.210938 21.210938zm81.210938 111.210938-21.210938-21.210938 21.210938-21.210938 21.210938 21.210938zm0-75-21.210938-21.210938 21.210938-21.210938 21.210938 21.210938zm90 135-21.210938-21.210938 21.210938-21.210938 21.210938 21.210938zm90 23.789062c-24.8125 0-45-20.1875-45-45s20.1875-45 45-45 45 20.1875 45 45-20.1875 45-45 45zm0 0" data-original="#000000" class="active-path" data-old_color="#000000" fill="#141214"/><path d="m362 120c16.539062 0 30 13.460938 30 30 0 33.089844 26.910156 60 60 60s60-26.910156 60-60c0-82.703125-67.296875-150-150-150-33.089844 0-60 26.910156-60 60s26.910156 60 60 60zm0 0" data-original="#000000" class="active-path" data-old_color="#000000" fill="#141214"/></g> </svg>
