<svg id="Слой_1" data-name="Слой 1" xmlns="http://www.w3.org/2000/svg" viewBox="0 0 960 960"><defs><style>.cls-1{fill:#fff;}.cls-2{fill:#005a51;}.cls-3{fill:#dc3546;}</style></defs><title>Монтажная область 1</title><g id="Голова"><path class="cls-1" d="M.05,134.55Q116.07,67.31,232,0,348,67.35,464,134.57,464,269.28,464,404,349.18,470.47,234.5,537.1c-2.21,2-4.69.14-6.76-1C151.89,491.92,75.83,448.09,0,403.86Q.16,269.19.05,134.55Z"/><path class="cls-2" d="M.05,134.55Q116.07,67.31,232,0,348,67.35,464,134.57,464,269.28,464,404,349.18,470.47,234.5,537.1c-2.21,2-4.69.14-6.76-1C151.89,491.92,75.83,448.09,0,403.86Q.16,269.19.05,134.55Zm27,15.74q-.05,119,0,237.93,102.52,59.41,205,118.88Q334.54,447.72,437,388.25q0-119,0-238Q334.51,90.89,232.08,31.4,129.5,90.78,27,150.28Z"/><path class="cls-2" d="M161.41,133c23.39-15.68,52-22.69,80-20.9,29.29,1.26,59.77,9.86,81.39,30.68,18.77,17.62,28.18,43.42,29.38,68.84.43,11.18,1.33,23.18,8.2,32.5,6,10.52,17.84,17.07,21.15,29.29,1.67,4.19-1,8.82-4.73,10.77A103.73,103.73,0,0,0,360.85,295c2.45,4.5,5.09,8.91,7.8,13.26-4.59,2.71-9.39,5-13.88,7.86a38.66,38.66,0,0,1,10.07,13c-3,3.58-6.51,6.87-8.83,11-2.32,8.67,6.33,16.28,3.7,25.06-2.37,7.66-9.66,13.41-17.51,14.47-19.31,2.1-38.52-1.3-57.74-2.62-4,0-11.09-.47-11.27,5.09-.92,10.88-.23,21.83-.72,32.74-40.1.47-80.2.56-120.3.7,2.63-22.84,6.4-45.57,8.67-68.42-3.7-24.12-19.44-43.58-32.57-63.25-8.79-11.38-15-25.15-15.84-39.64-.85-16.33-1.26-33,3.11-48.93C122.48,169.76,139.58,147.57,161.41,133Zm25.5,14.71c-.45,1.93-.81,3.88-1.1,5.85-2.73,1.23-5.47,2.44-8.18,3.69-1.78-1.46-3.56-2.93-5.34-4.37a25.9,25.9,0,0,0-4.68,6l4.26,4.16c-1.15,2.75-2.27,5.51-3.38,8.27-2.27.65-4.77.78-6.78,2.08a30.16,30.16,0,0,0-.58,6.61c2.32.31,4.64.58,7,.85q2.29,5.09,4.75,10.12c-1.42,1.68-2.82,3.36-4.23,5a28.55,28.55,0,0,0,5.93,5.28c1.38-1.61,2.79-3.2,4.21-4.81,2.43.92,4.86,1.82,7.32,2.73.22,2.1.45,4.19.68,6.29a37.07,37.07,0,0,0,7.35.14,60.92,60.92,0,0,0,1.47-6.4q4.23-1.79,8.45-3.6l5.41,4.28c5.07-2.13,4.93-7.39,1-10.64,1.15-2.89,2.32-5.76,3.47-8.65l6.38-.18c.27-2,.92-3.94.67-6-1.1-3.16-5.11-2.33-7.64-3.29-.61-2.38-2-4.73-1.91-7.23,1.28-1.77,2.63-3.49,4-5.17a30.75,30.75,0,0,0-4.64-4.43,33.21,33.21,0,0,0-5.79,3.51c-3.25-1.46-6.51-2.91-9.8-4.3-.36-2.29-.76-4.59-1.13-6.88C191.65,146.81,189.12,146.6,186.91,147.7Zm62.81,14c-3.72,3.18,0,7.64.85,11.38a125.24,125.24,0,0,0-9.51,10.3c-4.5-2-11.81-3.81-13,3-2.16,5.82,4.41,7.53,8.34,9.27,0,4.75.14,9.5.47,14.24-3,1.92-7.7,2.76-8.29,6.92.43,2.31,1,5,3,6.45,3.25,3.07,7.26-.63,10.68-1.41a90.19,90.19,0,0,0,12.28,10.71,54.11,54.11,0,0,0-1.85,7.71c.59,4.52,7.12,7.08,10.57,4.08,1.91-2.33,2.72-5.31,4-8q5.85-.3,11.72-.72c1.85,4.12,4.71,10.71,10.38,7.5,6.28-2,3.61-8.74,1.58-13a125.4,125.4,0,0,0,9.57-10.24c3,.76,6,2.28,9.13,2,3-1.63,4.39-5.17,4.23-8.46-1.38-3.65-5.63-4.28-8.69-5.89.09-4.73-.07-9.45-.45-14.15,2.57-1.46,5.5-2.53,7.59-4.75a7.86,7.86,0,0,0-1.94-8.26c-3.07-3.51-7.66.11-11.17,1-2.66-2.73-5.38-5.42-8.16-8,1.17-4.32,4.39-11.08-1.67-13.23-5.65-3.45-9,3-10.43,7.46a109.69,109.69,0,0,0-16.35,0c-1.6-2.71-2.59-6.05-5.23-7.95A8.19,8.19,0,0,0,249.72,161.68Zm-59.48,56.19a51.86,51.86,0,0,0-1,7.1q-4.94,2.25-9.84,4.57c-2.54-3-7.43-7-10.34-2-3.43,3.61,1.08,6.87,3.24,9.59-1.42,3.43-2.82,6.87-4.21,10.33-3.87.38-9.89.42-10,5.76-.83,6,5.65,7.08,10.07,7,1.71,3.92,3.51,7.82,5.41,11.65q-2.56,3.17-5,6.43c1.56,1.7,2.72,4,4.87,5.08,3.65,1.28,5.61-2.75,8-4.64q4.1,1.73,8.22,3.43c.13,2.73.29,5.46.45,8.18,3.43.94,7.57,2,10.61-.54,1-2.48.85-5.2,1.2-7.79q5.42-2.14,10.84-4.32c2.79,2.6,7.34,6.65,10.61,2.29,3.76-3.38-.49-7.64-2.21-10.86q1.92-4.66,3.81-9.34c4.28-.18,10.92-.61,10-6.68-.29-5.44-6.1-5.56-10.14-5.94-1.15-2.87-2.28-5.75-3.43-8.6,1.65-2.31,4.59-4.1,4.89-7.12-.47-3.22-3.7-4.43-6-6.05-2,1.68-4,3.34-6,5a69.75,69.75,0,0,0-12.5-5.73c-.79-2.89.45-7.35-3.24-8.47C195.7,216,192.5,215.8,190.23,217.87Z"/><path class="cls-2" d="M186.11,164.88c8.18-4,18.58,3.65,17.37,12.68-.41,9.27-12.7,15.05-19.92,9C176,181.25,177.36,168.15,186.11,164.88Z"/><path class="cls-2" d="M265.52,183.74c13.11-4.44,27.19,9,23.25,22.35-2.61,13-20.3,18.79-30,9.7C247.56,207.2,251.75,187,265.52,183.74Z"/><path class="cls-2" d="M189.91,239.43c9-4.64,21.11,2,22,12.14,1.67,9.68-7.79,19.12-17.41,17.49-7.64-.72-13.9-8.06-13.52-15.74A15.59,15.59,0,0,1,189.91,239.43Z"/></g><g id="Таблетка"><path class="cls-1" d="M248,556.4q116-67.12,232-134.4Q595.93,489.36,712,556.47c0,89.78.16,179.56-.09,269.33C634.49,870.37,557.34,915.31,480.05,960Q363.93,892.94,248,825.59,248.05,691,248,556.4Z"/><path class="cls-3" d="M248,556.4q116-67.12,232-134.4Q595.93,489.36,712,556.47c0,89.78.16,179.56-.09,269.33C634.49,870.37,557.34,915.31,480.05,960Q363.93,892.94,248,825.59,248.05,691,248,556.4Zm27,15.81q0,118.75-.05,237.49C343.2,849.54,411.66,889,480,928.65Q582.46,869.27,684.9,810q.16-119,0-237.95C616.47,532.66,548.33,492.92,480,453.44Q377.45,512.71,275,572.21Z"/><path class="cls-3" d="M490.25,564.77c28.25-8.14,60.4,5.88,74.38,31.68,10.47,18.68,10.93,42.65,1,61.64-3.74,7.29-9.15,13.5-14.4,19.73C514.78,721.3,478.56,764.94,442,808.31c-18.72,21.89-52.58,27.8-77.85,14.42-15.86-8.28-28.45-23-33.32-40.39-5.9-20.13-1.4-43.08,12-59.22q56.81-68.28,113.87-136.4A66.11,66.11,0,0,1,490.25,564.77ZM466,601.36Q410.88,667.07,356,733a48.45,48.45,0,0,0-8.69,47.38c7,20.58,28.7,35.07,50.35,33.14a49,49,0,0,0,33.79-17.83C450.2,773.08,469.19,750.7,487.8,728c-22.68-18.68-45-37.81-67.51-56.62,17.41-21.73,35.61-42.8,53.37-64.24,13.7-16.26,35.79-22.76,56.47-21.37C508.16,577.51,481.36,583.18,466,601.36Z"/><path class="cls-3" d="M468,791.22c26.56-30.79,52.11-62.45,78.5-93.39C565.6,705.3,581,722,586,742.07c7,25.59-3.54,54.78-25.5,69.63C537,828.73,502,826.65,480.66,807A63.36,63.36,0,0,1,468,791.22Zm74.76-60.45c-19.51,23.86-40.1,46.87-58.91,71.3,6.17-6.48,11.56-13.65,17.39-20.43,19.42-23.59,39.49-46.64,58.57-70.5C553.49,717.14,548.37,724.18,542.74,730.77Zm20.63-15.68c-25.09,29.46-50,59.11-74.41,89.13,11.29-11.93,21.18-25.12,32-37.54C534.9,749.34,550,732.9,563.37,715.09Zm19,42.89c-1.78,7.4-3.06,15-6.37,21.93a68.65,68.65,0,0,1-41.9,36.21A57.79,57.79,0,0,0,570.81,793C578.36,783,581.6,770.39,582.36,758Z"/><path class="cls-3" d="M416.81,784.78c16.09-18.59,31.67-37.65,47.44-56.53q3.72,3,7.43,6.17-22.93,27.86-46.27,55.41c-13.52,15.61-37.67,20-56.12,11.1C386.36,801.83,405,798.17,416.81,784.78Z"/></g><g id="Шапка"><path class="cls-1" d="M496,134.68Q612,67.23,728.09,0,844,67.23,960,134.52q0,134.49,0,269Q844,470.73,728.09,538L500.71,406.1c-1.62-1-3.18-2-4.71-3.17Z"/><path d="M496,134.68Q612,67.23,728.09,0,844,67.23,960,134.52q0,134.49,0,269Q844,470.73,728.09,538L500.71,406.1c-1.62-1-3.18-2-4.71-3.17Zm26.16,14.83q0,119.51,0,239,103,59.59,205.91,119.38,103.07-59.85,206.16-119.66c-.19-79.61.1-159.23-.14-238.84C865.32,109.86,796.78,69.81,728.09,30Q625.15,89.81,522.16,149.51Z"/><g id="Layer_1"><path d="M737.69,127.84,903.54,231.69,885.91,243v74.86H861.07V259.06l-55.28,34.61c6.41,3.22,11.22,7.24,16,11.27,12,10.46,19.23,24.15,19.23,37.83,0,20.93-14.42,38.64-36.85,50.71-19.23,10.46-45.67,16.9-75.31,16.9-28.84,0-55.28-6.44-74.51-16.9-22.43-12.07-36.85-29.78-36.85-50.71,0-13.68,6.41-26.56,17.63-37,4.81-4.83,11.22-8.85,17.63-12.07l-97.75-62L728.88,122.21Zm35.25,186-44.07,27.37L685.61,313.8c-12,4-22.43,9.66-28.84,15.29-4.81,4.83-7.21,9.66-7.21,13.68,0,8,7.21,16.1,19.23,22.54,15.22,8,36.85,13.68,60.09,13.68,24,0,45.67-5.63,60.09-13.68,12-6.44,20-14.49,20-22.54,0-4.83-3.2-9.66-8-14.49C794.57,322.65,785,317.82,772.94,313.8Zm20-113.5L728.88,160,615.11,231.69l113.77,72.45,114.57-72.45Z"/></g></g></svg>