<?xml version="1.0" encoding="utf-8"?>
<!-- Generator: Adobe Illustrator 18.1.1, SVG Export Plug-In . SVG Version: 6.00 Build 0)  -->
<svg version="1.1" id="Layer_1" xmlns="http://www.w3.org/2000/svg" xmlns:xlink="http://www.w3.org/1999/xlink" x="0px" y="0px"
	 viewBox="0 0 1280 1280" enable-background="new 0 0 1280 1280" xml:space="preserve">
<g>
	<path fill="#FFFFFF" d="M206.8,390c144.4-83.2,288.8-166.5,433.1-250c144.6,83.1,288.8,166.8,433.4,249.9
		c0.1,166.7,0.1,333.5,0,500.2c-144.6,83.1-288.8,166.8-433.4,249.9c-144.3-83.3-288.6-166.8-433.1-249.9
		C206.7,723.3,206.7,556.7,206.8,390z"/>
</g>
<g>
	<path fill="#2C3E50" d="M196.4,384c147.9-85.2,295.7-170.5,443.5-256c148,85.1,295.7,170.8,443.8,255.9
		c0.1,170.7,0.1,341.5,0,512.2c-148.1,85.1-295.7,170.8-443.8,255.9C492,1066.7,344.4,981.2,196.4,896.1
		C196.3,725.3,196.3,554.7,196.4,384z M248.3,413.9c0.2,150.9-0.1,301.8,0.2,452.6c130.5,75.3,261.2,150.3,391.5,226
		c131-74.5,260.8-151,391.8-225.5c0.5-151.3,0.2-302.5,0.1-453.7c-130.8-74.9-260.9-150.8-391.7-225.8
		C509.8,263.1,378.8,338.2,248.3,413.9z"/>
</g>
<g id="Layer_25">
	<path fill="#2C3E50" d="M792.7,754.7c-4.5,0-8.8-1.5-12.2-4.4L694,678.2h-35.2c-84.5,0-153-68.5-153-153s68.5-153,153-153h114.8
		c84.5,0.2,152.8,68.9,152.6,153.4c-0.2,69.4-47.1,130-114.3,147.6v62.3c0,7.5-4.3,14.3-11.1,17.4
		C798.2,754.2,795.4,754.8,792.7,754.7z M658.8,410.5c-63.4,0-114.8,51.4-114.8,114.8S595.4,640,658.8,640h42.1
		c4.5,0,8.8,1.5,12.2,4.4l60.4,50.3v-37.1c-0.1-9.6,6.9-17.8,16.4-19.1c62.5-10.2,104.9-69.3,94.7-131.8
		c-9-54.7-55.7-95.2-111.1-96.2H658.8z"/>
	<rect x="697" y="506.1" fill="#2C3E50" width="38.3" height="38.3"/>
	<rect x="601.4" y="506.1" fill="#2C3E50" width="38.3" height="38.3"/>
	<rect x="792.7" y="506.1" fill="#2C3E50" width="38.3" height="38.3"/>
	<path fill="#2C3E50" d="M486.7,907.7c-2.8,0-5.5-0.6-8-1.7c-6.8-3.1-11.1-9.9-11.1-17.4v-62.3C385.9,804.5,337.3,720.7,359.1,639
		c11.7-44.1,42.5-80.6,84-99.6c9.3-4.9,20.9-1.3,25.8,8c4.9,9.3,1.3,20.9-8,25.8c-0.7,0.4-1.4,0.7-2.1,1
		c-57.7,26.2-83.3,94.2-57.1,151.9c16.1,35.5,49.1,60.4,87.7,66.1c9.5,1.3,16.5,9.5,16.4,19.1v37.1l60.4-50.3
		c3.3-3.1,7.7-5,12.2-5.2h42.1c30.9,0.1,60.6-12.5,82-34.8c7.4-7.6,19.6-7.8,27.2-0.4c7.6,7.4,7.8,19.6,0.4,27.2l0,0
		c-28.8,29.6-68.3,46.3-109.6,46.3h-35.2l-86.4,72.1C495.5,906.2,491.1,907.8,486.7,907.7z"/>
</g>
</svg>
