<?xml version="1.0" encoding="utf-8"?>
<!-- Generator: Adobe Illustrator 18.1.1, SVG Export Plug-In . SVG Version: 6.00 Build 0)  -->
<svg version="1.1" id="Layer_1" xmlns="http://www.w3.org/2000/svg" xmlns:xlink="http://www.w3.org/1999/xlink" x="0px" y="0px"
	 viewBox="0 0 267.9 192.5" enable-background="new 0 0 267.9 192.5" xml:space="preserve">
<g>
	<path fill="#FFFFFF" d="M69.5,19.7C79.7,13.9,89.9,8,100.1,2.1c10.2,5.9,20.4,11.8,30.7,17.7c0,11.8,0,23.6,0,35.4
		c-10.2,5.9-20.4,11.8-30.7,17.7C89.9,66.9,79.7,61,69.5,55.1C69.5,43.3,69.5,31.5,69.5,19.7z"/>
	<g>
		<g>
			<path fill="#005A51" d="M67.6,18.6C78.4,12.4,89.1,6.2,99.9,0c10.7,6.2,21.5,12.4,32.2,18.6c0,12.4,0,24.9,0,37.3
				c-10.6,6.1-21.3,12.3-31.9,18.4c-0.3,0.3-0.7,0-0.9-0.1C88.7,68.1,78.2,62,67.6,55.9C67.6,43.5,67.6,31,67.6,18.6z M71.4,20.8
				c0,11,0,21.9,0,32.9c9.5,5.5,19,11,28.5,16.4c9.5-5.5,19-11,28.5-16.4c0-11,0-22,0-32.9c-9.5-5.5-19-11-28.5-16.4
				C90.4,9.8,80.9,15.3,71.4,20.8z"/>
		</g>
		<g>
			<path fill="#005A51" d="M90.1,18.4c3.3-2.2,7.2-3.1,11.1-2.9c4.1,0.2,8.3,1.4,11.3,4.2c2.6,2.4,3.9,6,4.1,9.5
				c0.1,1.5,0.2,3.2,1.1,4.5c0.8,1.5,2.5,2.4,2.9,4.1c0.2,0.6-0.1,1.2-0.7,1.5c-0.8,0.4-1.5,0.9-2.2,1.5c0.3,0.6,0.7,1.2,1.1,1.8
				c-0.6,0.4-1.3,0.7-1.9,1.1c0.6,0.5,1.1,1.1,1.4,1.8c-0.4,0.5-0.9,1-1.2,1.5c-0.3,1.2,0.9,2.3,0.5,3.5c-0.3,1.1-1.3,1.9-2.4,2
				c-2.7,0.3-5.4-0.2-8-0.4c-0.6,0-1.5-0.1-1.6,0.7c-0.1,1.5,0,3-0.1,4.5c-5.6,0.1-11.2,0.1-16.7,0.1c0.4-3.2,0.9-6.3,1.2-9.5
				c-0.5-3.3-2.7-6-4.5-8.8c-1.2-1.6-2.1-3.5-2.2-5.5c-0.1-2.3-0.2-4.6,0.4-6.8C84.6,23.5,87,20.4,90.1,18.4z M93.6,20.4
				c-0.1,0.3-0.1,0.5-0.2,0.8c-0.4,0.2-0.8,0.3-1.1,0.5c-0.2-0.2-0.5-0.4-0.7-0.6c-0.3,0.2-0.5,0.5-0.7,0.8c0.1,0.1,0.4,0.4,0.6,0.6
				c-0.2,0.4-0.3,0.8-0.5,1.1c-0.3,0.1-0.7,0.1-0.9,0.3C90,24.3,90,24.6,90,24.9c0.3,0,0.6,0.1,1,0.1c0.2,0.5,0.4,0.9,0.7,1.4
				c-0.2,0.2-0.4,0.5-0.6,0.7c0.2,0.3,0.5,0.5,0.8,0.7c0.2-0.2,0.4-0.4,0.6-0.7c0.3,0.1,0.7,0.3,1,0.4c0,0.3,0.1,0.6,0.1,0.9
				c0.3,0,0.7,0.1,1,0c0.1-0.3,0.2-0.6,0.2-0.9c0.4-0.2,0.8-0.3,1.2-0.5c0.3,0.2,0.5,0.4,0.8,0.6c0.7-0.3,0.7-1,0.1-1.5
				c0.2-0.4,0.3-0.8,0.5-1.2c0.2,0,0.7,0,0.9,0c0-0.3,0.1-0.5,0.1-0.8c-0.2-0.4-0.7-0.3-1.1-0.5c-0.1-0.3-0.3-0.7-0.3-1
				c0.2-0.2,0.4-0.5,0.6-0.7c-0.2-0.2-0.4-0.4-0.6-0.6c-0.3,0.1-0.6,0.3-0.8,0.5c-0.5-0.2-0.9-0.4-1.4-0.6c-0.1-0.3-0.1-0.6-0.2-1
				C94.3,20.3,93.9,20.3,93.6,20.4z M102.3,22.4c-0.5,0.4,0,1.1,0.1,1.6c-0.5,0.5-0.9,0.9-1.3,1.4c-0.6-0.3-1.6-0.5-1.8,0.4
				c-0.3,0.8,0.6,1,1.2,1.3c0,0.7,0,1.3,0.1,2c-0.4,0.3-1.1,0.4-1.2,1c0.1,0.3,0.1,0.7,0.4,0.9c0.5,0.4,1-0.1,1.5-0.2
				c0.5,0.5,1.1,1,1.7,1.5c-0.1,0.4-0.2,0.7-0.3,1.1c0.1,0.6,1,1,1.5,0.6c0.3-0.3,0.4-0.7,0.6-1.1c0.5,0,1.1-0.1,1.6-0.1
				c0.3,0.6,0.7,1.5,1.4,1c0.9-0.3,0.5-1.2,0.2-1.8c0.5-0.4,0.9-0.9,1.3-1.4c0.4,0.1,0.8,0.3,1.3,0.3c0.4-0.2,0.6-0.7,0.6-1.2
				c-0.2-0.5-0.8-0.6-1.2-0.8c0-0.7,0-1.3-0.1-2c0.4-0.2,0.8-0.4,1.1-0.7c0.2-0.4,0-0.9-0.3-1.1c-0.4-0.5-1.1,0-1.6,0.1
				c-0.4-0.4-0.7-0.8-1.1-1.1c0.2-0.6,0.6-1.5-0.2-1.8c-0.8-0.5-1.3,0.4-1.4,1c-0.8-0.1-1.5-0.1-2.3,0c-0.2-0.4-0.4-0.8-0.7-1.1
				C103,22,102.6,22.1,102.3,22.4z M94.1,30.1c-0.1,0.3-0.1,0.6-0.1,1c-0.5,0.2-0.9,0.4-1.4,0.6c-0.4-0.4-1-1-1.4-0.3
				c-0.5,0.5,0.2,0.9,0.5,1.3c-0.2,0.5-0.4,1-0.6,1.4c-0.5,0.1-1.4,0.1-1.4,0.8c-0.1,0.8,0.8,1,1.4,1c0.2,0.5,0.5,1.1,0.8,1.6
				c-0.2,0.3-0.5,0.6-0.7,0.9c0.2,0.2,0.4,0.5,0.7,0.7c0.5,0.2,0.8-0.4,1.1-0.6c0.4,0.2,0.8,0.3,1.1,0.5c0,0.4,0,0.8,0.1,1.1
				c0.5,0.1,1.1,0.3,1.5-0.1c0.1-0.3,0.1-0.7,0.2-1.1c0.5-0.2,1-0.4,1.5-0.6c0.4,0.4,1,0.9,1.5,0.3c0.5-0.5-0.1-1.1-0.3-1.5
				c0.2-0.4,0.4-0.9,0.5-1.3c0.6,0,1.5-0.1,1.4-0.9c0-0.8-0.8-0.8-1.4-0.8c-0.2-0.4-0.3-0.8-0.5-1.2c0.2-0.3,0.6-0.6,0.7-1
				c-0.1-0.4-0.5-0.6-0.8-0.8c-0.3,0.2-0.6,0.5-0.8,0.7c-0.6-0.3-1.1-0.6-1.7-0.8c-0.1-0.4,0.1-1-0.4-1.2
				C94.8,29.9,94.4,29.9,94.1,30.1z"/>
		</g>
		<path fill="#005A51" d="M93.5,22.8c1.1-0.6,2.6,0.5,2.4,1.8c-0.1,1.3-1.8,2.1-2.8,1.2C92.1,25.1,92.3,23.3,93.5,22.8z"/>
		<path fill="#005A51" d="M104.5,25.4c1.8-0.6,3.8,1.2,3.2,3.1c-0.4,1.8-2.8,2.6-4.2,1.3C102,28.7,102.6,25.9,104.5,25.4z"/>
		<path fill="#005A51" d="M94,33.1c1.3-0.6,2.9,0.3,3.1,1.7c0.2,1.3-1.1,2.6-2.4,2.4c-1.1-0.1-1.9-1.1-1.9-2.2
			C92.8,34.2,93.3,33.5,94,33.1z"/>
	</g>
</g>
<g>
	<path fill="#FFFFFF" d="M35.5,78.6C45.7,72.8,55.9,66.9,66.1,61c10.2,5.9,20.4,11.8,30.7,17.7c0,11.8,0,23.6,0,35.4
		c-10.2,5.9-20.4,11.8-30.7,17.7c-10.2-5.9-20.4-11.8-30.6-17.7C35.5,102.2,35.5,90.4,35.5,78.6z"/>
	<g>
		<g>
			<path fill="#EEB422" d="M64.1,60c0.6-0.3,1.2-0.9,2-1c0.9,0.3,1.6,0.9,2.4,1.3c9.9,5.7,19.8,11.5,29.7,17.1c0,12.4,0,24.9,0,37.3
				c-10.6,6.1-21.3,12.3-31.9,18.4c-0.2,0.2-0.5,0.2-0.7,0c-10.6-6.1-21.3-12.3-31.9-18.4c0-12.4,0-24.9,0-37.3
				C43.9,71.7,54,65.8,64.1,60z M64.3,64.2c-8.9,5.2-17.9,10.3-26.8,15.5c0,11,0,21.9,0,32.9c9.2,5.3,18.5,10.7,27.7,16
				c0.4,0.2,0.8,0.5,1.2,0.2c9.4-5.4,18.7-10.8,28.1-16.2c0-11,0-21.9,0-32.9c-9-5.2-18-10.4-27-15.6c-0.5-0.3-1-0.7-1.6-0.8
				C65.4,63.6,64.9,63.9,64.3,64.2z"/>
		</g>
		<g>
			<path fill="#EEB422" d="M62.2,74.2c4.7-0.7,9.6,0.1,13.8,2.4c4.2,2.3,7.7,6,9.6,10.4c1.9,4.3,2.3,9.2,1.3,13.7
				c-1.1,4.7-3.8,9-7.5,12c-3.8,3.1-8.8,4.9-13.8,4.9c-4.9,0-9.8-1.7-13.7-4.7c-3.7-2.9-6.4-7.1-7.6-11.7
				c-1.3-4.9-0.8-10.1,1.3-14.7C48.7,80,55.1,75.2,62.2,74.2z M63.5,78.2c-4.5,0.5-8.8,2.9-11.7,6.5c-2.5,3.1-4,7.1-3.9,11.1
				c-0.1,4.2,1.5,8.5,4.3,11.6c2.8,3.3,6.8,5.5,11.1,6c4,0.6,8.2-0.4,11.6-2.5c3.2-2,5.8-5,7.1-8.6c1.6-4,1.6-8.5,0.2-12.5
				c-1.2-3.3-3.3-6.2-6.2-8.2C72.5,78.9,67.9,77.7,63.5,78.2z"/>
		</g>
		<g>
			<path fill="#EEB422" d="M63,79.2c4-0.6,8.1,0.2,11.5,2.4c3.3,2,5.8,5.3,7,9c1.2,3.5,1.1,7.5-0.2,11c-1.2,3.5-3.7,6.5-6.8,8.5
				c-3.3,2.2-7.5,3.1-11.4,2.5c-3.7-0.5-7.3-2.4-9.9-5.1c-3-3.1-4.6-7.5-4.6-11.8c0.1-3.3,1.1-6.6,3-9.3
				C54.4,82.5,58.5,79.9,63,79.2z M66.2,85.4c0.5,0.6,1.3,0.4,2,0.1c0.1-0.3,0.2-0.5,0.4-0.8c0.4,0.4,0.7,1.1,1.4,1.1
				c0.4-0.1,0.7-0.2,1.1-0.3c0.2,0.8,0.7,1.4,1.6,1.6c0,0.6-0.3,1.3,0.3,1.8c0.4,0.5,1.2,0.3,1.7,0.2c0,1,0.7,1.8,1.8,1.8
				c-0.1,0.8,0.2,1.5,0.8,1.9c-0.6,0.4-1,0.9-1.2,1.5c-0.5-0.2-1-0.3-1.6-0.3c0-0.6,0.1-1.4-0.5-1.7c-0.4-0.4-1-0.2-1.6-0.1
				c0-0.9-0.6-1.9-1.6-1.7c-1.2,0.1-1.5,2-0.5,2.5c0.5,0.2,1,0.1,1.4,0.1c0.1,0.4,0.1,1,0.5,1.3c0.4,0.4,1,0.3,1.5,0.5
				c-0.1,0.9,0.3,2,1.3,1.9c0.8,0.1,1.2-0.8,1.5-1.4c0.3,0.1,0.7,0.2,1.1,0.3c0.8,0,1.5-0.8,1.3-1.6c-0.2-0.4-0.5-0.7-0.8-1.1
				c0.7-0.3,1.4-1.1,1-1.9c-0.2-0.7-1-0.8-1.7-0.9c0-0.6,0.1-1.3-0.5-1.7c-0.5-0.4-1.1-0.2-1.7-0.1c0.1-1-0.6-1.7-1.5-1.9
				c0.1-0.6,0.3-1.3-0.3-1.8c-0.5-0.5-1.3-0.3-1.9,0c-0.2-0.6-0.4-1.4-1.2-1.5c-0.7-0.2-1.1,0.4-1.6,0.8c-0.5-0.4-1-1-1.7-0.8
				C65.9,83.4,65.4,84.7,66.2,85.4z M57.8,87.4c-1.2,1.5-2.1,3.4-2.3,5.4c-0.1,0.7,0.1,1.4,0,2.2c-0.4,0.6-1,1-1.3,1.7
				c-0.4,1.1,0.2,2.5-0.5,3.5c-0.1,0.3-0.5,0.7-0.1,1c0.7,0.2,1.2-0.7,1.3-1.3c0.2-1.3-0.2-2.9,0.8-3.9c-0.1,0.5-0.2,1.1-0.3,1.6
				c0,0.8,0.4,1.5,0.5,2.3c0,0.6-0.3,1.1-0.3,1.7c0.1,0.3,0.5,0.1,0.8,0.2c1.1-1.6-0.2-3.4,0.1-5.1c0.2,0.5,0.3,1.1,0.5,1.6
				c0.4,0.8,1.1,1.3,1.4,2.1c0.2,0.5,0.1,1.1,0.2,1.6c0.3-0.2,0.9-0.1,0.9-0.5c0.3-1.3-0.7-2.3-1.4-3.2c-0.6-0.6-0.3-1.4-0.3-2.1
				c1.2-0.6,2.1-1.4,2.8-2.5c1.1-1.8,1.8-3.9,1.4-6.1c-0.1-0.9-0.9-1.7-1.8-1.5C59.2,86,58.4,86.7,57.8,87.4z M66.7,92
				c-0.1,0.6,0.4,1,0.7,1.5c-0.6,0.4-1.2,1.1-0.9,1.9c0.3,0.9,1.3,0.9,2,0.7c0.1,0.6,0.1,1.5,0.9,1.7c1,0.5,2.3-0.7,1.8-1.8
				c-0.3-0.8-1.3-0.9-2-0.7c0-0.7-0.3-1.3-0.7-1.8c0.4-0.4,0.7-0.8,1.1-1.2c-0.2-0.5-0.3-1.1-0.9-1.4C67.9,90.6,66.7,91.1,66.7,92z
				 M63,99.9c-0.4,0.6-0.3,1.5-0.7,2.1c-0.5,0.7-1.3,1.2-1.6,2c-0.2,1.2,0.6,2.6,1.9,2.8c1-0.1,2-0.6,3-0.3c1,0.2,1.7,0.9,2.4,1.6
				c1.2,1.3,4,0.5,3.8-1.4c0-0.8-0.2-1.7,0.3-2.3c0.5-0.6,1.4-0.6,2.1-0.5c0.6,0.1,1,0.9,1.6,0.6c0.1-0.3,0.1-0.7-0.2-1
				c-0.7-0.8-1.9-0.6-2.9-0.7c0.5-0.4,1-0.8,1.6-1c0.6-0.1,1.2,0,1.8,0c-0.1-0.3,0.1-0.7-0.2-0.8c-1.1-0.6-2.3,0.2-3.3,0.6
				c-0.6,0-1.1-0.5-1.7-0.4c-0.8,0.2-1.7,0.8-2.6,0.3c-1-0.4-1.2-1.7-2.1-2.2C65.2,98.9,63.8,98.9,63,99.9z"/>
		</g>
		<path fill="#EEB422" d="M58.2,91.5c0.9-0.4,2.1,0.4,1.9,1.4c0,1.2-1.8,1.7-2.5,0.8C57,93.1,57.3,91.9,58.2,91.5z"/>
		<path fill="#EEB422" d="M64.2,101.4c0.9-0.6,2.3,0.3,2.1,1.4c-0.1,1.1-1.5,1.5-2.3,0.9C63.3,103,63.4,101.8,64.2,101.4z"/>
	</g>
</g>
<g>
	<path fill="#FFFFFF" d="M103,78.6c10.2-5.9,20.4-11.8,30.6-17.7c10.2,5.9,20.4,11.8,30.7,17.7c0,11.8,0,23.6,0,35.4
		c-10.2,5.9-20.4,11.8-30.7,17.7c-10.2-5.9-20.4-11.8-30.6-17.7C103,102.2,103,90.4,103,78.6z"/>
	<g>
		<g>
			<path fill="#DC3546" d="M101.6,77.5c10.8-6.2,21.5-12.4,32.3-18.6c10.7,6.2,21.5,12.4,32.2,18.6c0,12.4,0,24.9,0,37.3
				c-10.8,6.2-21.5,12.4-32.2,18.6c-10.8-6.2-21.5-12.4-32.3-18.6C101.6,102.4,101.6,89.9,101.6,77.5z M105.4,79.7
				c0,11,0,21.9,0,32.9c9.5,5.5,19,11,28.5,16.5c9.5-5.5,19-11,28.5-16.4c0-11,0-22,0-33c-9.5-5.4-19-11-28.5-16.4
				C124.4,68.7,114.9,74.2,105.4,79.7z"/>
		</g>
		<g>
			<path fill="#DC3546" d="M135.3,78.7c3.9-1.1,8.4,0.8,10.3,4.4c1.5,2.6,1.5,5.9,0.1,8.5c-0.5,1-1.3,1.9-2,2.7
				c-5.1,6-10.1,12.1-15.2,18.1c-2.6,3-7.3,3.8-10.8,2c-2.2-1.1-4-3.2-4.6-5.6c-0.8-2.8-0.2-6,1.7-8.2c5.3-6.3,10.6-12.6,15.8-18.9
				C131.8,80.3,133.5,79.2,135.3,78.7z M131.9,83.7c-5.1,6.1-10.2,12.1-15.3,18.2c-1.5,1.8-2,4.4-1.2,6.6c1,2.8,4,4.9,7,4.6
				c1.8-0.1,3.5-1.1,4.7-2.5c2.6-3.1,5.2-6.2,7.8-9.4c-3.2-2.6-6.3-5.2-9.4-7.8c2.4-3,5-5.9,7.4-8.9c1.9-2.3,5-3.2,7.8-3
				C137.8,80.4,134.1,81.2,131.9,83.7z"/>
		</g>
		<g>
			<path fill="#DC3546" d="M132.2,110c3.7-4.3,7.2-8.7,10.9-12.9c2.7,1,4.8,3.3,5.5,6.1c1,3.5-0.5,7.6-3.5,9.6
				c-3.3,2.4-8.1,2.1-11.1-0.7C133.2,111.6,132.7,110.8,132.2,110z M142.6,101.7c-2.7,3.3-5.6,6.5-8.2,9.9c0.9-0.9,1.6-1.9,2.4-2.8
				c2.7-3.3,5.5-6.5,8.1-9.8C144.1,99.8,143.4,100.8,142.6,101.7z M145.5,99.5c-3.5,4.1-7,8.2-10.3,12.3c1.6-1.7,2.9-3.5,4.4-5.2
				C141.5,104.2,143.6,102,145.5,99.5z M148.1,105.4c-0.2,1-0.4,2.1-0.9,3c-1.1,2.4-3.3,4.3-5.8,5c2-0.3,3.9-1.5,5.1-3.2
				C147.5,108.9,148,107.2,148.1,105.4z"/>
		</g>
		<path fill="#DC3546" d="M125.1,109.1c2.2-2.6,4.4-5.2,6.6-7.8c0.3,0.3,0.7,0.6,1,0.9c-2.1,2.6-4.3,5.1-6.4,7.7
			c-1.9,2.2-5.2,2.8-7.8,1.5C120.9,111.5,123.4,111,125.1,109.1z"/>
	</g>
</g>
<g>
	<path fill="#FFFFFF" d="M171,78.2c10.2-5.9,20.4-11.8,30.6-17.7c10.2,5.9,20.4,11.8,30.7,17.7c0,11.8,0,23.6,0,35.4
		c-10.2,5.9-20.4,11.8-30.7,17.7c-10.2-5.9-20.4-11.8-30.6-17.7C171,101.8,171,90,171,78.2z"/>
	<g>
		<g>
			<path fill="#007AFF" d="M169.4,77.5c10.8-6.2,21.5-12.4,32.3-18.6c10.7,6.2,21.5,12.4,32.2,18.6c0,11.7,0,23.3,0,35
				c-0.1,0.8,0.2,1.7-0.1,2.3c-10.7,6.2-21.4,12.4-32.1,18.6c-10.8-6.2-21.5-12.4-32.3-18.6C169.4,102.4,169.4,89.9,169.4,77.5z
				 M201.1,63.5c-9.3,5.4-18.7,10.8-28,16.2c0,11,0,21.9,0,32.9c2.2,1.3,4.5,2.6,6.7,3.9c-0.1-2.1,0.3-4.2,0.6-6.2
				c0.4-2.4,0.8-4.8,1.8-6.9c0.6-1.3,1.9-2.2,3.1-2.9c1.6-0.8,3.3-1.4,5-1.7c-1.4,4.2-1.3,8.8-0.3,13.1c0.2,1,0.7,2,0.8,3.1
				c-0.3,0.6-0.7,1.3-0.5,2c0.2,1.5,1.9,2.3,3.2,1.7c1.4-0.5,2-2.3,1.1-3.5c-0.5-0.8-1.4-1.1-2.2-1.2c-0.6-1.6-1.1-3.3-1.2-5.1
				c-0.4-3.3-0.3-6.7,0.7-9.9c0.3-1.3,1.8-1.3,2.8-1.6c0.8,3.4,2.5,6.5,4.2,9.4c0.2-1.2,0.4-2.4,0.7-3.7c0.2-0.7-0.2-1.4-0.5-2.1
				c0.7-0.6,1.3-1.2,2.1-1.6c0.6,0.6,1.2,1.1,1.9,1.7c-0.2,0.6-0.6,1.2-0.5,1.9c0.1,1.3,0.5,2.5,0.6,3.8c1.8-2.9,3.3-6.1,4.3-9.4
				c1.1,0.3,2.1,0.7,3.2,0.9c0.4,1.9,0.3,3.8-0.2,5.6c-0.8,0.1-1.7,0-2.4,0.4c-1.4,0.6-2.4,1.9-2.9,3.4c-0.7,2-1.6,4-2.1,6.1
				c-0.3,1-0.5,2.2,0,3.2c0.5,0.8,1.5,1.5,2.6,1.3c0.5-0.1,0.5-0.8,0.3-1.2c-0.4-0.6-1.5-0.4-1.5-1.2c-0.1-1.8,0.6-3.5,1.3-5.1
				c0.4-1,0.7-2,1.1-3c0.6-1.4,2-2.4,3.5-2.3c1.5,0.1,2.9,1.2,3.1,2.7c0.2,1.2-0.1,2.5-0.2,3.7c-0.2,1.9-0.1,3.8-0.9,5.6
				c-0.4,1-1.7,0.3-2.4,0.9c0,0.4-0.2,0.9,0.3,1.1c1.1,0.3,2.7,0.4,3.3-0.8c1.2-2,1.1-4.5,1.3-6.8c0.1-1.6,0.5-3.2,0-4.8
				c-0.5-1.3-1.7-2.2-2.9-2.9c0.4-1.8,0.6-3.6,0.3-5.4c1.9,0.5,3.8,1.1,5.5,2.2c1.1,0.6,1.9,1.7,2.3,2.9c0.6,1.7,1.1,3.5,1.4,5.4
				c0.5,2.4,0.5,5,1.3,7.4c2.3-1.3,4.7-2.7,7-4c0-0.7,0.1-1.4,0-2.1c0-10.3,0-20.6-0.1-30.9c-9.4-5.4-18.7-10.8-28.1-16.2
				C201.7,63.2,201.4,63.3,201.1,63.5z"/>
		</g>
		<path fill="#007AFF" d="M197,72.9c2-0.6,5.1-0.7,6.9-0.5c4.2,0.4,7,3,7.1,7c0,3.2,0.2,6.5-1.1,9.5c-1.1,2.6-3,5-5.6,6.1
			c-2.2,1-4.9,0.9-6.8-0.6c-1.8-1.4-3.1-3.3-4-5.3c-1.2-2.7-1.8-5.6-1.9-8.5c-0.1-1.8,0.3-3.6,1.3-5.1
			C193.8,74.3,195.4,73.3,197,72.9z"/>
	</g>
</g>
<g>
	<path fill="#FFFFFF" d="M137.4,137.8c10.2-5.9,20.4-11.8,30.6-17.7c10.2,5.9,20.4,11.8,30.7,17.7c0,11.8,0,23.6,0,35.4
		c-10.2,5.9-20.4,11.8-30.7,17.7c-10.2-5.9-20.4-11.8-30.6-17.7C137.4,161.4,137.4,149.6,137.4,137.8z"/>
	<g>
		<g>
			<path fill="#FF9A66" d="M135.6,136.7c10.8-6.2,21.5-12.5,32.3-18.6c10.7,6.2,21.4,12.4,32.2,18.6c0,12.4,0,24.9,0,37.3
				c-10.1,5.8-20.2,11.6-30.2,17.5c-0.6,0.4-1.3,0.8-2,1.1c-0.8-0.2-1.5-0.8-2.3-1.2c-10-5.8-20-11.6-30-17.3
				C135.6,161.6,135.6,149.1,135.6,136.7z M166.5,123.2c-9,5.2-18.1,10.4-27.1,15.7c0,11,0,21.9,0,32.9c9.5,5.5,19,11,28.6,16.5
				c9.5-5.5,19-11,28.5-16.4c0-11,0-22,0-33c-9.4-5.4-18.7-10.8-28.1-16.2C167.7,122.3,167,123,166.5,123.2z"/>
		</g>
		<g>
			<path fill="#FF9A66" d="M159.1,134.6c7.5-0.1,15.1,0,22.7-0.1c1.3-0.1,2.5,0.7,3.1,1.8c0.6,1,0.4,2.2,0.1,3.3
				c-2.4,7.8-4.7,15.5-7.1,23.3c-0.4,1.3-0.8,2.6-1.8,3.6c-1.1,0.9-2.6,0.8-3.9,0.8c-7.1,0-14.2,0-21.2,0c-0.6,0-1.5,0-1.6,0.8
				c0,0.9,0.6,1.7,1.3,2c0.8,0.4,1.8,0.5,2.7,0.5c7.8,0,15.5,0,23.3,0c1.1,0.1,2.3-0.5,2.6-1.6c2.4-7.9,4.8-15.9,7.2-23.8
				c0.3-0.9,0.5-1.8,0.6-2.8c1.7,0.6,2.6,2.6,2,4.3c-2.3,7.7-4.6,15.3-6.9,22.9c-0.5,2.5-2.9,4.4-5.4,4.4c-7.8,0-15.5,0-23.3,0
				c-3.2,0.1-6.2-2.4-6.9-5.5c-0.4-1.4,0.4-2.8,0.3-4.3c0-0.6-0.2-1.2,0.2-1.7c1.2-1.6,2-3.4,2.5-5.3c0.3-0.9-0.1-1.9,0.5-2.7
				c1-1.3,1.5-2.8,2-4.3c0.3-0.8,0.1-1.7,0.2-2.6c0.4-0.7,1.1-1.2,1.5-2c0.5-1,1-2.1,1.3-3.2c0.2-0.8,0-1.5,0.1-2.3
				c0.5-0.9,1.3-1.6,1.6-2.6C157.3,136.6,157.7,135.1,159.1,134.6z M161.3,144.4c5.1,0.1,10.3,0,15.4,0c0.6,0,1.3,0.1,1.6-0.5
				c0.4-0.8,0.7-1.6,0.8-2.4c-0.3-0.4-0.7-0.3-1.1-0.3c-4.9,0-9.8,0-14.7,0C161.6,141.1,161.3,143.2,161.3,144.4z M159.9,148.2
				c-0.4,0.7-0.6,1.5-0.8,2.4c0.1,0.6,0.7,0.4,1.1,0.5c4.8,0,9.7,0,14.5,0c0.5,0,1.2,0,1.5-0.5c0.4-0.8,0.7-1.7,0.7-2.6
				c-1.3-0.2-2.6-0.1-4-0.1c-3.8,0-7.7,0-11.5,0C160.9,147.8,160.2,147.7,159.9,148.2z"/>
		</g>
	</g>
</g>
<g>
	<path fill="#FFFFFF" d="M1.3,19.6C11.5,13.7,21.7,7.8,32,1.9c10.2,5.9,20.4,11.8,30.7,17.7c0,11.8,0,23.6,0,35.4
		C52.4,60.8,42.2,66.7,32,72.6C21.7,66.7,11.5,60.8,1.3,54.9C1.3,43.1,1.3,31.3,1.3,19.6z"/>
	<g>
		<g>
			<path fill="#3677A2" d="M0,18.9C10.7,12.6,21.5,6.5,32.2,0.3C43,6.4,53.7,12.6,64.4,18.8c0,12.4,0,24.8,0,37.2
				C53.7,62.2,43,68.4,32.2,74.6c-10.5-6.1-21-12.2-31.6-18.2c-0.2-0.1-0.4-0.3-0.7-0.4V18.9z M3.6,20.9c0,11,0,22,0,33
				c9.5,5.5,19.1,11,28.6,16.5c9.5-5.5,19.1-11,28.6-16.5c0-11,0-22,0-33c-9.6-5.5-19.1-11-28.6-16.5C22.7,9.9,13.2,15.4,3.6,20.9z"
				/>
		</g>
		<g>
			<path fill="#3677A2" d="M26.1,14.8c3.3-0.4,6.7,0.3,9.6,1.9c3.4,1.8,6.1,4.9,7.5,8.6c1.4,3.5,1.4,7.5,0.2,11.1
				c-1,3.1-3,5.9-5.6,7.9c-2.6,1.9-5.7,3.1-8.9,3.3c-4.4,0.3-8.9-1.3-12.1-4.2c-2.5-2.3-4.3-5.3-5-8.6c-0.8-3.7-0.3-7.6,1.3-11
				C15.7,18.9,20.7,15.4,26.1,14.8z M25.7,17.2c-3.8,0.6-7.3,2.8-9.5,6c-1.8,2.6-2.7,5.8-2.4,9c0.2,3.4,1.7,6.7,4.2,9
				c2.7,2.7,6.4,4.2,10.2,4.1c2.7-0.1,5.3-0.9,7.6-2.4c2.8-1.8,4.9-4.7,5.8-7.9c1-3.3,0.6-7-0.9-10c-1.4-2.8-3.7-5.1-6.5-6.5
				C31.6,17.2,28.6,16.7,25.7,17.2z"/>
		</g>
		<path fill="#3677A2" d="M30.8,19.9c0.1-0.4,0-0.8,0.1-1.1c1,0.2,2,0.6,3,1.1c0,3.3-1.6,6.6-4.4,8.4c-1-0.5-1.9-1.1-2.8-1.6
			c1.8-1.2,3.6-2.9,4-5.2c-2.7,0-5.3,0-8,0c-0.8-0.1-0.8-1.4,0-1.5C25.4,19.9,28.1,19.9,30.8,19.9z"/>
		<path fill="#3677A2" d="M17.8,23.5c0.6-0.7,1.2-1.4,1.9-2c0.2,0.4,0.3,0.9,0.5,1.3c2.3,0.1,4.6,0,6.9,0c0.3,0,0.6,0.2,0.8,0.4
			c0,0.4-0.1,1.1-0.6,1.1c-2,0.1-4-0.1-6,0.1c1.9,2.2,4.6,3.3,7,4.8c2.2,1.3,4.4,3.1,5.2,5.7c0.7,2.5,0.6,5.4-0.9,7.6
			c-0.2,0.4-0.5,0.8-0.9,0.9c-1.6,0.5-3.3,0.6-5,0.5c1.2-0.8,2.4-1.6,3.2-2.8c0.5-0.7,0.8-1.6,0.9-2.4c-2.6,0-5.2,0-7.8,0
			c-0.5,0.1-0.9-0.3-0.9-0.8c0-0.5,0.4-0.8,0.9-0.8c2.6,0,5.2,0,7.8,0c-0.3-2.1-1.8-3.7-3.5-4.7c-2.6-1.7-5.4-2.9-7.7-5
			c-0.9-0.9-1.7-1.9-2.2-3C17.3,23.9,17.6,23.7,17.8,23.5z"/>
		<path fill="#3677A2" d="M16.6,36.8c0.1-2.8,2-5.3,4.3-6.7c0.9,0.6,1.9,1.1,2.8,1.7c-1,0.7-2,1.3-2.8,2.2c1.9,0.1,3.8,0.1,5.7,0.1
			c0.4,0,0.9-0.1,1.2,0.3c0.4,0.5,0,1.3-0.6,1.2c-2.4,0.1-4.9,0-7.4,0c-0.5,1.4-0.5,2.9,0,4.3c2.5,0,5.1,0,7.6,0
			c0.8,0,0.9,1.3,0.2,1.5c-1.5,0.1-3,0-4.5,0c-0.8,0-1.6-0.1-2.4,0.2C19,40.4,17.4,38.8,16.6,36.8z"/>
		<path fill="#3677A2" d="M40.9,42.2c0.5-0.5,1.5,0.2,1.2,0.9c-0.3,0.6-0.9,1-1.4,1.5c-0.3,0.3-0.6,0.7-1.1,0.7
			c-0.6,0-0.9-0.8-0.5-1.2C39.6,43.4,40.2,42.8,40.9,42.2z"/>
		<path fill="#3677A2" d="M42.6,44c0.9-0.3,2,0,2.6,0.7c2.4,2.4,4.7,4.7,7.1,7.1c0.7,0.7,1,1.7,0.8,2.6c-0.3,1.3-1.7,2.1-3,1.9
			c-0.6-0.1-1.2-0.5-1.6-0.9c-2.4-2.4-4.8-4.7-7.1-7.2C40.1,46.9,40.8,44.4,42.6,44z"/>
		<path fill="#3677A2" d="M18.8,49.2c0.6-0.6,1.2-1.2,1.9-1.7c1.2,0.5,2.4,0.9,3.6,1.1c-2,1.3-4,2.9-4.6,5.3c2.5,0,5.1,0,7.6,0
			c0.8,0.1,0.7,1.5-0.1,1.5c-2.6,0-5.2,0-7.7,0c0,0.3,0,0.6,0,0.9c-1,0-2,0.1-3,0.1C16.4,53.9,17.1,51.2,18.8,49.2z"/>
		<path fill="#3677A2" d="M26.6,49c1.2,0,2.4,0.1,3.6-0.1c0.3,0,0.6-0.1,0.9,0c2,2,2.8,4.9,2.7,7.6c-1,0-2,0-3-0.1
			c0-1.2-0.2-2.4-0.7-3.5c-2.4-0.2-4.8,0-7.2-0.1c-0.6,0-0.9-0.9-0.4-1.3c0.2-0.3,0.5-0.2,0.8-0.3c1.9,0,3.8,0,5.6,0
			C28.4,50.3,27.5,49.6,26.6,49z"/>
	</g>
</g>
<g>
	<path fill="#FFFFFF" d="M68.9,138c10.2-5.9,20.4-11.8,30.6-17.7c10.2,5.9,20.4,11.8,30.7,17.7c0,11.8,0,23.6,0,35.4
		c-10.2,5.9-20.4,11.8-30.7,17.7c-10.2-5.9-20.4-11.8-30.6-17.7C68.8,161.5,68.8,149.8,68.9,138z"/>
	<g>
		<g>
			<g>
				<path fill="#00CC99" d="M92.3,134.3c3.6-1.2,7.4-1.6,11.2-0.9c3.3,0.6,6.4,1.9,9.1,3.8c3.8,2.7,6.6,6.5,8.1,10.9
					c1.3,3.7,1.6,7.8,0.8,11.7c-0.6,3-1.9,5.9-3.7,8.5c-1.9,2.6-4.3,4.9-7.1,6.5c-3.2,1.9-7,2.9-10.7,2.9h-0.7
					c-3.7-0.1-7.4-1.1-10.6-2.9c-4.7-2.6-8.4-7.1-10.1-12.2c-0.8-2.2-1.1-4.5-1.2-6.9V155c0-1.5,0.2-3,0.5-4.5
					c0.8-3.6,2.5-7,4.9-9.7C85.3,137.8,88.6,135.6,92.3,134.3z M98.5,134.6c-3.6,0.2-7.1,1.3-10.1,3.3c0.2,0.4,0.5,0.9,0.6,1.4
					c0,0.5-0.4,0.8-0.4,1.2c0.2,0.3,0.4,0.6,0.6,1c0.2,0.4,0.3,1,0,1.4c-0.2-0.1-0.5-0.2-0.7-0.2c-0.5,0-0.8,0.5-1.3,0.5
					c-0.4,0-0.9,0-1.1,0.4c-0.3,0.5-0.1,1.1-0.3,1.7c-0.1,0.3-0.4,0.5-0.7,0.6c-0.6,0-1.3,0-1.9,0.2c-0.4,0.2-0.5,0.7-0.8,1.1
					c-0.5,0.3-1.2,0.3-1.7,0.7c-0.3,0.2-0.5,0.5-0.7,0.8c-0.9,2.5-1.3,5.3-1.1,8c0,0.4,0.1,0.7,0.2,1.1c0.1,0.5,0.7,1,1.3,0.9
					c0.4,0,0.7,0.1,0.9,0.4c0.3,0.3,0,0.8,0.3,1.2c0.2,0.3,0.5,0.5,0.7,0.7c0.2,0.3,0.4,0.8,0.8,0.9c0.4,0.1,0.7-0.2,1.1-0.2
					c0.3,0.1,0.5,0.3,0.7,0.4c0.5,0.3,1.1,0.7,1.2,1.3c0.3,1.1-0.1,2.3,0,3.4c0,0.4,0.3,0.8,0.4,1.2c0.1,0.3-0.1,0.5-0.3,0.7
					c-0.2,0.3-0.4,0.6-0.6,0.9c-0.1,0.2-0.3,0.5-0.2,0.8c0.1,0.4,0.5,0.5,0.8,0.7c0.1,0.2,0,0.4,0,0.6c1.6,1.4,3.5,2.5,5.5,3.2
					c4.1,1.7,8.8,1.9,13.1,0.8c3.2-0.8,6.2-2.5,8.6-4.7c0-0.3,0-0.7,0.2-1c0.1-0.3,0.4-0.6,0.5-1c0.1-0.2,0-0.5,0.2-0.7
					c0.2-0.2,0.4-0.2,0.6-0.2c0.4-0.1,0.9-0.3,1.2-0.6c0.3-0.3,0.8-0.5,1-1c0.2-0.6,0-1.3,0.1-1.9c0-0.6,0.3-1.3,0.8-1.6
					c0.2-0.2,0.5-0.1,0.8-0.2c0.2-0.2,0.2-0.6,0.5-0.7c0.7-2.3,1.1-4.8,0.9-7.2c-0.2,0.2-0.4,0.4-0.4,0.7c0,0.3-0.2,0.6-0.2,1
					c0,0.4,0.2,0.8,0.2,1.2c0,0.4-0.3,0.8-0.5,1.1c-0.2-0.1-0.4-0.2-0.5-0.4c0-0.3,0.1-0.6,0-0.8c-0.3-0.3-0.6-0.4-0.8-0.8
					c-0.1-0.4,0-0.8,0-1.1c0.1-0.7-0.2-1.5-0.6-2.1c-0.2-0.3-0.7-0.3-1.1-0.4c-0.4,0-0.7-0.2-1-0.4c-0.4,0.6-0.5,1.3-0.7,2
					c-0.2,0.8-1,1.3-1.7,1.5c-0.6,0.1-1.2,0.1-1.8,0.3c-0.3-0.6-0.6-1.2-1.1-1.6c-0.7-0.5-1-1.4-1.1-2.3c-0.1-0.2,0-0.5-0.3-0.7
					c-0.1,0.9-0.2,1.9,0.1,2.8c0.2,0.5,0.6,1,0.8,1.5c0.1,0.5,0.7,0.7,1.2,0.8c0.7,0.2,1.5-0.2,2.3,0.1c0.2,0.1,0.4,0.3,0.4,0.6
					c0,0.3-0.3,0.4-0.3,0.7c0.1,0.3,0.4,0.5,0.3,0.8c-0.3,0.9-1.2,1.2-1.7,1.9c-0.4,0.5-0.6,1.2-1.2,1.6c-0.3,0.2-0.7,0.3-0.9,0.6
					c-0.3,0.6-0.3,1.4-0.2,2.1c0.5,0.3,1,0.5,1.6,0.4c0.3,0,0.6-0.1,0.9,0c0.2,0.3,0,0.7-0.1,1.1c-0.2,0.6-0.1,1.3-0.5,1.8
					c-0.3,0.2-0.7,0.1-1,0.3c-0.2,0.1-0.2,0.3-0.3,0.5c-0.4,0-0.9,0.1-1.3-0.3c-0.3-0.4-0.5-0.9-0.8-1.3c-0.1,1-0.7,1.7-1.2,2.5
					c-0.4,0.6-1.1,1.1-1.9,1.3c-0.5,0.1-1.1,0.1-1.5,0.4c-0.3,0.2-0.4,0.6-0.6,0.9c-0.9-0.3-1.5-1.1-1.8-1.9c-0.3-0.7-0.1-1.4-0.4-2
					c-0.1-0.4-0.4-0.8-0.4-1.3c0-0.5,0.2-0.9,0.2-1.4c0.1-0.8-0.2-1.5-0.5-2.2c-0.2-0.3-0.5-0.5-0.8-0.8c-0.3-0.3-0.6-0.8-0.7-1.2
					c-0.3-0.8-0.6-1.5-1.1-2.1c-0.3-0.4-0.8-0.5-1.2-0.4c-0.5,0.1-1,0.3-1.6,0.3c-1.1,0.1-2.1-0.2-3.1-0.5c-0.5-0.1-1.1-0.4-1.4-0.8
					c-0.2-0.2-0.3-0.4-0.3-0.7c0.1-0.3,0.4-0.5,0.4-0.8c0-0.5-0.3-1-0.1-1.5c0.2-0.4-0.1-0.9,0-1.3c0-0.3,0.2-0.5,0.3-0.8
					c0.1-0.5,0.1-1,0.3-1.4c0.2-0.4,0.7-0.5,0.9-0.9c0.2-0.3,0.3-0.8,0.6-1.1c0.5-0.1,1.1-0.2,1.5-0.5c0.2-0.1,0.2-0.4,0.1-0.6
					c-0.3-0.3-0.9-0.2-1.2-0.5c0.1-0.4,0.2-0.9,0.2-1.3c0-0.4-0.1-0.8,0-1.1c0.1-0.2,0.4-0.2,0.5-0.1c0.4,0.1,0.8,0.2,1.1,0
					c0.3-0.3,0.6-0.6,0.9-1c-0.3-0.1-0.7-0.2-1-0.5c-0.2-0.1-0.3-0.4-0.5-0.4c-0.3,0-0.6,0.1-0.9,0.2c0.1-0.6,0.1-1.2,0.5-1.7
					c0.6-0.7,1.4-1.1,2.1-1.5c0.2,0.4,0.5,0.9,0.6,1.4c0,0.2,0,0.4,0.2,0.5c0.4,0.4,0.8,0.7,1.3,1c0.3-0.7,0.6-1.4,0.9-2
					c0.2-0.4,0.3-1,0.2-1.4c-0.3-1.2,0.6-2.4,1.8-2.6c0.5,0.1,0.9,0.5,1.4,0.5c0.9-0.2,1.7-0.8,2.6-0.9c0.3,0,0.6-0.1,0.8,0.1
					c0.1,0.3-0.1,0.6,0.1,0.9c0.2,0.4,0.6,0.6,1,0.8c0.4,0.2,0.9,0.4,1.3,0.3c0.9-0.1,1.6-0.7,2.2-1.2c-0.9-0.9-2-1.5-3.2-2
					C104.1,134.9,101.3,134.5,98.5,134.6z M110.1,138.9c-0.4,0.2-0.7,0.5-1.1,0.6c0.1,0.6-0.4,1-0.7,1.4c0.5-0.4,1.1-0.8,1.7-1
					c0.8-0.2,1.6-0.2,2.5,0c-0.5-0.3-0.9-0.6-1.4-0.9C110.7,138.8,110.3,138.7,110.1,138.9z M100.9,139.5c0.2,0.4,0.4,0.8,0.2,1.2
					c-0.3,0.6-1.1,0.9-1.7,1.1c0,0,0,0,0,0.1c0.5-0.1,0.9-0.3,1.4-0.3c0.2,0,0.3,0,0.4,0.1c0.4-0.1,0.9-0.2,1.3-0.4
					c0.3-0.1,0.3-0.5,0.2-0.7C102.1,140.1,101.6,139.7,100.9,139.5z M98.7,146.4c-0.4,0.1-0.9,0.1-1.4,0.1c-0.2,0.2-0.4,0.4-0.5,0.6
					c0.5,0.3,1,0.4,1.5,0.4c0.5,0,1,0,1.4,0.3c0.4,0.4,0.6,1,1,1.4c0.2,0.2,0.5,0.3,0.7,0.2c0.8-0.2,1.6-0.4,2.4-0.4
					c0.4,0,0.8,0.2,1,0.6c0.3,0.5,0.6,1,1.1,1.3c0.3,0.2,0.7,0.1,1-0.1c0.4-0.4,0.5-0.9,0.6-1.5c-0.4-0.3-0.7-0.6-1.2-0.8
					c-0.4-0.2-0.9-0.2-1.3-0.3c-0.6-0.1-1.2-0.2-1.7-0.4c-0.4-0.1-0.7-0.3-1.1-0.4c-0.2-0.1-0.5,0-0.7,0.1c-0.3-0.3-0.5-0.7-0.8-0.9
					c-0.3-0.2-0.6-0.3-0.9-0.4C99.2,146,98.9,146.3,98.7,146.4z"/>
			</g>
		</g>
		<g>
			<path fill="#00CC99" d="M97.7,119.1c0.6-0.3,1.2-0.9,2-1c0.9,0.3,1.6,0.9,2.4,1.3c9.9,5.7,19.8,11.5,29.7,17.1
				c0,12.4,0,24.9,0,37.3c-10.6,6.1-21.3,12.3-31.9,18.4c-0.2,0.2-0.5,0.2-0.7,0C88.6,186.2,78,180.1,67.4,174c0-12.4,0-24.9,0-37.3
				C77.5,130.8,87.6,125,97.7,119.1z M98,123.4c-8.9,5.2-17.9,10.3-26.8,15.5c0,11,0,21.9,0,32.9c9.2,5.4,18.5,10.7,27.7,16
				c0.4,0.2,0.8,0.5,1.2,0.2c9.4-5.4,18.7-10.8,28.1-16.2c0-11,0-21.9,0-32.9c-9-5.2-18-10.4-27-15.6c-0.5-0.3-1-0.7-1.6-0.8
				C99,122.7,98.5,123.1,98,123.4z"/>
		</g>
	</g>
</g>
<g>
	<path fill="#FFFFFF" d="M137.4,19.7C147.6,13.8,157.8,7.9,168,2c10.2,5.9,20.4,11.8,30.7,17.7c0,11.8,0,23.6,0,35.4
		c-10.2,5.9-20.4,11.8-30.7,17.7c-10.2-5.9-20.4-11.8-30.6-17.7C137.4,43.2,137.4,31.5,137.4,19.7z"/>
	<g>
		<path fill="#CC33CC" d="M135.6,19.1c10.8-6.2,21.5-12.4,32.3-18.6c10.8,6.2,21.5,12.4,32.3,18.6c0,12.4,0,24.9,0,37.3
			c-10.8,6.2-21.5,12.4-32.3,18.6c-10.8-6.2-21.5-12.4-32.3-18.6C135.6,43.9,135.6,31.5,135.6,19.1z M139.4,21.2c0,11,0,22,0,33
			c9.5,5.5,19,11,28.5,16.5c9.5-5.5,19-11,28.5-16.5c0-11,0-22,0-33c-9.5-5.5-19-11-28.5-16.4C158.4,10.2,148.9,15.7,139.4,21.2z"/>
	</g>
	<g>
		<path fill="#CC33CC" d="M182.2,17.8c0.3,0,0.5,0.2,0.8,0.4c0.9,0.7,1.7,1.6,2.3,2.5c0.8,1.1,1.4,2.5,1.4,3.9
			c-0.1,1.5-1.1,2.8-2.6,3.2c-1.1,0.4-2.5,0.1-3.4-0.7c-1.1-0.9-1.6-2.5-1.1-3.8c0.4-1,1.4-1.6,2.1-2.4c0.4-0.4,0.7-1,0.8-1.6
			C182.6,18.8,182.4,18.3,182.2,17.8z"/>
		<g>
			<path fill="#CC33CC" d="M155.8,21.5c3-2,6.5-3.1,10.1-3.1c4.5-0.1,9,1.6,12.4,4.5c-0.7,2,0.1,4.4,1.8,5.6c-0.6,1.5-1,3-1.3,4.6
				c-0.5-0.8-1.4-1.4-2.3-1.7c-1.2-0.3-2.5-0.1-3.5,0.6c-1.1,0.7-1.8,2-1.8,3.3c0,1.1,0.4,2.2,1.3,3c0.8,0.8,1.9,1.2,3,1.2
				c1,0,1.9-0.5,2.7-1.1c-0.2,3.2-0.1,6.4,0.2,9.6c-1,0.1-2.1,0-2.9-0.6c-0.9-0.7-1.8-1.5-2.5-2.4c-0.3-0.4-0.6-0.8-0.9-1.2
				c-0.4-0.5-1.1-0.8-1.7-0.8c-1.3,0-2.6,0.7-3.2,1.8c-0.4,0.8-0.4,1.7,0,2.6c0.6,1.5,1.6,2.8,2.7,4c0.4,0.5,0.8,0.8,1.2,1.4
				c0.3,0.5,0.6,1.2,0.6,1.8c0,0.4-0.3,0.7-0.7,0.8c-2.9,0.8-6,0.8-8.9,0.2c-3.2-0.7-6.2-2.3-8.6-4.6c-2.6-2.4-4.4-5.5-5.3-8.8
				c-0.9-3.4-0.9-7.1,0.2-10.5C149.5,27.5,152.2,23.9,155.8,21.5z M167.5,23.6c-0.5,0.1-0.9,0.2-1.3,0.5c-1.2,0.8-1.7,2.5-1.1,3.8
				c0.6,1.4,2.3,2.2,3.7,1.7c1.5-0.4,2.5-2.1,2.1-3.7C170.6,24.5,169,23.4,167.5,23.6z M156.5,28.9c-1.2,0.3-2.1,1.4-2.2,2.6
				c-0.2,1.3,0.6,2.6,1.7,3.1c1.1,0.6,2.5,0.4,3.4-0.4c1-0.9,1.4-2.4,0.8-3.7C159.6,29.2,157.9,28.4,156.5,28.9z M156.2,40.4
				c-1.3,0.3-2.3,1.5-2.3,2.8c-0.1,1.5,1,2.9,2.4,3.2c1.3,0.3,2.6-0.3,3.3-1.4c0.6-1,0.6-2.4-0.1-3.3
				C158.8,40.6,157.4,40.1,156.2,40.4z"/>
		</g>
		<path fill="#CC33CC" d="M181.4,29.2c1.2,0.4,2.5,0.4,3.7-0.1c0.5,1.1,0.8,2.3,1,3.5c0.5,2.5,0.7,5.1,0.7,7.7
			c0,2.9-0.1,5.8-0.5,8.6c-0.3,1.8-0.6,3.6-1.3,5.3c-0.3,0.7-0.7,1.4-1.3,1.8c-0.4,0.2-0.9,0.2-1.2-0.1c-0.7-0.5-1-1.3-1.3-2.1
			c-0.8-2.1-1.1-4.3-1.3-6.5c-0.3-3.4-0.3-6.9,0-10.3C180,34.4,180.4,31.7,181.4,29.2z"/>
	</g>
</g>
<g>
	<path fill="#FFFFFF" d="M205,137.6c10.2-5.9,20.4-11.8,30.6-17.7c10.2,5.9,20.4,11.8,30.7,17.7c0,11.8,0,23.6,0,35.4
		c-10.2,5.9-20.4,11.8-30.7,17.7c-10.2-5.9-20.4-11.8-30.6-17.7C205,161.2,205,149.4,205,137.6z"/>
	<g>
		<path fill="#4653A3" d="M203.3,136.7c10.8-6.2,21.5-12.4,32.3-18.6c10.8,6.2,21.5,12.4,32.3,18.6c0,12.4,0,24.8,0,37.2
			c-10.8,6.2-21.5,12.4-32.3,18.6c-10.7-6.2-21.5-12.4-32.3-18.6C203.3,161.5,203.3,149.1,203.3,136.7z M207.1,138.9
			c0,11,0,21.9,0,32.9c9.5,5.5,19,10.9,28.5,16.4c9.5-5.4,19-11,28.5-16.4c0-11,0-22,0-33c-9.5-5.4-19-11-28.5-16.4
			C226.1,127.9,216.6,133.4,207.1,138.9z"/>
	</g>
	<g>
		<g>
			<g>
				<path fill="#4752A2" d="M257.6,160.1c-0.1-2.5-0.5-5.3-1.2-7.9c-0.7-2.5-1.5-4.9-2.5-6.7c-3.8-6.7-8-5.7-13-4.4
					c-1.6,0.4-3.3,0.8-5,1h-0.5c-1.8-0.2-3.5-0.6-5-1c-5-1.3-9.1-2.4-13,4.4c-1,1.8-1.9,4.2-2.5,6.7c-0.7,2.6-1.1,5.4-1.2,7.9
					c-0.1,2.8,0.2,4.8,0.8,6.2c0.6,1.3,1.5,2.1,2.6,2.5c1,0.3,2.2,0.2,3.5-0.4c2.1-0.9,4.6-2.7,7-5c1.7-1.6,4.9-2.5,8.1-2.5
					s6.4,0.8,8.1,2.5c2.4,2.2,4.9,4.1,7,5c1.3,0.5,2.5,0.7,3.5,0.4c1.1-0.3,2-1.1,2.6-2.5C257.4,164.9,257.7,162.9,257.6,160.1z
					 M255,165.5c-0.3,0.8-0.8,1.2-1.3,1.4c-0.6,0.2-1.4,0.1-2.2-0.3c-1.9-0.8-4.2-2.5-6.4-4.5c-2.1-2.1-5.8-3.1-9.4-3.1
					c-3.7,0-7.3,1-9.5,3c-2.2,2.1-4.5,3.8-6.4,4.5c-0.9,0.3-1.6,0.5-2.2,0.3c-0.5-0.2-1-0.6-1.3-1.4c-0.4-1-0.7-2.7-0.5-5.3
					c0.1-2.4,0.5-5,1.2-7.6c0.6-2.4,1.4-4.5,2.3-6.2c3-5.4,6.5-4.5,10.7-3.4c1.7,0.4,3.5,0.9,5.4,1c0.1,0,0.1,0,0.1,0h0.6
					c0.1,0,0.1,0,0.1,0c2-0.2,3.7-0.6,5.4-1c4.2-1,7.7-2,10.7,3.4c0.9,1.6,1.7,3.8,2.3,6.2c0.6,2.5,1,5.1,1.2,7.6
					C255.7,162.7,255.4,164.4,255,165.5z"/>
			</g>
		</g>
		<g>
			<g>
				<path fill="#4752A2" d="M230.6,149.4c-0.5-0.5-1.2-0.9-2-0.9c-0.1-0.7-0.4-1.4-0.9-1.9l-0.1-0.1c-0.6-0.6-1.4-0.9-2.2-0.9
					s-1.7,0.4-2.2,0.9c-0.5,0.5-0.9,1.2-0.9,2c-0.8,0.1-1.4,0.4-2,0.9l-0.1,0.1c-0.6,0.6-0.9,1.4-0.9,2.2s0.4,1.7,0.9,2.2
					s1.2,0.9,2,0.9c0.1,0.8,0.4,1.5,0.9,2c0.6,0.6,1.4,0.9,2.2,0.9s1.7-0.4,2.2-0.9c0.5-0.5,0.9-1.2,0.9-2c0.8-0.1,1.5-0.4,2-0.9
					c0.6-0.6,0.9-1.4,0.9-2.2S231.1,149.9,230.6,149.4z M229.2,152.5c-0.2,0.2-0.5,0.3-0.8,0.3h-0.8c-0.5,0-1,0.4-1,1v0.7
					c0,0.3-0.1,0.6-0.3,0.8s-0.5,0.3-0.8,0.3s-0.6-0.1-0.8-0.3c-0.2-0.2-0.3-0.5-0.3-0.8v-0.8c0-0.5-0.4-1-1-1h-0.8
					c-0.3,0-0.6-0.1-0.8-0.3c-0.2-0.2-0.3-0.4-0.3-0.8s0.1-0.6,0.3-0.8c0,0,0,0,0.1-0.1c0.2-0.2,0.5-0.3,0.8-0.3h0.8
					c0.5,0,1-0.4,1-1v-0.8c0-0.3,0.1-0.6,0.3-0.8c0.2-0.2,0.5-0.3,0.8-0.3s0.6,0.1,0.8,0.3c0,0,0,0,0.1,0.1c0.2,0.2,0.3,0.5,0.3,0.8
					v0.8c0,0.5,0.4,1,1,1h0.8c0.3,0,0.6,0.1,0.8,0.3s0.3,0.5,0.3,0.8S229.4,152.2,229.2,152.5z"/>
			</g>
		</g>
		<g>
			<g>
				<circle fill="#4752A2" cx="245.1" cy="147.8" r="1.9"/>
			</g>
		</g>
		<g>
			<g>
				<circle fill="#4752A2" cx="245.1" cy="155.5" r="1.9"/>
			</g>
		</g>
		<g>
			<g>
				<circle fill="#4752A2" cx="241.3" cy="151.6" r="1.9"/>
			</g>
		</g>
		<g>
			<g>
				<circle fill="#4752A2" cx="249" cy="151.6" r="1.9"/>
			</g>
		</g>
	</g>
</g>
<g>
	<path fill="#FFFFFF" d="M204.9,20c10.2-5.9,20.4-11.8,30.7-17.7C245.8,8.2,256,14.1,266.3,20c0,11.8,0,23.6,0,35.4
		c-10.2,5.9-20.4,11.8-30.7,17.7c-10.2-5.9-20.4-11.8-30.7-17.7C204.9,43.6,204.9,31.8,204.9,20z"/>
	<g>
		<path fill="#008B8B" d="M203.3,19c10.8-6.2,21.5-12.4,32.3-18.6c10.8,6.2,21.5,12.4,32.3,18.6c0,12.4,0,24.9,0,37.3
			c-10.8,6.2-21.5,12.4-32.3,18.6c-10.8-6.2-21.5-12.4-32.3-18.6C203.3,43.9,203.3,31.5,203.3,19z M207.1,21.2c0,11,0,22,0,32.9
			c9.5,5.5,19,10.9,28.5,16.4c9.5-5.4,19-11,28.5-16.4c0-11,0-22,0-33c-9.5-5.5-19-11-28.5-16.4C226.1,10.2,216.6,15.7,207.1,21.2z"
			/>
	</g>
	<g id="_x23_000000ff">
		<path fill="#008B8B" d="M234.1,16c3.7-0.3,7.5,0.5,10.9,2.1c4.6,2.2,8.4,6,10.4,10.7c1.7,3.8,2.3,8.1,1.7,12.3
			c-0.5,3.1-1.7,6.2-3.4,8.8c-1.9,2.8-4.4,5.1-7.3,6.8c-3.1,1.8-6.6,2.8-10.2,2.8c-3.6,0.1-7.3-0.7-10.5-2.4
			c-4.9-2.5-8.7-6.9-10.5-12.1c-1.3-3.6-1.6-7.6-0.8-11.4c0.7-3.7,2.4-7.1,4.8-9.9c2.9-3.4,7-5.9,11.4-7
			C231.7,16.3,232.9,16.1,234.1,16 M233.7,17.8c-1.5,0.6-2.7,1.8-3.7,3c-1.2,1.6-2.1,3.5-2.8,5.5c-0.1,0.2-0.2,0.5-0.2,0.7
			c0.4,0,0.9-0.2,1.3-0.2c1.1-0.2,2.1-0.4,3.2-0.5c0.4,0,0.9,0,1.3-0.1c0-0.4-0.1-0.8,0-1.2c0.1-0.6,0.5-1.2,1-1.5
			c0.3-0.2,0.6-0.3,0.9-0.5c0.1-0.4,0-0.8,0-1.1c0-1.4,0-2.8,0-4.3C234.5,17.5,234.1,17.6,233.7,17.8 M236.4,17.5
			c-0.1,1.3,0,2.6,0,3.9c0,0.5,0,0.9,0,1.4c0.4,0.2,0.8,0.3,1.1,0.6c0.4,0.3,0.6,0.7,0.9,1c0.6,0.5,1.5,0.3,1.9-0.3
			c0.2-0.4,0.3-0.9,0.7-1.3c0.3-0.4,0.6-0.6,1-0.8c-0.3-0.7-0.8-1.2-1.3-1.8C239.5,18.9,238.1,17.7,236.4,17.5 M219.5,25.4
			c-1.6,2.2-2.9,4.7-3.5,7.3c0.3-0.3,0.6-0.6,0.9-0.9c2.3-2.1,5.3-3.4,8.2-4.3c0.1,0,0.3-0.1,0.3-0.2c0.2-0.4,0.3-0.9,0.4-1.4
			c0.9-2.5,2.1-4.9,3.8-6.9c0.3-0.3,0.6-0.6,0.9-1C226.2,19.1,222.3,21.8,219.5,25.4 M240.6,18c0.9,0.9,1.8,1.9,2.5,3
			c0.2,0.2,0.3,0.5,0.5,0.7c0.3,0.1,0.7,0.2,1,0.4c0.8,0.4,1.4,1.4,1.4,2.3c0,0.4-0.1,0.8-0.1,1.2c0.1,0.6,0.8,1.1,1.4,1
			c0.5-0.1,1-0.4,1.5-0.5c1.3-0.2,2.6,0.7,3,1.9c0.2,0.6,0.1,1.2,0,1.8c0.2,0.2,0.5,0.3,0.7,0.5c1,0.6,1.9,1.5,2.7,2.3
			c-0.3-1.4-0.8-2.7-1.5-4C251.2,23.5,246.3,19.4,240.6,18 M242.8,23.2c-0.5,0.1-0.8,0.6-1,1c-0.3,0.9-1.2,1.6-2.1,1.8
			c-0.8,0.2-1.8-0.1-2.4-0.7c-0.4-0.3-0.6-0.8-1-1c-0.8-0.5-2.1,0.2-2,1.2c0.1,0.6,0.5,1.1,0.5,1.7c0.1,1.4-1,2.8-2.5,2.9
			c-0.5,0.1-1.1-0.1-1.6-0.1c-0.9,0.2-1.3,1.4-0.8,2.1c0.2,0.3,0.7,0.4,1,0.6c1,0.4,1.6,1.4,1.7,2.4c0,0.8-0.3,1.6-0.9,2.1
			c-0.3,0.3-0.8,0.5-1,0.9c-0.3,0.8,0.3,1.7,1.1,1.8c0.6,0,1.1-0.4,1.7-0.5c1.4-0.2,2.8,0.7,3.1,2.1c0.2,0.6-0.1,1.3,0,1.9
			c0.2,1,1.8,1.3,2.4,0.4c0.3-0.5,0.4-1.1,0.9-1.5c0.9-1,2.6-1.1,3.7-0.3c0.5,0.3,0.7,0.9,1.2,1.2c0.8,0.5,2.1-0.2,2-1.2
			c-0.1-0.6-0.5-1.1-0.5-1.7c-0.1-1.4,1-2.7,2.3-2.9c0.6-0.1,1.1,0.1,1.7,0c0.9-0.1,1.4-1.3,0.9-2c-0.3-0.4-0.7-0.5-1.1-0.7
			c-0.9-0.4-1.5-1.3-1.6-2.3c-0.1-0.9,0.3-1.7,1-2.3c0.3-0.3,0.8-0.5,0.9-0.9c0.3-0.8-0.3-1.7-1.2-1.7c-0.6,0-1.1,0.4-1.7,0.5
			c-1.4,0.2-2.8-0.8-3.1-2.2c-0.1-0.6,0.1-1.2,0-1.7C244.3,23.5,243.5,23.1,242.8,23.2 M227,28.5c-0.1,0-0.3,0.1-0.4,0.1
			c-0.2,0.3-0.2,0.7-0.3,1.1c-0.5,2.2-0.8,4.5-0.8,6.8c0,0.1,0,0.3,0,0.4c1.2,0.1,2.4,0,3.6,0c0.3,0,0.7,0.1,1-0.1
			c0.3-0.2,0.6-0.4,0.8-0.7c0.5-0.5,0.4-1.4-0.1-1.8c-0.3-0.3-0.8-0.3-1.2-0.6c-0.8-0.5-1.3-1.4-1.3-2.3c0-0.7,0.3-1.4,0.8-1.9
			c0.6-0.6,1.4-0.9,2.2-0.8c0.4,0,0.9,0.2,1.3,0c0.4-0.2,0.7-0.6,0.8-1c-0.2,0-0.5,0-0.7,0C230.7,27.8,228.9,28.1,227,28.5
			 M222.6,30c-1.9,0.8-3.7,1.8-5.2,3.3c-1,1-1.8,2.2-2,3.7c0.5,0,0.9,0,1.4,0c2,0,4,0,6,0c0.4,0,0.8,0,1.3,0c0.1-0.5,0-0.9,0.1-1.4
			c0.1-1.7,0.3-3.3,0.6-5c0.1-0.5,0.2-0.9,0.3-1.4C224.1,29.3,223.4,29.7,222.6,30 M250.1,33c0.2,0.5,0.7,0.7,1.1,0.8
			c0.9,0.3,1.5,1.1,1.7,2c0.1,0.4,0,0.8,0,1.1c1,0,2,0,2.9,0c-0.1-0.7-0.4-1.4-0.7-2c-0.9-1.5-2.2-2.6-3.6-3.5
			c-0.2-0.1-0.4-0.3-0.6-0.3C250.2,31.4,249.8,32.3,250.1,33 M215.4,38.4c0.1,1.2,0.8,2.3,1.6,3.2c1.9,2.1,4.5,3.4,7.1,4.4
			c0.3,0.1,0.5,0.2,0.8,0.2c0-0.5-0.2-0.9-0.3-1.4c-0.3-1.7-0.5-3.3-0.6-5c0-0.5,0-0.9-0.1-1.4c-0.4,0-0.8,0-1.3,0c-2,0-4,0-6,0
			C216.3,38.4,215.9,38.4,215.4,38.4 M225.5,38.4c0,0.5,0,0.9,0,1.4c0.1,2.2,0.4,4.3,0.9,6.4c0,0.2,0.1,0.3,0.2,0.5
			c0.1,0.1,0.2,0.1,0.3,0.1c2.5,0.6,5,0.9,7.6,1c0.1,0,0.2,0,0.3,0c0.1-0.5,0-0.9,0-1.4c0-1.5,0-3,0-4.5c0-0.2,0-0.3,0-0.5
			c-0.2-0.3-0.6-0.3-1-0.3c-0.5,0.1-0.9,0.4-1.4,0.4c-1.2,0.2-2.4-0.4-2.9-1.5c-0.3-0.5-0.3-1-0.3-1.6c-0.6-0.1-1.2,0-1.9,0
			C226.7,38.4,226.1,38.4,225.5,38.4 M250.8,39c-0.5,0.1-1.1,0-1.6,0c-0.8-0.1-1.5,0.7-1.3,1.5c0.1,0.5,0.4,0.9,0.5,1.4
			c0.2,1-0.3,2.1-1.3,2.6c-0.2,0.1-0.5,0.2-0.5,0.5c-0.1,0.4-0.2,0.8-0.2,1.2c0.5-0.1,1-0.3,1.5-0.5c2.4-0.9,4.8-2.2,6.5-4.2
			c0.7-0.9,1.4-1.9,1.5-3.1c-0.8-0.1-1.6,0-2.4,0c-0.5,0-1-0.1-1.4,0C251.6,38.6,251.3,38.9,250.8,39 M216,42.7
			c0.3,1.4,0.9,2.8,1.5,4.1c2.6,5.2,7.5,9.2,13.1,10.6c-0.7-0.7-1.4-1.4-1.9-2.2c-1.3-1.8-2.2-3.9-2.9-6c-0.1-0.4-0.2-0.8-0.4-1.2
			c-0.4-0.2-0.9-0.3-1.3-0.4c-2.6-0.9-5.1-2.1-7.2-3.9C216.6,43.3,216.3,42.9,216,42.7 M254.3,43.5c-2,1.8-4.6,3-7.1,3.9
			c-0.4,0.2-0.9,0.2-1.3,0.5c-0.2,0.3-0.3,0.8-0.4,1.1c-0.8,2.5-2,5-3.7,7c-0.4,0.4-0.8,0.8-1.2,1.3c3.8-0.9,7.2-3,9.8-5.8
			c2.3-2.5,4-5.5,4.8-8.8C254.9,42.9,254.7,43.3,254.3,43.5 M240.9,43.7c-0.2,0.4-0.3,0.9-0.7,1.3c-0.6,0.8-1.7,1.2-2.6,1
			c-0.5,0-0.8-0.3-1.3-0.5c0,0.8,0,1.6,0,2.3c0.1,0,0.2,0,0.3,0c2.6-0.1,5.1-0.4,7.6-1c0.1,0,0.2-0.1,0.3-0.1
			c0.2-0.5,0.3-1.1,0.4-1.7c-0.4-0.2-0.8-0.3-1.2-0.5c-0.4-0.3-0.6-0.7-0.9-1C242.3,42.9,241.3,43,240.9,43.7 M227.1,48.4
			c0,0.2,0.1,0.5,0.2,0.7c0.8,2.3,1.9,4.6,3.6,6.4c1.1,1.1,2.4,2.1,4,2.3c0-0.5,0-0.9,0-1.4c0-2,0-4,0-6c0-0.4,0-0.8,0-1.3
			c-0.4-0.1-0.8,0-1.2-0.1c-1.9-0.1-3.7-0.3-5.5-0.7C227.8,48.5,227.4,48.4,227.1,48.4 M243.5,48.5c-1.9,0.4-3.9,0.6-5.9,0.8
			c-0.4,0-0.8,0-1.2,0.1c-0.1,0.9,0,1.8,0,2.7c0,2,0,3.9,0,5.9c0.6,0,1.1-0.3,1.6-0.5c1.1-0.6,2.1-1.5,2.9-2.5
			c1.2-1.5,2.1-3.3,2.8-5.2c0.2-0.5,0.4-0.9,0.4-1.4C243.9,48.4,243.7,48.4,243.5,48.5z"/>
		<path fill="#008B8B" d="M237.4,28.3c0.6-0.1,1.3,0,1.8,0.4c0.7,0.5,1,1.4,0.8,2.2c-0.2,0.8-0.9,1.5-1.7,1.6
			c-0.8,0.2-1.8-0.2-2.2-0.9c-0.4-0.6-0.5-1.4-0.2-2.1C236.1,28.9,236.7,28.4,237.4,28.3 M237.6,29.7c-0.5,0.2-0.7,0.9-0.2,1.2
			c0.4,0.4,1.1,0.1,1.2-0.4C238.6,30.1,238.1,29.5,237.6,29.7z"/>
		<path fill="#008B8B" d="M244.6,29c0.7-0.2,1.5,0.1,2,0.7c0.5,0.6,0.7,1.4,0.5,2.1c-0.2,0.8-1,1.5-1.9,1.5
			c-0.8,0.1-1.7-0.4-2.1-1.1c-0.3-0.6-0.3-1.4,0-2C243.4,29.6,244,29.2,244.6,29 M244.8,30.5c-0.5,0.2-0.7,0.9-0.2,1.2
			c0.4,0.4,1.1,0.1,1.2-0.4C245.9,30.8,245.3,30.3,244.8,30.5z"/>
		<path fill="#008B8B" d="M238.3,34c1.4-0.3,3,0,4.2,0.8c0.6,0.4,1.2,0.8,1.5,1.4c0.3,0.6,0.4,1.4,0.1,2c-0.3,0.6-0.8,1.1-1.4,1.3
			c-1.4,0.6-3,0.4-4.4-0.1c-1-0.4-2.1-1.2-2.4-2.3c-0.3-0.7-0.1-1.5,0.4-2C236.7,34.4,237.5,34.1,238.3,34 M238.4,35.4
			c-0.5,0.1-1,0.3-1.2,0.7c-0.2,0.4,0,0.8,0.3,1c0.6,0.7,1.5,1,2.4,1.2c0.8,0.1,1.6,0.1,2.3-0.2c0.3-0.1,0.7-0.5,0.6-0.9
			c-0.1-0.6-0.6-0.9-1.1-1.2C240.8,35.4,239.6,35.2,238.4,35.4z"/>
	</g>
</g>
<g>
	<g>
		<path fill="#FFFFFF" d="M-0.1,136.7c10.8-6.2,21.5-12.4,32.3-18.6c10.8,6.2,21.5,12.4,32.3,18.6c0,12.4,0,24.8,0,37.2
			c-10.8,6.2-21.5,12.4-32.3,18.6c-10.5-6.1-21.1-12.2-31.6-18.3c-0.2-0.1-0.4-0.3-0.7-0.4V136.7z"/>
	</g>
	<g>
		<path fill="#1995DC" d="M-0.1,136.7c10.8-6.2,21.5-12.4,32.3-18.6c10.8,6.2,21.5,12.4,32.3,18.6c0,12.4,0,24.8,0,37.2
			c-10.8,6.2-21.5,12.4-32.3,18.6c-10.5-6.1-21.1-12.2-31.6-18.3c-0.2-0.1-0.4-0.3-0.7-0.4V136.7z M3.6,138.8c0,11,0,22.1,0,33.1
			c9.6,5.5,19.1,11,28.6,16.5c9.6-5.5,19.1-11,28.7-16.6c0-11,0-22,0-33.1c-9.6-5.5-19.1-11-28.7-16.5
			C22.7,127.7,13.1,133.2,3.6,138.8z"/>
	</g>
	<g>
		<g>
			<path fill="#1995DC" d="M24.1,131.1c1.4-0.6,2.9-0.7,4.3-0.6c0.2,0,0.4,0,0.6,0.1c1.4,0.3,2.7,1,3.8,1.9c1.2,1.1,2.1,2.6,2.4,4.2
				c0.2,0.9,0.2,1.9,0.1,2.9c-0.1,1-0.4,1.9-0.9,2.8c0,0.1-0.1,0.2,0,0.2c3.1,2.2,6.1,4.4,9.2,6.6c1.2-1.3,2.7-2.2,4.4-2.6
				c1.7-0.4,3.6-0.2,5.2,0.6c2,1,3.6,2.8,4.3,5c0.3,1.1,0.4,2.4,0.3,3.6c0,0.4-0.1,0.8-0.2,1.2c-0.6,1.8-1.8,3.5-3.4,4.5
				c-0.7,0.4-1.4,0.8-2.1,1c-1.5,0.4-3.1,0.4-4.6,0c-1-0.3-2-0.8-2.8-1.5c-0.8-0.7-1.5-1.5-2-2.5c-0.7,0.2-1.4,0.5-2,0.8
				c-1.9,0.7-3.8,1.5-5.6,2.2c0.2,0.8,0.4,1.6,0.5,2.4c0.1,1.5,0,3.1-0.4,4.6c0,0.2-0.1,0.3-0.1,0.5c-0.1,0.4-0.3,0.8-0.5,1.2
				c-0.2,0.4-0.4,0.8-0.6,1.2c-0.2,0.3-0.4,0.6-0.6,0.9c-0.8,1.1-1.7,2-2.8,2.8c-0.3,0.2-0.6,0.4-0.9,0.6c-0.1,0-0.2,0.1-0.2,0.1
				c-0.5,0.3-1.1,0.6-1.7,0.8c-0.1,0-0.3,0.1-0.4,0.1c-0.1,0-0.2,0.1-0.4,0.1l0,0c-0.2,0-0.3,0.1-0.5,0.1c-0.2,0.1-0.4,0.1-0.7,0.2
				c0,0,0,0.1,0,0.1l0-0.1c-0.5,0.1-1.1,0.2-1.6,0.2c-0.1,0-0.1,0-0.2,0c-0.3,0-0.7,0-1,0c-0.1,0-0.2,0-0.3,0c-0.3,0-0.6,0-1-0.1
				c-0.3,0-0.5-0.1-0.8-0.1c-0.2,0-0.4-0.1-0.6-0.1c-0.2,0-0.3-0.1-0.5-0.1c-0.1-0.1-0.3-0.1-0.4-0.1l0,0c-0.1,0-0.2-0.1-0.4-0.1
				c-0.1,0-0.2-0.1-0.3-0.1c-0.5-0.2-0.9-0.4-1.4-0.7c-0.1,0-0.2-0.1-0.2-0.1c-0.1-0.1-0.3-0.2-0.4-0.3c-0.2-0.1-0.4-0.3-0.6-0.4
				c-1.3-0.9-2.3-2.1-3.2-3.5c-0.9-1.5-1.5-3.3-1.7-5.1c-0.2-2,0.1-4,0.8-5.9c1.1-2.7,3.2-4.9,5.8-6.2c1.8-0.9,3.8-1.4,5.7-1.3
				c0.2,0,0.5,0,0.7,0c0.3-2.2,0.7-4.3,1-6.5c-1.1-0.3-2.2-0.8-3.1-1.6c-0.9-0.7-1.7-1.7-2.2-2.7c-1.3-2.5-1.1-5.7,0.5-8.1
				C21.3,132.8,22.6,131.7,24.1,131.1z M27,133.8c-0.4,0.1-0.8,0.2-1.1,0.4c-0.6,0.4-0.9,1.1-1,1.7c-0.1,1.2,0.8,2.4,2,2.6
				c0.6,0.1,1.2,0,1.7-0.4c0.6-0.3,0.9-0.9,1.1-1.6c0.1-0.6,0-1.2-0.4-1.7c-0.3-0.5-0.8-0.8-1.3-1C27.6,133.8,27.3,133.7,27,133.8z
				 M26.5,141.9c-1.6,0.3-2.9,1.6-3.2,3.1c1.2,0.7,2.6,1.1,4.1,1.1c1.3,0,2.6-0.4,3.7-1.1c-0.2-1.1-1-2.2-2-2.7
				C28.3,141.9,27.4,141.7,26.5,141.9z M32.4,144.9c-0.6,0.5-1.4,0.9-2.1,1.2c-1.1,0.4-2.3,0.6-3.4,0.6c-0.3,2.2-0.7,4.3-1,6.5
				c2.2,0.5,4.2,1.6,5.8,3.1c1,1,1.9,2.2,2.5,3.5c2.5-1,5.1-2,7.7-3c-0.4-1.8-0.3-3.7,0.4-5.3c0.1-0.3,0.3-0.5,0.4-0.8
				c-0.4-0.2-0.7-0.5-1-0.7c-2.8-2-5.5-4-8.3-5.9C33,144.3,32.7,144.6,32.4,144.9z M49.4,149.9c-0.1,0-0.3,0.1-0.4,0.1
				c-1,0.3-1.7,1.4-1.6,2.4c0.1,0.8,0.6,1.6,1.4,2c0.3,0.2,0.7,0.2,1,0.3c0.8,0,1.5-0.4,2-1.1c0.4-0.5,0.5-1.2,0.4-1.9
				c-0.1-0.5-0.4-1-0.8-1.3C50.8,150,50.1,149.8,49.4,149.9z M22.7,157.2c-0.7,0.1-1.4,0.4-2,0.9c-0.7,0.6-1.2,1.4-1.4,2.3
				c-0.3,1.4,0.3,2.9,1.4,3.9c0.7,0.6,1.6,0.9,2.5,1c1,0,2.1-0.4,2.8-1.1c0.8-0.7,1.2-1.7,1.2-2.8c0.1-1.6-1-3.1-2.4-3.8
				C24.2,157.2,23.4,157,22.7,157.2z M48.6,158.1c-1.3,0.4-2.4,1.6-2.7,2.9c0.2,0.1,0.4,0.2,0.6,0.3c0.3,0.1,0.6,0.3,1,0.4
				c0.7,0.2,1.4,0.4,2.1,0.3c0.3,0,0.5,0,0.8,0c0.7,0,1.3-0.2,2-0.4c0.5-0.2,0.9-0.4,1.3-0.7c-0.4-1.5-1.7-2.8-3.3-3
				C49.8,157.9,49.2,157.9,48.6,158.1z M19,169.8c-1.3,1-2.3,2.4-2.7,3.9c0,0,0.1,0.1,0.1,0.1c0,0,0.1,0.1,0.1,0.1c0,0,0.1,0,0.1,0
				c0,0,0.1,0,0.1,0.1c0.1,0.1,0.3,0.2,0.4,0.3c0.4,0.2,0.7,0.4,1.1,0.7c0.4,0.2,0.8,0.4,1.2,0.5c0.2,0.1,0.4,0.2,0.6,0.2
				c0.4,0.1,0.8,0.2,1.3,0.3c0.3,0.1,0.6,0.1,0.9,0.1c0.1,0.1,0.3,0,0.4,0c0.5,0,0.9,0,1.4,0c0.1,0,0.3,0,0.4,0
				c0.3,0,0.6-0.1,0.9-0.1c0.1,0,0.3,0,0.4-0.1c0.3-0.1,0.6-0.1,0.9-0.2c0.2,0,0.3-0.1,0.5-0.1c0.3-0.1,0.5-0.2,0.8-0.3
				c0.2-0.1,0.4-0.2,0.6-0.3c0.4-0.3,1-0.5,1.3-0.9c0.1-0.1,0.3-0.2,0.4-0.3c0,0,0-0.1,0-0.1c-0.4-1.4-1.2-2.6-2.3-3.6
				c-1.1-0.9-2.4-1.5-3.8-1.7C22.3,168.2,20.4,168.7,19,169.8z"/>
		</g>
	</g>
</g>
</svg>
