<?xml version="1.0"?>
<svg xmlns="http://www.w3.org/2000/svg" id="Layer_1" enable-background="new 0 0 512 512" height="512px" viewBox="0 0 512 512" width="512px"><g><g><path d="m336.333 142.467c-18.359 0-33.2 14.863-33.2 33.2 0 70.286-57.181 127.467-127.467 127.467-18.323 0-33.2 14.828-33.2 33.2 0 18.4 14.888 33.2 33.2 33.2 106.898 0 193.867-86.968 193.867-193.867 0-18.361-14.864-33.2-33.2-33.2z" data-original="#000000" class="active-path" data-old_color="#000000" fill="#141214"/><path d="m497 190.667c8.284 0 15-6.716 15-15s-6.716-15-15-15h-34.087c-1.459-12.392-4.701-24.245-9.465-35.296l29.53-17.046c7.175-4.142 9.633-13.315 5.492-20.49-4.142-7.174-13.315-9.633-20.49-5.492l-29.567 17.067c-7.331-9.788-16.034-18.491-25.822-25.822l17.066-29.558c4.142-7.174 1.684-16.348-5.49-20.49-7.174-4.144-16.348-1.684-20.49 5.49l-17.045 29.523c-11.051-4.764-22.905-8.006-35.297-9.465v-34.088c0-8.284-6.716-15-15-15s-15 6.716-15 15v34.087c-12.393 1.459-24.246 4.701-35.297 9.465l-17.048-29.523c-4.141-7.174-13.316-9.633-20.49-5.49-7.174 4.142-9.632 13.316-5.49 20.49l17.066 29.558c-9.788 7.331-18.491 16.034-25.822 25.822l-29.567-17.067c-7.176-4.141-16.349-1.682-20.49 5.492-4.141 7.175-1.683 16.349 5.492 20.49l29.529 17.046c-6.656 15.44-10.352 32.443-10.352 50.296 0 3.569-.568 7.048-1.644 10.344l-20.95-20.95c-5.857-5.858-15.355-5.858-21.213 0s-5.858 15.355 0 21.213l20.949 20.949c-3.297 1.077-6.775 1.645-10.342 1.645-17.853 0-34.858 3.696-50.297 10.352l-17.045-29.523c-4.142-7.175-13.316-9.633-20.49-5.49-7.174 4.142-9.632 13.316-5.49 20.49l17.066 29.558c-9.788 7.331-18.492 16.034-25.822 25.823l-29.568-17.068c-7.174-4.143-16.349-1.682-20.49 5.492-4.142 7.175-1.683 16.348 5.492 20.49l29.53 17.046c-4.764 11.051-8.005 22.904-9.465 35.296h-34.087c-8.284 0-15 6.716-15 15s6.716 15 15 15h34.087c1.459 12.392 4.701 24.245 9.465 35.296l-29.53 17.046c-7.175 4.142-9.633 13.315-5.492 20.49 4.142 7.175 13.315 9.634 20.49 5.492l29.567-17.067c7.331 9.789 16.036 18.493 25.825 25.824l-17.068 29.563c-4.142 7.174-1.684 16.348 5.49 20.49 7.175 4.145 16.349 1.684 20.49-5.49l17.049-29.529c11.05 4.764 22.903 8.005 35.294 9.464v34.088c0 8.284 6.716 15 15 15s15-6.716 15-15v-33.594c15.192-.782 30.207-2.766 44.987-5.914l8.694 32.441c2.144 8.002 10.372 12.75 18.372 10.606 8.002-2.145 12.75-10.37 10.606-18.372l-8.696-32.448c7.172-2.334 14.276-4.943 21.3-7.852 7.025-2.91 13.895-6.089 20.618-9.511l16.797 29.092c4.142 7.174 13.316 9.633 20.49 5.49 7.174-4.142 9.632-13.316 5.49-20.49l-16.792-29.084c12.676-8.224 24.697-17.438 35.992-27.626l23.75 23.755c5.857 5.858 15.354 5.859 21.213.002 5.858-5.857 5.859-15.355.002-21.213l-23.751-23.757c10.19-11.296 19.405-23.318 27.63-35.995l29.081 16.791c7.175 4.144 16.348 1.685 20.49-5.49 4.142-7.174 1.684-16.348-5.49-20.49l-29.089-16.795c3.42-6.721 6.599-13.59 9.508-20.612 2.91-7.024 5.519-14.131 7.853-21.304l32.447 8.694c8.003 2.145 16.227-2.605 18.371-10.606 2.144-8.002-2.604-16.227-10.606-18.371l-32.439-8.692c3.148-14.78 5.132-29.796 5.913-44.989h33.592zm-163.037 143.299c-42.283 42.281-98.5 65.567-158.296 65.567-34.965 0-63.2-28.287-63.2-63.2 0-34.962 28.305-63.2 63.2-63.2 53.743 0 97.467-43.724 97.467-97.467 0-34.961 28.304-63.2 63.2-63.2 34.957 0 63.2 28.295 63.2 63.2-.001 59.799-23.287 116.018-65.571 158.3z" data-original="#000000" class="active-path" data-old_color="#000000" fill="#141214"/></g></g> </svg>
