<?xml version="1.0" encoding="utf-8"?>
<!-- Generator: Adobe Illustrator 18.1.1, SVG Export Plug-In . SVG Version: 6.00 Build 0)  -->
<svg version="1.2" baseProfile="tiny" id="Layer_1" xmlns="http://www.w3.org/2000/svg" xmlns:xlink="http://www.w3.org/1999/xlink"
	 x="0px" y="0px" viewBox="0 0 409.5 415.3" xml:space="preserve">
<g>
	<g>
		<path fill="#FFFFFF" d="M200,3.3c2.6-1.3,5.6-4.4,8.5-2c32.9,19,65.9,38,98.9,57.1c0,39.1,0,78.2,0,117.2
			c-31.4,18-62.7,36.2-94,54.2c-2.5,1.3-4.8,3.3-7.6,3.9c-6.2-3.2-12.2-7-18.3-10.4c-27.6-16-55.2-31.8-82.8-47.8V58.3
			C136.5,40,168.2,21.7,200,3.3z"/>
	</g>
	<g>
		<path fill="#015A51" d="M104.6,58.5C138.4,39,172.2,19.5,206,0c33.8,19.5,67.6,39,101.4,58.5c0,39,0.1,78.1-0.1,117.1
			c-33.8,19.3-67.6,39-101.4,58.4c-33.8-19.5-67.5-39.1-101.4-58.5C104.6,136.6,104.6,97.6,104.6,58.5z M116.6,65.2
			c-0.1,34.5,0,69.1-0.1,103.6c29.8,17.3,59.7,34.4,89.6,51.7c29.9-17.2,59.7-34.5,89.6-51.7c-0.1-34.5,0-69,0-103.5
			c-29.9-17.2-59.7-34.5-89.5-51.7C176.3,30.8,146.5,48.1,116.6,65.2z"/>
	</g>
	<g>
		<path fill="#015A51" d="M172.1,60c11.4-9,26.5-12.6,40.9-11.1c12.8,1,26,5.5,34.7,15.3c6.4,7,9.7,16.4,10.6,25.8
			c0.4,5.2,0.3,10.8,3.2,15.3c2.7,5,8.1,8,9.8,13.6c0.8,2-0.8,3.9-2.4,4.8c-2.4,1.4-4.7,2.8-6.6,4.7c1.2,1.9,2.3,3.8,3.5,5.7
			c-2,1-4,2-6,3c1.4,2,3.8,3.7,4,6.3c-1.2,1.9-3.4,3.2-3.8,5.5c0.2,3.4,2.7,6.4,1.8,9.9c-1.1,3.3-4.3,5.6-7.7,6.1
			c-8.1,0.9-16.1-0.6-24.1-1.1c-1.9,0-4.2-0.3-5.7,1.1c-0.8,5.1-0.3,10.3-0.5,15.4c-17.5,0.2-35,0.3-52.5,0.2
			c1.2-8.7,2.2-17.4,3.5-26.1c0.3-2,0.4-4.1-0.2-6.1c-2.9-11.3-11-20.2-17-30c-4.3-7.4-4.1-16.1-3.8-24.4
			C154.4,80.6,161.7,68.1,172.1,60z M186.3,63.8c-0.1,0.7-0.4,2.2-0.5,2.9c-1.1,0.5-2.2,1-3.3,1.5c-0.9-0.6-1.8-1.2-2.8-1.8
			c-0.6,0.8-1.3,1.5-1.9,2.3c0.5,0.6,1.4,1.7,1.9,2.3c-0.5,1.1-0.9,2.2-1.4,3.3c-1.1,0.5-3,0.2-3.1,1.7c-0.9,2,1.6,2.7,3.1,2.7
			c0.6,1.3,1.2,2.7,1.8,4.1c-1.5,1.8-1.6,4,0.9,4.8c0.5-0.5,1.5-1.6,2-2.1c0.7,0.3,2,0.8,2.7,1.1c0.3,2.3,1.7,3.5,4,3.2
			c0.2-1,0.4-2.1,0.7-3.1c1.2-0.4,2.4-0.9,3.6-1.3c1.5,1.6,3.4,1.8,4.7-0.3c-0.6-0.9-1.3-1.8-1.9-2.7c0.5-1.2,1-2.4,1.4-3.6
			c1.1-0.4,3.4,0.2,3.2-1.6c0.9-2.1-1.9-2.4-3.2-2.7c-0.4-0.9-0.8-1.8-1.2-2.7c0.7-1,1.4-2,2.1-2.9c-0.9-0.6-1.9-1.3-2.8-1.9
			c-0.4,0.4-1.4,1.3-1.8,1.8c-1.4-0.6-2.8-1.3-4.2-1.9c-0.1-0.7-0.4-2.2-0.5-2.9C188.5,63.8,187.4,63.8,186.3,63.8z M226.4,72.7
			c-2.3-0.1-4.7-0.1-7,0c-0.7-1.3-1.5-2.6-2.3-3.8c-1.3,0.5-3.5,0.5-3.9,2.2c-0.3,1.5,0.5,2.9,0.8,4.3c-1.4,1.3-2.7,2.7-4,4.1
			c-1.4-0.3-2.8-0.7-4.2-1.1c-1,1.4-2.4,3.1-1.3,4.9c1,0.9,2.2,1.3,3.4,1.8c0,2.1,0,4.1,0,6.2c-1.8,0.8-4.5,2.1-3,4.4
			c0.8,2.7,3.8,1.6,5.6,0.7c1.7,1.6,3.4,3.1,5.3,4.5c-0.6,1.9-1.5,5,1.3,5.6c2.7,1.1,3.6-1.9,4.4-3.8c1.6-0.1,3.3-0.3,4.9-0.4
			c0.8,2.1,2.7,5,5.2,3c2.3-1.2,0.8-3.7,0.3-5.5c1.4-1.4,2.7-2.9,4-4.4c1.9,0.7,5.1,1.8,5.7-1.2c1.1-2.6-1.8-3.6-3.6-4.4
			c0-2-0.1-4-0.1-6c1.3-0.8,3.6-1.2,3.6-3.2c-0.1-1.5-1.4-2.4-2.2-3.5c-1.3,0.5-2.5,0.9-3.8,1.4c-1.2-1.2-2.3-2.4-3.5-3.6
			c0.5-1.9,1.8-5.2-1.1-5.8C228.3,68.2,227.2,70.9,226.4,72.7z M187.7,94.7c-0.2,1-0.3,2-0.4,3.1c-1.4,0.7-2.8,1.3-4.3,2
			c-0.7-0.8-1.4-1.5-2.1-2.3c-1.6,0.5-2.8,1.5-3.2,3.1c0.8,0.8,1.5,1.6,2.3,2.4c-0.6,1.5-1.3,3-1.9,4.4c-1.3,0.2-2.6,0.5-3.9,0.7
			c-0.1,1.4-0.8,3,0.4,4.1c1.2,0.4,2.4,0.7,3.6,1.1c0.9,1.5,1.6,3.1,2.3,4.7c-0.8,1-1.5,1.9-2.2,2.9c1,0.9,2,3.3,3.7,2
			c0.5-0.4,1.6-1.3,2.1-1.8c1.2,0.5,2.3,0.9,3.5,1.4c0.1,1.2,0.1,2.3,0.1,3.5c1.5,0.4,3.8,1,4.9-0.5c0.1-0.8,0.4-2.3,0.5-3
			c1.6-0.7,3.1-1.3,4.7-2c0.9,0.8,1.7,1.5,2.6,2.3c1.4-0.5,2.4-1.5,3.1-2.8c-0.7-1-1.3-2.1-2-3.1c0.6-1.3,1.1-2.6,1.7-3.9
			c1.4-0.5,4.3,0,4.3-2.1c0.7-2.7-2.2-3.8-4.3-3.6c-0.5-1.2-1-2.4-1.5-3.6c0.9-1.3,3.2-3,1.4-4.7c-1.3-2.1-3.5-0.2-4.7,0.8
			c-1.8-0.9-3.6-1.7-5.4-2.3c-0.1-1.1-0.2-2.2-0.3-3.3C190.9,94,189,93.3,187.7,94.7z"/>
	</g>
	<path fill="#015A51" d="M185.4,72.1c3.1-2.1,7.8,0.2,8.1,3.9c0.9,4.2-4.3,7.7-7.9,5.4C182,79.6,181.8,73.9,185.4,72.1z"/>
	<path fill="#015A51" d="M220.2,80.1c5.1-2.2,11.1,2.3,10.7,7.8c0.1,6-7.6,10-12.4,6.4C213.1,91.1,214.2,81.9,220.2,80.1z"/>
	<path fill="#015A51" d="M187.3,104.2c4.1-2.5,9.9,0.9,9.9,5.6c0.4,5.3-6.7,9.3-10.8,5.6C182.6,112.8,183.3,106.4,187.3,104.2z"/>
</g>
<g>
	<g>
		<path fill="#FFFFFF" d="M302.1,184.5c2.6-1.3,5.6-4.4,8.5-2c32.9,19,65.9,38,98.9,57.1c0,39.1,0,78.2,0,117.2
			c-31.4,18-62.7,36.1-94,54.2c-2.5,1.3-4.8,3.3-7.6,3.9c-6.2-3.2-12.2-7-18.3-10.4c-27.6-16-55.2-31.8-82.8-47.8V239.5
			C238.6,221.3,270.3,202.9,302.1,184.5z"/>
	</g>
	<g>
		<path fill="#DC3546" d="M206.7,239.8c33.8-19.5,67.6-39,101.3-58.5c33.8,19.4,67.6,39,101.4,58.5c0,39,0,78.1,0,117.1
			c-33.8,19.5-67.6,39-101.4,58.5c-33.8-19.5-67.5-39-101.3-58.5C206.7,317.8,206.7,278.8,206.7,239.8z M218.6,246.6
			c0,34.5,0,69,0,103.4c29.8,17.2,59.7,34.4,89.5,51.7c29.9-17,59.6-34.5,89.6-51.5c0.1-34.6,0-69.1,0-103.7
			c-29.9-17.1-59.6-34.5-89.5-51.6C278.4,212.1,248.4,229.3,218.6,246.6z"/>
	</g>
	<g>
		<path fill="#DC3546" d="M312.3,243.5c13-3.9,28.1,3.1,33.6,15.5c3.2,6.8,3.5,14.8,1,21.8c-2,5.5-6.1,9.8-9.8,14.2
			c-14.7,17.6-29.5,35.2-44.3,52.8c-5.6,6.7-14.1,11.3-22.9,10.8c-12.8,0-24.6-9.8-27.3-22.2c-1.9-8.6,0.5-17.9,6.1-24.6
			c15.8-18.9,31.6-37.8,47.5-56.7C300.3,249.8,305.8,245.3,312.3,243.5z M300.7,260.6c-15.4,18.5-31,37-46.4,55.5
			c-5.5,6.3-6.9,16-3,23.4c3.6,7.7,12.3,12.7,20.8,12.1c5.8-0.4,11.2-3.3,14.9-7.7c8.4-9.7,16.5-19.7,24.8-29.4
			c-9.8-8.4-19.7-16.5-29.6-24.7c7.7-9.2,15.3-18.5,23-27.7c6.3-7.3,16.2-10.3,25.6-9.6c-4.5-1.2-9.3-2.3-13.9-1.4
			C310.4,252,304.7,255.7,300.7,260.6z"/>
	</g>
	<g>
		<path fill="#DC3546" d="M303,341.9c11.4-13.5,22.9-26.9,34.1-40.5c14,4.7,21.8,21.6,16.7,35.4c-4.1,12.8-18.2,21.1-31.4,18.6
			C314.3,354.1,307.2,348.9,303,341.9z M352.7,326.4c-0.8,12.4-9.9,23.6-21.9,26.5C343.5,351.5,353.6,339.1,352.7,326.4z"/>
	</g>
	<path fill="#DC3546" d="M301.3,314.5c0.8,1.1,3.7,2.1,2.1,3.7c-6.5,7.9-13.1,15.7-19.7,23.5c-6,6.6-15.9,7.6-24,4.6
		c4.8-0.4,9.8-0.3,14.2-2.4c4.5-1.9,7.7-5.8,10.7-9.5C290.2,327.8,295.8,321.2,301.3,314.5z"/>
</g>
<g>
	<g>
		<path fill="#FFFFFF" d="M95.3,183.1c2.6-1.3,5.6-4.4,8.5-2c32.9,19,65.9,38,98.9,57.1c0,39.1,0,78.2,0,117.2
			c-31.4,18-62.6,36.1-94,54.2c-2.5,1.3-4.8,3.3-7.6,3.9c-6.2-3.2-12.2-7-18.3-10.4c-27.6-16-55.2-31.8-82.8-47.8V238.1
			C31.8,219.8,63.6,201.5,95.3,183.1z"/>
	</g>
	<g>
		<path fill="#EEB422" d="M95.3,183.1c2.6-1.3,5.6-4.4,8.5-2c32.9,19,65.9,38,98.9,57.1c0,39.1,0,78.2,0,117.2
			c-31.4,18-62.6,36.2-94,54.2c-2.5,1.3-4.8,3.3-7.6,3.9c-6.2-3.2-12.2-7-18.3-10.4c-27.6-16-55.2-31.8-82.8-47.8V238.1
			C31.8,219.8,63.6,201.5,95.3,183.1z M11.7,245c-0.1,34.5,0,68.9-0.1,103.3c29.3,17,58.7,33.9,88,50.9c1.1,0.9,2.4,0.7,3.5,0
			c29.2-16.9,58.3-33.8,87.6-50.5c0.8-19.2-0.1-38.5,0.3-57.7c-0.3-15.3,0.3-30.7-0.3-46c-29.9-17.1-59.6-34.7-89.6-51.5
			C71.4,210.6,41.6,227.9,11.7,245z"/>
	</g>
	<g>
		<path fill="#EEB422" d="M90.5,227.6c14.4-1.8,29.5,0.5,42.3,7.6c19.2,10.1,32.8,30,35.4,51.5c2,15.4-1.3,31.5-9.6,44.7
			c-7.3,12.1-18.6,21.8-31.7,27.3c-15.4,6.4-33.1,7.3-48.8,1.8c-16.4-5.3-30.3-17.3-38.4-32.5c-7.7-14.3-10.2-31.3-6.7-47.2
			c4-17.8,15.1-33.9,30.6-43.5C71.7,232.3,81,228.9,90.5,227.6z M91.5,240.6c-17.8,2.5-33.7,14.4-41.5,30.5
			c-7.2,14.3-7.6,31.7-1.3,46.3c9.6,24.3,38.2,39,63.6,32.7c17.1-3.7,32.1-16,38.9-32.1c4.6-10.3,5.8-21.9,3.7-33
			c-3-15.7-13.2-29.9-27.1-37.7C116.9,240.9,103.8,238.6,91.5,240.6z"/>
	</g>
	<g>
		<path fill="#EEB422" d="M91.4,243.5c13.9-2.5,28.8,1.4,40.2,9.7c10.5,7.8,18,19.7,20.4,32.7c2.1,11.7,0.3,24.2-5.5,34.7
			c-7.1,13.5-20.4,23.5-35.3,26.6c-13.4,3.2-27.9,0.3-39.4-7c-14.1-8.8-23.5-24.7-24.4-41.3c-0.7-12.4,2.9-25.1,10.5-35
			C65.9,253.1,78.3,245.9,91.4,243.5z M101.8,256.6c-1.2,2.1-1.2,4.4-0.2,6.6c2.8,1.8,6.4,1.1,7.8-2.1c1,1.1,2,2.5,3.4,3.2
			c1.4-0.2,2.8-0.5,4.2-0.8c0.4,2.5,2.5,4,4.7,4.9c-0.1,1.9-0.8,4.4,1.1,5.9c1.7,0.8,3.6,0.4,5.4,0.3c-0.2,3.3,2.3,5.4,5.4,5.8
			c0,2.2,0.7,4.2,2.3,5.7c-1.5,1.3-2.6,2.9-3.5,4.7c-1.6-0.3-3.2-0.5-4.9-0.7c-0.1-1.6,0.3-3.5-0.9-4.9c-1.3-1.9-3.8-1-5.7-1.1
			c-0.1-2.6-1.8-5.7-4.9-5.2c-3.2-0.2-3.9,3.6-3.5,6c1.2,2.5,4,2.3,6.3,2.3c0.4,2.1,1.2,4.1,3.1,5.3c0.8-0.1,2.3-0.2,3.1-0.3
			c0.1,2.3,0.3,5.5,3.1,6.2c3,1,5-1.8,5.8-4.2c2.3,0.5,5.7,1.4,7-1.4c1.6-2.3-0.4-4.5-1.8-6.2c1.8-1.2,3-2.8,3.6-4.8
			c-1.2-2.4-3.1-4.1-5.9-4c-0.3-1.7,0.3-4-1.3-5.2c-1.5-1.5-3.7-0.8-5.5-0.9c0.1-2.9-1.8-4.8-4.4-5.5c-0.2-1.9,0.7-4.3-1-5.6
			c-1.7-1.9-4.3-0.8-6.3-0.2c-0.4-1.9-1-4-3.2-4.4c-2.2-1.1-4,1.1-5.6,2.3C107.4,255.9,104.5,255.2,101.8,256.6z M77.9,266.8
			c-7.1,6.3-10.7,16.3-9.2,25.7c-1.9,2.1-4.5,4.2-4.6,7.3c-0.3,4,0.3,8.3-2.8,11.4c2.1,2.7,5-0.5,5.3-2.9c0.5-4-0.2-8.3,1.9-11.9
			c-0.2,3.6,0.2,7.1,1.2,10.6c0.7,2.6-2,5.5,0.3,7.7c5.6-3.9,1.3-10.8,1.5-16.1c1.1,3,2.3,6,4.5,8.4c2,2.1,2.1,5.2,2.8,7.9
			c1.6-0.7,2.6-2.2,2.2-4.1c-0.1-4.1-3.9-6.5-5.5-9.9c-0.2-1.5-0.1-3-0.1-4.6c8.4-4.2,13.1-13.4,14-22.5c0-3.2-0.2-7.4-3.4-9
			C83.2,263.3,80,264.9,77.9,266.8z M104,282c-1.7,2.1,0.3,4.5,1.5,6.2c-1.7,1.7-4.3,4-2.4,6.6c1.1,2.5,4,2,6.2,2
			c0.3,1.6,0.7,3.1,1.2,4.7c1.5,0.2,3,1.2,4.5,0.6c3.3-0.7,3.9-5.5,1.5-7.5c-1.5-0.9-3.3-0.7-4.9-0.8c-0.7-1.7-1.4-3.4-2.4-5
			c1.2-1.6,3.5-3.2,2.7-5.5C111.5,279.4,105.7,278.9,104,282z M92.6,307.5c-2.6,2.1-1.1,6.2-3.6,8.4c-1.8,2.1-4.6,3.9-4.4,7
			c0,4,4,8.5,8.3,6.9c2.9-0.7,6.1-1.3,8.9,0.1c3.3,1.1,4.9,4.7,8,6.1c3.6,1.1,8.4-0.4,9.6-4.2c0.5-3.5-1.3-8.2,2.4-10.3
			c3.5-1.5,7.1,0.2,9.8,2.3c-0.1-1.4,0.6-3.1-0.5-4.1c-2.4-2.1-5.8-1.6-8.7-2.1c2.9-2.8,6.7-3.7,10.6-3.2c-0.4-1.1-0.2-3.3-2-3
			c-3.3-0.8-6.1,1.3-9,2.3c-1.7-0.3-3.4-0.8-5.1-1.1c-2.6,0.5-5.2,2.5-7.9,1.1c-3.6-0.9-3.9-5.5-7.2-6.9
			C99.1,305.3,95.2,305.4,92.6,307.5z"/>
	</g>
	<path fill="#EEB422" d="M76.3,282.5c2.9-1.6,6.9,0.8,6.4,4.2c-0.1,3.2-4.1,4.8-6.6,3.1C73.4,288.4,73.8,283.9,76.3,282.5z"/>
	<path fill="#EEB422" d="M94.1,314.9c1.3-3.3,6.6-3.2,7.8,0.1c1,1.6-0.2,3.4-0.7,4.9c-1.1,0.4-2.2,0.8-3.2,1.2
		c-1.1-0.4-2.2-0.8-3.3-1.2C94.3,318.4,93.1,316.6,94.1,314.9z"/>
</g>
</svg>
