<?xml version="1.0" encoding="utf-8"?>
<!-- Generator: Adobe Illustrator 18.1.1, SVG Export Plug-In . SVG Version: 6.00 Build 0)  -->
<svg version="1.1" id="Layer_1" xmlns="http://www.w3.org/2000/svg" xmlns:xlink="http://www.w3.org/1999/xlink" x="0px" y="0px"
	 viewBox="0 0 1024 1024" style="enable-background:new 0 0 1024 1024;" xml:space="preserve">
<g>
	<g>
		<g>
			<path style="fill:#FFFFFF;" d="M84.6,592.6c65.8-37.9,131.5-75.8,197.2-113.8c65.8,37.8,131.5,76,197.3,113.8
				c0.1,75.9,0,151.9,0,227.8c-65.8,37.8-131.5,75.9-197.3,113.8c-65.7-37.9-131.4-76-197.2-113.8C84.6,744.4,84.6,668.5,84.6,592.6
				z"/>
		</g>
		<g>
			<g>
				<path style="fill:#CCCC00;" d="M67.3,582.4c71.6-41.2,143.1-82.6,214.6-123.8c71.5,41.4,143,82.5,214.5,123.9
					c0,82.7,0.1,165.5-0.1,248.2c-71.6,41.1-142.9,82.5-214.4,123.7c-71.6-41.2-143.1-82.6-214.6-123.9
					C67.3,747.8,67.3,665.1,67.3,582.4z M92.2,597c0,72.9,0.1,145.9,0,218.8c63.1,36.7,126.5,73.1,189.7,109.6
					c63.2-36.5,126.3-73,189.5-109.4c0.1-73.1,0.2-146.2,0-219.3C408,560.6,345,524,281.9,487.6C218.6,524,155.4,560.5,92.2,597z"/>
			</g>
			<g>
				<path style="fill:#CCCC00;" d="M291.3,590.2c26.1-7.5,55.9,5.4,68.8,29.2c9.7,17.2,10.1,39.3,0.9,56.8
					c-3.5,6.7-8.5,12.4-13.3,18.2c-33.7,40.1-67.2,80.3-101,120.2c-17.3,20.2-48.6,25.6-72,13.3c-14.7-7.6-26.3-21.2-30.8-37.2
					c-5.5-18.5-1.3-39.7,11.1-54.6c35-41.9,70.3-83.8,105.3-125.7C268.3,600.7,279.2,593.4,291.3,590.2z M268.9,623.9
					c-34,40.4-67.9,80.8-101.7,121.3c-10.2,11.8-13.4,29-8,43.7c6.5,19,26.5,32.3,46.6,30.5c12.1-0.9,23.6-7,31.3-16.4
					c17.3-20.8,34.9-41.4,52.1-62.3c-21-17.2-41.6-34.8-62.4-52.2c16.1-20,32.9-39.4,49.4-59.2c12.7-15,33.1-21,52.2-19.7
					C307.9,601.9,283.1,607.1,268.9,623.9z"/>
			</g>
			<g>
				<path style="fill:#CCCC00;" d="M270.7,798.8c24.6-28.4,48.2-57.5,72.6-86.1c17.7,6.9,32,22.3,36.6,40.8
					c6.5,23.6-3.3,50.5-23.6,64.2c-21.8,15.7-54.1,13.8-73.8-4.4C277.7,809.3,273.9,804.2,270.7,798.8z M339.9,743.1
					c-18,22-37.1,43.2-54.5,65.7c5.7-6,10.7-12.6,16.1-18.8c18-21.7,36.5-43,54.2-65C349.8,730.6,345.1,737.1,339.9,743.1z
					 M358.9,728.7c-23.2,27.1-46.3,54.5-68.8,82.1c10.4-11,19.6-23.2,29.6-34.6C332.6,760.2,346.6,745.1,358.9,728.7z M376.5,768.2
					c-1.6,6.8-2.8,13.8-5.9,20.2c-7.5,16-21.9,28.3-38.8,33.4c13.5-2.3,25.9-10.2,34-21.3C372.8,791.2,375.8,779.6,376.5,768.2z"/>
			</g>
			<path style="fill:#CCCC00;" d="M223.4,792.9c14.9-17.1,29.3-34.7,43.9-52.1c2.3,1.9,4.6,3.8,6.9,5.7
				c-14.1,17.1-28.4,34.1-42.8,51.1c-12.5,14.4-34.8,18.4-51.9,10.2C195.2,808.6,212.4,805.2,223.4,792.9z"/>
		</g>
	</g>
	<g>
		<g>
			<path style="fill:#FFFFFF;" d="M535.5,592.5c65.8-37.9,131.5-75.8,197.2-113.8c65.8,37.8,131.5,76,197.3,113.8
				c0.1,75.9,0,151.9,0,227.8c-65.8,37.8-131.5,75.9-197.3,113.8c-65.7-37.9-131.4-76-197.2-113.8
				C535.5,744.3,535.5,668.4,535.5,592.5z"/>
		</g>
		<g>
			<g>
				<path style="fill:#FF66CC;" d="M518,582.6c71.6-41.4,143.3-82.7,214.9-124.1c71.6,41.3,143.1,82.6,214.7,124
					c0,82.6,0,165.2,0,247.8c-71.6,41.3-143.1,82.6-214.7,124c-70.2-40.5-140.3-81-210.5-121.5c-1.5-0.9-2.9-1.9-4.4-2.9V582.6z
					 M542.2,596.2c0,73.4-0.1,146.8,0,220.3c63.6,36.6,127.1,73.4,190.6,110c63.6-36.8,127.3-73.4,190.9-110.3
					c-0.2-73.4,0.1-146.7-0.1-220.1c-63.7-36.5-127.2-73.4-190.8-110C669.3,522.9,605.7,559.5,542.2,596.2z"/>
			</g>
			<g>
				<g>
					<path style="fill:#FF66CC;" d="M678.5,545.4c9-3.9,19.1-5,28.8-3.8c1.4,0.1,2.7,0.3,4.1,0.6c9.3,2,18.2,6.5,25.3,12.9
						c8.1,7.3,13.9,17.1,16.2,27.8c1.4,6.3,1.4,12.8,0.7,19.2c-0.8,6.5-2.9,12.8-5.8,18.7c-0.2,0.5-0.7,1.2,0,1.5
						c20.5,14.6,40.9,29.3,61.5,43.8c7.7-8.6,18.1-14.7,29.4-17c11.5-2.4,23.8-1,34.4,4.1c13.6,6.5,24.3,18.8,28.5,33.3
						c2.3,7.6,2.8,15.8,1.7,23.6c-0.2,2.7-0.9,5.2-1.6,7.8c-3.7,12.2-11.7,23.2-22.5,30c-4.4,2.7-9.2,5-14.2,6.5
						c-10,3-20.9,2.9-30.9-0.2c-6.9-2.1-13.4-5.5-18.9-10.1c-5.4-4.6-10-10.2-13.4-16.4c-4.6,1.6-9,3.5-13.5,5.3
						c-12.5,4.9-25.1,9.8-37.6,14.8c1.5,5.2,2.7,10.6,3.1,16c0.9,10.3,0.1,20.8-2.8,30.7c-0.3,1-0.6,2-0.9,3c-0.9,2.7-1.9,5.2-3,7.8
						c-1.3,2.6-2.6,5.3-4.1,7.8c-1.1,2-2.5,4-3.8,5.9c-5.2,7.1-11.4,13.5-18.5,18.5c-1.9,1.4-3.8,2.6-5.8,3.9
						c-0.5,0.3-1.1,0.6-1.6,0.9c-3.5,2.2-7.3,3.8-11.1,5.3c-0.9,0.3-1.8,0.6-2.7,0.9c-0.8,0.3-1.6,0.7-2.4,0.8l-0.1,0.1
						c-1.1,0.3-2.2,0.7-3.4,0.9c-1.5,0.4-3,0.8-4.5,1c0.1,0.2,0.1,0.4,0.1,0.6l-0.3-0.5c-3.5,0.6-7,1.2-10.6,1.3
						c-0.5,0.2-1,0.2-1.5,0.2c-2.2,0-4.5,0-6.7,0c-0.6,0-1.3,0-1.8-0.2c-2.1,0-4.3-0.3-6.4-0.6c-1.8-0.2-3.5-0.5-5.2-0.9
						c-1.3-0.3-2.6-0.6-3.9-0.9c-1.1-0.3-2.1-0.6-3.1-0.9c-1-0.3-2-0.7-3-0.9l0-0.1c-0.8-0.2-1.6-0.5-2.3-0.8
						c-0.7-0.3-1.5-0.6-2.2-0.9c-3.1-1.4-6.3-2.8-9.2-4.6c-0.5-0.3-1.1-0.6-1.6-0.9c-1-0.6-1.9-1.3-2.9-1.9
						c-1.3-0.8-2.3-1.9-3.7-2.4c-8.5-6.2-15.6-14.1-21-23c-6.3-10.3-10.2-22-11.3-34c-1.4-13.2,0.5-26.7,5.6-39
						c7.3-17.8,21.1-32.8,38.3-41.4c11.8-6,25-9,38.2-8.8c1.6,0,3.2,0.2,4.8,0.2c2-14.5,4.5-28.9,6.4-43.3
						c-7.4-2-14.4-5.5-20.3-10.3c-6-4.9-11-11.1-14.4-18.1c-8.3-16.9-7.1-38.2,3.4-53.9C660.4,556.4,668.8,549.4,678.5,545.4z
						 M698.2,563.2c-2.7,0.5-5.4,1.3-7.6,2.9c-3.8,2.6-6.3,7-6.7,11.6c-0.8,8,5.4,16,13.4,17c3.8,0.7,7.8-0.3,11-2.3
						c3.7-2.3,6.3-6.3,7-10.6c0.7-4-0.2-8.2-2.5-11.5c-2-3.1-5.3-5.3-8.8-6.4C702.2,563.3,700.2,562.8,698.2,563.2z M695,617.3
						c-10.4,1.8-19.2,10.4-21.1,20.8c8.1,4.9,17.5,7.5,27,7.2c8.7-0.1,17.3-2.6,24.7-7.1c-1.6-7.6-6.5-14.4-13.3-18.1
						C707,617.3,700.9,616.2,695,617.3z M734.1,637.1c-4.2,3.5-9,6.1-14,8.2c-7.2,3-15,4.2-22.7,3.9c-2.1,14.5-4.4,28.9-6.5,43.4
						c14.4,3.2,27.9,10.5,38.5,20.7c7,6.7,12.7,14.7,16.9,23.3c17-6.8,34.1-13.3,51-20.2c-2.8-11.7-2.2-24.4,2.5-35.5
						c0.7-1.8,1.7-3.4,2.4-5.2c-2.4-1.6-4.6-3.3-7-4.9c-18.4-13.2-36.7-26.4-55.2-39.4C738.1,633.4,736.3,635.4,734.1,637.1z
						 M847.3,670.5c-1,0.2-1.9,0.4-2.8,0.7c-6.6,2.2-11.2,9.1-10.7,16c0.4,5.6,4,11,9.1,13.3c2.1,1,4.4,1.4,6.7,1.7
						c5.2-0.1,10.2-2.7,13.2-7c2.5-3.6,3.4-8.3,2.5-12.5c-0.8-3.5-2.8-6.7-5.6-8.9C856.2,671.2,851.6,669.7,847.3,670.5z
						 M669.5,718.8c-4.9,0.8-9.6,2.8-13.4,5.9c-4.7,3.9-8,9.3-9.2,15.3c-2,9.4,1.7,19.6,9.1,25.7c4.7,3.9,10.7,6.1,16.7,6.4
						c6.8-0.3,13.7-2.7,18.6-7.6c5.1-4.8,8.2-11.6,8.3-18.6c0.4-10.6-6.3-20.9-16.1-25.1C679.1,719,674.2,718,669.5,718.8z
						 M841.8,725.1c-8.8,2.9-16,10.4-17.9,19.5c1.3,0.7,2.5,1.6,3.9,2.2c2.2,0.9,4.3,2.1,6.6,2.7c4.4,1.3,9,2.4,13.6,2.3
						c1.7,0,3.4,0,5.2,0c4.5-0.3,8.9-1.5,13.2-2.9c3.1-1.2,6.2-2.6,8.9-4.5c-2.4-10.2-11.3-18.7-21.8-20
						C849.6,724,845.6,723.7,841.8,725.1z M644.5,803.1c-8.6,6.4-15.1,15.8-17.8,26.2c0.1,0.1,0.4,0.4,0.6,0.6
						c0.3,0.2,0.6,0.5,1,0.7c0.1,0,0.4,0.1,0.5,0.2c0.1,0.1,0.4,0.3,0.5,0.4c0.9,0.7,1.7,1.6,2.7,2.3c2.4,1.6,4.9,3,7.5,4.4
						c2.6,1.2,5.2,2.4,7.8,3.5c1.4,0.5,2.8,1,4.3,1.3c2.8,0.9,5.6,1.7,8.5,2.2c2,0.4,4.1,0.8,6.1,0.8c0.8,0.4,1.8,0.2,2.7,0.3
						c3,0,6.1,0,9.1,0c1,0,2,0.1,3-0.2c1.9-0.2,3.9-0.4,5.8-0.9c1,0,1.9-0.2,2.8-0.5c1.9-0.6,3.8-0.9,5.7-1.6
						c1.1-0.2,2.1-0.5,3.2-0.9c1.9-0.5,3.5-1.6,5.3-2.2c1.5-0.6,2.9-1.2,4.3-2c3-2,6.4-3.3,8.9-5.9c0.8-0.7,1.8-1,2.6-1.7
						c0-0.2-0.1-0.7-0.2-0.9c-2.5-9.2-7.9-17.6-15.1-23.8C697,799,688,795,678.6,794C666.6,792.6,654.1,795.8,644.5,803.1z"/>
				</g>
			</g>
		</g>
	</g>
	<g>
		<g>
			<path style="fill:#FFFFFF;" d="M310.8,196c65.8-37.9,131.5-75.8,197.2-113.8c65.8,37.8,131.5,76,197.3,113.8
				c0.1,75.9,0,151.9,0,227.8c-65.8,37.8-131.5,75.9-197.3,113.8c-65.7-37.9-131.4-76-197.2-113.8
				C310.8,347.8,310.8,271.9,310.8,196z"/>
		</g>
		<g>
			<g>
				<g>
					<path d="M293.3,185.9C364.9,144.7,436.5,103.4,508,62c71.7,41.2,143.1,82.7,214.8,123.9c0.1,82.7,0,165.3,0,248
						c-71.7,41.2-143.2,82.7-214.8,123.9c-71.5-41.3-143-82.7-214.7-123.9C293.3,351.2,293.3,268.5,293.3,185.9z M318.4,200.4
						c0.1,73.1-0.1,146.1,0.1,219.1C381.7,456,445,492.3,508,528.9c63.4-36.1,126.3-73.1,189.7-109.2c0.2-73.2,0.1-146.4,0.1-219.7
						c-63.3-36.3-126.3-73-189.6-109.3C445,127.4,381.6,163.7,318.4,200.4z"/>
				</g>
				<path d="M416.3,434.9c-4.4-1.7-8.8-6.2-10.5-10.6l-1.3-3.4v-214l1.3-3.4c1.7-4.5,6.1-8.9,10.7-10.6c3.1-1.2,4.6-1.3,14.5-1.3
					h11.2v28.2h-8.4c-7.5,0-8.6,0.1-9.4,1.1c-0.9,1-1,8.3-1,93.3v92.1l1.3,0.9c1.2,0.8,10.1,0.9,83.5,0.9c81.5,0,82.2,0,83.4-1.2
					c1.2-1.2,1.2-1.9,1.2-93.1c0-88.4-0.1-92.1-1.1-93c-0.9-0.8-2.5-1-9.4-1h-8.4v-28.2h11.2c9.9,0,11.5,0.1,14.5,1.3
					c4.5,1.7,8.9,6.1,10.7,10.6l1.3,3.4v214l-1.3,3.4c-1.7,4.5-6.1,8.9-10.7,10.6l-3.4,1.3l-88.4-0.1
					C419.6,436.1,419.5,436.1,416.3,434.9L416.3,434.9z M416.3,434.9"/>
				<path d="M462.2,387.5c-2.8-2.6-20.1-27.9-20.1-29.4c0-1.6,5.2-6.1,7.1-6.1c1,0,3.6,2.2,8.9,7.5l7.5,7.5l12.2-12.5
					c8.5-8.7,12.5-12.5,13.4-12.5c1.9,0,7.3,4.5,7.3,6.1c0,1.5-27.7,39.1-29.7,40.2C466.8,389.6,464.1,389.3,462.2,387.5
					L462.2,387.5z M462.2,387.5"/>
				<path d="M517.7,378.9c-0.1-0.4-0.2-4.6-0.1-9.2l0.2-8.5h55.9v18.2l-27.8,0.2C523.4,379.7,517.9,379.6,517.7,378.9L517.7,378.9z
					 M517.7,378.9"/>
				<path d="M462.2,340.4c-2.8-2.6-20.1-27.9-20.1-29.4c0-1.6,5.2-6.1,7.1-6.1c1,0,3.6,2.2,8.9,7.5l7.5,7.5l12.2-12.5
					c8.5-8.7,12.5-12.5,13.4-12.5c1.9,0,7.3,4.5,7.3,6.1c0,1.5-27.7,39.1-29.7,40.2C466.8,342.5,464.1,342.2,462.2,340.4
					L462.2,340.4z M462.2,340.4"/>
				<path d="M517.7,331.9c-0.1-0.4-0.2-4.6-0.1-9.2l0.2-8.5h55.9v18.2l-27.8,0.2C523.4,332.6,517.9,332.5,517.7,331.9L517.7,331.9z
					 M517.7,331.9"/>
				<path d="M462.2,293.4c-2.8-2.6-20.1-27.9-20.1-29.4c0-1.6,5.2-6.1,7.1-6.1c1,0,3.6,2.2,8.9,7.5l7.5,7.5l12.2-12.5
					c8.5-8.7,12.5-12.5,13.4-12.5c1.9,0,7.3,4.5,7.3,6.1c0,0.8-2.6,4.8-6.1,9.5c-3.4,4.5-9.7,13.1-14.2,19.1
					c-4.4,6-8.6,11.2-9.3,11.6C466.8,295.4,464.1,295.1,462.2,293.4L462.2,293.4z M462.2,293.4"/>
				<path d="M517.7,284.8c-0.1-0.4-0.2-4.6-0.1-9.2l0.2-8.5h55.9v18.2l-27.8,0.2C523.4,285.6,517.9,285.4,517.7,284.8L517.7,284.8z
					 M517.7,284.8"/>
				<path d="M456.2,227.7c-1.1-0.7-2.6-2.2-3.3-3.3c-1.4-1.9-1.4-2.3-1.4-18.9c0-16.6,0-16.9,1.4-18.9c0.7-1.1,2.2-2.6,3.3-3.3
					c1.9-1.3,2.5-1.4,12.8-1.4h10.8v-1.9c0-8.2,6.2-18.1,14.3-22.7c6.8-3.9,16.8-4.6,24.1-1.9c9.6,3.7,17.1,13.4,17.9,23.1l0.4,3.4
					h10.7c10.2,0,10.8,0.1,12.7,1.4c1.1,0.7,2.6,2.2,3.3,3.3c1.4,1.9,1.4,2.3,1.4,18.9c0,16.6,0,16.9-1.4,18.9
					c-0.7,1.1-2.2,2.6-3.3,3.3l-2,1.4h-99.7L456.2,227.7z M513.7,190.5c3.2-2.4,4-4.1,4-8.5c0-4.4-0.8-6.1-4.1-8.5
					c-2.3-1.8-9-1.8-11.3,0c-3.6,2.6-5,6.4-4.1,11.1c0.5,2.5,2.9,5.5,5.4,6.6C506.2,192.4,511.7,191.9,513.7,190.5L513.7,190.5z
					 M513.7,190.5"/>
			</g>
			<rect x="404.5" y="150.5" style="fill:none;" width="207.1" height="282.4"/>
		</g>
	</g>
</g>
</svg>
