<?xml version="1.0"?>
<svg xmlns="http://www.w3.org/2000/svg" id="Layer_1" enable-background="new 0 0 512 512" height="512px" viewBox="0 0 512 512" width="512px"><g><g><path d="m185.385 287.072c-18.307 0-33.2 14.894-33.2 33.2s14.894 33.2 33.2 33.2 33.2-14.893 33.2-33.2-14.894-33.2-33.2-33.2z" data-original="#000000" class="active-path" data-old_color="#000000" fill="#141214"/><path d="m280.1 126.4c-13.877 0-25.166 11.29-25.166 25.167s11.289 25.167 25.166 25.167c30.419 0 55.167 24.748 55.167 55.167 0 13.877 11.29 25.167 25.167 25.167s25.166-11.291 25.166-25.168c0-58.365-47.231-105.5-105.5-105.5z" data-original="#000000" class="active-path" data-old_color="#000000" fill="#141214"/><path d="m437.104 74.896c-99.861-99.862-262.347-99.861-362.208 0-99.861 99.861-99.862 262.347 0 362.208 99.861 99.862 262.347 99.861 362.208 0s99.862-262.347 0-362.208zm-277.504 53.637c8.28 0 15 6.722 15 15s-6.72 15-15 15-15-6.722-15-15 6.72-15 15-15zm90.051 206.739h-2.88c-1.555 6.362-4.063 12.353-7.384 17.801l12.833 12.821c5.861 5.855 5.865 15.353.01 21.213-5.856 5.861-15.353 5.865-21.213.01l-12.846-12.833c-5.444 3.317-11.431 5.821-17.786 7.375v2.88c0 8.284-6.716 15-15 15s-15-6.716-15-15v-2.88c-6.356-1.553-12.343-4.058-17.787-7.375l-12.845 12.833c-5.86 5.855-15.358 5.851-21.213-.01-5.855-5.86-5.851-15.358.01-21.213l12.833-12.821c-3.321-5.448-5.829-11.44-7.384-17.802h-2.88c-8.284 0-15-6.716-15-15s6.716-15 15-15h2.88c1.555-6.362 4.063-12.353 7.384-17.801l-12.833-12.82c-5.861-5.855-5.865-15.353-.01-21.213s15.352-5.866 21.213-.01l12.845 12.833c5.444-3.317 11.431-5.821 17.786-7.375v-2.88c0-8.284 6.716-15 15-15s15 6.716 15 15v2.88c6.356 1.553 12.343 4.058 17.786 7.375l12.846-12.833c5.861-5.855 15.359-5.851 21.213.01 5.855 5.861 5.85 15.358-.01 21.213l-12.833 12.82c3.321 5.448 5.829 11.44 7.384 17.801h2.88c8.284 0 15 6.716 15 15s-6.714 15.001-14.999 15.001zm118.816 32.128c-8.28 0-15-6.721-15-15 0-8.278 6.72-15 15-15s15 6.722 15 15-6.72 15-15 15zm-8.033-80.334c-30.419 0-55.167-24.748-55.167-55.167 0-13.877-11.29-25.167-25.167-25.167-30.419 0-55.166-24.748-55.166-55.167s24.747-55.165 55.166-55.165c74.962 0 135.5 60.662 135.5 135.5 0 30.419-24.747 55.166-55.166 55.166z" data-original="#000000" class="active-path" data-old_color="#000000" fill="#141214"/></g></g> </svg>
