<?xml version="1.0" ?><svg data-name="Layer 2" id="a0d4080d-36c0-4f24-bec4-d9401f99dc7f" viewBox="0 0 38 38" xmlns="http://www.w3.org/2000/svg"><path d="M19,37.44A18.44,18.44,0,1,1,37.44,19,18.461,18.461,0,0,1,19,37.44ZM19,3.06A15.94,15.94,0,1,0,34.94,19,15.957,15.957,0,0,0,19,3.06Z"/><circle cx="19" cy="26.242" r="1.878"/><path d="M19,21.95h-.012a1.249,1.249,0,0,1-1.238-1.262c.015-1.638,1.362-3.326,2.55-4.815.245-.307.48-.6.683-.872a1.513,1.513,0,0,0,.067-1.61,2.368,2.368,0,0,0-2-1.34h0c-1.447,0-2.63.87-2.63,1.9a1.25,1.25,0,0,1-2.5,0c0-2.427,2.281-4.4,5.085-4.4l.12,0a4.83,4.83,0,0,1,4.173,2.734,3.973,3.973,0,0,1-.309,4.213c-.217.291-.468.605-.73.934-.8,1-2,2.5-2,3.279A1.251,1.251,0,0,1,19,21.95Z"/></svg>