<?xml version="1.0" encoding="utf-8"?>
<!-- Generator: Adobe Illustrator 18.1.1, SVG Export Plug-In . SVG Version: 6.00 Build 0)  -->
<svg version="1.2" baseProfile="tiny" id="Layer_1" xmlns="http://www.w3.org/2000/svg" xmlns:xlink="http://www.w3.org/1999/xlink"
	 x="0px" y="0px" viewBox="0 0 659 664" xml:space="preserve">
<g>
	<g>
		<path fill="#FFFFFF" d="M0.5,94c54-31.3,108-62.4,162.1-93.6c54,31.1,108,62.3,161.9,93.5c0,62.3,0,124.6,0,186.9
			c-54,31.2-107.9,62.3-161.9,93.5c-52.9-30.6-105.8-61.1-158.8-91.7c-1.1-0.7-2.2-1.4-3.3-2.2V94z"/>
	</g>
	<g>
		<path fill="#3677A2" d="M0.5,94c54-31.3,108.1-62.4,162.1-93.6c54,31.1,108,62.3,161.9,93.5c0,62.3,0,124.6,0,186.9
			c-54,31.2-107.9,62.3-161.9,93.5c-52.9-30.6-105.8-61.1-158.8-91.7c-1.1-0.7-2.2-1.4-3.3-2.2V94z M18.8,104.3
			c0,55.4-0.1,110.7,0,166.1c48,27.6,95.8,55.4,143.8,83c48-27.7,96-55.4,144-83.2c-0.1-55.3,0.1-110.7-0.1-166
			c-48-27.5-95.9-55.3-143.9-83C114.6,49,66.7,76.7,18.8,104.3z"/>
	</g>
	<g>
		<path fill="#3677A2" d="M132,73.7c16.6-1.9,33.8,1.4,48.5,9.4c17.2,9.2,30.9,24.8,37.8,43c6.9,17.7,7.3,37.9,1.3,55.9
			c-5.2,15.7-15.2,29.7-28.4,39.6c-12.8,9.8-28.6,15.6-44.7,16.6c-22.1,1.7-44.6-6.4-60.9-21.2c-12.4-11.4-21.4-26.5-25-43
			c-4.2-18.5-1.8-38.3,6.7-55.3C79.4,94.1,104.6,76.5,132,73.7z M129.9,85.5c-19.1,3-36.8,14.2-47.6,30.3
			c-8.9,13.1-13.4,29.3-12.2,45.1c1.2,17,8.8,33.5,21,45.4c13.4,13.5,32.4,20.9,51.3,20.6c13.4-0.4,26.8-4.5,38-12
			c14-9.3,24.5-23.7,29.1-39.9c4.8-16.6,3.1-35-4.6-50.5c-6.8-14.1-18.5-25.7-32.5-32.6C159.4,85.4,144.3,83.2,129.9,85.5z"/>
	</g>
	<path fill="#3677A2" d="M155.6,99.2c0.3-1.9,0.1-3.9,0.4-5.8c5.2,1.2,10.2,3.1,14.9,5.5c0,16.5-8.1,33.2-22.2,42
		c-4.8-2.4-9.4-5.4-14.1-8.1c9.3-6.3,18-14.7,20.3-26.1c-13.4-0.2-26.8,0.1-40.2-0.2c-4-0.3-4-7.2,0-7.3
		C128.2,99.1,141.9,99.3,155.6,99.2z"/>
	<path fill="#3677A2" d="M89.8,117.3c2.8-3.7,6-7,9.4-10.1c0.9,2.2,1.7,4.4,2.5,6.6c11.6,0.3,23.2,0,34.8,0.2c1.7-0.2,2.9,1,4.2,1.9
		c-0.2,2.1-0.4,5.4-3.2,5.5c-10.1,0.4-20.3-0.3-30.4,0.5c9.4,11.2,23.3,16.7,35.4,24.3c11.2,6.6,22.3,15.7,26.2,28.6
		c3.6,12.6,2.8,27-4.3,38.2c-1.1,1.8-2.5,3.8-4.7,4.3c-8.1,2.4-16.7,3.2-25.1,2.3c5.9-4.1,12.1-8.2,16.2-14.3
		c2.6-3.6,4.1-7.9,4.7-12.3c-13-0.2-26.1,0-39.1-0.1c-2.3,0.3-4.5-1.6-4.4-3.9c0-2.3,2.3-4.1,4.5-3.8c13-0.1,26,0.1,39,0
		c-1.3-10.4-9-18.4-17.4-23.9c-12.8-8.5-27.4-14.5-38.8-25.1c-4.5-4.4-8.8-9.4-11.1-15.3C87.6,119.5,89.3,118.5,89.8,117.3z"/>
	<path fill="#3677A2" d="M83.8,184.1c0.5-14,9.9-26.5,21.6-33.6c4.6,3,9.4,5.7,14.2,8.5c-4.9,3.3-9.9,6.7-13.8,11.2
		c9.6,0.6,19.2,0.3,28.7,0.3c2,0.1,4.7-0.5,6.1,1.5c2.1,2.3,0.2,6.5-3,6.3c-12.3,0.3-24.7,0-37,0.1c-2.6,7-2.7,14.8-0.1,21.7
		c12.7,0.2,25.4-0.2,38.1,0.2c4.1,0.1,4.8,6.6,0.8,7.5c-7.6,0.4-15.2,0-22.8,0.1c-3.9,0.1-8.1-0.5-11.8,1
		C96,202.4,88,194.2,83.8,184.1z"/>
	<path fill="#3677A2" d="M205.9,211.6c2.8-2.4,7.3,1.1,5.8,4.4c-1.7,2.9-4.5,5-6.8,7.5c-1.6,1.4-3.1,3.6-5.5,3.3
		c-3-0.1-4.7-4.2-2.5-6.3C199.8,217.4,202.8,214.4,205.9,211.6z"/>
	<path fill="#3677A2" d="M214.9,220.6c4.7-1.4,9.9,0.2,13.3,3.7c11.8,11.8,23.7,23.7,35.5,35.5c3.5,3.3,5.3,8.5,3.8,13.2
		c-1.5,6.4-8.5,10.8-15,9.5c-3.2-0.5-5.9-2.3-8-4.6c-11.9-12.1-24-23.9-35.8-36C202.2,235.3,205.8,222.6,214.9,220.6z"/>
	<path fill="#3677A2" d="M95.1,246.7c2.8-3.3,6-6.1,9.3-8.7c5.9,2.4,11.9,4.5,18.2,5.8c-10,6.4-19.9,14.8-22.9,26.8
		c12.8,0.2,25.5-0.2,38.3,0.2c4.3,0.5,3.6,7.6-0.6,7.5c-13,0.3-25.9,0-38.9,0.1c-0.1,1.5-0.1,3-0.2,4.4c-5,0.2-9.9,0.4-14.9,0.3
		C82.8,270,86.4,256.5,95.1,246.7z"/>
	<path fill="#3677A2" d="M134.3,245.5c6.1,0,12.2,0.3,18.3-0.6c1.6-0.1,3.2-0.6,4.7-0.1c10,9.9,14.2,24.5,13.5,38.3
		c-5,0.1-9.9-0.2-14.9-0.4c-0.1-6.1-1-12.2-3.3-17.9c-12-1.2-24.1,0-36.1-0.6c-3-0.1-4.4-4.4-2.2-6.3c1-1.3,2.8-1.2,4.2-1.3
		c9.5,0,18.9,0.1,28.4,0C143.5,251.9,138.8,248.8,134.3,245.5z"/>
</g>
<g>
	<g>
		<path fill="#FFFFFF" d="M494.9,3.5c1.5-1.3,3.2-0.7,4.7,0.2c49.8,28.9,99.7,57.6,149.6,86.4c3.5,2.2,7.7,3.7,10.3,7.1v185.4
			c-17,9.3-33.5,19.3-50.3,28.8c-37.3,21.6-74.7,43-111.9,64.7c-54.1-30.9-107.9-62.3-161.9-93.4c-0.1-62.4,0-124.7,0-187
			C388.4,65,441.7,34.3,494.9,3.5z"/>
	</g>
	<g>
		<path fill="#AEA79F" d="M495,3.5c1.5-1.3,3.2-0.7,4.7,0.2c49.8,28.9,99.7,57.6,149.6,86.4c3.5,2.2,7.7,3.7,10.3,7.1v185.4
			c-17,9.3-33.5,19.3-50.3,28.8c-37.3,21.6-74.7,43.1-111.9,64.7c-54.1-30.9-107.9-62.3-161.9-93.4c-0.1-62.3,0-124.7,0-187
			C388.5,65,441.8,34.3,495,3.5z M496.9,23.2c-47.8,27.8-95.8,55.3-143.6,83c-0.1,55.3,0,110.7-0.1,166c48,27.8,96,55.6,144.1,83.1
			c47.8-27.9,95.9-55.3,143.7-83.2c-0.1-55.3,0.1-110.6-0.1-165.9C592.9,78.6,545,50.7,496.9,23.2z"/>
	</g>
	<g>
		<path fill="#AEA79F" d="M445.9,95.6c12.8-9,28-14.3,43.6-15.6c19.3-1.2,39.3,1.4,56.5,10.6c13.6,7.2,24.6,19.3,30.1,33.8
			c3.3,8.5,4.9,17.6,5.2,26.7c0.4,6.9,1.1,14.3,5.3,20c4.2,7.6,12.7,12.3,15.2,20.9c1.2,3.1-0.6,6.4-3.4,7.8
			c-3.9,2.2-7.7,4.5-11,7.4c1.8,3.2,3.7,6.3,5.4,9.6c-3.1,1.7-6.6,2.7-9.2,5.2c2.6,2.8,5.2,5.5,6.6,9.1c-2.1,2.6-4.8,4.9-6.3,8
			c-1.1,5.6,3.9,10.3,2.9,15.9c-1.1,5.8-6.5,10.3-12.2,11.1c-13.7,1.6-27.3-0.9-40.9-1.8c-2.8,0-7.6-0.1-7.6,3.8
			c-0.3,7.6-0.4,15.1-0.5,22.7c-28.1,0.1-56.2,0.4-84.2,0.2c1.6-12.6,3.3-25.2,5-37.9c0.6-4.7,1.8-9.6,0.1-14.2
			c-3.7-14.7-13.4-26.7-21.6-39.1c-6-7.7-10.4-16.9-11.2-26.7c-0.9-13-1.1-26.5,3.2-39C421.9,118.5,432.6,105,445.9,95.6z
			 M465.5,105.1c-0.3,1.2-0.5,2.4-0.7,3.6c-1.8,0.8-3.6,1.6-5.4,2.4c-1.3-0.8-2.6-1.7-4.1-2.4c-1.6,0-2.4,1.9-3,3.1
			c0.8,1.2,1.7,2.3,2.6,3.4c-0.7,2-1.5,3.9-2.3,5.8c-2.3,0.4-5.7,0.7-5.3,3.8c0,2.8,3,2.4,5,2.6c1.1,2.3,2.2,4.5,3.4,6.8
			c-0.9,1.3-1.8,2.6-2.8,4c1.1,1.2,2.3,2.3,3.5,3.5c1.2-1.1,2.5-2.2,3.7-3.3c1.6,0.6,3.2,1.3,4.8,1.9c0.3,1.4,0.5,2.8,0.9,4.2
			c1.5,0.5,3.2,0.4,4.8,0.6c0.3-1.6,0.6-3.2,0.9-4.8c2-0.8,4-1.6,6-2.4c1.4,1,2.7,2,4.1,3c1.1-1.2,2.2-2.4,3.3-3.7
			c-1-1.2-2-2.4-3.1-3.5c0.9-2,1.7-4.1,2.5-6.1c1.5-0.1,3-0.1,4.5-0.2c0.1-1.4,1-2.9,0.4-4.3c-0.8-2-3.3-1.4-5-2
			c-0.6-1.6-1.2-3.3-1.8-4.9c0.9-1.6,3.6-3,2.2-5.1c-1-0.7-2-1.4-3-2.1c-1.1,0.9-2.1,1.9-3.1,2.8c-2.3-1.1-4.6-2.2-6.9-3.2
			c-0.3-1.6-0.6-3.2-1-4.8C468.9,104.2,466.5,103.4,465.5,105.1z M509.2,114.7c-1.9,2.4,0.3,5.2,1,7.6c-2.5,2.3-4.7,4.7-6.8,7.3
			c-1.9-0.6-3.8-1.4-5.9-1.6c-2,0.8-3.5,2.8-3.4,5.1c-0.2,3.3,3.8,3.7,6,4.9c0,3.4,0.1,6.7,0.2,10.1c-1.9,1.1-4.5,1.7-5.6,3.9
			c-0.5,2.5,1.1,5.4,3.6,6.2c2-0.3,3.8-1.2,5.7-2c2.6,2.8,5.5,5.4,8.7,7.6c-0.5,1.7-1.1,3.4-1.4,5.3c0.3,3.3,5.3,5.1,7.6,2.6
			c1.1-1.6,1.7-3.5,2.4-5.3c2.7-0.1,5.4-0.4,8.1-0.6c1.2,2,2.1,4.1,3.8,5.7c2.3,0.5,4.9-0.5,6.2-2.5c0.7-2.4-0.9-4.6-1.6-6.8
			c2.4-2.2,4.6-4.6,6.6-7.2c1.9,0.5,3.8,1.1,5.7,1.4c2.7-0.2,4-3.6,3.7-5.9c-1-2.5-4-2.9-6.1-4.1c0.2-3.3,0.1-6.7-0.2-10
			c1.9-1,4.2-1.5,5.4-3.4c0.7-2.4-0.7-5.2-2.8-6.4c-2.2-0.3-4.3,1.1-6.3,1.8c-2.1-1.9-4-3.9-5.9-6c0.6-2.1,1.6-4.1,1.5-6.3
			c-0.8-2.4-3.8-3.7-6.2-3c-2.1,1-2.4,3.7-3.4,5.5c-3.9-0.2-7.8-0.2-11.7,0.1c-0.8-1.6-1.5-3.3-2.7-4.8
			C513.9,111.8,510.7,113,509.2,114.7z M469.4,152.7c-2.5,0.7-1.6,3.9-2.1,5.9c-2.3,1-4.7,2-6.9,3.1c-1.4-1.2-2.8-2.4-4.1-3.6
			c-1.8,1.1-4,2.3-3.9,4.8c0.8,1.5,2.2,2.6,3,4.1c-0.6,2.4-1.8,4.7-2.7,7c-1.7,0.3-3.5,0.3-5.1,0.9c-2.4,1.4-2.4,5-0.6,6.8
			c1.7,1.1,3.8,0.9,5.7,1.2c1.2,2.7,2.5,5.4,3.8,8.1c-1.1,1.5-2.9,2.9-3,4.8c0.6,2,2.6,2.8,4.2,3.8c1.4-1.3,2.8-2.6,4.2-3.9
			c1.9,0.8,3.8,1.5,5.7,2.3c0.2,1.8,0.3,3.6,0.7,5.3c1.8,2,5,1.3,7.1,0.2c0.7-1.7,0.6-3.7,0.8-5.5c2.6-1,5.1-2.1,7.7-3.1
			c1.3,1,2.5,2.2,4,3c2.1,0.5,3.7-1.4,4.6-3c-0.2-2.2-1.8-4-2.8-5.9c0.9-2.1,1.8-4.3,2.7-6.4c2.6-0.3,6.8,0,6.9-3.7
			c0.6-4-3.7-5.2-6.8-4.9c-0.9-2-1.8-4.1-2.6-6.1c1.3-1.6,3.1-2.9,3.5-5c-0.5-2.2-2.6-3.1-4.3-4.1c-1.4,1.2-2.8,2.3-4.2,3.5
			c-2.7-1.7-5.6-3-8.6-4c-0.3-1.7-0.4-3.4-1-5.1C473.5,151.9,471.1,152,469.4,152.7z"/>
	</g>
	<path fill="#AEA79F" d="M465.7,116.3c5.5-2,12,2.9,11.5,8.8c0,6.5-8.4,10.9-13.7,6.9C457.6,128.3,458.8,118.1,465.7,116.3z"/>
	<path fill="#AEA79F" d="M521,129.6c8.2-2.5,17.1,5,16.2,13.5c-0.3,7.3-7.5,13.1-14.7,12c-6.3-0.8-11.7-6.6-11.3-13.1
		C511.1,136.3,515.4,130.9,521,129.6z"/>
	<path fill="#AEA79F" d="M467.7,168.4c6.7-3.4,15.5,2.1,15.4,9.5c0.7,8.2-9.5,14.4-16.4,9.8C459.2,183.9,459.8,171.5,467.7,168.4z"
		/>
</g>
<g>
	<g>
		<path fill="#FFFFFF" d="M167.8,383.4c53.9-31.1,107.9-62.3,161.8-93.4c53.9,31.1,107.8,62.3,161.7,93.4c0,62.4,0,124.8,0,187.2
			c-50.1,29-100.3,57.9-150.4,86.8c-3.6,2.1-7.4,4-10.6,6.6h-1.4c-1.2-1-2.4-1.9-3.7-2.7c-52.5-30.2-104.9-60.6-157.4-90.8
			C167.7,508.1,167.8,445.8,167.8,383.4z"/>
	</g>
	<g>
		<path fill="#E95420" d="M167.8,383.4c53.9-31.1,107.9-62.3,161.8-93.4c53.9,31.1,107.8,62.3,161.7,93.4c0,62.4,0,124.8,0,187.2
			c-50.1,28.9-100.3,57.9-150.4,86.8c-3.6,2.1-7.4,4-10.6,6.6h-1.4c-1.2-1-2.4-1.9-3.7-2.7c-52.5-30.2-104.9-60.6-157.4-90.8
			C167.7,508.1,167.8,445.8,167.8,383.4z M185.7,394c0.1,55.3,0,110.6,0,166c47.9,27.8,95.9,55.4,143.8,83.1
			c47.9-27.7,95.9-55.3,143.8-83.1c-0.1-55.4,0.1-110.8-0.1-166.2c-48-27.5-95.8-55.3-143.7-82.8C281.6,338.6,233.6,366.2,185.7,394
			z"/>
	</g>
	<g>
		<path fill="#E95420" d="M314.1,365.8c23.8-2.9,48.6,2.2,69.3,14.4c13.7,8.1,25.7,19.1,34.7,32.3c13.2,19.1,20.1,42.4,19.4,65.5
			c-0.6,35.5-19.9,70-49.7,89.2c-30.6,20.3-71.6,23.7-105.1,8.5c-29.6-12.9-52.7-39.6-61.3-70.7c-7.4-26.2-4.7-55.1,7.6-79.5
			C245.1,393.2,278.2,369.9,314.1,365.8z M317,386.6c-16.4,1.9-32.2,8.4-45,18.7c-16.8,13.2-28.5,32.6-32.4,53.6
			c-3.4,17.6-1,36.3,6.3,52.7c7.6,17.1,20.8,31.7,37.1,41c17,9.9,37.3,13.8,56.7,11.1c16.9-2.3,33-9.6,45.9-20.7
			c15.8-13.5,26.6-32.6,30-53.1c3.2-18.5,0.1-37.9-8.3-54.6c-7.8-15.6-20.3-28.9-35.5-37.5C355.3,388.4,335.8,384.3,317,386.6z"/>
	</g>
	<g>
		<path fill="#E95420" d="M313,391.7c20.5-3.6,42.3,0.8,59.9,12c15.5,9.8,27.6,24.9,33.9,42c11.1,29.1,4.4,64-16.9,86.7
			c-12.8,14.1-30.5,23.5-49.3,26.4c-17.3,2.7-35.4-0.1-51-7.9c-14.8-7.4-27.3-19.2-35.4-33.5c-10.2-17.4-13.6-38.6-9.7-58.3
			c2.8-15.1,9.9-29.4,20.3-40.8C277.4,404.5,294.5,394.9,313,391.7z M342.4,415.9c-2.3-2.2-5.3-5.5-8.9-4.1
			c-4.9,1.2-6.5,8.4-2.5,11.6c3.9,3.5,10.8,0.8,11.1-4.5c1.5,2.2,2.7,5,5.5,5.8c2.4,0.5,4.7-0.9,6.9-1.6c0.5,1.7,0.8,3.6,1.9,5.1
			c1.5,1.9,3.9,2.3,6,3.1c-0.8,3-1.6,6.6,1,8.9c2.4,2.7,6.1,1.8,9.1,0.9c0,2.4,0.1,5.1,2,6.9c1.7,2,4.5,2.1,6.9,2.5
			c-0.8,3.9,0.7,7.7,4,9.9c-3.4,1.4-5.4,4.5-6.1,8c-2.6-1.6-5.5-2.2-8.4-1.7c0.5-2.9,0.8-6.3-1.7-8.4c-2.3-2.5-5.8-1.6-8.7-0.9
			c0.5-4.6-2.9-9.8-8-8.9c-5.6,0.6-6.6,8.2-3.4,11.8c2.3,2.1,5.6,1.3,8.4,0.9c0.4,2.5,0.6,5.4,2.7,7c2,1.9,4.8,1.8,7.3,1.5
			c0,2.4-0.6,5.1,1,7.2c1.9,3.1,6.6,4,9.4,1.6c2-1.4,2.5-4,3.3-6.2c2,0.8,4,2,6.3,1.7c3.1-0.3,5.5-3.1,5.8-6.1
			c0-3.1-2.3-5.5-4.6-7.2c3.5-1.2,7-4.6,5.6-8.6c-0.9-4-5.3-5.3-8.9-5.2c0.6-3,0.6-6.8-2.2-8.8c-2.3-2.3-5.6-1-8.3-0.4
			c-0.4-2.2-0.1-4.8-1.8-6.5c-1.4-1.8-3.8-2.3-5.8-2.9c0.7-3,1.5-6.7-1.2-9c-2.7-3-6.9-1.8-9.9,0.1c-0.7-3.3-2.2-7.4-6-7.8
			C346.9,410.5,344.4,413.6,342.4,415.9z M299.1,425.3c-5.4,1.6-9.6,5.8-12.9,10.2c-7.1,9.9-11.3,22.5-8.5,34.6
			c-2.9,3.1-6.6,5.9-7.6,10.3c-0.8,4.4,0.5,9-0.7,13.4c-0.6,2.5-2.4,4.4-3.8,6.4c1,0.7,2,1.3,3,1.9c3.8-1.7,5.8-6,5.7-10.1
			c0.1-5.7-0.9-12.5,4.2-16.4c-0.7,3.1-1.9,6.1-1.5,9.3c0.3,3.1,1.7,5.9,2.2,9c0.4,3.3-1,6.5-2.1,9.5c1.1,0.5,2.3,1.8,3.6,0.8
			c2.4-1.5,3-4.7,3.3-7.3c-0.2-6.2-3.5-12-2.2-18.3c0.9,2.6,1.4,5.3,2.3,7.9c2,4.1,6.1,6.8,7.7,11.2c0.7,2.5,0.5,5,0.6,7.6
			c1.4-0.7,4.1-0.3,4.3-2.3c1.6-6.6-3.7-11.9-7.5-16.6c-2.5-2.8-1.5-6.8-1.4-10.2c9.2-4.1,15.5-12.7,19-21.9
			c2.7-7.1,4.5-15.1,2.3-22.6C308,427.4,303.5,423.9,299.1,425.3z M333.2,455.1c-1,3.4,1.6,6.1,3.5,8.5c-3,1.9-6.4,5.1-4.7,9
			c1.4,4.5,6.9,5.7,10.7,3.4c-0.1,3.1,0.1,7,3.2,8.7c4.1,2.8,10.3-0.9,10.2-5.7c0.2-3-2.1-5.8-4.9-6.5c-2-0.6-4,0.3-6,0.6
			c0.2-3.5-1.2-6.7-3.8-9c2.1-1.9,4-3.9,5.6-6.2c-0.8-2-1.3-4.1-2.6-5.9C341.1,448.6,334.1,450.2,333.2,455.1z M315.7,494.2
			c-2.8,2.1-2.7,5.9-3.5,9c-0.8,6-8.2,8-9.2,13.8c-1,7.1,6,15.9,13.5,12.8c5.2-1.8,11.2-1.5,15.9,1.4c2.9,1.6,4.8,4.3,7.1,6.6
			c5.4,4.8,14.9,2.8,18.3-3.3c1.9-5.1-1.6-11.3,2.1-15.9c2.2-3.1,6.3-2.6,9.6-2.5c3.2,0,5.3,2.8,7.9,4.3c0.6-1.6,1.9-3.4,0.5-4.9
			c-3.3-4.8-10-3.8-15-4.5c3.7-4,9.1-6.6,14.6-5.4c3.1,0.6,3.3-3.5,0.7-4.3c-5.8-2.4-11.5,1.5-16.5,4c-1.8-0.9-3.5-1.9-5.4-2.4
			c-2.9-0.7-5.4,1.1-8.1,1.9c-3.3,1.2-7.1,0.1-9.9-1.9c-2.8-2.3-3.5-6.3-6.4-8.4C327.5,490.8,320.4,490.5,315.7,494.2z"/>
	</g>
	<path fill="#E95420" d="M291.6,453.2c4.8-1,9.6,4.1,8.1,8.8c-1,5-8.1,6.9-11.6,3.5C283.9,461.8,286.1,453.9,291.6,453.2z"/>
	<path fill="#E95420" d="M321.9,502.5c5-2,10.7,3.5,9.1,8.5c-1.1,5-8.3,7-11.8,3.4C315.4,511,317,503.9,321.9,502.5z"/>
</g>
</svg>
