<?xml version="1.0" encoding="UTF-8" ?>
<!DOCTYPE svg PUBLIC "-//W3C//DTD SVG 1.1//EN" "http://www.w3.org/Graphics/SVG/1.1/DTD/svg11.dtd">
<svg width="642pt" height="741pt" viewBox="0 0 642 741" version="1.1" xmlns="http://www.w3.org/2000/svg">
<g id="#7a3ca8ff">
<path fill="#7a3ca8" opacity="1.00" d=" M 259.70 60.77 C 279.86 49.26 299.80 37.31 320.11 26.08 C 323.88 27.21 326.98 29.77 330.43 31.59 C 400.77 72.29 471.16 112.92 541.59 153.46 C 567.24 168.53 593.22 183.06 618.73 198.33 C 618.80 198.98 618.94 200.29 619.01 200.94 C 618.99 310.63 619.01 420.32 619.00 530.00 C 618.90 534.59 619.33 539.22 618.80 543.80 C 615.70 546.49 611.90 548.20 608.45 550.38 C 524.85 598.42 441.38 646.66 357.89 694.88 C 346.32 701.57 334.61 708.06 323.20 715.04 C 321.12 716.75 318.61 715.54 316.60 714.40 C 220.61 659.09 124.71 603.64 28.73 548.32 C 26.41 546.92 23.81 545.83 21.96 543.79 C 21.72 542.55 21.60 541.30 21.59 540.05 C 21.66 430.36 21.61 320.68 21.62 211.00 C 21.75 206.79 21.11 202.47 22.11 198.34 C 27.28 194.22 33.41 191.52 39.04 188.08 C 112.65 145.76 186.13 103.19 259.70 60.77 M 311.16 72.12 C 226.74 120.65 142.50 169.51 58.12 218.11 C 56.44 219.44 57.10 222.07 56.83 223.97 C 57.07 320.65 57.13 417.32 56.84 514.00 C 56.89 517.16 56.55 520.43 57.46 523.52 C 60.34 525.81 63.77 527.27 66.91 529.15 C 150.19 577.61 233.79 625.50 317.18 673.77 C 318.53 674.40 320.07 675.40 321.59 674.62 C 325.25 673.13 328.48 670.80 331.93 668.90 C 413.26 621.88 494.59 574.86 576.01 528.00 C 578.51 526.56 581.20 525.34 583.37 523.41 C 583.89 522.02 583.89 520.51 583.98 519.07 C 583.90 463.71 583.95 408.36 583.96 353.00 C 583.83 310.67 584.16 268.33 583.74 226.00 C 583.66 223.57 584.06 221.01 583.22 218.69 C 579.17 215.61 574.41 213.63 570.14 210.89 C 489.44 164.67 409.07 117.89 328.46 71.51 C 325.73 70.04 323.21 67.92 320.11 67.29 C 316.88 68.38 314.12 70.48 311.16 72.12 Z" />
<path fill="#7a3ca8" opacity="1.00" d=" M 312.36 145.34 C 321.70 144.56 331.58 147.08 338.87 153.14 C 347.52 160.03 353.20 170.89 353.04 182.03 C 353.16 186.65 349.53 191.19 344.91 191.83 C 339.13 192.79 333.99 187.65 334.05 181.98 C 333.85 175.06 329.77 168.44 323.27 165.79 C 314.71 161.35 303.46 166.10 299.60 174.64 C 297.99 178.27 298.29 182.38 297.05 186.11 C 295.34 190.56 289.95 192.98 285.46 191.47 C 281.66 190.02 278.84 186.15 278.96 182.03 C 278.61 163.70 294.12 146.82 312.36 145.34 Z" />
<path fill="#7a3ca8" opacity="1.00" d=" M 260.35 191.32 C 278.88 189.33 297.24 203.60 299.99 221.99 C 300.45 226.29 301.35 231.58 297.93 234.97 C 294.64 238.68 288.14 239.02 284.69 235.35 C 279.75 230.70 282.70 222.79 278.24 217.80 C 271.61 208.03 255.40 208.02 248.79 217.83 C 244.47 222.84 247.13 230.72 242.35 235.39 C 238.41 239.36 231.17 238.49 228.19 233.78 C 224.69 229.39 226.50 223.52 227.72 218.63 C 231.65 203.96 245.14 192.47 260.35 191.32 Z" />
<path fill="#7a3ca8" opacity="1.00" d=" M 365.35 191.31 C 373.93 190.73 382.88 192.97 389.87 198.09 C 399.34 204.59 404.95 215.78 405.83 227.09 C 406.28 232.53 401.57 238.08 395.99 237.93 C 391.86 237.98 387.84 234.93 387.04 230.83 C 385.99 226.22 386.09 221.00 382.77 217.26 C 378.02 210.83 368.92 209.00 361.63 211.68 C 355.94 213.94 351.33 219.28 350.82 225.50 C 350.49 229.45 349.80 233.89 346.21 236.25 C 341.08 240.24 332.93 236.78 331.59 230.61 C 330.33 223.80 332.72 216.92 335.81 210.93 C 341.53 199.94 353.02 192.38 365.35 191.31 Z" />
<path fill="#7a3ca8" opacity="1.00" d=" M 205.33 237.27 C 213.73 236.29 222.76 237.33 229.98 242.03 C 240.60 248.52 247.85 260.51 248.03 273.02 C 248.22 276.67 246.29 280.33 243.10 282.13 C 238.35 284.75 231.51 282.65 229.72 277.36 C 228.49 273.15 228.81 268.47 226.47 264.60 C 222.12 257.11 212.09 253.72 204.10 257.10 C 198.67 259.29 194.08 264.21 193.38 270.17 C 192.72 274.04 192.68 278.65 189.25 281.27 C 184.20 285.57 175.16 282.60 174.13 275.89 C 172.09 257.54 187.06 239.29 205.33 237.27 Z" />
<path fill="#7a3ca8" opacity="1.00" d=" M 307.38 237.59 C 316.19 235.97 325.86 236.55 333.72 241.23 C 344.08 246.71 351.25 257.50 352.85 269.05 C 353.20 272.69 353.49 276.92 350.89 279.87 C 347.54 284.15 340.26 284.49 336.67 280.32 C 333.95 277.41 334.28 273.15 333.41 269.52 C 331.98 261.49 323.99 255.68 316.00 255.78 C 308.01 255.68 300.02 261.50 298.59 269.52 C 297.69 273.36 298.04 277.99 294.82 280.84 C 290.13 285.47 281.05 283.12 279.38 276.68 C 277.88 268.97 280.49 261.00 284.45 254.41 C 289.41 246.00 298.00 240.04 307.38 237.59 Z" />
<path fill="#7a3ca8" opacity="1.00" d=" M 413.36 237.48 C 417.88 236.90 422.49 236.82 427.05 237.17 C 444.71 239.80 459.18 257.05 457.92 275.00 C 457.43 282.45 447.42 285.83 442.19 280.85 C 437.84 277.03 439.65 270.57 437.20 265.82 C 433.99 259.10 426.35 255.02 418.98 255.93 C 411.46 256.58 404.45 262.58 403.41 270.19 C 402.72 273.84 402.87 278.18 399.80 280.83 C 394.83 285.50 385.22 282.92 384.15 275.89 C 382.19 258.16 396.09 240.83 413.36 237.48 Z" />
<path fill="#7a3ca8" opacity="1.00" d=" M 153.34 282.43 C 162.86 281.13 172.91 283.51 180.56 289.40 C 189.63 296.00 195.21 306.88 195.84 318.02 C 196.50 335.55 183.19 352.53 165.86 355.67 C 160.47 356.34 154.93 356.42 149.60 355.32 C 136.89 352.17 126.39 341.71 122.82 329.15 C 118.46 314.34 124.80 297.16 137.66 288.64 C 142.32 285.42 147.71 283.21 153.34 282.43 M 155.34 301.60 C 148.17 302.74 141.89 308.73 140.88 315.99 C 140.19 320.82 140.95 326.07 143.99 330.02 C 149.97 338.25 163.20 339.72 170.69 332.72 C 177.74 326.75 178.64 315.28 172.87 308.14 C 168.88 302.80 161.79 300.57 155.34 301.60 Z" />
<path fill="#7a3ca8" opacity="1.00" d=" M 258.35 282.41 C 266.20 281.43 274.44 282.64 281.32 286.68 C 292.30 292.66 299.81 304.51 300.70 316.95 C 301.88 334.52 288.95 351.93 271.65 355.53 C 263.76 356.84 255.29 356.57 248.01 352.97 C 232.22 345.80 222.42 326.43 227.70 309.63 C 231.42 295.66 243.95 284.26 258.35 282.41 M 260.21 301.67 C 253.08 302.83 246.76 308.70 245.85 315.99 C 244.30 323.74 248.32 332.19 255.59 335.46 C 262.25 338.73 270.85 337.32 276.16 332.16 C 283.33 325.49 283.27 312.59 275.93 306.07 C 271.78 302.18 265.74 300.72 260.21 301.67 Z" />
<path fill="#7a3ca8" opacity="1.00" d=" M 363.34 282.42 C 371.67 281.38 380.49 282.77 387.57 287.46 C 398.51 294.00 405.37 306.34 405.86 318.99 C 405.52 332.43 397.96 345.63 385.96 351.96 C 378.04 356.57 368.41 357.03 359.59 355.34 C 342.34 351.30 329.70 333.63 331.37 316.00 C 332.87 299.33 346.61 284.50 363.34 282.42 M 365.24 301.65 C 356.32 302.83 349.56 311.59 350.56 320.52 C 350.63 332.64 365.02 340.81 375.74 335.78 C 385.38 332.05 389.17 319.51 384.41 310.63 C 380.85 303.86 372.67 300.30 365.24 301.65 Z" />
<path fill="#7a3ca8" opacity="1.00" d=" M 467.40 282.54 C 476.97 281.01 487.17 283.24 494.99 289.05 C 508.27 298.36 514.24 316.97 508.18 332.13 C 503.74 343.81 493.20 353.30 480.83 355.65 C 473.18 356.64 465.00 356.59 457.97 353.02 C 442.09 345.86 432.30 326.50 437.58 309.60 C 441.24 295.86 453.31 284.74 467.40 282.54 M 470.21 301.65 C 463.29 302.60 457.36 308.17 455.86 314.97 C 454.11 321.98 456.92 330.01 463.01 334.04 C 469.89 338.99 480.08 337.94 486.15 332.16 C 493.23 325.45 493.16 312.66 485.84 306.15 C 481.75 302.19 475.75 300.67 470.21 301.65 Z" />
<path fill="#7a3ca8" opacity="1.00" d=" M 108.72 376.78 C 111.77 366.31 121.90 358.05 132.94 358.01 C 148.62 357.93 164.31 358.05 179.99 357.96 C 185.65 357.68 191.54 358.36 196.41 361.50 C 207.07 367.42 211.74 380.84 209.35 392.44 C 208.29 396.59 204.41 400.12 200.00 399.99 C 195.86 400.04 192.08 396.95 190.92 393.05 C 189.79 388.94 191.01 384.49 189.59 380.46 C 187.70 377.10 183.44 377.05 180.08 377.00 C 165.71 376.98 151.33 377.04 136.96 376.96 C 134.03 377.09 130.48 376.87 128.40 379.36 C 126.51 381.41 126.79 384.41 126.64 386.99 C 126.71 401.67 126.70 416.34 126.64 431.01 C 126.81 433.77 126.49 437.17 128.86 439.13 C 132.19 441.29 136.93 441.13 139.38 444.61 C 142.09 447.75 142.12 452.07 142.04 455.99 C 141.82 470.35 142.18 484.71 141.87 499.06 C 141.99 501.96 140.77 505.50 143.03 507.88 C 145.23 510.46 148.94 510.11 151.99 510.25 C 157.99 510.11 164.00 510.54 169.98 509.97 C 172.75 509.80 175.23 507.60 175.57 504.82 C 176.16 500.57 175.77 496.27 175.83 492.00 C 175.87 478.32 175.76 464.63 175.85 450.95 C 175.69 447.08 177.81 442.97 181.67 441.80 C 184.75 440.48 189.60 440.08 190.07 435.92 C 191.00 428.11 189.76 420.20 190.56 412.38 C 191.11 406.20 198.57 401.97 204.11 404.91 C 208.58 407.06 210.17 412.31 209.87 416.95 C 209.47 426.99 211.47 437.93 206.02 447.01 C 203.72 451.63 199.30 454.41 195.39 457.48 C 194.98 458.93 194.98 460.45 194.94 461.95 C 195.01 475.65 195.04 489.35 194.98 503.05 C 194.92 514.53 186.82 525.53 175.65 528.47 C 169.83 529.55 163.87 528.83 157.99 529.00 C 152.73 528.89 147.41 529.43 142.18 528.60 C 130.72 526.03 122.11 514.74 122.34 503.04 C 122.38 489.01 122.37 474.98 122.40 460.95 C 122.81 458.54 121.30 456.76 119.35 455.63 C 112.51 451.19 107.75 443.30 107.96 435.05 C 108.01 419.70 108.03 404.35 107.97 389.00 C 108.01 384.93 107.65 380.76 108.72 376.78 Z" />
<path fill="#7a3ca8" opacity="1.00" d=" M 213.95 375.95 C 217.35 365.90 227.16 358.06 237.94 358.04 C 254.64 357.95 271.35 358.02 288.06 358.01 C 302.00 357.40 314.79 370.17 314.43 384.06 C 314.19 398.37 314.38 412.68 314.31 427.00 C 314.20 431.53 315.09 436.21 313.66 440.62 C 311.98 445.94 308.99 451.04 304.40 454.35 C 302.93 455.61 301.01 456.49 300.02 458.21 C 299.12 463.15 300.97 469.14 297.06 473.14 C 292.67 478.36 283.08 476.33 281.30 469.70 C 280.35 463.51 280.90 457.19 280.86 450.96 C 280.62 447.03 282.88 443.01 286.71 441.77 C 289.94 440.47 294.93 439.90 295.21 435.51 C 294.88 420.69 294.99 405.83 295.03 391.00 C 294.89 387.52 295.99 383.83 294.64 380.50 C 292.79 377.09 288.44 377.09 285.08 376.99 C 270.70 376.99 256.33 377.03 241.96 376.97 C 239.02 377.12 235.50 376.88 233.32 379.25 C 231.57 381.01 231.88 383.70 231.74 385.97 C 231.82 401.32 231.81 416.68 231.74 432.03 C 231.89 434.48 231.55 437.60 233.82 439.22 C 237.17 441.33 241.88 441.21 244.35 444.67 C 246.53 447.26 246.32 450.82 246.39 454.00 C 246.25 469.68 246.44 485.37 246.27 501.05 C 246.35 503.41 246.15 506.17 248.01 507.96 C 250.20 510.59 253.93 510.15 257.00 510.28 C 262.99 510.12 269.00 510.57 274.97 510.00 C 277.77 509.89 280.06 507.64 280.41 504.90 C 281.42 498.66 280.34 492.29 281.03 486.02 C 281.50 481.33 286.22 477.48 290.93 478.02 C 295.59 478.27 299.41 482.61 299.63 487.18 C 299.93 493.04 299.82 498.93 299.63 504.80 C 299.20 514.65 292.52 523.76 283.44 527.48 C 279.23 529.38 274.50 529.02 269.99 529.04 C 263.64 528.89 257.28 529.16 250.93 528.98 C 243.02 528.81 235.85 523.85 231.57 517.41 C 228.14 512.32 226.92 506.08 227.00 500.01 C 227.08 487.67 226.94 475.32 227.11 462.98 C 227.08 461.13 227.16 459.25 226.66 457.47 C 224.21 455.21 221.21 453.59 219.03 451.03 C 214.45 445.86 212.34 438.88 212.36 432.04 C 212.33 418.03 212.43 404.01 212.33 390.00 C 212.29 385.28 212.36 380.45 213.95 375.95 Z" />
<path fill="#7a3ca8" opacity="1.00" d=" M 317.55 381.72 C 318.75 369.13 330.11 358.04 342.93 358.04 C 357.95 357.90 372.97 358.09 387.99 357.97 C 391.75 357.98 395.57 357.85 399.26 358.68 C 406.73 360.33 413.06 365.76 416.56 372.46 C 419.06 377.21 419.72 382.67 419.66 387.96 C 419.57 402.66 419.67 417.35 419.62 432.04 C 419.61 439.10 417.41 446.34 412.49 451.55 C 410.38 453.83 407.61 455.37 405.34 457.47 C 404.47 461.58 405.08 465.83 404.97 470.00 C 404.90 481.01 405.10 492.02 404.90 503.03 C 404.70 514.48 396.66 525.54 385.44 528.42 C 380.04 529.53 374.47 528.87 369.00 529.00 C 363.39 528.86 357.74 529.47 352.18 528.60 C 342.48 526.30 334.51 517.90 332.76 508.07 C 332.19 504.74 332.24 501.35 332.23 498.00 C 332.31 486.32 332.19 474.65 332.33 462.98 C 332.31 460.48 332.61 457.38 329.95 456.09 C 323.14 451.77 318.31 444.34 317.55 436.28 C 317.77 418.10 317.76 399.90 317.55 381.72 M 341.15 377.60 C 338.38 378.21 336.45 380.93 336.70 383.74 C 337.27 400.98 337.04 418.27 336.78 435.51 C 337.19 440.52 343.15 440.51 346.61 442.38 C 350.10 444.18 351.38 448.26 351.18 451.96 C 351.20 468.30 351.11 484.65 351.19 500.99 C 351.17 504.24 351.69 508.48 355.32 509.64 C 361.45 510.90 367.78 509.99 374.00 510.29 C 377.37 510.10 381.56 510.85 384.05 507.99 C 385.83 506.16 385.63 503.41 385.73 501.06 C 385.57 485.37 385.75 469.69 385.61 454.00 C 385.69 450.84 385.44 447.26 387.66 444.70 C 390.16 441.27 394.82 441.32 398.19 439.22 C 400.43 437.58 400.11 434.48 400.26 432.03 C 400.20 416.68 400.19 401.32 400.27 385.97 C 400.12 383.70 400.42 381.02 398.69 379.25 C 396.50 376.87 392.97 377.13 390.03 376.97 C 376.35 377.01 362.66 377.03 348.98 376.97 C 346.36 377.02 343.70 376.94 341.15 377.60 Z" />
<path fill="#7a3ca8" opacity="1.00" d=" M 427.61 368.57 C 432.50 361.89 440.67 357.78 448.96 357.98 C 465.32 358.02 481.69 358.00 498.06 357.99 C 511.85 357.42 524.88 370.06 524.05 383.98 C 523.96 398.32 524.01 412.66 524.01 427.00 C 523.95 431.48 524.38 436.04 523.48 440.47 C 522.09 446.16 518.67 451.40 513.84 454.75 C 512.16 456.21 509.33 457.29 509.65 459.97 C 509.54 474.64 509.71 489.32 509.63 504.00 C 509.54 513.62 503.44 522.71 494.82 526.85 C 489.04 529.94 482.29 528.86 476.01 529.00 C 469.72 528.81 463.40 529.48 457.16 528.64 C 445.61 526.06 437.04 514.82 437.02 503.06 C 436.96 489.36 436.98 475.65 437.06 461.95 C 437.01 460.45 437.02 458.93 436.62 457.48 C 433.54 454.87 429.84 452.89 427.55 449.46 C 421.79 441.74 421.48 431.53 422.48 422.34 C 423.28 416.23 430.47 411.89 436.09 414.92 C 440.21 416.88 442.01 421.60 441.67 425.95 C 441.82 429.81 441.11 433.84 442.40 437.56 C 444.95 441.58 450.93 440.51 453.87 444.13 C 456.09 446.50 456.20 449.91 456.22 452.98 C 456.14 469.34 456.17 485.72 456.16 502.08 C 455.90 505.40 457.65 509.12 461.16 509.81 C 467.06 510.67 473.06 510.03 479.00 510.25 C 482.35 510.06 486.51 510.72 488.96 507.86 C 491.18 505.46 490.02 501.96 490.12 499.05 C 489.82 484.70 490.18 470.34 489.96 455.99 C 489.88 452.07 489.91 447.75 492.62 444.61 C 495.07 441.13 499.81 441.28 503.15 439.14 C 505.45 437.14 505.17 433.76 505.35 431.01 C 505.30 416.33 505.29 401.66 505.35 386.98 C 505.21 384.20 505.41 380.87 503.13 378.85 C 500.94 376.88 497.77 377.10 495.04 376.97 C 480.33 377.06 465.62 376.94 450.91 377.02 C 447.62 377.01 443.35 377.64 442.12 381.22 C 440.55 388.63 442.92 396.42 440.84 403.74 C 438.88 409.92 430.13 412.17 425.61 407.43 C 420.76 402.98 422.42 395.83 422.12 390.01 C 421.82 382.54 422.96 374.65 427.61 368.57 Z" />
</g>
<g id="#ffffffff">
<path fill="#ffffff" opacity="1.00" d=" M 311.16 72.12 C 314.12 70.48 316.88 68.38 320.11 67.29 C 323.21 67.92 325.73 70.04 328.46 71.51 C 409.07 117.89 489.44 164.67 570.14 210.89 C 574.41 213.63 579.17 215.61 583.22 218.69 C 584.06 221.01 583.66 223.57 583.74 226.00 C 584.16 268.33 583.83 310.67 583.96 353.00 C 583.95 408.36 583.90 463.71 583.98 519.07 C 583.89 520.51 583.89 522.02 583.37 523.41 C 581.20 525.34 578.51 526.56 576.01 528.00 C 494.59 574.86 413.26 621.88 331.93 668.90 C 328.48 670.80 325.25 673.13 321.59 674.62 C 320.07 675.40 318.53 674.40 317.18 673.77 C 233.79 625.50 150.19 577.61 66.91 529.15 C 63.77 527.27 60.34 525.81 57.46 523.52 C 56.55 520.43 56.89 517.16 56.84 514.00 C 57.13 417.32 57.07 320.65 56.83 223.97 C 57.10 222.07 56.44 219.44 58.12 218.11 C 142.50 169.51 226.74 120.65 311.16 72.12 M 312.36 145.34 C 294.12 146.82 278.61 163.70 278.96 182.03 C 278.84 186.15 281.66 190.02 285.46 191.47 C 289.95 192.98 295.34 190.56 297.05 186.11 C 298.29 182.38 297.99 178.27 299.60 174.64 C 303.46 166.10 314.71 161.35 323.27 165.79 C 329.77 168.44 333.85 175.06 334.05 181.98 C 333.99 187.65 339.13 192.79 344.91 191.83 C 349.53 191.19 353.16 186.65 353.04 182.03 C 353.20 170.89 347.52 160.03 338.87 153.14 C 331.58 147.08 321.70 144.56 312.36 145.34 M 260.35 191.32 C 245.14 192.47 231.65 203.96 227.72 218.63 C 226.50 223.52 224.69 229.39 228.19 233.78 C 231.17 238.49 238.41 239.36 242.35 235.39 C 247.13 230.72 244.47 222.84 248.79 217.83 C 255.40 208.02 271.61 208.03 278.24 217.80 C 282.70 222.79 279.75 230.70 284.69 235.35 C 288.14 239.02 294.64 238.68 297.93 234.97 C 301.35 231.58 300.45 226.29 299.99 221.99 C 297.24 203.60 278.88 189.33 260.35 191.32 M 365.35 191.31 C 353.02 192.38 341.53 199.94 335.81 210.93 C 332.72 216.92 330.33 223.80 331.59 230.61 C 332.93 236.78 341.08 240.24 346.21 236.25 C 349.80 233.89 350.49 229.45 350.82 225.50 C 351.33 219.28 355.94 213.94 361.63 211.68 C 368.92 209.00 378.02 210.83 382.77 217.26 C 386.09 221.00 385.99 226.22 387.04 230.83 C 387.84 234.93 391.86 237.98 395.99 237.93 C 401.57 238.08 406.28 232.53 405.83 227.09 C 404.95 215.78 399.34 204.59 389.87 198.09 C 382.88 192.97 373.93 190.73 365.35 191.31 M 205.33 237.27 C 187.06 239.29 172.09 257.54 174.13 275.89 C 175.16 282.60 184.20 285.57 189.25 281.27 C 192.68 278.65 192.72 274.04 193.38 270.17 C 194.08 264.21 198.67 259.29 204.10 257.10 C 212.09 253.72 222.12 257.11 226.47 264.60 C 228.81 268.47 228.49 273.15 229.72 277.36 C 231.51 282.65 238.35 284.75 243.10 282.13 C 246.29 280.33 248.22 276.67 248.03 273.02 C 247.85 260.51 240.60 248.52 229.98 242.03 C 222.76 237.33 213.73 236.29 205.33 237.27 M 307.38 237.59 C 298.00 240.04 289.41 246.00 284.45 254.41 C 280.49 261.00 277.88 268.97 279.38 276.68 C 281.05 283.12 290.13 285.47 294.82 280.84 C 298.04 277.99 297.69 273.36 298.59 269.52 C 300.02 261.50 308.01 255.68 316.00 255.78 C 323.99 255.68 331.98 261.49 333.41 269.52 C 334.28 273.15 333.95 277.41 336.67 280.32 C 340.26 284.49 347.54 284.15 350.89 279.87 C 353.49 276.92 353.20 272.69 352.85 269.05 C 351.25 257.50 344.08 246.71 333.72 241.23 C 325.86 236.55 316.19 235.97 307.38 237.59 M 413.36 237.48 C 396.09 240.83 382.19 258.16 384.15 275.89 C 385.22 282.92 394.83 285.50 399.80 280.83 C 402.87 278.18 402.72 273.84 403.41 270.19 C 404.45 262.58 411.46 256.58 418.98 255.93 C 426.35 255.02 433.99 259.10 437.20 265.82 C 439.65 270.57 437.84 277.03 442.19 280.85 C 447.42 285.83 457.43 282.45 457.92 275.00 C 459.18 257.05 444.71 239.80 427.05 237.17 C 422.49 236.82 417.88 236.90 413.36 237.48 M 153.34 282.43 C 147.71 283.21 142.32 285.42 137.66 288.64 C 124.80 297.16 118.46 314.34 122.82 329.15 C 126.39 341.71 136.89 352.17 149.60 355.32 C 154.93 356.42 160.47 356.34 165.86 355.67 C 183.19 352.53 196.50 335.55 195.84 318.02 C 195.21 306.88 189.63 296.00 180.56 289.40 C 172.91 283.51 162.86 281.13 153.34 282.43 M 258.35 282.41 C 243.95 284.26 231.42 295.66 227.70 309.63 C 222.42 326.43 232.22 345.80 248.01 352.97 C 255.29 356.57 263.76 356.84 271.65 355.53 C 288.95 351.93 301.88 334.52 300.70 316.95 C 299.81 304.51 292.30 292.66 281.32 286.68 C 274.44 282.64 266.20 281.43 258.35 282.41 M 363.34 282.42 C 346.61 284.50 332.87 299.33 331.37 316.00 C 329.70 333.63 342.34 351.30 359.59 355.34 C 368.41 357.03 378.04 356.57 385.96 351.96 C 397.96 345.63 405.52 332.43 405.86 318.99 C 405.37 306.34 398.51 294.00 387.57 287.46 C 380.49 282.77 371.67 281.38 363.34 282.42 M 467.40 282.54 C 453.31 284.74 441.24 295.86 437.58 309.60 C 432.30 326.50 442.09 345.86 457.97 353.02 C 465.00 356.59 473.18 356.64 480.83 355.65 C 493.20 353.30 503.74 343.81 508.18 332.13 C 514.24 316.97 508.27 298.36 494.99 289.05 C 487.17 283.24 476.97 281.01 467.40 282.54 M 108.72 376.78 C 107.65 380.76 108.01 384.93 107.97 389.00 C 108.03 404.35 108.01 419.70 107.96 435.05 C 107.75 443.30 112.51 451.19 119.35 455.63 C 121.30 456.76 122.81 458.54 122.40 460.95 C 122.37 474.98 122.38 489.01 122.34 503.04 C 122.11 514.74 130.72 526.03 142.18 528.60 C 147.41 529.43 152.73 528.89 157.99 529.00 C 163.87 528.83 169.83 529.55 175.65 528.47 C 186.82 525.53 194.92 514.53 194.98 503.05 C 195.04 489.35 195.01 475.65 194.94 461.95 C 194.98 460.45 194.98 458.93 195.39 457.48 C 199.30 454.41 203.72 451.63 206.02 447.01 C 211.47 437.93 209.47 426.99 209.87 416.95 C 210.17 412.31 208.58 407.06 204.11 404.91 C 198.57 401.97 191.11 406.20 190.56 412.38 C 189.76 420.20 191.00 428.11 190.07 435.92 C 189.60 440.08 184.75 440.48 181.67 441.80 C 177.81 442.97 175.69 447.08 175.85 450.95 C 175.76 464.63 175.87 478.32 175.83 492.00 C 175.77 496.27 176.16 500.57 175.57 504.82 C 175.23 507.60 172.75 509.80 169.98 509.97 C 164.00 510.54 157.99 510.11 151.99 510.25 C 148.94 510.11 145.23 510.46 143.03 507.88 C 140.77 505.50 141.99 501.96 141.87 499.06 C 142.18 484.71 141.82 470.35 142.04 455.99 C 142.12 452.07 142.09 447.75 139.38 444.61 C 136.93 441.13 132.19 441.29 128.86 439.13 C 126.49 437.17 126.81 433.77 126.64 431.01 C 126.70 416.34 126.71 401.67 126.64 386.99 C 126.79 384.41 126.51 381.41 128.40 379.36 C 130.48 376.87 134.03 377.09 136.96 376.96 C 151.33 377.04 165.71 376.98 180.08 377.00 C 183.44 377.05 187.70 377.10 189.59 380.46 C 191.01 384.49 189.79 388.94 190.92 393.05 C 192.08 396.95 195.86 400.04 200.00 399.99 C 204.41 400.12 208.29 396.59 209.35 392.44 C 211.74 380.84 207.07 367.42 196.41 361.50 C 191.54 358.36 185.65 357.68 179.99 357.96 C 164.31 358.05 148.62 357.93 132.94 358.01 C 121.90 358.05 111.77 366.31 108.72 376.78 M 213.95 375.95 C 212.36 380.45 212.29 385.28 212.33 390.00 C 212.43 404.01 212.33 418.03 212.36 432.04 C 212.34 438.88 214.45 445.86 219.03 451.03 C 221.21 453.59 224.21 455.21 226.66 457.47 C 227.16 459.25 227.08 461.13 227.11 462.98 C 226.94 475.32 227.08 487.67 227.00 500.01 C 226.92 506.08 228.14 512.32 231.57 517.41 C 235.85 523.85 243.02 528.81 250.93 528.98 C 257.28 529.16 263.64 528.89 269.99 529.04 C 274.50 529.02 279.23 529.38 283.44 527.48 C 292.52 523.76 299.20 514.65 299.63 504.80 C 299.82 498.93 299.93 493.04 299.63 487.18 C 299.41 482.61 295.59 478.27 290.93 478.02 C 286.22 477.48 281.50 481.33 281.03 486.02 C 280.34 492.29 281.42 498.66 280.41 504.90 C 280.06 507.64 277.77 509.89 274.97 510.00 C 269.00 510.57 262.99 510.12 257.00 510.28 C 253.93 510.15 250.20 510.59 248.01 507.96 C 246.15 506.17 246.35 503.41 246.27 501.05 C 246.44 485.37 246.25 469.68 246.39 454.00 C 246.32 450.82 246.53 447.26 244.35 444.67 C 241.88 441.21 237.17 441.33 233.82 439.22 C 231.55 437.60 231.89 434.48 231.74 432.03 C 231.81 416.68 231.82 401.32 231.74 385.97 C 231.88 383.70 231.57 381.01 233.32 379.25 C 235.50 376.88 239.02 377.12 241.96 376.97 C 256.33 377.03 270.70 376.99 285.08 376.99 C 288.44 377.09 292.79 377.09 294.64 380.50 C 295.99 383.83 294.89 387.52 295.03 391.00 C 294.99 405.83 294.88 420.69 295.21 435.51 C 294.93 439.90 289.94 440.47 286.71 441.77 C 282.88 443.01 280.62 447.03 280.86 450.96 C 280.90 457.19 280.35 463.51 281.30 469.70 C 283.08 476.33 292.67 478.36 297.06 473.14 C 300.97 469.14 299.12 463.15 300.02 458.21 C 301.01 456.49 302.93 455.61 304.40 454.35 C 308.99 451.04 311.98 445.94 313.66 440.62 C 315.09 436.21 314.20 431.53 314.31 427.00 C 314.38 412.68 314.19 398.37 314.43 384.06 C 314.79 370.17 302.00 357.40 288.06 358.01 C 271.35 358.02 254.64 357.95 237.94 358.04 C 227.16 358.06 217.35 365.90 213.95 375.95 M 317.55 381.72 C 317.76 399.90 317.77 418.10 317.55 436.28 C 318.31 444.34 323.14 451.77 329.95 456.09 C 332.61 457.38 332.31 460.48 332.33 462.98 C 332.19 474.65 332.31 486.32 332.23 498.00 C 332.24 501.35 332.19 504.74 332.76 508.07 C 334.51 517.90 342.48 526.30 352.18 528.60 C 357.74 529.47 363.39 528.86 369.00 529.00 C 374.47 528.87 380.04 529.53 385.44 528.42 C 396.66 525.54 404.70 514.48 404.90 503.03 C 405.10 492.02 404.90 481.01 404.97 470.00 C 405.08 465.83 404.47 461.58 405.34 457.47 C 407.61 455.37 410.38 453.83 412.49 451.55 C 417.41 446.34 419.61 439.10 419.62 432.04 C 419.67 417.35 419.57 402.66 419.66 387.96 C 419.72 382.67 419.06 377.21 416.56 372.46 C 413.06 365.76 406.73 360.33 399.26 358.68 C 395.57 357.85 391.75 357.98 387.99 357.97 C 372.97 358.09 357.95 357.90 342.93 358.04 C 330.11 358.04 318.75 369.13 317.55 381.72 M 427.61 368.57 C 422.96 374.65 421.82 382.54 422.12 390.01 C 422.42 395.83 420.76 402.98 425.61 407.43 C 430.13 412.17 438.88 409.92 440.84 403.74 C 442.92 396.42 440.55 388.63 442.12 381.22 C 443.35 377.64 447.62 377.01 450.91 377.02 C 465.62 376.94 480.33 377.06 495.04 376.97 C 497.77 377.10 500.94 376.88 503.13 378.85 C 505.41 380.87 505.21 384.20 505.35 386.98 C 505.29 401.66 505.30 416.33 505.35 431.01 C 505.17 433.76 505.45 437.14 503.15 439.14 C 499.81 441.28 495.07 441.13 492.62 444.61 C 489.91 447.75 489.88 452.07 489.96 455.99 C 490.18 470.34 489.82 484.70 490.12 499.05 C 490.02 501.96 491.18 505.46 488.96 507.86 C 486.51 510.72 482.35 510.06 479.00 510.25 C 473.06 510.03 467.06 510.67 461.16 509.81 C 457.65 509.12 455.90 505.40 456.16 502.08 C 456.17 485.72 456.14 469.34 456.22 452.98 C 456.20 449.91 456.09 446.50 453.87 444.13 C 450.93 440.51 444.95 441.58 442.40 437.56 C 441.11 433.84 441.82 429.81 441.67 425.95 C 442.01 421.60 440.21 416.88 436.09 414.92 C 430.47 411.89 423.28 416.23 422.48 422.34 C 421.48 431.53 421.79 441.74 427.55 449.46 C 429.84 452.89 433.54 454.87 436.62 457.48 C 437.02 458.93 437.01 460.45 437.06 461.95 C 436.98 475.65 436.96 489.36 437.02 503.06 C 437.04 514.82 445.61 526.06 457.16 528.64 C 463.40 529.48 469.72 528.81 476.01 529.00 C 482.29 528.86 489.04 529.94 494.82 526.85 C 503.44 522.71 509.54 513.62 509.63 504.00 C 509.71 489.32 509.54 474.64 509.65 459.97 C 509.33 457.29 512.16 456.21 513.84 454.75 C 518.67 451.40 522.09 446.16 523.48 440.47 C 524.38 436.04 523.95 431.48 524.01 427.00 C 524.01 412.66 523.96 398.32 524.05 383.98 C 524.88 370.06 511.85 357.42 498.06 357.99 C 481.69 358.00 465.32 358.02 448.96 357.98 C 440.67 357.78 432.50 361.89 427.61 368.57 Z" />
<path fill="#ffffff" opacity="1.00" d=" M 155.34 301.60 C 161.79 300.57 168.88 302.80 172.87 308.14 C 178.64 315.28 177.74 326.75 170.69 332.72 C 163.20 339.72 149.97 338.25 143.99 330.02 C 140.95 326.07 140.19 320.82 140.88 315.99 C 141.89 308.73 148.17 302.74 155.34 301.60 Z" />
<path fill="#ffffff" opacity="1.00" d=" M 260.21 301.67 C 265.74 300.72 271.78 302.18 275.93 306.07 C 283.27 312.59 283.33 325.49 276.16 332.16 C 270.85 337.32 262.25 338.73 255.59 335.46 C 248.32 332.19 244.30 323.74 245.85 315.99 C 246.76 308.70 253.08 302.83 260.21 301.67 Z" />
<path fill="#ffffff" opacity="1.00" d=" M 365.24 301.65 C 372.67 300.30 380.85 303.86 384.41 310.63 C 389.17 319.51 385.38 332.05 375.74 335.78 C 365.02 340.81 350.63 332.64 350.56 320.52 C 349.56 311.59 356.32 302.83 365.24 301.65 Z" />
<path fill="#ffffff" opacity="1.00" d=" M 470.21 301.65 C 475.75 300.67 481.75 302.19 485.84 306.15 C 493.16 312.66 493.23 325.45 486.15 332.16 C 480.08 337.94 469.89 338.99 463.01 334.04 C 456.92 330.01 454.11 321.98 455.86 314.97 C 457.36 308.17 463.29 302.60 470.21 301.65 Z" />
<path fill="#ffffff" opacity="1.00" d=" M 341.15 377.60 C 343.70 376.94 346.36 377.02 348.98 376.97 C 362.66 377.03 376.35 377.01 390.03 376.97 C 392.97 377.13 396.50 376.87 398.69 379.25 C 400.42 381.02 400.12 383.70 400.27 385.97 C 400.19 401.32 400.20 416.68 400.26 432.03 C 400.11 434.48 400.43 437.58 398.19 439.22 C 394.82 441.32 390.16 441.27 387.66 444.70 C 385.44 447.26 385.69 450.84 385.61 454.00 C 385.75 469.69 385.57 485.37 385.73 501.06 C 385.63 503.41 385.83 506.16 384.05 507.99 C 381.56 510.85 377.37 510.10 374.00 510.29 C 367.78 509.99 361.45 510.90 355.32 509.64 C 351.69 508.48 351.17 504.24 351.19 500.99 C 351.11 484.65 351.20 468.30 351.18 451.96 C 351.38 448.26 350.10 444.18 346.61 442.38 C 343.15 440.51 337.19 440.52 336.78 435.51 C 337.04 418.27 337.27 400.98 336.70 383.74 C 336.45 380.93 338.38 378.21 341.15 377.60 Z" />
</g>
</svg>
